<?xml version="1.0"?>
<svg version="1.1" xmlns="http://www.w3.org/2000/svg" xmlns:xlink="http://www.w3.org/1999/xlink" width="200" height="202">
    <desc iVinci="yes" version="4.6" gridStep="20" showGrid="no" snapToGrid="no" codePlatform="0"/>
    <g id="Layer1" name="Layer 1" opacity="1">
        <g id="Shape1">
            <desc shapeID="1" type="0" basicInfo-basicType="0" basicInfo-roundedRectRadius="12" basicInfo-polygonSides="6" basicInfo-starPoints="5" bounding="rect(-78.5734,-34.597,157.147,69.1941)" text="" font-familyName="" font-pixelSize="20" font-bold="0" font-underline="0" font-alignment="1" strokeStyle="0" markerStart="0" markerEnd="0" shadowEnabled="0" shadowOffsetX="0" shadowOffsetY="2" shadowBlur="4" shadowOpacity="160" blurEnabled="0" blurRadius="4" transform="matrix(1,0,0,1,120.702,34.597)" pers-center="0,0" pers-size="0,0" pers-start="0,0" pers-end="0,0" locked="0" mesh="" flag=""/>
            <path id="shapePath1" d="M91.3463,39.4359 C89.6463,39.8359 87.9463,40.3359 86.1463,40.7359 C85.6463,40.8359 85.1463,40.9359 84.6463,41.0359 C82.4463,41.1359 80.3463,41.2359 78.1463,41.3359 C76.8463,41.3359 75.6463,41.2359 74.3463,41.1359 C73.4463,41.1359 72.5463,41.1359 71.6463,41.1359 C71.7463,41.2359 71.8463,41.3359 71.8463,41.4359 C70.5463,42.5359 69.2463,43.6359 68.1463,44.8359 C65.8463,47.2359 63.6463,49.7359 61.4463,52.1359 C60.2463,53.4359 58.7463,54.4359 56.9463,54.836 C55.2463,55.2359 53.2463,54.1359 53.2463,51.9359 C53.2463,50.3359 53.6463,48.7359 53.9463,47.1359 C54.4463,44.7359 55.0463,42.3359 55.5463,39.9359 C55.6463,39.4359 55.6463,39.0359 55.7463,38.7359 C53.3463,37.6359 50.9463,36.6359 48.8463,35.4359 C44.6463,33.1359 42.3463,29.4359 42.1463,24.5359 C42.0463,21.0359 42.3463,17.4359 43.5463,14.1359 C44.6463,10.9359 46.5463,8.23595 49.0463,5.93594 C49.8463,5.23595 50.7463,4.53593 51.5463,3.83594 C53.8463,2.03593 56.4463,1.33594 59.2463,0.935944 C61.5463,0.635941 63.9463,0.235947 66.2463,0.0359344 C68.7463,-0.164062 71.0463,0.535934 73.4463,0.535934 C74.2463,0.535934 75.0463,0.735947 75.8463,0.735947 C80.5463,0.535934 85.2463,1.13594 89.7463,2.43594 C91.1463,2.83594 92.5463,3.73595 93.8463,4.43594 C94.7463,4.93594 95.5463,5.43594 96.4463,6.03593 C100.546,2.73595 105.446,2.43594 110.346,2.03593 C114.146,1.73595 117.946,2.33594 121.646,2.83594 C124.546,3.13594 127.546,3.53593 130.446,3.93594 C133.946,4.53593 137.446,5.33594 140.546,7.33594 C142.246,8.43594 143.546,10.0359 144.846,11.5359 C145.846,12.6359 146.546,13.9359 147.446,15.1359 C149.546,14.2359 151.646,13.2359 153.846,12.4359 C156.246,11.5359 158.646,10.7359 161.146,10.5359 C166.746,10.1359 172.446,9.83594 177.946,11.2359 C180.146,11.8359 182.346,12.8359 184.346,13.8359 C187.846,15.5359 191.046,17.7359 193.746,20.6359 C195.546,22.6359 196.746,25.0359 197.546,27.5359 C198.246,29.6359 198.646,31.8359 199.146,33.9359 C199.146,34.1359 199.246,34.3359 199.246,34.5359 C199.146,37.5359 199.346,40.6359 199.246,43.6359 C199.146,45.6359 198.246,47.5359 197.146,49.2359 C194.546,53.336 190.746,54.9359 186.046,54.7359 C185.246,54.7359 184.446,54.7359 183.546,54.7359 C183.146,56.836 182.846,58.7359 182.446,60.7359 C182.146,62.7359 181.846,64.6359 181.546,66.6359 C181.346,68.1359 180.246,68.836 178.946,69.1359 C177.846,69.4359 176.146,68.5359 175.546,67.336 C173.346,63.336 171.146,59.336 168.946,55.336 C168.646,54.836 168.446,54.336 168.046,53.7359 C166.246,53.6359 164.346,53.4359 162.546,53.336 C158.646,53.2359 154.846,52.7359 151.146,51.9359 C148.946,51.4359 146.746,50.4359 144.446,49.6359 C144.446,49.6359 144.246,49.7359 144.146,49.9359 C142.746,52.0359 140.546,52.836 138.146,53.0359 C134.946,53.336 131.746,53.0359 128.546,52.336 C127.946,52.2359 127.446,52.1359 126.646,52.0359 C125.546,53.836 124.546,55.6359 123.446,57.4359 C122.746,58.5359 122.046,59.6359 121.346,60.836 C120.746,61.836 119.846,62.336 118.846,62.7359 C117.546,63.2359 115.946,62.836 115.246,61.5359 C114.746,60.5359 114.346,59.5359 114.246,58.4359 C113.746,55.5359 112.946,52.836 111.946,50.0359 C111.646,49.2359 111.246,48.8359 110.446,49.0359 C108.446,49.4359 106.446,48.9359 104.546,48.3359 C100.746,47.1359 96.8463,45.9359 93.9463,43.0359 C93.0463,41.7359 92.3463,40.6359 91.3463,39.4359 M176.846,56.9359 C177.146,55.6359 177.446,54.6359 177.646,53.5359 C177.846,52.836 177.946,52.0359 177.846,51.2359 C177.746,50.2359 178.146,49.5359 178.846,48.9359 C179.946,48.1359 181.246,47.9359 182.546,48.0359 C183.846,48.0359 185.146,48.1359 186.546,48.0359 C188.046,48.0359 189.546,47.6359 190.546,46.4359 C191.546,45.2359 192.446,43.9359 192.646,42.4359 C192.746,41.0359 192.746,39.5359 192.646,38.0359 C192.446,34.5359 191.346,31.2359 190.246,28.0359 C189.746,26.5359 188.846,25.1359 187.646,23.9359 C185.346,21.8359 182.646,20.2359 179.846,18.9359 C178.146,18.1359 176.446,17.3359 174.746,16.9359 C170.046,15.9359 165.246,15.8359 160.446,16.5359 C159.046,16.7359 157.646,17.0359 156.346,17.5359 C154.346,18.4359 152.246,19.5359 150.446,20.8359 C147.846,22.7359 145.846,25.1359 144.846,28.3359 C143.846,31.6359 143.646,35.0359 143.946,38.5359 C144.146,40.8359 145.546,42.5359 147.446,43.5359 C149.146,44.4359 151.146,45.0359 153.146,45.4359 C156.446,46.0359 159.746,46.3359 163.046,46.6359 C165.146,46.8359 167.246,46.8359 169.346,46.6359 C170.946,46.5359 172.346,47.2359 172.846,48.7359 C173.746,51.6359 175.346,54.1359 176.846,56.9359 M119.446,51.1359 C120.146,49.9359 120.846,49.0359 121.246,48.0359 C122.146,46.0359 125.446,44.1359 127.746,45.0359 C128.046,45.1359 128.446,45.2359 128.846,45.2359 C131.646,45.8359 134.346,46.4359 137.246,46.1359 C138.446,46.0359 139.346,45.6359 140.046,44.5359 C137.946,41.6359 137.246,38.4359 137.346,34.9359 C137.446,30.3359 138.346,25.9359 140.646,21.9359 C141.346,20.7359 141.946,19.6359 140.946,18.4359 C140.846,18.3359 140.946,18.1359 140.846,17.9359 C140.646,15.9359 139.346,14.5359 137.846,13.5359 C136.046,12.2359 134.046,11.3359 131.846,10.9359 C129.946,10.6359 128.146,10.2359 126.246,9.93594 C122.246,9.43594 118.346,8.83594 114.346,8.43594 C111.046,8.03593 107.846,8.33594 104.546,8.73595 C103.446,8.83594 102.146,9.03593 101.346,9.83594 C102.246,11.6359 103.146,13.3359 103.846,15.0359 C104.746,17.4359 105.346,19.8359 105.046,22.4359 C104.646,25.4359 103.346,28.1359 102.146,30.9359 C101.946,31.3359 101.746,31.6359 101.446,31.9359 C100.146,33.5359 98.7463,35.1359 97.4463,36.8359 C98.2463,38.0359 100.046,39.5359 101.646,40.2359 C105.546,41.8359 109.546,42.8359 113.746,42.6359 C115.946,42.5359 116.846,43.2359 117.646,45.3359 C118.046,47.2359 118.746,48.9359 119.446,51.1359 M62.1463,41.3359 C62.9463,40.6359 63.8463,40.0359 64.5463,39.2359 C65.4463,38.3359 66.3463,37.3359 67.2463,36.3359 C68.5463,34.9359 69.9463,33.9359 71.9463,34.5359 C72.3463,34.6359 72.8463,34.6359 73.3463,34.5359 C76.3463,34.4359 79.3463,34.3359 82.3463,34.3359 C84.6463,34.3359 86.9463,34.4359 89.2463,33.7359 C90.7463,33.3359 92.1463,32.8359 93.3463,31.7359 C95.3463,29.8359 96.7463,27.4359 97.4463,24.7359 C97.9463,22.8359 98.6463,20.9359 98.0463,18.8359 C97.4463,16.7359 96.9463,14.6359 95.3463,13.2359 C92.2463,10.4359 88.7463,8.23595 84.6463,7.53593 C82.2463,7.13594 79.7463,6.93594 77.2463,6.73595 C74.7463,6.53593 72.2463,6.53593 69.6463,6.23595 C68.4463,6.13594 67.1463,6.03593 66.1463,5.43594 C64.7463,4.53593 63.3463,4.63594 61.9463,5.03593 C61.4463,5.23595 60.9463,5.33594 60.4463,5.33594 C58.8463,5.53593 57.5463,6.13594 56.3463,7.23595 C55.1463,8.43594 53.8463,9.63594 52.7463,11.0359 C51.7463,12.3359 50.7463,13.6359 50.1463,15.1359 C48.9463,18.2359 48.7463,21.5359 48.7463,24.7359 C48.7463,25.1359 48.8463,25.5359 48.9463,25.9359 C49.6463,28.1359 51.3463,29.6359 53.3463,30.7359 C55.4463,31.8359 57.6463,32.4359 59.9463,32.5359 C62.0463,32.6359 63.2463,34.1359 62.9463,36.2359 C62.8463,36.7359 62.7463,37.1359 62.6463,37.6359 C62.5463,39.1359 62.3463,40.2359 62.1463,41.3359 Z" style="stroke:none;fill-rule:nonzero;fill:#000000;fill-opacity:1;"/>
        </g>
        <g id="Shape2">
            <desc shapeID="2" type="0" basicInfo-basicType="0" basicInfo-roundedRectRadius="12" basicInfo-polygonSides="6" basicInfo-starPoints="5" bounding="rect(-9.84745,-8.19135,19.6949,16.3827)" text="" font-familyName="" font-pixelSize="20" font-bold="0" font-underline="0" font-alignment="1" strokeStyle="0" markerStart="0" markerEnd="0" shadowEnabled="0" shadowOffsetX="0" shadowOffsetY="2" shadowBlur="4" shadowOpacity="160" blurEnabled="0" blurRadius="4" transform="matrix(1,0,0,1,96.9169,126.127)" pers-center="0,0" pers-size="0,0" pers-start="0,0" pers-end="0,0" locked="0" mesh="" flag=""/>
            <path id="shapePath2" d="M93.7463,117.936 C96.4463,118.236 98.8463,118.636 101.146,119.736 C101.946,120.136 102.946,120.436 103.846,120.536 C105.646,120.636 106.046,122.036 106.546,123.336 C106.946,124.736 106.746,126.136 106.346,127.536 C105.746,129.636 104.946,131.436 102.946,132.636 C101.746,133.336 100.546,133.836 99.1463,134.136 C95.8463,134.836 93.3463,133.436 90.9463,131.436 C90.0463,130.636 89.2463,129.836 88.5463,128.936 C85.8463,124.836 86.9463,120.936 91.0463,118.436 C91.9463,118.036 93.0463,118.136 93.7463,117.936 M100.446,125.136 C100.446,123.336 100.446,123.336 99.1463,122.836 C97.8463,122.436 96.5463,122.436 95.2463,122.836 C93.5463,123.336 93.1463,124.936 94.5463,126.036 C95.4463,126.836 96.5463,127.336 97.5463,127.936 C97.7463,128.036 98.0463,128.036 98.3463,128.036 C99.5463,127.736 100.446,126.436 100.446,125.136 Z" style="stroke:none;fill-rule:nonzero;fill:#000000;fill-opacity:1;"/>
        </g>
        <g id="Shape3">
            <desc shapeID="3" type="0" basicInfo-basicType="0" basicInfo-roundedRectRadius="12" basicInfo-polygonSides="6" basicInfo-starPoints="5" bounding="rect(-8.33917,-9.35267,16.6783,18.7053)" text="" font-familyName="" font-pixelSize="20" font-bold="0" font-underline="0" font-alignment="1" strokeStyle="0" markerStart="0" markerEnd="0" shadowEnabled="0" shadowOffsetX="0" shadowOffsetY="2" shadowBlur="4" shadowOpacity="160" blurEnabled="0" blurRadius="4" transform="matrix(1,0,0,1,17.8855,109.661)" pers-center="0,0" pers-size="0,0" pers-start="0,0" pers-end="0,0" locked="0" mesh="" flag=""/>
            <path id="shapePath3" d="M9.54628,110.836 C9.84628,108.036 10.4463,105.336 12.1463,102.936 C13.5463,101.036 15.4463,100.136 17.9463,100.336 C19.5463,100.536 21.0463,100.836 22.3463,101.836 C22.8463,102.236 23.4463,102.836 23.5463,103.436 C23.9463,105.736 24.8463,107.736 25.7463,109.836 C26.7463,112.136 26.1463,115.136 24.2463,116.736 C22.5463,118.136 20.5463,119.336 18.0463,118.936 C15.7463,118.436 13.6463,117.536 12.1463,115.636 C11.7463,115.136 11.2463,114.536 10.8463,114.036 C9.84628,113.036 9.54628,112.036 9.54628,110.836 M19.7463,106.936 C19.1463,106.836 18.4463,106.636 17.7463,106.636 C17.4463,106.636 17.0463,106.836 16.8463,107.136 C15.7463,108.536 15.7463,110.536 16.9463,111.836 C17.7463,112.836 19.0463,113.036 19.8463,112.336 C20.7463,111.736 21.1463,109.436 20.3463,108.836 C19.7463,108.336 19.9463,107.736 19.7463,106.936 Z" style="stroke:none;fill-rule:nonzero;fill:#000000;fill-opacity:1;"/>
        </g>
        <g id="Shape4">
            <desc shapeID="4" type="0" basicInfo-basicType="0" basicInfo-roundedRectRadius="12" basicInfo-polygonSides="6" basicInfo-starPoints="5" bounding="rect(-9.32263,-7.27755,18.6453,14.5551)" text="" font-familyName="" font-pixelSize="20" font-bold="0" font-underline="0" font-alignment="1" strokeStyle="0" markerStart="0" markerEnd="0" shadowEnabled="0" shadowOffsetX="0" shadowOffsetY="2" shadowBlur="4" shadowOpacity="160" blurEnabled="0" blurRadius="4" transform="matrix(1,0,0,1,81.3129,97.9584)" pers-center="0,0" pers-size="0,0" pers-start="0,0" pers-end="0,0" locked="0" mesh="" flag=""/>
            <path id="shapePath4" d="M82.5463,105.236 C81.5463,104.936 80.5463,104.736 79.5463,104.436 C77.6463,103.736 75.6463,103.036 74.1463,101.536 C72.0463,99.4359 71.3463,96.9359 72.6463,94.1359 C73.8463,91.5359 75.8463,90.836 78.4463,90.9359 C80.2463,90.9359 82.1463,90.9359 83.9463,90.9359 C84.7463,90.9359 85.3463,90.4359 86.2463,90.836 C89.4463,92.5359 91.2463,95.0359 90.4463,98.4359 C90.0463,100.136 89.2463,101.736 88.0463,103.036 C86.6463,104.536 85.3463,105.036 82.5463,105.236 M82.0463,94.7359 C81.1463,94.9359 80.5463,95.1359 79.9463,95.1359 C79.3463,95.2359 79.0463,95.5359 78.8463,96.1359 C78.6463,96.7359 78.9463,97.2359 79.4463,97.4359 C80.5463,97.9359 81.6463,98.336 82.8463,98.6359 C83.1463,98.7359 83.5463,98.4359 83.7463,98.2359 C84.1463,97.836 84.3463,97.336 84.6463,96.836 C84.3463,96.5359 84.0463,96.336 83.8463,96.1359 C83.2463,95.5359 82.6463,95.1359 82.0463,94.7359 Z" style="stroke:none;fill-rule:nonzero;fill:#000000;fill-opacity:1;"/>
        </g>
        <g id="Shape5">
            <desc shapeID="5" type="0" basicInfo-basicType="0" basicInfo-roundedRectRadius="12" basicInfo-polygonSides="6" basicInfo-starPoints="5" bounding="rect(-8.84689,-7.81074,17.6938,15.6215)" text="" font-familyName="" font-pixelSize="20" font-bold="0" font-underline="0" font-alignment="1" strokeStyle="0" markerStart="0" markerEnd="0" shadowEnabled="0" shadowOffsetX="0" shadowOffsetY="2" shadowBlur="4" shadowOpacity="160" blurEnabled="0" blurRadius="4" transform="matrix(1,0,0,1,44.4732,139.031)" pers-center="0,0" pers-size="0,0" pers-start="0,0" pers-end="0,0" locked="0" mesh="" flag=""/>
            <path id="shapePath5" d="M46.1463,146.836 C43.4463,146.936 41.2463,145.836 39.3463,144.136 C38.7463,143.636 38.0463,143.136 37.5463,142.536 C35.6463,140.136 35.0463,137.436 36.2463,134.536 C36.7463,133.436 37.8463,132.436 38.7463,131.536 C39.0463,131.236 39.7463,131.236 40.2463,131.236 C42.9463,131.136 45.7463,131.536 48.3463,132.236 C49.8463,132.636 51.4463,133.236 52.3463,134.736 C52.6463,135.136 52.8463,135.636 53.0463,136.136 C53.8463,139.936 52.9463,143.236 49.6463,145.836 C48.5463,146.836 47.2463,146.736 46.1463,146.836 M44.1463,134.836 C43.1463,135.036 42.3463,135.336 42.2463,136.336 C42.1463,137.236 41.8463,138.236 42.7463,138.836 C43.8463,139.636 44.9463,140.436 46.3463,140.636 C48.0463,139.236 48.0463,137.836 46.3463,136.436 C45.6463,135.936 44.9463,135.436 44.1463,134.836 Z" style="stroke:none;fill-rule:nonzero;fill:#000000;fill-opacity:1;"/>
        </g>
        <g id="Shape6">
            <desc shapeID="6" type="0" basicInfo-basicType="0" basicInfo-roundedRectRadius="12" basicInfo-polygonSides="6" basicInfo-starPoints="5" bounding="rect(-8.33449,-7.86135,16.669,15.7227)" text="" font-familyName="" font-pixelSize="20" font-bold="0" font-underline="0" font-alignment="1" strokeStyle="0" markerStart="0" markerEnd="0" shadowEnabled="0" shadowOffsetX="0" shadowOffsetY="2" shadowBlur="4" shadowOpacity="160" blurEnabled="0" blurRadius="4" transform="matrix(1,0,0,1,62.6633,152.355)" pers-center="0,0" pers-size="0,0" pers-start="0,0" pers-end="0,0" locked="0" mesh="" flag=""/>
            <path id="shapePath6" d="M70.9463,150.636 C71.1463,152.936 70.3463,154.936 69.6463,156.936 C68.6463,159.336 65.2463,160.736 62.5463,160.036 C61.4463,159.736 60.3463,159.336 59.3463,158.836 C56.0463,157.336 54.6463,154.436 54.3463,151.036 C54.0463,148.136 57.6463,143.636 61.7463,144.636 C62.2463,144.736 62.8463,144.636 63.4463,144.636 C64.1463,144.636 64.9463,144.536 65.5463,145.136 C65.7463,145.336 66.2463,145.436 66.5463,145.336 C67.5463,145.136 68.1463,145.536 68.7463,146.136 C69.1463,146.636 69.6463,147.036 70.0463,147.536 C70.7463,148.436 71.1463,149.436 70.9463,150.636 M63.8463,153.736 C65.4463,151.536 65.0463,150.336 62.9463,148.636 C61.8463,149.136 60.5463,149.536 60.7463,151.036 C60.9463,152.736 62.1463,153.536 63.8463,153.736 Z" style="stroke:none;fill-rule:nonzero;fill:#000000;fill-opacity:1;"/>
        </g>
        <g id="Shape7">
            <desc shapeID="7" type="0" basicInfo-basicType="0" basicInfo-roundedRectRadius="12" basicInfo-polygonSides="6" basicInfo-starPoints="5" bounding="rect(-8.29849,-7.71789,16.597,15.4358)" text="" font-familyName="" font-pixelSize="20" font-bold="0" font-underline="0" font-alignment="1" strokeStyle="0" markerStart="0" markerEnd="0" shadowEnabled="0" shadowOffsetX="0" shadowOffsetY="2" shadowBlur="4" shadowOpacity="160" blurEnabled="0" blurRadius="4" transform="matrix(1,0,0,1,62.5478,130.948)" pers-center="0,0" pers-size="0,0" pers-start="0,0" pers-end="0,0" locked="0" mesh="" flag=""/>
            <path id="shapePath7" d="M70.8463,129.236 C70.5463,131.036 70.3463,132.736 70.0463,134.436 C69.9463,134.936 69.5463,135.336 69.2463,135.736 C69.0463,136.036 68.7463,136.236 68.4463,136.536 C65.8463,139.236 63.2463,139.136 60.1463,137.536 C58.7463,136.836 57.4463,135.636 56.2463,134.636 C54.3463,133.136 53.9463,131.036 54.4463,128.736 C54.6463,127.736 54.9463,126.736 55.3463,125.736 C55.7463,124.436 57.6463,123.136 58.9463,123.236 C59.7463,123.336 60.5463,123.636 61.3463,123.736 C61.6463,123.836 62.1463,123.836 62.4463,123.636 C63.4463,123.036 64.5463,123.336 65.5463,123.536 C65.6463,123.536 65.7463,123.636 65.8463,123.636 C68.4463,123.136 69.3463,125.336 70.5463,126.836 C70.7463,127.436 70.6463,128.436 70.8463,129.236 M64.7463,130.336 C64.7463,128.936 63.5463,127.336 62.4463,127.336 C61.8463,127.336 61.3463,127.436 61.0463,128.136 C60.3463,129.636 60.4463,130.136 61.8463,131.136 C62.1463,131.336 62.4463,131.536 62.7463,131.836 C63.6463,132.636 64.3463,132.536 64.6463,131.336 C64.7463,130.836 64.7463,130.436 64.7463,130.336 Z" style="stroke:none;fill-rule:nonzero;fill:#000000;fill-opacity:1;"/>
        </g>
        <g id="Shape8">
            <desc shapeID="8" type="0" basicInfo-basicType="0" basicInfo-roundedRectRadius="12" basicInfo-polygonSides="6" basicInfo-starPoints="5" bounding="rect(-8.14633,-7.69021,16.2927,15.3804)" text="" font-familyName="" font-pixelSize="20" font-bold="0" font-underline="0" font-alignment="1" strokeStyle="0" markerStart="0" markerEnd="0" shadowEnabled="0" shadowOffsetX="0" shadowOffsetY="2" shadowBlur="4" shadowOpacity="160" blurEnabled="0" blurRadius="4" transform="matrix(1,0,0,1,81.8,140.529)" pers-center="0,0" pers-size="0,0" pers-start="0,0" pers-end="0,0" locked="0" mesh="" flag=""/>
            <path id="shapePath8" d="M89.9463,140.236 C89.7463,143.236 88.7463,145.636 86.3463,147.336 C86.0463,147.536 85.8463,147.736 85.5463,147.836 C83.0463,148.336 80.6463,148.636 78.5463,146.836 C77.5463,145.936 76.3463,145.236 75.3463,144.336 C73.5463,142.536 73.4463,140.236 73.8463,137.836 C74.0463,136.736 74.4463,135.736 75.1463,134.836 C76.7463,132.936 78.6463,132.536 80.9463,133.036 C82.2463,133.336 83.6463,133.236 84.9463,133.336 C85.5463,133.436 86.2463,133.636 86.6463,134.036 C87.5463,134.836 88.3463,135.736 88.9463,136.836 C89.4463,137.836 89.6463,139.136 89.9463,140.236 M83.0463,142.136 C84.1463,140.536 83.8463,139.436 82.7463,138.236 C82.2463,137.736 81.8463,137.336 81.2463,137.636 C80.8463,137.836 80.3463,138.436 80.2463,138.836 C80.0463,139.536 80.2463,140.336 80.9463,140.836 C81.5463,141.336 82.2463,141.736 83.0463,142.136 Z" style="stroke:none;fill-rule:nonzero;fill:#000000;fill-opacity:1;"/>
        </g>
        <g id="Shape9">
            <desc shapeID="9" type="0" basicInfo-basicType="0" basicInfo-roundedRectRadius="12" basicInfo-polygonSides="6" basicInfo-starPoints="5" bounding="rect(-8.14089,-7.7772,16.2818,15.5544)" text="" font-familyName="" font-pixelSize="20" font-bold="0" font-underline="0" font-alignment="1" strokeStyle="0" markerStart="0" markerEnd="0" shadowEnabled="0" shadowOffsetX="0" shadowOffsetY="2" shadowBlur="4" shadowOpacity="160" blurEnabled="0" blurRadius="4" transform="matrix(1,0,0,1,24.9729,151.022)" pers-center="0,0" pers-size="0,0" pers-start="0,0" pers-end="0,0" locked="0" mesh="" flag=""/>
            <path id="shapePath9" d="M16.8463,149.436 C16.8463,145.136 19.6463,142.736 23.6463,143.336 C24.2463,143.436 24.8463,143.336 25.5463,143.336 C26.5463,143.236 27.5463,143.236 28.3463,144.036 C28.6463,144.336 29.2463,144.336 29.6463,144.436 C31.5463,144.736 32.3463,145.336 32.7463,147.236 C33.4463,149.936 33.1463,152.536 31.8463,155.036 C31.4463,155.736 31.0463,156.536 30.4463,157.136 C28.5463,158.936 25.7463,159.336 23.4463,158.036 C21.8463,157.036 20.3463,155.936 18.8463,154.736 C17.1463,153.336 16.7463,151.336 16.8463,149.436 M26.1463,152.236 C27.3463,151.036 27.5463,149.536 26.8463,148.536 C25.9463,147.436 24.7463,147.336 23.3463,148.336 C22.7463,150.736 24.6463,151.236 26.1463,152.236 Z" style="stroke:none;fill-rule:nonzero;fill:#000000;fill-opacity:1;"/>
        </g>
        <g id="Shape10">
            <desc shapeID="10" type="0" basicInfo-basicType="0" basicInfo-roundedRectRadius="12" basicInfo-polygonSides="6" basicInfo-starPoints="5" bounding="rect(-7.5047,-8.32916,15.0094,16.6583)" text="" font-familyName="" font-pixelSize="20" font-bold="0" font-underline="0" font-alignment="1" strokeStyle="0" markerStart="0" markerEnd="0" shadowEnabled="0" shadowOffsetX="0" shadowOffsetY="2" shadowBlur="4" shadowOpacity="160" blurEnabled="0" blurRadius="4" transform="matrix(1,0,0,1,7.5047,138.814)" pers-center="0,0" pers-size="0,0" pers-start="0,0" pers-end="0,0" locked="0" mesh="" flag=""/>
            <path id="shapePath10" d="M8.24628,147.136 C6.04628,147.236 4.14629,146.236 2.44629,145.136 C0.946289,144.136 -0.253723,142.636 0.0462799,140.536 C0.446289,137.736 1.14629,134.936 3.04628,132.736 C6.14629,129.136 11.6463,130.136 13.2463,133.736 C13.4463,134.236 13.5463,134.736 13.6463,135.236 C13.9463,136.836 14.4463,138.536 14.6463,140.136 C14.7463,141.236 15.3463,142.436 14.7463,143.436 C14.2463,144.436 13.3463,145.136 12.2463,145.536 C11.4463,145.836 10.6463,146.336 9.84628,146.636 C9.44629,146.936 8.84628,147.036 8.24628,147.136 M7.84628,136.836 C7.54628,137.536 7.24628,138.036 7.24628,138.536 C7.14629,139.236 6.94629,140.136 7.34628,140.636 C7.94629,141.336 8.84628,140.636 9.64629,140.436 C9.74628,140.436 9.94629,140.236 9.94629,140.136 C10.0463,140.036 10.1463,139.836 10.0463,139.736 C9.84628,139.036 9.64629,138.336 9.24628,137.836 C9.14629,137.336 8.54628,137.236 7.84628,136.836 Z" style="stroke:none;fill-rule:nonzero;fill:#000000;fill-opacity:1;"/>
        </g>
        <g id="Shape11">
            <desc shapeID="11" type="0" basicInfo-basicType="0" basicInfo-roundedRectRadius="12" basicInfo-polygonSides="6" basicInfo-starPoints="5" bounding="rect(-7.75989,-8.25039,15.5198,16.5008)" text="" font-familyName="" font-pixelSize="20" font-bold="0" font-underline="0" font-alignment="1" strokeStyle="0" markerStart="0" markerEnd="0" shadowEnabled="0" shadowOffsetX="0" shadowOffsetY="2" shadowBlur="4" shadowOpacity="160" blurEnabled="0" blurRadius="4" transform="matrix(1,0,0,1,136.715,131.132)" pers-center="0,0" pers-size="0,0" pers-start="0,0" pers-end="0,0" locked="0" mesh="" flag=""/>
            <path id="shapePath11" d="M141.546,127.636 C142.446,128.236 143.346,128.536 143.946,129.236 C144.646,129.936 144.546,130.936 144.246,131.936 C144.046,132.536 144.046,133.136 143.946,133.836 C143.246,137.836 137.846,140.336 134.246,139.036 C133.446,138.736 132.646,138.236 132.046,137.536 C130.646,135.836 129.546,134.036 129.146,131.836 C128.546,128.836 129.346,126.236 131.746,124.236 C133.746,122.536 136.546,122.436 138.746,123.936 C139.146,124.236 139.646,124.436 140.146,124.736 C141.546,125.536 141.746,125.936 141.546,127.636 M136.246,132.936 C138.246,132.636 138.946,131.136 138.146,128.536 C137.246,128.436 136.346,128.236 135.746,129.036 C134.746,130.536 135.546,131.636 136.246,132.936 Z" style="stroke:none;fill-rule:nonzero;fill:#000000;fill-opacity:1;"/>
        </g>
        <g id="Shape12">
            <desc shapeID="12" type="0" basicInfo-basicType="0" basicInfo-roundedRectRadius="12" basicInfo-polygonSides="6" basicInfo-starPoints="5" bounding="rect(-8.02341,-8.2025,16.0468,16.405)" text="" font-familyName="" font-pixelSize="20" font-bold="0" font-underline="0" font-alignment="1" strokeStyle="0" markerStart="0" markerEnd="0" shadowEnabled="0" shadowOffsetX="0" shadowOffsetY="2" shadowBlur="4" shadowOpacity="160" blurEnabled="0" blurRadius="4" transform="matrix(1,0,0,1,117.47,83.7918)" pers-center="0,0" pers-size="0,0" pers-start="0,0" pers-end="0,0" locked="0" mesh="" flag=""/>
            <path id="shapePath12" d="M109.446,82.4359 C109.646,81.6359 109.946,80.1359 110.546,78.836 C110.846,78.1359 111.646,77.5359 112.346,77.1359 C113.446,76.5359 114.546,76.2359 115.746,75.836 C117.846,75.0359 119.346,76.336 120.846,77.5359 C121.146,77.7359 121.346,78.2359 121.246,78.5359 C121.246,79.4359 121.746,79.7359 122.446,80.0359 C125.446,81.2359 126.046,84.2359 125.046,87.0359 C123.446,91.336 118.546,93.2359 114.346,91.1359 C113.346,90.6359 112.546,89.6359 111.846,88.836 C110.146,86.9359 109.546,85.4359 109.446,82.4359 M117.346,85.836 C117.646,85.836 117.846,85.836 118.046,85.7359 C119.646,85.5359 120.146,84.336 119.146,83.0359 C118.846,82.6359 118.646,82.2359 118.346,81.9359 C117.746,81.2359 117.146,81.1359 116.346,81.7359 C115.346,82.5359 115.646,85.2359 116.846,85.7359 C117.046,85.7359 117.246,85.7359 117.346,85.836 Z" style="stroke:none;fill-rule:nonzero;fill:#000000;fill-opacity:1;"/>
        </g>
        <g id="Shape13">
            <desc shapeID="13" type="0" basicInfo-basicType="0" basicInfo-roundedRectRadius="12" basicInfo-polygonSides="6" basicInfo-starPoints="5" bounding="rect(-8.20835,-7.52193,16.4167,15.0439)" text="" font-familyName="" font-pixelSize="20" font-bold="0" font-underline="0" font-alignment="1" strokeStyle="0" markerStart="0" markerEnd="0" shadowEnabled="0" shadowOffsetX="0" shadowOffsetY="2" shadowBlur="4" shadowOpacity="160" blurEnabled="0" blurRadius="4" transform="matrix(1,0,0,1,64.0637,172.673)" pers-center="0,0" pers-size="0,0" pers-start="0,0" pers-end="0,0" locked="0" mesh="" flag=""/>
            <path id="shapePath13" d="M62.6463,165.236 C63.8463,165.036 65.0463,165.136 66.1463,166.136 C66.6463,166.536 67.6463,166.436 68.4463,166.436 C69.2463,166.436 69.8463,166.836 70.3463,167.436 C72.4463,169.636 72.7463,172.236 71.6463,175.036 C70.4463,177.836 68.5463,179.736 65.3463,180.136 C63.8463,180.336 62.4463,180.036 61.2463,179.136 C59.8463,178.036 58.4463,176.936 57.2463,175.536 C54.9463,172.936 55.7463,168.736 57.8463,166.636 C58.9463,165.536 60.1463,164.936 61.6463,165.236 C61.9463,165.136 62.1463,165.136 62.6463,165.236 M63.6463,169.736 C63.4463,169.836 62.9463,170.136 62.6463,170.536 C62.2463,171.036 62.4463,171.636 62.8463,172.136 C63.1463,172.536 63.6463,172.736 64.0463,173.136 C64.5463,173.536 65.0463,173.636 65.4463,173.236 C65.8463,172.836 66.1463,172.336 66.2463,171.836 C66.3463,171.136 64.7463,169.636 63.6463,169.736 Z" style="stroke:none;fill-rule:nonzero;fill:#000000;fill-opacity:1;"/>
        </g>
        <g id="Shape14">
            <desc shapeID="14" type="0" basicInfo-basicType="0" basicInfo-roundedRectRadius="12" basicInfo-polygonSides="6" basicInfo-starPoints="5" bounding="rect(-8.11407,-7.67452,16.2281,15.349)" text="" font-familyName="" font-pixelSize="20" font-bold="0" font-underline="0" font-alignment="1" strokeStyle="0" markerStart="0" markerEnd="0" shadowEnabled="0" shadowOffsetX="0" shadowOffsetY="2" shadowBlur="4" shadowOpacity="160" blurEnabled="0" blurRadius="4" transform="matrix(1,0,0,1,24.9166,130.725)" pers-center="0,0" pers-size="0,0" pers-start="0,0" pers-end="0,0" locked="0" mesh="" flag=""/>
            <path id="shapePath14" d="M32.9463,129.536 C33.1463,131.736 32.4463,133.736 31.6463,135.636 C31.1463,136.736 30.2463,137.536 29.0463,137.936 C26.2463,138.936 23.7463,138.236 21.3463,136.636 C20.7463,136.236 20.1463,135.836 19.5463,135.336 C16.2463,132.536 15.5463,128.136 19.5463,124.536 C20.8463,123.336 22.3463,122.836 24.0463,123.136 C24.7463,123.236 25.5463,123.336 26.2463,123.336 C27.3463,123.236 27.5463,124.636 28.4463,124.636 C29.3463,124.736 30.2463,124.636 30.8463,125.536 C30.9463,125.736 31.1463,125.936 31.4463,126.136 C32.7463,126.936 33.2463,128.036 32.9463,129.536 M24.5463,127.336 C23.5463,127.936 22.9463,128.736 23.0463,129.736 C23.1463,130.936 24.9463,132.136 26.4463,132.036 C27.2463,131.936 27.3463,131.536 27.3463,129.736 C27.3463,129.636 27.3463,129.636 27.3463,129.636 C26.3463,128.736 25.4463,128.036 24.5463,127.336 Z" style="stroke:none;fill-rule:nonzero;fill:#000000;fill-opacity:1;"/>
        </g>
        <g id="Shape15">
            <desc shapeID="15" type="0" basicInfo-basicType="0" basicInfo-roundedRectRadius="12" basicInfo-polygonSides="6" basicInfo-starPoints="5" bounding="rect(-7.82512,-7.65289,15.6503,15.3058)" text="" font-familyName="" font-pixelSize="20" font-bold="0" font-underline="0" font-alignment="1" strokeStyle="0" markerStart="0" markerEnd="0" shadowEnabled="0" shadowOffsetX="0" shadowOffsetY="2" shadowBlur="4" shadowOpacity="160" blurEnabled="0" blurRadius="4" transform="matrix(1,0,0,1,101.346,147.489)" pers-center="0,0" pers-size="0,0" pers-start="0,0" pers-end="0,0" locked="0" mesh="" flag=""/>
            <path id="shapePath15" d="M100.346,139.836 C101.146,139.936 102.046,140.036 102.846,140.036 C103.546,140.036 104.146,140.336 104.346,140.936 C104.746,141.736 105.446,141.936 106.146,141.836 C107.146,141.636 107.646,142.136 107.946,142.936 C108.346,144.036 108.746,145.236 109.046,146.336 C109.946,150.336 105.846,155.336 101.546,155.136 C99.7463,155.036 98.4463,154.736 97.1463,153.536 C96.6463,153.036 96.0463,152.536 95.5463,152.036 C93.7463,150.336 93.1463,148.236 93.7463,145.836 C93.9463,144.936 94.1463,144.136 94.5463,143.236 C95.4463,141.136 97.4463,139.936 100.346,139.836 M101.346,144.636 C99.7463,147.236 99.8463,147.936 101.746,148.936 C103.046,148.036 103.446,147.536 103.246,146.836 C102.846,145.336 102.446,144.736 101.346,144.636 Z" style="stroke:none;fill-rule:nonzero;fill:#000000;fill-opacity:1;"/>
        </g>
        <g id="Shape16">
            <desc shapeID="16" type="0" basicInfo-basicType="0" basicInfo-roundedRectRadius="12" basicInfo-polygonSides="6" basicInfo-starPoints="5" bounding="rect(-8.46251,-7.44664,16.925,14.8933)" text="" font-familyName="" font-pixelSize="20" font-bold="0" font-underline="0" font-alignment="1" strokeStyle="0" markerStart="0" markerEnd="0" shadowEnabled="0" shadowOffsetX="0" shadowOffsetY="2" shadowBlur="4" shadowOpacity="160" blurEnabled="0" blurRadius="4" transform="matrix(1,0,0,1,42.1962,161.239)" pers-center="0,0" pers-size="0,0" pers-start="0,0" pers-end="0,0" locked="0" mesh="" flag=""/>
            <path id="shapePath16" d="M42.8463,168.636 C38.1463,168.636 34.8463,165.336 33.8463,161.036 C33.3463,158.936 34.5463,156.336 36.7463,155.036 C38.2463,154.136 39.6463,153.636 41.5463,153.836 C43.3463,154.036 45.0463,154.436 46.6463,155.036 C47.4463,155.336 48.2463,155.536 48.9463,155.836 C50.2463,156.436 50.7463,157.436 50.6463,158.936 C50.3463,161.736 49.5463,164.336 47.6463,166.336 C46.2463,167.836 44.8463,168.936 42.8463,168.636 M43.1463,157.536 C40.2463,157.936 39.3463,159.736 40.9463,161.736 C41.9463,163.036 43.1463,162.836 43.8463,161.436 C44.7463,159.636 44.6463,159.136 43.1463,157.536 Z" style="stroke:none;fill-rule:nonzero;fill:#000000;fill-opacity:1;"/>
        </g>
        <g id="Shape17">
            <desc shapeID="17" type="0" basicInfo-basicType="0" basicInfo-roundedRectRadius="12" basicInfo-polygonSides="6" basicInfo-starPoints="5" bounding="rect(-8.59155,-7.08733,17.1831,14.1747)" text="" font-familyName="" font-pixelSize="20" font-bold="0" font-underline="0" font-alignment="1" strokeStyle="0" markerStart="0" markerEnd="0" shadowEnabled="0" shadowOffsetX="0" shadowOffsetY="2" shadowBlur="4" shadowOpacity="160" blurEnabled="0" blurRadius="4" transform="matrix(1,0,0,1,77.7547,113.091)" pers-center="0,0" pers-size="0,0" pers-start="0,0" pers-end="0,0" locked="0" mesh="" flag=""/>
            <path id="shapePath17" d="M86.3463,111.836 C86.1463,114.136 85.5463,116.236 84.2463,118.036 C83.3463,119.436 81.8463,120.036 80.3463,120.136 C76.6463,120.436 73.4463,119.136 70.9463,116.236 C69.4463,114.536 68.9463,112.436 69.2463,110.136 C69.5463,107.136 72.5463,105.336 75.3463,106.236 C76.0463,106.436 76.7463,106.336 77.5463,106.436 C78.9463,106.736 80.3463,107.036 81.6463,107.236 C82.2463,107.336 82.8463,107.536 83.5463,107.536 C84.7463,107.636 85.4463,108.336 85.8463,109.436 C86.0463,110.236 86.1463,111.036 86.3463,111.836 M77.4463,110.036 C77.0463,110.236 76.2463,110.536 75.8463,111.036 C75.4463,111.536 75.9463,112.736 76.6463,113.236 C77.2463,113.636 77.9463,113.936 78.6463,114.236 C79.1463,114.436 79.7463,114.236 80.0463,113.736 C80.4463,113.136 80.9463,112.236 80.4463,111.736 C79.6463,110.936 78.8463,110.236 77.4463,110.036 Z" style="stroke:none;fill-rule:nonzero;fill:#000000;fill-opacity:1;"/>
        </g>
        <g id="Shape18">
            <desc shapeID="18" type="0" basicInfo-basicType="0" basicInfo-roundedRectRadius="12" basicInfo-polygonSides="6" basicInfo-starPoints="5" bounding="rect(-7.5192,-8.49344,15.0384,16.9869)" text="" font-familyName="" font-pixelSize="20" font-bold="0" font-underline="0" font-alignment="1" strokeStyle="0" markerStart="0" markerEnd="0" shadowEnabled="0" shadowOffsetX="0" shadowOffsetY="2" shadowBlur="4" shadowOpacity="160" blurEnabled="0" blurRadius="4" transform="matrix(1,0,0,1,159.265,113.973)" pers-center="0,0" pers-size="0,0" pers-start="0,0" pers-end="0,0" locked="0" mesh="" flag=""/>
            <path id="shapePath18" d="M151.746,112.736 C151.846,110.236 152.646,108.136 154.746,106.536 C156.546,105.236 157.146,105.136 159.046,106.236 C159.446,106.436 159.946,106.636 160.246,106.936 C161.046,107.636 161.646,108.636 162.946,108.536 C167.046,111.036 168.246,115.836 164.646,119.736 C163.246,121.236 161.546,122.236 159.346,122.436 C157.446,122.636 156.146,121.836 155.046,120.636 C153.446,118.736 152.146,116.636 151.846,114.036 C151.746,113.636 151.746,113.236 151.746,112.736 M158.946,116.336 C160.946,115.836 161.546,114.536 160.946,112.836 C160.746,112.436 160.646,111.936 160.446,111.536 C160.346,111.336 160.046,111.036 159.846,110.936 C158.946,110.536 158.146,111.136 158.046,112.236 C157.846,113.636 158.146,115.036 158.946,116.336 Z" style="stroke:none;fill-rule:nonzero;fill:#000000;fill-opacity:1;"/>
        </g>
        <g id="Shape19">
            <desc shapeID="19" type="0" basicInfo-basicType="0" basicInfo-roundedRectRadius="12" basicInfo-polygonSides="6" basicInfo-starPoints="5" bounding="rect(-7.96843,-7.22043,15.9369,14.4409)" text="" font-familyName="" font-pixelSize="20" font-bold="0" font-underline="0" font-alignment="1" strokeStyle="0" markerStart="0" markerEnd="0" shadowEnabled="0" shadowOffsetX="0" shadowOffsetY="2" shadowBlur="4" shadowOpacity="160" blurEnabled="0" blurRadius="4" transform="matrix(1,0,0,1,121.821,149.856)" pers-center="0,0" pers-size="0,0" pers-start="0,0" pers-end="0,0" locked="0" mesh="" flag=""/>
            <path id="shapePath19" d="M119.546,142.636 C120.946,142.836 122.246,143.036 123.646,143.236 C124.446,143.336 125.246,143.536 125.946,143.436 C126.946,143.336 127.446,143.836 128.046,144.536 C130.246,147.336 130.346,149.636 128.446,152.736 C127.646,153.936 126.846,155.236 125.546,156.036 C123.346,157.336 121.246,157.436 119.046,156.236 C117.346,155.336 116.046,154.136 114.946,152.636 C113.246,150.236 113.346,145.036 116.546,143.236 C117.546,142.636 118.546,142.736 119.546,142.636 M122.546,146.836 C121.746,147.336 120.546,147.236 120.546,148.436 C120.546,149.336 120.646,150.336 122.046,150.736 C122.646,150.136 123.246,149.436 123.946,148.736 C123.646,148.336 123.446,148.136 123.246,147.836 C123.046,147.636 122.846,147.336 122.546,146.836 Z" style="stroke:none;fill-rule:nonzero;fill:#000000;fill-opacity:1;"/>
        </g>
        <g id="Shape20">
            <desc shapeID="20" type="0" basicInfo-basicType="0" basicInfo-roundedRectRadius="12" basicInfo-polygonSides="6" basicInfo-starPoints="5" bounding="rect(-7.9002,-7.31563,15.8004,14.6313)" text="" font-familyName="" font-pixelSize="20" font-bold="0" font-underline="0" font-alignment="1" strokeStyle="0" markerStart="0" markerEnd="0" shadowEnabled="0" shadowOffsetX="0" shadowOffsetY="2" shadowBlur="4" shadowOpacity="160" blurEnabled="0" blurRadius="4" transform="matrix(1,0,0,1,111.615,165.208)" pers-center="0,0" pers-size="0,0" pers-start="0,0" pers-end="0,0" locked="0" mesh="" flag=""/>
            <path id="shapePath20" d="M110.746,157.936 C112.046,158.136 114.146,158.036 115.946,159.336 C117.446,159.136 117.946,160.336 118.646,161.336 C119.446,162.336 119.446,163.436 119.346,164.636 C119.346,165.336 119.646,166.036 119.446,166.636 C118.746,168.436 117.746,170.236 116.146,171.336 C114.846,172.236 113.146,172.736 111.446,172.436 C108.946,171.936 106.746,170.736 105.346,168.636 C103.946,166.636 103.346,164.436 103.946,162.036 C104.646,159.936 106.346,157.536 110.746,157.936 M114.046,164.736 C113.646,164.136 113.346,163.636 113.046,163.136 C112.446,162.336 112.046,162.136 111.046,162.636 C110.346,163.036 110.146,163.536 110.446,164.436 C110.546,164.836 110.746,165.236 111.046,165.536 C111.446,165.836 112.146,166.436 112.346,166.336 C113.046,166.036 113.446,165.336 114.046,164.736 Z" style="stroke:none;fill-rule:nonzero;fill:#000000;fill-opacity:1;"/>
        </g>
        <g id="Shape21">
            <desc shapeID="21" type="0" basicInfo-basicType="0" basicInfo-roundedRectRadius="12" basicInfo-polygonSides="6" basicInfo-starPoints="5" bounding="rect(-8.16429,-6.80838,16.3286,13.6168)" text="" font-familyName="" font-pixelSize="20" font-bold="0" font-underline="0" font-alignment="1" strokeStyle="0" markerStart="0" markerEnd="0" shadowEnabled="0" shadowOffsetX="0" shadowOffsetY="2" shadowBlur="4" shadowOpacity="160" blurEnabled="0" blurRadius="4" transform="matrix(1,0,0,1,120.714,117.332)" pers-center="0,0" pers-size="0,0" pers-start="0,0" pers-end="0,0" locked="0" mesh="" flag=""/>
            <path id="shapePath21" d="M117.846,110.536 C118.646,110.736 119.446,110.936 120.246,110.936 C121.046,111.036 121.846,110.836 122.646,110.836 C123.246,110.836 123.746,110.936 124.346,110.836 C126.046,110.536 127.046,111.436 127.746,112.736 C129.046,114.936 129.246,117.236 128.246,119.636 C126.946,122.636 124.646,124.236 121.346,124.136 C120.746,124.136 120.146,124.036 119.646,123.736 C118.646,123.336 117.646,122.936 116.846,122.336 C114.946,120.936 113.446,119.236 112.746,116.936 C112.246,115.236 112.746,113.736 113.746,112.336 C114.746,110.936 116.046,110.436 117.846,110.536 M122.446,117.936 C123.246,115.936 123.146,115.836 121.946,114.836 C121.046,115.236 120.246,115.636 119.346,116.036 C120.146,117.036 120.646,118.436 122.446,117.936 Z" style="stroke:none;fill-rule:nonzero;fill:#000000;fill-opacity:1;"/>
        </g>
        <g id="Shape22">
            <desc shapeID="22" type="0" basicInfo-basicType="0" basicInfo-roundedRectRadius="12" basicInfo-polygonSides="6" basicInfo-starPoints="5" bounding="rect(-8.03,-7.73029,16.06,15.4606)" text="" font-familyName="" font-pixelSize="20" font-bold="0" font-underline="0" font-alignment="1" strokeStyle="0" markerStart="0" markerEnd="0" shadowEnabled="0" shadowOffsetX="0" shadowOffsetY="2" shadowBlur="4" shadowOpacity="160" blurEnabled="0" blurRadius="4" transform="matrix(1,0,0,1,105.716,96.0057)" pers-center="0,0" pers-size="0,0" pers-start="0,0" pers-end="0,0" locked="0" mesh="" flag=""/>
            <path id="shapePath22" d="M106.546,103.736 C104.646,103.736 102.946,102.836 101.546,101.636 C99.6463,99.9359 98.0463,98.0359 97.7463,95.2359 C97.5463,93.5359 97.8463,91.9359 98.6463,90.5359 C99.8463,88.4359 102.646,87.6359 104.846,88.836 C105.346,89.1359 105.946,89.1359 106.446,89.336 C106.946,89.5359 107.546,89.7359 107.746,90.0359 C108.646,91.4359 110.146,91.7359 111.546,92.4359 C113.046,93.2359 113.746,94.2359 113.746,95.9359 C113.646,98.0359 112.746,99.9359 111.646,101.636 C111.146,102.336 110.046,102.836 109.146,103.136 C108.346,103.636 107.446,103.636 106.546,103.736 M104.146,93.836 C103.746,95.4359 104.346,97.0359 105.746,97.5359 C106.246,97.7359 107.046,97.7359 107.346,97.4359 C107.746,97.0359 108.046,96.1359 107.946,95.6359 C107.546,94.0359 106.046,93.4359 104.146,93.836 Z" style="stroke:none;fill-rule:nonzero;fill:#000000;fill-opacity:1;"/>
        </g>
        <g id="Shape23">
            <desc shapeID="23" type="0" basicInfo-basicType="0" basicInfo-roundedRectRadius="12" basicInfo-polygonSides="6" basicInfo-starPoints="5" bounding="rect(-6.94183,-8.11404,13.8837,16.2281)" text="" font-familyName="" font-pixelSize="20" font-bold="0" font-underline="0" font-alignment="1" strokeStyle="0" markerStart="0" markerEnd="0" shadowEnabled="0" shadowOffsetX="0" shadowOffsetY="2" shadowBlur="4" shadowOpacity="160" blurEnabled="0" blurRadius="4" transform="matrix(1,0,0,1,154.044,133.536)" pers-center="0,0" pers-size="0,0" pers-start="0,0" pers-end="0,0" locked="0" mesh="" flag=""/>
            <path id="shapePath23" d="M147.146,135.136 C146.946,131.836 147.846,129.236 150.146,127.236 C151.746,125.736 153.746,125.036 155.946,125.636 C156.346,125.736 156.746,126.036 156.946,126.336 C157.646,127.436 158.346,128.636 158.946,129.836 C159.146,130.136 159.346,130.436 159.246,130.736 C159.046,132.436 160.146,133.636 160.746,135.036 C160.946,135.536 161.046,136.036 160.946,136.536 C160.546,139.136 158.446,141.036 155.846,141.436 C154.246,141.636 152.746,141.836 151.146,141.336 C148.546,140.536 147.046,138.336 147.146,135.636 C147.046,135.436 147.146,135.136 147.146,135.136 M153.146,135.336 C154.946,135.536 155.246,135.436 155.546,134.936 C156.046,133.736 155.746,132.636 154.746,131.736 C153.446,132.636 153.146,133.836 153.146,135.336 Z" style="stroke:none;fill-rule:nonzero;fill:#000000;fill-opacity:1;"/>
        </g>
        <g id="Shape24">
            <desc shapeID="24" type="0" basicInfo-basicType="0" basicInfo-roundedRectRadius="12" basicInfo-polygonSides="6" basicInfo-starPoints="5" bounding="rect(-8.47275,-6.95236,16.9455,13.9047)" text="" font-familyName="" font-pixelSize="20" font-bold="0" font-underline="0" font-alignment="1" strokeStyle="0" markerStart="0" markerEnd="0" shadowEnabled="0" shadowOffsetX="0" shadowOffsetY="2" shadowBlur="4" shadowOpacity="160" blurEnabled="0" blurRadius="4" transform="matrix(1,0,0,1,75.619,82.2844)" pers-center="0,0" pers-size="0,0" pers-start="0,0" pers-end="0,0" locked="0" mesh="" flag=""/>
            <path id="shapePath24" d="M67.1463,81.1359 C67.1463,79.6359 67.6463,78.1359 68.8463,76.836 C69.8463,75.7359 70.9463,75.336 72.3463,75.6359 C73.4463,75.836 74.4463,76.0359 75.6463,75.5359 C76.6463,75.1359 78.0463,75.336 79.2463,76.0359 C81.0463,77.1359 82.6463,78.5359 83.7463,80.4359 C84.4463,81.6359 83.9463,82.836 83.4463,84.0359 C82.5463,86.336 80.4463,87.5359 78.5463,88.6359 C76.8463,89.6359 74.9463,89.2359 73.2463,88.5359 C71.9463,87.9359 70.8463,87.0359 69.6463,86.2359 C67.7463,84.9359 67.1463,83.5359 67.1463,81.1359 M78.2463,81.336 C77.5463,80.6359 76.9463,79.9359 76.2463,79.336 C75.8463,79.0359 75.4463,78.836 74.9463,79.2359 C74.1463,79.836 73.4463,80.5359 73.5463,81.7359 C73.9463,82.0359 74.3463,82.2359 74.7463,82.5359 C76.3463,83.5359 77.2463,83.2359 78.2463,81.336 Z" style="stroke:none;fill-rule:nonzero;fill:#000000;fill-opacity:1;"/>
        </g>
        <g id="Shape25">
            <desc shapeID="25" type="0" basicInfo-basicType="0" basicInfo-roundedRectRadius="12" basicInfo-polygonSides="6" basicInfo-starPoints="5" bounding="rect(-7.5345,-7.30489,15.069,14.6098)" text="" font-familyName="" font-pixelSize="20" font-bold="0" font-underline="0" font-alignment="1" strokeStyle="0" markerStart="0" markerEnd="0" shadowEnabled="0" shadowOffsetX="0" shadowOffsetY="2" shadowBlur="4" shadowOpacity="160" blurEnabled="0" blurRadius="4" transform="matrix(1,0,0,1,94.727,174.539)" pers-center="0,0" pers-size="0,0" pers-start="0,0" pers-end="0,0" locked="0" mesh="" flag=""/>
            <path id="shapePath25" d="M98.3463,169.336 C100.646,169.636 102.446,171.736 102.246,174.136 C102.146,176.336 101.546,178.336 99.9463,180.036 C98.1463,181.836 95.0463,182.336 92.6463,181.336 C89.3463,180.036 87.7463,177.336 87.2463,174.136 C86.8463,170.636 88.6463,167.136 93.6463,167.236 C94.1463,167.236 94.6463,167.236 95.2463,167.236 C96.7463,167.236 97.7463,167.836 98.3463,169.336 M94.9463,171.836 C93.7463,172.736 93.6463,173.036 94.0463,174.436 C94.2463,175.036 94.4463,175.636 95.2463,175.636 C95.9463,175.636 96.0463,174.936 96.2463,174.336 C96.3463,174.136 96.2463,173.836 96.1463,173.636 C95.7463,173.036 95.3463,172.536 94.9463,171.836 Z" style="stroke:none;fill-rule:nonzero;fill:#000000;fill-opacity:1;"/>
        </g>
        <g id="Shape26">
            <desc shapeID="26" type="0" basicInfo-basicType="0" basicInfo-roundedRectRadius="12" basicInfo-polygonSides="6" basicInfo-starPoints="5" bounding="rect(-8.17629,-6.50218,16.3526,13.0044)" text="" font-familyName="" font-pixelSize="20" font-bold="0" font-underline="0" font-alignment="1" strokeStyle="0" markerStart="0" markerEnd="0" shadowEnabled="0" shadowOffsetX="0" shadowOffsetY="2" shadowBlur="4" shadowOpacity="160" blurEnabled="0" blurRadius="4" transform="matrix(1,0,0,1,100.154,110.434)" pers-center="0,0" pers-size="0,0" pers-start="0,0" pers-end="0,0" locked="0" mesh="" flag=""/>
            <path id="shapePath26" d="M101.446,116.936 C99.8463,116.936 98.4463,116.436 97.1463,115.636 C95.2463,114.536 93.4463,113.436 92.4463,111.436 C90.9463,108.536 93.2463,104.336 96.5463,104.136 C98.3463,104.036 100.046,103.636 101.846,104.336 C102.546,104.636 103.446,104.636 104.146,104.336 C105.046,103.936 105.446,104.436 105.946,104.836 C107.846,106.136 108.746,107.836 108.146,110.236 C107.846,111.336 107.646,112.536 107.146,113.536 C105.946,115.936 104.246,116.936 101.446,116.936 M101.346,110.936 C101.646,110.536 101.946,110.336 102.046,110.036 C102.146,109.736 102.246,109.336 102.046,109.036 C101.846,108.636 101.446,108.536 100.946,108.736 C100.346,109.036 99.6463,109.136 98.6463,109.436 C99.7463,110.036 100.546,110.436 101.346,110.936 Z" style="stroke:none;fill-rule:nonzero;fill:#000000;fill-opacity:1;"/>
        </g>
        <g id="Shape27">
            <desc shapeID="27" type="0" basicInfo-basicType="0" basicInfo-roundedRectRadius="12" basicInfo-polygonSides="6" basicInfo-starPoints="5" bounding="rect(-6.82301,-7.79999,13.646,15.6)" text="" font-familyName="" font-pixelSize="20" font-bold="0" font-underline="0" font-alignment="1" strokeStyle="0" markerStart="0" markerEnd="0" shadowEnabled="0" shadowOffsetX="0" shadowOffsetY="2" shadowBlur="4" shadowOpacity="160" blurEnabled="0" blurRadius="4" transform="matrix(1,0,0,1,37.7115,101.036)" pers-center="0,0" pers-size="0,0" pers-start="0,0" pers-end="0,0" locked="0" mesh="" flag=""/>
            <path id="shapePath27" d="M37.9463,93.2359 C38.2463,93.2359 38.5463,93.2359 38.8463,93.2359 C41.9463,93.6359 42.8463,94.2359 43.4463,96.836 C43.7463,98.0359 44.1463,99.2359 44.0463,100.536 C43.9463,101.336 44.3463,102.236 44.4463,103.136 C44.8463,105.136 43.8463,106.536 42.2463,107.636 C39.7463,109.336 37.0463,109.036 34.5463,107.936 C33.0463,107.336 31.8463,105.836 31.3463,104.236 C30.5463,101.836 30.8463,99.336 31.8463,97.1359 C33.0463,94.6359 35.0463,93.2359 37.9463,93.2359 M37.0463,101.436 C37.0463,102.336 37.5463,102.736 38.4463,102.736 C39.3463,102.736 39.9463,101.836 39.9463,100.836 C39.9463,99.9359 39.2463,99.336 38.3463,99.336 C37.6463,99.4359 37.0463,100.436 37.0463,101.436 Z" style="stroke:none;fill-rule:nonzero;fill:#000000;fill-opacity:1;"/>
        </g>
        <g id="Shape28">
            <desc shapeID="28" type="0" basicInfo-basicType="0" basicInfo-roundedRectRadius="12" basicInfo-polygonSides="6" basicInfo-starPoints="5" bounding="rect(-8.21873,-7.15753,16.4375,14.3151)" text="" font-familyName="" font-pixelSize="20" font-bold="0" font-underline="0" font-alignment="1" strokeStyle="0" markerStart="0" markerEnd="0" shadowEnabled="0" shadowOffsetX="0" shadowOffsetY="2" shadowBlur="4" shadowOpacity="160" blurEnabled="0" blurRadius="4" transform="matrix(1,0,0,1,55.8466,110.193)" pers-center="0,0" pers-size="0,0" pers-start="0,0" pers-end="0,0" locked="0" mesh="" flag=""/>
            <path id="shapePath28" d="M64.0463,108.636 C63.9463,112.836 61.5463,116.436 57.3463,117.236 C56.2463,117.436 55.3463,117.436 54.3463,116.736 C53.1463,115.836 51.8463,115.136 50.6463,114.336 C48.8463,113.236 47.8463,111.636 47.6463,109.636 C47.5463,108.436 47.8463,107.036 48.7463,106.136 C49.7463,105.036 50.8463,103.836 52.5463,103.836 C52.8463,103.836 53.0463,103.536 53.3463,103.436 C53.7463,103.236 54.2463,103.036 54.6463,103.036 C56.8463,103.336 59.2463,103.336 61.1463,104.536 C62.8463,105.336 64.2463,106.536 64.0463,108.636 M56.5463,111.736 C56.9463,111.436 57.3463,111.236 57.6463,110.936 C58.3463,110.136 58.3463,108.236 57.6463,107.836 C57.1463,107.536 56.5463,107.336 55.9463,107.136 C55.2463,106.936 54.3463,107.336 53.9463,108.036 C53.5463,108.736 53.6463,109.236 54.1463,109.936 C54.6463,110.636 55.4463,111.136 56.5463,111.736 Z" style="stroke:none;fill-rule:nonzero;fill:#000000;fill-opacity:1;"/>
        </g>
        <g id="Shape29">
            <desc shapeID="29" type="0" basicInfo-basicType="0" basicInfo-roundedRectRadius="12" basicInfo-polygonSides="6" basicInfo-starPoints="5" bounding="rect(-7.79009,-6.89411,15.5802,13.7882)" text="" font-familyName="" font-pixelSize="20" font-bold="0" font-underline="0" font-alignment="1" strokeStyle="0" markerStart="0" markerEnd="0" shadowEnabled="0" shadowOffsetX="0" shadowOffsetY="2" shadowBlur="4" shadowOpacity="160" blurEnabled="0" blurRadius="4" transform="matrix(1,0,0,1,117.835,131.942)" pers-center="0,0" pers-size="0,0" pers-start="0,0" pers-end="0,0" locked="0" mesh="" flag=""/>
            <path id="shapePath29" d="M117.946,138.836 C117.346,138.636 116.546,138.536 115.646,138.236 C112.946,137.136 110.646,135.536 110.146,132.436 C109.746,129.936 110.546,127.736 112.346,125.936 C112.646,125.636 113.146,125.236 113.546,125.236 C115.546,125.136 117.446,124.636 119.346,125.836 C119.946,126.236 120.846,126.236 121.646,126.036 C123.346,125.636 124.146,126.736 124.746,127.836 C126.146,130.436 125.846,132.936 124.046,135.336 C122.946,136.836 121.546,138.036 119.746,138.536 C119.346,138.736 118.846,138.736 117.946,138.836 M118.346,129.736 C117.346,129.736 116.746,130.336 116.746,131.136 C116.746,131.836 117.546,132.536 118.246,132.436 C118.846,132.436 119.646,131.536 119.646,130.936 C119.646,130.236 119.146,129.736 118.346,129.736 Z" style="stroke:none;fill-rule:nonzero;fill:#000000;fill-opacity:1;"/>
        </g>
        <g id="Shape30">
            <desc shapeID="30" type="0" basicInfo-basicType="0" basicInfo-roundedRectRadius="12" basicInfo-polygonSides="6" basicInfo-starPoints="5" bounding="rect(-7.57654,-7.40193,15.1531,14.8039)" text="" font-familyName="" font-pixelSize="20" font-bold="0" font-underline="0" font-alignment="1" strokeStyle="0" markerStart="0" markerEnd="0" shadowEnabled="0" shadowOffsetX="0" shadowOffsetY="2" shadowBlur="4" shadowOpacity="160" blurEnabled="0" blurRadius="4" transform="matrix(1,0,0,1,119.823,181.919)" pers-center="0,0" pers-size="0,0" pers-start="0,0" pers-end="0,0" locked="0" mesh="" flag=""/>
            <path id="shapePath30" d="M112.246,180.936 C112.246,176.836 116.446,173.636 120.346,174.736 C121.246,175.036 122.146,175.436 123.046,175.936 C123.346,176.136 123.646,176.536 123.946,176.736 C124.346,177.136 124.646,177.536 125.046,177.736 C126.646,178.536 127.646,180.036 127.346,181.736 C127.046,183.636 126.446,185.336 125.346,187.036 C124.146,188.836 121.746,189.736 119.646,189.136 C117.246,188.536 115.246,187.136 113.546,185.336 C112.446,184.136 112.246,182.636 112.246,180.936 M121.046,179.736 C120.646,179.836 120.146,179.836 119.746,179.936 C118.346,180.436 118.046,181.436 118.946,182.636 C119.146,182.836 119.246,183.036 119.446,183.236 C120.046,183.736 120.546,183.736 120.846,183.036 C121.446,182.036 121.946,181.036 121.046,179.736 Z" style="stroke:none;fill-rule:nonzero;fill:#000000;fill-opacity:1;"/>
        </g>
        <g id="Shape31">
            <desc shapeID="31" type="0" basicInfo-basicType="0" basicInfo-roundedRectRadius="12" basicInfo-polygonSides="6" basicInfo-starPoints="5" bounding="rect(-7.89764,-7.41425,15.7953,14.8285)" text="" font-familyName="" font-pixelSize="20" font-bold="0" font-underline="0" font-alignment="1" strokeStyle="0" markerStart="0" markerEnd="0" shadowEnabled="0" shadowOffsetX="0" shadowOffsetY="2" shadowBlur="4" shadowOpacity="160" blurEnabled="0" blurRadius="4" transform="matrix(1,0,0,1,160.263,152.145)" pers-center="0,0" pers-size="0,0" pers-start="0,0" pers-end="0,0" locked="0" mesh="" flag=""/>
            <path id="shapePath31" d="M158.446,144.736 C160.946,144.636 162.746,146.036 163.846,147.836 C164.746,149.436 166.146,150.336 167.246,151.636 C168.246,152.836 168.446,153.636 167.746,155.036 C166.546,157.536 164.446,158.836 161.846,159.436 C160.246,159.836 158.746,159.136 157.146,159.136 C156.946,159.136 156.646,158.936 156.546,158.736 C155.546,157.636 154.546,156.436 153.546,155.236 C152.146,153.536 152.146,151.636 152.746,149.736 C153.146,148.736 153.446,147.636 153.946,146.636 C154.146,146.136 154.746,145.736 155.146,145.536 C156.246,145.136 157.346,144.936 158.446,144.736 M160.446,153.536 C160.846,153.336 161.746,153.136 162.046,152.636 C162.446,151.936 161.446,151.536 161.046,151.036 C160.946,150.936 160.946,150.836 160.846,150.836 C160.346,150.336 159.746,150.136 159.146,150.536 C158.646,150.836 158.446,152.236 158.646,152.836 C158.946,153.436 159.546,153.436 160.446,153.536 Z" style="stroke:none;fill-rule:nonzero;fill:#000000;fill-opacity:1;"/>
        </g>
        <g id="Shape32">
            <desc shapeID="32" type="0" basicInfo-basicType="0" basicInfo-roundedRectRadius="12" basicInfo-polygonSides="6" basicInfo-starPoints="5" bounding="rect(-6.7417,-7.57581,13.4834,15.1516)" text="" font-familyName="" font-pixelSize="20" font-bold="0" font-underline="0" font-alignment="1" strokeStyle="0" markerStart="0" markerEnd="0" shadowEnabled="0" shadowOffsetX="0" shadowOffsetY="2" shadowBlur="4" shadowOpacity="160" blurEnabled="0" blurRadius="4" transform="matrix(1,0,0,1,131.688,165.187)" pers-center="0,0" pers-size="0,0" pers-start="0,0" pers-end="0,0" locked="0" mesh="" flag=""/>
            <path id="shapePath32" d="M137.346,167.336 C137.346,167.636 137.446,167.936 137.546,168.236 C137.846,170.236 136.946,171.836 135.046,172.436 C134.246,172.636 133.346,172.836 132.546,172.736 C130.746,172.636 128.946,172.436 127.346,171.336 C126.246,170.536 125.546,169.536 125.346,168.236 C125.146,166.736 124.946,165.236 124.946,163.736 C125.046,160.536 127.646,158.536 130.246,157.836 C131.546,157.536 132.846,157.536 134.146,157.836 C135.446,158.136 136.246,158.936 136.846,160.036 C137.346,161.136 137.746,162.236 138.146,163.436 C138.646,165.236 138.546,165.936 137.346,167.336 M133.546,166.036 C133.346,165.336 133.246,164.736 132.946,164.236 C132.846,164.036 132.546,163.936 132.246,163.936 C131.346,163.836 130.546,164.636 130.446,165.536 C130.446,166.336 130.946,166.836 132.146,166.836 C132.946,166.936 133.546,166.436 133.546,166.036 Z" style="stroke:none;fill-rule:nonzero;fill:#000000;fill-opacity:1;"/>
        </g>
        <g id="Shape33">
            <desc shapeID="33" type="0" basicInfo-basicType="0" basicInfo-roundedRectRadius="12" basicInfo-polygonSides="6" basicInfo-starPoints="5" bounding="rect(-7.01362,-7.88164,14.0273,15.7632)" text="" font-familyName="" font-pixelSize="20" font-bold="0" font-underline="0" font-alignment="1" strokeStyle="0" markerStart="0" markerEnd="0" shadowEnabled="0" shadowOffsetX="0" shadowOffsetY="2" shadowBlur="4" shadowOpacity="160" blurEnabled="0" blurRadius="4" transform="matrix(1,0,0,1,141.06,149.571)" pers-center="0,0" pers-size="0,0" pers-start="0,0" pers-end="0,0" locked="0" mesh="" flag=""/>
            <path id="shapePath33" d="M141.446,157.336 C139.846,157.636 138.546,156.936 137.346,155.836 C136.446,154.936 135.246,154.436 134.746,153.136 C134.746,153.036 134.646,152.936 134.546,152.836 C133.846,150.836 133.946,148.736 134.446,146.736 C134.846,145.036 136.146,143.736 137.646,142.836 C138.446,142.436 139.246,142.036 140.146,141.836 C142.146,141.336 144.046,142.136 145.046,143.936 C145.746,145.236 146.446,146.436 146.546,148.036 C146.646,149.136 147.346,150.136 147.846,151.136 C147.946,151.436 148.146,151.736 148.046,152.036 C147.446,153.736 146.846,155.436 145.146,156.336 C144.046,157.036 142.946,157.736 141.446,157.336 M143.146,149.436 C143.146,148.936 142.546,148.136 142.046,148.036 C141.446,147.936 140.446,148.636 140.246,149.336 C139.946,150.236 140.746,151.336 141.646,151.336 C142.246,151.336 143.146,150.036 143.146,149.436 Z" style="stroke:none;fill-rule:nonzero;fill:#000000;fill-opacity:1;"/>
        </g>
        <g id="Shape34">
            <desc shapeID="34" type="0" basicInfo-basicType="0" basicInfo-roundedRectRadius="12" basicInfo-polygonSides="6" basicInfo-starPoints="5" bounding="rect(-6.74561,-7.62084,13.4912,15.2417)" text="" font-familyName="" font-pixelSize="20" font-bold="0" font-underline="0" font-alignment="1" strokeStyle="0" markerStart="0" markerEnd="0" shadowEnabled="0" shadowOffsetX="0" shadowOffsetY="2" shadowBlur="4" shadowOpacity="160" blurEnabled="0" blurRadius="4" transform="matrix(1,0,0,1,56.4007,86.8453)" pers-center="0,0" pers-size="0,0" pers-start="0,0" pers-end="0,0" locked="0" mesh="" flag=""/>
            <path id="shapePath34" d="M63.1463,85.836 C62.9463,86.336 62.9463,86.7359 62.7463,87.1359 C62.3463,87.9359 62.2463,88.7359 62.5463,89.5359 C62.6463,89.6359 62.6463,89.836 62.7463,89.9359 C63.1463,91.6359 63.0463,91.9359 61.4463,92.836 C60.6463,93.336 59.8463,93.9359 58.9463,94.1359 C56.2463,94.9359 53.6463,94.2359 51.5463,92.5359 C49.8463,91.1359 49.4463,89.0359 49.7463,86.9359 C49.9463,85.6359 50.3463,84.336 50.8463,83.1359 C51.8463,80.6359 55.2463,78.7359 57.7463,79.336 C59.2463,79.6359 60.5463,80.5359 61.5463,81.836 C62.1463,82.5359 62.2463,83.6359 62.5463,84.5359 C62.7463,85.0359 62.9463,85.4359 63.1463,85.836 M57.9463,88.336 C58.2463,87.5359 58.4463,86.9359 58.6463,86.336 C58.1463,85.7359 57.4463,85.4359 56.8463,85.7359 C56.0463,86.1359 56.1463,87.0359 56.2463,87.9359 C56.7463,88.1359 57.2463,88.2359 57.9463,88.336 Z" style="stroke:none;fill-rule:nonzero;fill:#000000;fill-opacity:1;"/>
        </g>
        <g id="Shape35">
            <desc shapeID="35" type="0" basicInfo-basicType="0" basicInfo-roundedRectRadius="12" basicInfo-polygonSides="6" basicInfo-starPoints="5" bounding="rect(-7.65707,-6.97999,15.3142,13.96)" text="" font-familyName="" font-pixelSize="20" font-bold="0" font-underline="0" font-alignment="1" strokeStyle="0" markerStart="0" markerEnd="0" shadowEnabled="0" shadowOffsetX="0" shadowOffsetY="2" shadowBlur="4" shadowOpacity="160" blurEnabled="0" blurRadius="4" transform="matrix(1,0,0,1,41.3364,119.287)" pers-center="0,0" pers-size="0,0" pers-start="0,0" pers-end="0,0" locked="0" mesh="" flag=""/>
            <path id="shapePath35" d="M40.4463,112.436 C40.9463,112.436 41.4463,112.336 41.8463,112.436 C42.5463,112.636 43.2463,112.836 43.8463,113.136 C44.5463,113.436 45.3463,114.136 46.0463,114.236 C47.5463,114.236 48.2463,115.136 48.5463,116.236 C49.3463,118.936 49.1463,121.736 47.3463,124.036 C45.4463,126.336 43.2463,126.836 40.3463,125.636 C39.0463,125.036 37.7463,124.236 36.4463,123.536 C33.9463,122.336 32.5463,117.136 34.8463,114.636 C36.3463,112.936 38.1463,111.936 40.4463,112.436 M41.1463,116.236 C39.8463,116.836 39.5463,117.436 39.8463,118.536 C40.1463,119.336 41.5463,120.336 42.2463,120.336 C42.9463,120.336 43.4463,119.736 43.7463,118.236 C42.8463,117.636 41.9463,116.936 41.1463,116.236 Z" style="stroke:none;fill-rule:nonzero;fill:#000000;fill-opacity:1;"/>
        </g>
        <g id="Shape36">
            <desc shapeID="36" type="0" basicInfo-basicType="0" basicInfo-roundedRectRadius="12" basicInfo-polygonSides="6" basicInfo-starPoints="5" bounding="rect(-7.24773,-7.20001,14.4954,14.4)" text="" font-familyName="" font-pixelSize="20" font-bold="0" font-underline="0" font-alignment="1" strokeStyle="0" markerStart="0" markerEnd="0" shadowEnabled="0" shadowOffsetX="0" shadowOffsetY="2" shadowBlur="4" shadowOpacity="160" blurEnabled="0" blurRadius="4" transform="matrix(1,0,0,1,157.492,183.036)" pers-center="0,0" pers-size="0,0" pers-start="0,0" pers-end="0,0" locked="0" mesh="" flag=""/>
            <path id="shapePath36" d="M157.846,190.236 C153.546,190.136 150.146,186.636 150.246,182.336 C150.246,181.436 150.346,180.436 150.546,179.536 C150.846,177.736 152.746,175.836 154.546,175.836 C156.146,175.936 157.846,176.336 159.046,177.636 C159.446,178.036 159.946,178.336 160.346,178.636 C161.046,179.036 161.746,179.336 162.446,179.736 C164.546,181.136 165.346,183.936 164.246,186.236 C163.146,188.636 160.446,190.236 157.846,190.236 M156.746,181.236 C156.646,182.236 156.546,182.936 156.546,183.636 C156.546,184.136 156.846,184.636 157.446,184.536 C158.046,184.436 158.846,183.736 158.646,183.336 C158.546,182.936 158.346,182.436 158.046,182.036 C157.846,181.636 157.446,181.536 156.746,181.236 Z" style="stroke:none;fill-rule:nonzero;fill:#000000;fill-opacity:1;"/>
        </g>
        <g id="Shape37">
            <desc shapeID="37" type="0" basicInfo-basicType="0" basicInfo-roundedRectRadius="12" basicInfo-polygonSides="6" basicInfo-starPoints="5" bounding="rect(-7.56659,-7.13843,15.1332,14.2769)" text="" font-familyName="" font-pixelSize="20" font-bold="0" font-underline="0" font-alignment="1" strokeStyle="0" markerStart="0" markerEnd="0" shadowEnabled="0" shadowOffsetX="0" shadowOffsetY="2" shadowBlur="4" shadowOpacity="160" blurEnabled="0" blurRadius="4" transform="matrix(1,0,0,1,139.313,181.03)" pers-center="0,0" pers-size="0,0" pers-start="0,0" pers-end="0,0" locked="0" mesh="" flag=""/>
            <path id="shapePath37" d="M131.746,179.836 C132.146,177.736 132.946,175.536 135.446,174.336 C136.346,173.936 137.146,173.736 138.046,174.036 C139.246,174.436 140.346,175.036 141.446,175.536 C142.546,176.036 143.646,176.536 144.646,177.036 C146.346,177.936 147.046,179.536 146.846,181.536 C146.646,183.436 145.646,184.836 144.046,185.836 C143.346,186.336 142.746,186.836 142.046,187.336 C140.946,188.136 139.546,188.336 138.446,188.036 C134.846,187.136 131.946,184.636 131.746,179.836 M138.646,182.336 C139.146,182.036 139.646,181.936 140.046,181.636 C140.546,181.236 141.346,181.136 141.246,180.336 C141.146,179.436 140.246,179.736 139.746,179.536 C138.746,179.236 138.146,179.736 138.246,180.836 C138.246,181.336 138.446,181.736 138.646,182.336 Z" style="stroke:none;fill-rule:nonzero;fill:#000000;fill-opacity:1;"/>
        </g>
        <g id="Shape38">
            <desc shapeID="38" type="0" basicInfo-basicType="0" basicInfo-roundedRectRadius="12" basicInfo-polygonSides="6" basicInfo-starPoints="5" bounding="rect(-7.47791,-7.12341,14.9558,14.2468)" text="" font-familyName="" font-pixelSize="20" font-bold="0" font-underline="0" font-alignment="1" strokeStyle="0" markerStart="0" markerEnd="0" shadowEnabled="0" shadowOffsetX="0" shadowOffsetY="2" shadowBlur="4" shadowOpacity="160" blurEnabled="0" blurRadius="4" transform="matrix(1,0,0,1,166.509,170.059)" pers-center="0,0" pers-size="0,0" pers-start="0,0" pers-end="0,0" locked="0" mesh="" flag=""/>
            <path id="shapePath38" d="M164.846,162.936 C166.146,162.936 167.146,163.836 168.246,164.336 C168.846,164.636 169.446,165.036 169.946,165.436 C170.946,166.136 172.046,166.736 173.046,167.536 C173.946,168.336 174.246,170.536 173.746,171.636 C173.346,172.336 172.946,173.136 172.346,173.736 C171.046,175.136 169.646,176.336 167.746,176.936 C166.446,177.336 165.246,177.236 164.046,176.736 C162.546,176.036 161.246,175.136 160.246,173.736 C158.146,170.936 158.846,166.436 161.746,164.336 C163.346,163.136 163.746,162.936 164.846,162.936 M165.746,171.336 C166.646,171.236 167.346,170.936 167.746,170.136 C167.046,169.736 166.346,169.436 165.546,168.936 C165.346,169.836 165.246,170.536 165.746,171.336 Z" style="stroke:none;fill-rule:nonzero;fill:#000000;fill-opacity:1;"/>
        </g>
        <g id="Shape39">
            <desc shapeID="39" type="0" basicInfo-basicType="0" basicInfo-roundedRectRadius="12" basicInfo-polygonSides="6" basicInfo-starPoints="5" bounding="rect(-7.83104,-6.5,15.6621,13)" text="" font-familyName="" font-pixelSize="20" font-bold="0" font-underline="0" font-alignment="1" strokeStyle="0" markerStart="0" markerEnd="0" shadowEnabled="0" shadowOffsetX="0" shadowOffsetY="2" shadowBlur="4" shadowOpacity="160" blurEnabled="0" blurRadius="4" transform="matrix(1,0,0,1,95.6662,80.2359)" pers-center="0,0" pers-size="0,0" pers-start="0,0" pers-end="0,0" locked="0" mesh="" flag=""/>
            <path id="shapePath39" d="M94.0463,75.1359 C94.3463,74.9359 94.7463,74.7359 94.9463,74.4359 C95.4463,73.836 96.1463,73.7359 96.7463,73.7359 C98.9463,73.9359 101.046,74.336 102.446,76.2359 C103.246,77.336 103.646,78.4359 103.446,79.836 C102.846,83.6359 99.2463,86.5359 95.7463,86.7359 C95.0463,86.7359 94.2463,86.6359 93.6463,86.336 C91.8463,85.5359 90.1463,84.5359 88.9463,83.0359 C87.7463,81.4359 87.6463,79.4359 88.0463,77.6359 C88.3463,76.0359 89.6463,75.1359 90.9463,74.4359 C91.6463,74.1359 92.7463,74.6359 93.6463,74.7359 C93.6463,74.9359 93.7463,75.0359 94.0463,75.1359 M97.6463,78.7359 C96.5463,78.5359 95.7463,78.2359 94.9463,78.2359 C94.1463,78.2359 93.4463,79.5359 93.8463,80.1359 C94.3463,80.9359 95.2463,81.1359 96.0463,80.6359 C96.6463,80.2359 97.0463,79.5359 97.6463,78.7359 Z" style="stroke:none;fill-rule:nonzero;fill:#000000;fill-opacity:1;"/>
        </g>
        <g id="Shape40">
            <desc shapeID="40" type="0" basicInfo-basicType="0" basicInfo-roundedRectRadius="12" basicInfo-polygonSides="6" basicInfo-starPoints="5" bounding="rect(-7.39023,-7.20891,14.7805,14.4178)" text="" font-familyName="" font-pixelSize="20" font-bold="0" font-underline="0" font-alignment="1" strokeStyle="0" markerStart="0" markerEnd="0" shadowEnabled="0" shadowOffsetX="0" shadowOffsetY="2" shadowBlur="4" shadowOpacity="160" blurEnabled="0" blurRadius="4" transform="matrix(1,0,0,1,148.832,165.727)" pers-center="0,0" pers-size="0,0" pers-start="0,0" pers-end="0,0" locked="0" mesh="" flag=""/>
            <path id="shapePath40" d="M149.046,172.936 C146.346,172.936 144.646,171.336 143.046,169.536 C140.846,167.136 141.246,164.436 142.246,161.736 C142.646,160.636 143.446,159.836 144.546,159.436 C145.246,159.236 145.946,159.036 146.646,158.736 C148.046,158.236 149.246,158.636 150.346,159.536 C151.746,160.636 153.146,161.736 154.546,162.836 C156.646,164.536 156.646,166.836 155.246,169.136 C154.446,170.436 153.446,171.636 151.946,172.136 C150.946,172.536 150.046,172.736 149.046,172.936 M147.846,165.636 C147.846,166.436 148.046,166.736 148.746,166.736 C149.546,166.736 150.246,166.236 150.346,165.536 C150.346,164.936 149.846,164.336 149.146,164.336 C148.446,164.236 147.846,164.736 147.846,165.636 Z" style="stroke:none;fill-rule:nonzero;fill:#000000;fill-opacity:1;"/>
        </g>
        <g id="Shape41">
            <desc shapeID="41" type="0" basicInfo-basicType="0" basicInfo-roundedRectRadius="12" basicInfo-polygonSides="6" basicInfo-starPoints="5" bounding="rect(-6.88506,-7.25183,13.7701,14.5037)" text="" font-familyName="" font-pixelSize="20" font-bold="0" font-underline="0" font-alignment="1" strokeStyle="0" markerStart="0" markerEnd="0" shadowEnabled="0" shadowOffsetX="0" shadowOffsetY="2" shadowBlur="4" shadowOpacity="160" blurEnabled="0" blurRadius="4" transform="matrix(1,0,0,1,141.608,114.777)" pers-center="0,0" pers-size="0,0" pers-start="0,0" pers-end="0,0" locked="0" mesh="" flag=""/>
            <path id="shapePath41" d="M134.746,115.036 C134.546,112.536 135.646,110.536 137.546,108.936 C139.546,107.336 141.746,107.136 144.046,108.136 C144.346,108.236 144.746,108.436 144.946,108.736 C145.746,110.036 146.746,111.336 147.046,112.736 C147.346,113.936 147.846,115.136 148.246,116.236 C148.646,117.236 148.546,117.936 148.046,118.736 C147.246,119.936 146.346,120.836 144.946,121.336 C142.746,122.136 140.546,122.336 138.346,121.436 C137.746,121.136 137.246,120.736 136.846,120.336 C135.046,118.436 134.746,117.636 134.746,115.036 M143.546,115.236 C143.046,114.536 142.846,113.736 141.846,113.936 C141.046,114.136 140.646,114.736 140.646,115.536 C141.946,116.336 142.346,116.236 143.546,115.236 Z" style="stroke:none;fill-rule:nonzero;fill:#000000;fill-opacity:1;"/>
        </g>
        <g id="Shape42">
            <desc shapeID="42" type="0" basicInfo-basicType="0" basicInfo-roundedRectRadius="12" basicInfo-polygonSides="6" basicInfo-starPoints="5" bounding="rect(-7.8209,-6.47587,15.6418,12.9517)" text="" font-familyName="" font-pixelSize="20" font-bold="0" font-underline="0" font-alignment="1" strokeStyle="0" markerStart="0" markerEnd="0" shadowEnabled="0" shadowOffsetX="0" shadowOffsetY="2" shadowBlur="4" shadowOpacity="160" blurEnabled="0" blurRadius="4" transform="matrix(1,0,0,1,81.2148,160.651)" pers-center="0,0" pers-size="0,0" pers-start="0,0" pers-end="0,0" locked="0" mesh="" flag=""/>
            <path id="shapePath42" d="M79.0463,154.436 C79.5463,154.436 80.0463,154.436 80.4463,154.336 C81.6463,153.936 82.7463,154.336 83.7463,154.936 C84.4463,155.436 85.2463,155.636 86.0463,155.736 C87.1463,155.836 87.7463,156.336 88.2463,157.236 C89.6463,160.336 89.2463,163.236 86.5463,165.636 C85.1463,166.936 83.1463,167.436 81.2463,166.936 C79.4463,166.436 77.6463,165.536 75.9463,164.736 C75.3463,164.436 74.7463,163.736 74.5463,163.136 C74.0463,162.036 73.6463,160.736 73.4463,159.536 C73.1463,157.536 74.1463,155.936 76.1463,155.136 C77.0463,154.736 77.9463,154.136 79.0463,154.436 M83.5463,160.236 C82.9463,159.436 82.2463,158.636 81.6463,157.836 C81.1463,158.036 80.6463,158.136 80.2463,158.336 C79.5463,158.636 79.4463,159.236 79.7463,159.736 C80.1463,160.636 80.9463,161.036 81.8463,161.236 C82.6463,161.436 82.9463,160.836 83.5463,160.236 Z" style="stroke:none;fill-rule:nonzero;fill:#000000;fill-opacity:1;"/>
        </g>
        <g id="Shape43">
            <desc shapeID="43" type="0" basicInfo-basicType="0" basicInfo-roundedRectRadius="12" basicInfo-polygonSides="6" basicInfo-starPoints="5" bounding="rect(-6.82505,-7.42816,13.6501,14.8563)" text="" font-familyName="" font-pixelSize="20" font-bold="0" font-underline="0" font-alignment="1" strokeStyle="0" markerStart="0" markerEnd="0" shadowEnabled="0" shadowOffsetX="0" shadowOffsetY="2" shadowBlur="4" shadowOpacity="160" blurEnabled="0" blurRadius="4" transform="matrix(1,0,0,1,128.408,101.964)" pers-center="0,0" pers-size="0,0" pers-start="0,0" pers-end="0,0" locked="0" mesh="" flag=""/>
            <path id="shapePath43" d="M133.646,100.736 C134.046,101.236 134.446,101.836 134.746,102.336 C135.546,103.836 135.346,105.736 134.246,107.036 C131.146,110.736 124.746,110.036 122.546,105.236 C121.546,103.036 121.346,100.736 121.846,98.4359 C122.246,96.5359 123.346,95.0359 125.446,94.836 C126.146,94.7359 126.746,94.5359 127.446,94.5359 C128.446,94.5359 129.546,94.5359 130.246,95.4359 C130.746,96.1359 131.646,96.5359 132.146,97.2359 C132.946,98.2359 133.646,99.336 133.146,100.736 C133.346,100.736 133.546,100.736 133.646,100.736 M127.346,100.436 C127.346,101.136 127.246,101.736 127.346,102.336 C127.446,103.136 128.046,103.336 128.746,103.436 C129.346,103.536 129.846,103.436 130.046,102.836 C130.246,102.336 130.246,101.736 129.846,101.236 C129.246,100.436 128.546,100.036 127.346,100.436 Z" style="stroke:none;fill-rule:nonzero;fill:#000000;fill-opacity:1;"/>
        </g>
        <g id="Shape44">
            <desc shapeID="44" type="0" basicInfo-basicType="0" basicInfo-roundedRectRadius="12" basicInfo-polygonSides="6" basicInfo-starPoints="5" bounding="rect(-7.37276,-7.18396,14.7455,14.3679)" text="" font-familyName="" font-pixelSize="20" font-bold="0" font-underline="0" font-alignment="1" strokeStyle="0" markerStart="0" markerEnd="0" shadowEnabled="0" shadowOffsetX="0" shadowOffsetY="2" shadowBlur="4" shadowOpacity="160" blurEnabled="0" blurRadius="4" transform="matrix(1,0,0,1,141.891,95.6944)" pers-center="0,0" pers-size="0,0" pers-start="0,0" pers-end="0,0" locked="0" mesh="" flag=""/>
            <path id="shapePath44" d="M149.246,96.336 C148.946,97.336 148.746,98.336 148.346,99.2359 C147.546,101.136 145.646,101.636 143.946,102.336 C143.446,102.536 142.946,102.636 142.446,102.736 C140.646,103.236 139.146,102.336 137.946,101.336 C136.446,99.9359 135.046,98.336 134.646,96.1359 C133.846,91.836 136.946,88.7359 140.046,88.5359 C140.846,88.4359 141.746,88.6359 142.446,89.0359 C143.546,89.6359 144.446,90.5359 145.446,91.336 C146.246,91.9359 146.946,92.7359 147.846,93.336 C149.046,94.0359 149.346,95.0359 149.246,96.336 M143.446,96.336 C143.446,95.336 143.646,94.336 142.546,94.0359 C141.946,93.836 141.246,93.836 140.846,94.5359 C140.346,95.2359 140.646,96.1359 141.746,97.1359 C142.246,96.9359 142.846,96.6359 143.446,96.336 Z" style="stroke:none;fill-rule:nonzero;fill:#000000;fill-opacity:1;"/>
        </g>
        <g id="Shape45">
            <desc shapeID="45" type="0" basicInfo-basicType="0" basicInfo-roundedRectRadius="12" basicInfo-polygonSides="6" basicInfo-starPoints="5" bounding="rect(-7.28638,-6.70389,14.5728,13.4078)" text="" font-familyName="" font-pixelSize="20" font-bold="0" font-underline="0" font-alignment="1" strokeStyle="0" markerStart="0" markerEnd="0" shadowEnabled="0" shadowOffsetX="0" shadowOffsetY="2" shadowBlur="4" shadowOpacity="160" blurEnabled="0" blurRadius="4" transform="matrix(1,0,0,1,177.56,160.329)" pers-center="0,0" pers-size="0,0" pers-start="0,0" pers-end="0,0" locked="0" mesh="" flag=""/>
            <path id="shapePath45" d="M184.746,161.536 C184.646,163.736 183.446,165.236 181.546,166.136 C180.646,166.536 179.746,166.736 178.846,166.936 C177.846,167.136 176.846,167.036 175.946,166.536 C173.446,165.236 171.446,163.536 170.546,160.736 C169.946,158.936 170.346,157.336 171.646,155.936 C173.446,153.836 177.946,152.336 180.946,155.236 C181.246,155.536 181.646,155.836 181.746,156.236 C181.846,157.136 182.446,157.636 183.046,157.836 C184.646,158.436 184.646,159.736 184.846,161.036 C184.846,161.136 184.746,161.336 184.746,161.536 M178.946,160.936 C178.946,160.236 178.946,159.636 178.946,158.936 C177.946,158.836 177.146,158.736 176.446,159.436 C176.746,161.136 177.346,161.536 178.946,160.936 Z" style="stroke:none;fill-rule:nonzero;fill:#000000;fill-opacity:1;"/>
        </g>
        <g id="Shape46">
            <desc shapeID="46" type="0" basicInfo-basicType="0" basicInfo-roundedRectRadius="12" basicInfo-polygonSides="6" basicInfo-starPoints="5" bounding="rect(-6.68503,-7.4461,13.37,14.8922)" text="" font-familyName="" font-pixelSize="20" font-bold="0" font-underline="0" font-alignment="1" strokeStyle="0" markerStart="0" markerEnd="0" shadowEnabled="0" shadowOffsetX="0" shadowOffsetY="2" shadowBlur="4" shadowOpacity="160" blurEnabled="0" blurRadius="4" transform="matrix(1,0,0,1,171.625,129.732)" pers-center="0,0" pers-size="0,0" pers-start="0,0" pers-end="0,0" locked="0" mesh="" flag=""/>
            <path id="shapePath46" d="M164.946,129.236 C164.946,125.236 166.846,123.436 169.846,122.436 C170.346,122.236 171.046,122.236 171.546,122.436 C173.246,123.336 175.046,124.236 175.946,126.136 C176.446,127.336 176.946,128.636 178.046,129.536 C178.146,129.636 178.246,129.936 178.246,130.136 C178.746,132.936 176.246,136.436 173.546,137.036 C171.846,137.436 170.446,136.936 169.046,136.236 C168.446,135.936 168.046,135.136 167.546,134.536 C166.046,132.936 164.846,131.236 164.946,129.236 M172.646,129.736 C172.646,129.436 172.646,129.336 172.646,129.136 C172.746,128.536 172.446,128.136 171.846,128.236 C171.546,128.236 171.346,128.736 171.146,129.036 C171.046,129.236 171.046,129.436 171.146,129.636 C171.246,130.236 171.246,131.036 172.046,131.036 C172.846,131.036 172.546,130.136 172.646,129.736 Z" style="stroke:none;fill-rule:nonzero;fill:#000000;fill-opacity:1;"/>
        </g>
        <g id="Shape47">
            <desc shapeID="47" type="0" basicInfo-basicType="0" basicInfo-roundedRectRadius="12" basicInfo-polygonSides="6" basicInfo-starPoints="5" bounding="rect(-6.9826,-6.53312,13.9652,13.0662)" text="" font-familyName="" font-pixelSize="20" font-bold="0" font-underline="0" font-alignment="1" strokeStyle="0" markerStart="0" markerEnd="0" shadowEnabled="0" shadowOffsetX="0" shadowOffsetY="2" shadowBlur="4" shadowOpacity="160" blurEnabled="0" blurRadius="4" transform="matrix(1,0,0,1,173.766,187.218)" pers-center="0,0" pers-size="0,0" pers-start="0,0" pers-end="0,0" locked="0" mesh="" flag=""/>
            <path id="shapePath47" d="M180.746,186.936 C180.846,190.936 176.946,194.436 172.946,193.636 C171.046,193.236 169.446,192.236 168.146,190.836 C166.746,189.236 166.446,187.536 167.146,185.536 C167.646,184.036 168.046,182.436 169.446,181.336 C169.946,180.936 170.446,180.736 171.146,180.736 C173.546,180.436 175.546,181.536 177.846,181.836 C178.946,181.936 179.546,182.736 179.946,183.736 C180.246,184.736 180.446,185.836 180.746,186.936 M173.646,188.136 C174.946,187.536 175.246,186.336 174.446,185.436 C173.946,184.936 173.446,184.936 173.246,185.636 C172.946,186.536 172.746,187.436 173.646,188.136 Z" style="stroke:none;fill-rule:nonzero;fill:#000000;fill-opacity:1;"/>
        </g>
        <g id="Shape48">
            <desc shapeID="48" type="0" basicInfo-basicType="0" basicInfo-roundedRectRadius="12" basicInfo-polygonSides="6" basicInfo-starPoints="5" bounding="rect(-6.79136,-6.60772,13.5827,13.2155)" text="" font-familyName="" font-pixelSize="20" font-bold="0" font-underline="0" font-alignment="1" strokeStyle="0" markerStart="0" markerEnd="0" shadowEnabled="0" shadowOffsetX="0" shadowOffsetY="2" shadowBlur="4" shadowOpacity="160" blurEnabled="0" blurRadius="4" transform="matrix(1,0,0,1,173.479,145.528)" pers-center="0,0" pers-size="0,0" pers-start="0,0" pers-end="0,0" locked="0" mesh="" flag=""/>
            <path id="shapePath48" d="M174.646,152.136 C172.146,152.036 170.146,151.036 168.546,149.036 C167.346,147.436 166.446,145.736 166.746,143.636 C167.146,140.236 170.146,138.236 173.446,139.136 C175.246,139.636 176.346,140.936 177.546,142.136 C178.246,142.836 178.846,143.636 179.546,144.336 C180.146,144.836 180.346,145.336 180.246,146.136 C180.146,147.436 179.946,148.636 179.146,149.836 C177.946,151.436 176.446,152.036 174.646,152.136 M174.846,144.936 C174.046,144.536 173.446,144.036 172.546,144.636 C172.946,145.236 172.946,146.136 173.846,146.236 C174.746,146.236 174.546,145.536 174.846,144.936 Z" style="stroke:none;fill-rule:nonzero;fill:#000000;fill-opacity:1;"/>
        </g>
        <g id="Shape49">
            <desc shapeID="49" type="0" basicInfo-basicType="0" basicInfo-roundedRectRadius="12" basicInfo-polygonSides="6" basicInfo-starPoints="5" bounding="rect(-6.7143,-6,13.4286,12)" text="" font-familyName="" font-pixelSize="20" font-bold="0" font-underline="0" font-alignment="1" strokeStyle="0" markerStart="0" markerEnd="0" shadowEnabled="0" shadowOffsetX="0" shadowOffsetY="2" shadowBlur="4" shadowOpacity="160" blurEnabled="0" blurRadius="4" transform="matrix(1,0,0,1,182.275,176.636)" pers-center="0,0" pers-size="0,0" pers-start="0,0" pers-end="0,0" locked="0" mesh="" flag=""/>
            <path id="shapePath49" d="M183.546,182.636 C179.946,182.636 176.346,179.736 175.646,176.336 C175.246,174.336 176.246,171.736 178.546,170.736 C178.846,170.636 179.246,170.636 179.646,170.636 C180.946,170.836 182.246,171.036 183.446,171.736 C184.246,172.236 185.346,172.236 186.346,172.336 C187.246,172.436 187.746,173.036 188.246,173.736 C190.246,176.836 187.946,181.636 184.446,182.436 C184.146,182.636 183.746,182.636 183.546,182.636 Z" style="stroke:none;fill-rule:nonzero;fill:#000000;fill-opacity:1;"/>
        </g>
    </g>
</svg>
