<?xml version="1.0"?>
<svg version="1.1" xmlns="http://www.w3.org/2000/svg" xmlns:xlink="http://www.w3.org/1999/xlink" width="71" height="72">
    <desc iVinci="yes" version="4.6" gridStep="20" showGrid="no" snapToGrid="no" codePlatform="0"/>
    <g id="Layer1" name="Layer 1" opacity="1">
        <g id="Shape1">
            <desc shapeID="1" type="0" basicInfo-basicType="0" basicInfo-roundedRectRadius="12" basicInfo-polygonSides="6" basicInfo-starPoints="5" bounding="rect(-33.2135,-34.5106,66.427,69.0212)" text="" font-familyName="" font-pixelSize="20" font-bold="0" font-underline="0" font-alignment="1" strokeStyle="0" markerStart="0" markerEnd="0" shadowEnabled="0" shadowOffsetX="0" shadowOffsetY="2" shadowBlur="4" shadowOpacity="160" blurEnabled="0" blurRadius="4" transform="matrix(1,0,0,1,34.9429,34.5106)" pers-center="0,0" pers-size="0,0" pers-start="0,0" pers-end="0,0" locked="0" mesh="" flag=""/>
            <path id="shapePath1" d="M43.9627,57.1212 C43.4627,58.9212 43.0627,60.7212 42.4627,62.5212 C41.8627,64.1212 41.1627,65.6212 40.3627,67.1212 C39.9627,67.7212 39.0627,68.2212 38.3627,68.5212 C37.6627,68.8212 36.9627,68.8212 36.0627,69.0212 C35.1627,67.8212 34.1627,66.6212 33.1627,65.3212 C31.3627,63.0212 29.6627,60.7212 27.8627,58.4212 C27.6627,58.1212 27.1627,58.0212 26.7627,58.0212 C23.4627,58.0212 20.1627,57.6212 16.9627,56.8212 C11.2627,55.4212 7.16273,51.9212 4.66273,46.6212 C2.26271,41.6212 1.36272,36.3212 1.86272,30.8212 C2.16273,27.2212 2.96272,23.6212 4.46272,20.3212 C4.76271,19.5212 5.36272,18.9212 5.76271,18.2212 C7.66273,15.1212 10.0627,12.6212 13.0627,10.5212 C14.4627,9.52116 15.9627,8.42119 16.8627,7.02116 C18.1627,5.02116 20.1627,4.32118 22.1627,3.42119 C23.5627,2.82118 25.1627,2.52116 26.6627,1.82118 C30.2627,0.12117 34.0627,-0.0788116 37.8627,0.0211639 C39.8627,0.0211639 41.9627,0.62117 43.8627,1.12117 C47.3627,2.12117 50.8627,3.22118 53.8627,5.22118 C57.2627,7.42119 60.3627,9.92119 62.8627,13.1212 C64.5627,15.3212 65.5627,17.9212 66.5627,20.5212 C67.9627,24.5212 68.3627,28.6212 68.0627,32.8212 C67.7627,37.1212 66.4627,41.2212 64.4627,45.0212 C63.6627,46.6212 62.4627,48.0212 61.1627,49.2212 C57.2627,52.8212 52.7627,55.5212 47.4627,56.7212 C46.3627,56.8212 45.1627,56.9212 43.9627,57.1212 M36.8627,59.1212 C36.9627,59.1212 37.1627,59.1212 37.2627,59.1212 C37.5627,57.4212 37.9627,55.7212 38.1627,54.0212 C38.3627,52.7212 38.9627,51.7212 40.2627,51.3212 C40.9627,51.1212 41.7627,50.9212 42.5627,50.9212 C44.2627,50.9212 46.0627,50.8212 47.6627,50.2212 C48.7627,49.8212 49.8627,49.2212 50.9627,48.6212 C54.3627,46.6212 57.3627,44.2212 59.1627,40.5212 C59.6627,39.4212 59.9627,38.2212 60.3627,37.1212 C61.6627,33.6212 61.9627,30.0212 61.2627,26.4212 C60.8627,24.4212 60.1627,22.3212 59.3627,20.4212 C58.7627,19.1212 57.9627,17.8212 57.0627,16.7212 C55.9627,15.4212 54.6627,14.4212 53.3627,13.2212 C49.5627,9.82118 44.9627,8.02116 40.1627,6.72118 C37.9627,6.12117 35.6627,6.42119 33.3627,6.52116 C32.5627,6.52116 31.6627,6.82118 30.9627,7.02116 C29.1627,7.62117 27.2627,8.32118 25.4627,9.02116 C24.1627,9.52116 22.8627,10.1212 21.7627,11.0212 C19.9627,12.4212 18.3627,14.0212 16.7627,15.6212 C15.4627,16.9212 13.9627,17.6212 12.0627,16.9212 C10.4627,18.2212 9.56273,20.1212 8.76271,21.9212 C6.56273,27.2212 6.16273,32.7212 7.46272,38.3212 C7.76271,39.6212 8.26271,40.9212 8.76271,42.2212 C9.66273,44.6212 10.9627,46.8212 13.2627,48.2212 C17.7627,51.0212 22.5627,52.3212 27.8627,52.0212 C29.9627,51.9212 31.5627,52.5212 32.8627,54.2212 C34.1627,55.9212 35.5627,57.4212 36.8627,59.1212 Z" style="stroke:none;fill-rule:nonzero;fill:white;fill-opacity:1;"/>
        </g>
    </g>
</svg>
