<?xml version="1.0"?>
<svg version="1.1" xmlns="http://www.w3.org/2000/svg" xmlns:xlink="http://www.w3.org/1999/xlink" width="311" height="262">
    <desc iVinci="yes" version="4.6" gridStep="20" showGrid="no" snapToGrid="no" codePlatform="0"/>
    <g id="Layer1" name="Layer 1" opacity="1">
        <g id="Shape1">
            <desc shapeID="1" type="0" basicInfo-basicType="0" basicInfo-roundedRectRadius="12" basicInfo-polygonSides="6" basicInfo-starPoints="5" bounding="rect(-141.07,-124.813,282.14,249.627)" text="" font-familyName="" font-pixelSize="20" font-bold="0" font-underline="0" font-alignment="1" strokeStyle="0" markerStart="0" markerEnd="0" shadowEnabled="0" shadowOffsetX="0" shadowOffsetY="2" shadowBlur="4" shadowOpacity="160" blurEnabled="0" blurRadius="4" transform="matrix(0.998705,0,0,1,140.887,137.464)" pers-center="0,0" pers-size="0,0" pers-start="0,0" pers-end="0,0" locked="0" mesh="" flag=""/>
            <path id="shapePath1" d="M32.2691,76.7778 C33.2678,76.8777 34.1666,76.9778 35.1653,77.0778 C35.7645,77.1778 35.9643,76.8777 35.9643,76.2778 C36.2639,73.4778 36.6634,70.6778 37.0628,67.7778 C37.2626,66.1778 37.5622,64.4778 37.5622,62.7778 C37.6621,58.3777 39.0602,54.2778 40.9578,50.3777 C43.8541,44.4778 47.6491,39.2778 52.5428,34.9778 C52.9423,34.6778 53.142,34.0778 53.4416,33.6778 C53.6414,33.4778 53.7412,33.1778 54.0408,33.0778 C55.5389,32.3777 56.8372,31.3778 58.6349,31.2778 C59.8334,31.1778 60.9319,31.0778 61.8308,30.0778 C62.2302,29.6778 63.2289,29.7778 64.0279,29.7778 C65.9254,29.7778 67.9228,29.6778 69.8204,29.8778 C70.7192,29.9778 71.5181,30.7778 72.417,31.2778 C72.9164,31.5778 73.4157,31.9778 73.8152,32.2778 C75.8126,30.4778 77.7101,28.5778 79.7075,26.8778 C82.5039,24.5778 85.6998,23.0778 89.1952,22.0778 C90.3937,21.7778 91.692,21.4778 92.9903,21.1778 C98.0837,20.2778 102.478,21.3778 106.173,25.1778 C106.673,25.6778 107.072,26.1778 107.571,26.6778 C107.571,26.6778 107.671,26.6778 107.671,26.7778 C110.767,23.2778 114.762,21.0778 119.057,19.4778 C121.453,18.5778 123.85,18.1778 126.347,18.3778 C127.945,18.4778 129.543,18.2778 131.041,18.5778 C132.739,18.8778 134.536,19.3778 136.134,20.0778 C137.233,20.5778 138.032,21.5778 139.23,22.4778 C140.229,21.4778 141.527,19.9778 143.125,18.8778 C144.723,17.7778 146.321,16.4778 148.219,15.6778 C151.315,14.2778 154.71,14.0778 157.906,13.3778 C160.103,12.8778 162.4,12.9778 164.597,12.6778 C165.396,12.5778 166.195,12.7778 166.994,12.9778 C169.691,13.6778 172.387,14.6778 174.884,15.9778 C180.377,18.8778 184.871,22.7778 188.866,27.3778 C191.363,30.2778 193.26,33.5778 194.758,37.0778 C195.158,38.0778 195.358,39.2778 195.557,40.3777 C195.757,41.3777 196.356,41.5778 197.155,41.3777 C203.147,39.9778 209.24,39.3777 215.332,39.1778 C220.725,38.9778 226.018,39.1778 231.411,39.1778 C234.806,39.1778 238.202,39.1778 241.697,39.1778 C243.994,39.1778 246.291,39.1778 248.489,39.4778 C251.684,39.9778 255.08,39.6778 257.976,41.3777 C259.974,42.5778 262.171,42.7778 264.068,44.2778 C266.266,46.0778 266.365,48.0778 265.866,50.4778 C265.367,53.1778 263.769,55.2778 261.971,57.2778 C258.076,61.5778 253.682,65.1778 248.988,68.5778 C247.989,69.2778 247.09,70.0778 245.892,71.0778 C246.791,71.0778 247.39,71.1778 248.089,71.1778 C250.087,71.1778 252.184,71.2778 254.181,71.2778 C257.477,71.2778 260.473,72.4778 263.469,73.5778 C267.664,75.0778 271.858,76.8777 275.454,79.6778 C277.351,81.1778 278.949,82.8777 279.948,85.0778 C282.345,89.9778 282.245,94.8777 280.447,99.7778 C279.648,102.178 278.55,104.578 277.052,106.578 C274.155,110.278 271.259,114.278 266.865,116.378 C265.267,117.178 263.469,117.378 261.771,117.678 C259.874,118.078 258.076,118.478 256.179,118.578 C253.083,118.878 250.087,119.078 246.991,119.078 C242.896,119.078 238.701,118.678 234.607,118.778 C229.413,118.978 224.62,120.578 219.826,122.578 C216.83,123.778 214.133,125.478 211.636,127.478 C209.24,129.378 207.342,131.978 206.443,134.978 C204.945,139.578 204.246,144.378 203.846,149.178 C203.048,157.478 201.45,165.678 199.153,173.678 C198.254,176.878 196.656,179.778 194.359,182.278 C193.36,183.378 192.262,184.378 191.163,185.478 C190.963,185.678 190.863,185.978 190.863,186.178 C190.863,190.778 190.763,195.478 190.963,200.078 C191.063,203.478 191.562,206.978 191.862,210.378 C191.962,211.878 191.862,213.378 191.962,214.978 C192.062,220.278 192.262,225.678 192.461,230.978 C192.561,233.278 192.861,235.678 192.861,237.978 C192.861,240.778 192.561,243.578 192.461,246.478 C192.361,247.478 192.262,248.478 192.262,249.578 C192.162,250.578 191.862,251.278 190.963,251.778 C190.564,251.978 190.264,252.578 190.064,253.078 C189.465,254.078 188.766,253.978 188.067,253.278 C187.867,253.578 187.767,253.778 187.668,253.878 C186.968,253.678 186.269,253.478 185.47,253.178 C185.171,255.678 183.473,256.578 181.376,256.878 C181.176,256.878 180.876,256.678 180.577,256.578 C179.778,256.278 178.979,255.678 178.28,255.778 C174.984,255.778 171.788,255.978 168.492,256.178 C165.097,256.478 161.701,256.978 158.206,257.478 C155.11,257.878 152.114,258.378 149.018,258.778 C146.321,259.178 143.725,259.678 141.028,259.978 C137.732,260.378 134.536,260.578 131.241,260.678 C127.945,260.778 124.649,260.578 121.354,260.778 C116.959,261.078 112.465,261.778 108.071,261.978 C103.577,262.278 98.9825,262.578 94.4883,261.678 C92.5908,261.278 90.5934,261.378 88.6959,260.778 C87.098,260.278 85.5999,259.378 84.3016,258.278 C83.7023,257.778 83.7023,256.378 83.6025,255.378 C83.4028,253.178 83.203,250.978 83.1031,248.678 C82.9034,244.378 82.9034,239.978 82.7036,235.678 C82.6038,231.778 82.6038,227.978 82.3042,224.078 C82.0045,220.578 81.5052,217.078 81.0058,213.578 C80.8061,211.978 80.8061,210.378 80.6064,208.878 C80.2069,204.678 79.7075,200.478 79.2082,196.278 C79.0084,194.078 78.7088,191.878 78.4092,189.678 C78.2095,188.178 77.81,186.778 77.5104,185.278 C77.4105,184.978 77.4105,184.378 77.5104,184.278 C78.7088,182.978 77.5104,182.278 76.9112,181.478 C74.2147,177.878 71.3185,174.278 68.6219,170.678 C65.2263,165.978 62.8295,160.678 60.8321,155.278 C59.6336,151.878 58.2354,148.578 57.1368,145.178 C56.7373,144.078 56.9371,142.778 56.7373,141.578 C56.6375,141.178 56.3379,140.778 56.0382,140.578 C54.0408,139.578 52.0434,138.678 50.5453,136.878 C48.8476,134.878 47.2496,132.778 45.6517,130.778 C44.5531,132.178 42.5557,131.978 40.858,132.578 C38.0615,133.678 35.2652,134.778 32.369,135.678 C31.1705,136.078 29.7723,135.978 28.474,136.078 C24.4792,136.378 20.4844,136.578 16.4895,135.678 C15.5907,135.478 14.592,135.578 13.793,135.278 C9.79822,133.678 6.40265,131.378 3.9059,127.678 C1.90848,124.678 1.20938,121.378 0.210678,118.078 C0.0109253,117.478 0.210678,116.778 0.210678,116.078 C0.210678,112.878 0.210678,109.678 0.0109253,106.478 C-0.0889282,104.178 0.510269,101.978 1.20938,99.8777 C1.60883,98.5778 2.30792,97.2778 2.90718,95.9778 C3.70615,94.3777 4.5051,92.6778 5.60364,91.1778 C6.5025,89.8777 7.8008,88.9778 8.99927,87.8777 C11.496,85.5778 14.3923,83.8777 17.2885,82.1778 C20.2846,80.4778 23.6802,80.1778 26.7762,78.7778 C28.1744,78.1778 29.7723,77.9778 31.2704,77.4778 C31.57,77.3777 31.8696,77.0778 32.1692,76.8777 C32.369,77.0778 32.2691,76.9778 32.2691,76.7778 M170.19,184.478 C172.188,183.678 173.985,182.978 175.883,182.378 C177.081,181.978 178.479,181.778 179.578,181.178 C181.475,180.178 183.573,179.278 185.071,177.778 C186.769,176.178 187.568,173.878 188.167,171.478 C189.765,165.178 191.363,158.778 191.962,152.278 C192.461,147.478 193.16,142.678 194.159,137.878 C194.758,134.778 195.757,131.678 197.155,128.878 C199.452,124.378 203.048,121.078 207.242,118.278 C207.941,117.778 208.54,117.278 209.24,116.878 C211.237,115.878 213.334,114.878 215.431,113.978 C219.826,111.978 224.22,110.278 229.114,110.178 C231.411,110.078 233.708,109.778 236.105,109.678 C237.004,109.678 237.902,109.878 238.801,109.878 C240.799,109.878 242.796,109.578 244.793,109.878 C247.789,110.278 250.686,109.878 253.582,109.478 C255.28,109.278 256.978,108.878 258.775,108.778 C261.172,108.578 262.87,107.378 264.468,105.678 C265.566,104.478 266.565,103.278 267.564,102.078 C267.764,101.878 268.063,101.678 268.163,101.378 C268.962,99.7778 269.761,98.1778 270.36,96.5778 C271.459,93.0778 271.758,89.6778 269.162,86.5778 C267.564,84.6778 265.566,83.3777 263.17,82.4778 C259.974,81.2778 256.978,79.7778 253.382,79.8777 C250.586,79.8777 247.69,79.4778 244.893,80.2778 C242.996,80.7778 241.198,80.8777 239.4,80.0778 C238.402,79.6778 237.603,78.5778 236.804,77.9778 C234.007,79.5778 231.111,81.4778 228.115,83.0778 C223.521,85.6778 218.827,88.0778 214.133,90.5778 C212.435,91.4778 210.538,92.1778 208.74,92.9778 C207.642,93.3777 206.543,93.6778 205.544,94.1778 C204.745,94.5778 204.046,95.1778 203.247,95.5778 C200.651,96.8777 197.555,96.4778 195.058,98.0778 C194.658,98.3777 193.959,98.2778 193.46,98.3777 C189.665,99.4778 185.87,100.578 182.075,101.678 C181.975,103.378 181.875,105.078 181.675,106.778 C181.176,110.578 180.577,114.278 178.579,117.678 C176.182,121.778 173.086,124.878 168.392,125.978 C165.596,126.678 162.9,127.478 160.103,127.778 C157.606,127.978 154.91,127.978 152.613,126.478 C150.815,125.178 149.018,123.778 147.32,122.278 C146.521,121.578 145.822,120.678 144.923,119.778 C144.124,122.578 142.526,124.678 140.629,126.678 C137.932,129.478 134.636,131.178 130.741,131.278 C126.347,131.378 122.352,129.878 118.857,127.178 C117.958,126.478 117.059,125.878 116.16,125.178 C115.361,128.478 113.863,131.178 111.966,133.578 C109.868,136.178 107.072,137.678 103.976,138.678 C101.379,139.578 98.5831,140.378 95.8866,139.378 C93.989,138.678 92.1913,137.778 90.4935,136.678 C88.4961,135.278 86.6985,133.578 84.9008,132.078 C82.9034,134.878 80.4066,137.278 77.2108,139.178 C74.0149,141.078 70.6193,142.178 66.7244,142.378 C67.6232,144.478 68.4222,146.378 69.2211,148.378 C71.2185,153.378 73.3159,158.378 76.4118,162.878 C78.1096,165.378 80.107,167.778 81.9047,170.278 C85.2004,174.978 89.1952,178.978 93.5896,182.678 C96.5857,185.178 99.5818,187.278 103.776,187.578 C108.271,187.978 112.565,188.078 116.859,186.778 C119.656,185.878 122.252,184.478 125.049,183.678 C127.645,182.978 129.143,180.778 131.241,179.478 C132.439,178.778 133.338,177.478 134.437,176.678 C135.136,176.178 136.134,176.078 136.734,175.578 C137.433,174.978 138.032,174.578 138.931,174.978 C139.73,175.278 140.629,175.478 141.527,175.778 C141.727,175.878 141.927,176.078 142.027,176.278 C142.127,177.578 142.426,178.978 142.127,180.278 C141.727,182.278 140.529,183.978 139.031,185.378 C138.132,186.178 137.333,186.978 136.434,187.678 C135.036,188.878 133.737,190.278 132.14,190.978 C127.745,192.878 123.251,194.578 118.757,196.178 C116.36,196.978 113.763,197.578 111.267,197.878 C106.573,198.478 101.979,197.778 97.2848,197.078 C95.8866,196.878 94.4883,196.378 93.19,195.778 C91.7919,195.078 90.4935,194.178 89.0954,193.378 C89.4948,195.978 89.8943,198.478 90.1939,200.978 C90.4935,203.578 90.5934,206.278 90.9929,208.878 C91.3924,212.178 92.0915,215.478 92.3911,218.878 C92.7906,223.278 92.9903,227.578 93.19,231.978 C93.4896,238.178 93.6894,244.378 93.8891,250.578 C93.8891,251.178 93.989,251.578 94.6881,251.678 C97.1849,251.978 99.7815,252.578 102.278,252.478 C108.67,252.178 115.062,251.478 121.354,250.978 C124.25,250.778 127.246,250.778 130.242,250.678 C133.138,250.578 135.935,250.678 138.831,250.478 C141.527,250.278 144.124,249.578 146.82,249.178 C149.117,248.878 151.415,248.878 153.712,248.478 C158.705,247.578 163.798,246.578 168.892,246.578 C172.887,246.578 176.881,246.278 180.976,246.178 C181.076,244.978 181.475,243.378 181.376,241.778 C181.276,237.178 180.876,232.678 180.776,228.078 C180.677,224.078 180.776,219.978 180.776,215.978 C180.776,213.878 180.776,211.778 180.677,209.578 C180.477,206.178 180.077,202.778 180.077,199.378 C179.977,196.378 180.277,193.378 180.377,190.278 C179.478,190.578 178.579,190.878 177.581,190.978 C176.682,191.078 175.683,191.178 174.784,190.978 C173.985,190.778 173.286,190.178 172.487,189.978 C170.889,189.678 169.391,189.278 168.492,187.778 C168.392,187.578 168.492,186.978 168.692,186.878 C169.191,186.578 169.791,186.478 170.39,186.378 C170.39,186.278 170.39,186.278 170.39,186.178 C169.99,186.078 169.491,185.978 168.892,185.878 C169.691,185.378 170.29,184.978 170.989,184.578 C170.889,184.678 170.69,184.578 170.19,184.478 M186.569,44.6778 C186.369,44.2778 186.07,43.8777 186.07,43.4778 C185.77,40.0778 184.372,37.0778 182.674,34.2778 C182.175,33.4778 181.775,32.6778 181.076,32.0778 C178.28,29.6778 175.383,27.2778 172.387,24.9778 C171.089,23.9778 169.591,23.0778 167.594,23.6778 C165.996,24.1778 164.398,23.9778 162.8,23.1778 C161.901,22.6778 161.102,21.9778 160.103,21.8778 C157.806,21.5778 155.409,21.5778 153.412,22.7778 C151.814,23.6778 150.416,24.8778 149.018,26.0778 C146.82,27.8778 144.923,29.8778 143.525,32.3777 C143.025,33.2778 142.426,34.3777 141.627,34.8777 C139.83,35.8777 137.732,36.2778 135.735,35.1778 C134.836,34.5778 133.438,34.3777 133.138,32.9778 C133.038,32.4778 132.639,32.0778 132.339,31.6778 C131.241,30.1778 130.242,28.5778 128.944,27.3778 C127.446,25.8778 123.151,25.8778 121.354,27.2778 C119.556,28.6778 117.658,29.9778 115.96,31.4778 C114.462,32.8777 112.865,34.1778 112.165,36.1778 C111.566,38.0778 110.068,39.1778 108.47,39.8777 C106.373,40.7778 104.376,40.0778 102.478,38.7778 C102.378,38.6778 102.278,38.5778 102.178,38.3777 C101.18,35.0778 98.9825,32.5778 96.5857,30.2778 C95.1875,28.9778 92.2912,28.5778 90.5934,29.3778 C88.4961,30.4778 86.5986,31.5778 85.0007,33.3777 C84.3016,34.1778 83.6025,35.1778 82.7036,35.8777 C80.4066,37.6778 78.1096,39.5778 75.7127,41.1778 C74.2147,42.1778 72.417,42.5778 70.6193,41.8777 C68.7218,41.1778 67.2237,40.0778 65.8256,38.6778 C65.0266,37.8777 64.0279,37.2778 62.7296,37.3777 C61.7309,37.4778 60.7321,37.2778 59.7334,37.2778 C59.4338,37.2778 59.1342,37.3777 58.9345,37.5778 C57.736,38.9778 56.4377,40.2778 55.439,41.7778 C53.142,45.0778 50.845,48.3777 49.3469,52.0778 C48.2483,54.8777 47.2496,57.6778 47.0499,60.7778 C46.95,62.8777 46.6504,64.9778 46.3508,67.1778 C46.1511,69.4778 45.7516,71.8777 45.6517,74.1778 C45.5518,77.2778 45.7516,80.2778 45.8515,83.3777 C45.9513,88.6778 45.3521,93.8777 46.1511,99.1778 C46.7503,103.078 47.2496,106.978 48.2483,110.678 C49.6465,115.578 51.4442,120.478 54.3405,124.778 C56.0382,127.278 57.8359,129.578 59.7334,131.878 C60.4325,132.678 61.4313,133.378 62.43,133.578 C66.4248,134.178 70.2198,133.678 73.7153,131.478 C76.1122,130.078 77.3107,128.278 77.1109,125.478 C76.8113,122.678 76.7114,119.878 76.312,117.178 C75.9125,114.378 75.4131,111.678 74.6142,108.978 C73.4157,105.178 71.9176,101.578 70.5194,97.8777 C69.6206,95.4778 68.7218,93.1778 67.823,90.7778 C67.5233,89.9778 67.2237,89.0778 67.024,88.1778 C66.7244,86.9778 66.0253,85.6778 66.9241,84.4778 C67.024,84.3777 66.9241,84.2778 66.9241,84.1778 C66.8243,83.0778 66.5246,81.9778 66.5246,80.8777 C66.5246,75.3777 65.9254,69.7778 68.4222,64.5778 C68.522,64.3777 68.6219,64.0778 68.6219,64.0778 C69.7205,64.3777 69.6206,63.0778 70.3197,62.7778 C70.4196,62.9778 70.4196,63.2778 70.5194,63.6778 C70.9189,62.5778 71.2185,61.6778 71.5181,60.8777 C71.8178,60.7778 72.3172,60.8777 72.417,60.6778 C73.0162,59.7778 73.8152,59.7778 74.5143,60.1778 C75.2134,60.4778 76.1122,60.9778 76.312,61.5778 C76.7114,63.0778 76.8113,64.6778 76.7114,66.2778 C76.6116,67.9778 76.0123,69.5778 75.9125,71.2778 C75.8126,73.8777 75.7127,76.5778 75.9125,79.1778 C76.0123,81.3777 76.4118,83.6778 76.9112,85.8777 C77.2108,87.2778 77.81,88.6778 78.3094,90.0778 C79.8074,94.4778 81.4053,98.7778 82.8036,103.178 C83.7023,105.778 84.5013,108.378 85.3003,111.078 C85.6998,112.478 85.6998,114.078 86.299,115.378 C88.0967,119.278 89.8943,123.178 92.9903,126.178 C94.6881,127.878 96.5857,129.278 98.4832,130.678 C98.9825,131.078 99.6816,131.278 100.281,131.178 C103.776,130.978 106.872,128.278 107.871,124.678 C108.171,123.378 108.171,122.178 107.971,120.878 C107.472,117.978 107.571,114.978 106.972,112.178 C106.273,108.878 105.174,105.578 103.976,102.378 C102.578,98.7778 101.979,94.9778 101.479,91.1778 C101.18,88.2778 100.78,85.3777 100.281,82.4778 C99.6816,78.7778 99.4819,75.1778 99.8814,71.4778 C99.9812,70.9778 99.8814,70.3777 100.081,69.8777 C100.381,69.1778 100.78,68.5778 101.18,67.7778 C102.079,67.7778 102.678,66.6778 103.776,66.2778 C104.575,65.9778 105.174,65.6778 105.973,65.9778 C106.073,65.9778 106.273,65.6778 106.473,65.5778 C106.373,65.6778 106.273,65.7778 106.173,65.8777 C106.473,66.0778 106.772,66.1778 107.072,66.3777 C108.171,66.9778 108.97,68.7778 108.87,69.9778 C108.37,73.1778 108.57,76.2778 108.97,79.4778 C109.369,83.1778 110.068,86.8777 110.568,90.6778 C110.867,92.5778 111.167,94.4778 111.666,96.2778 C112.465,99.0778 113.264,101.978 114.263,104.778 C115.062,107.078 115.461,109.478 117.059,111.378 C117.958,112.378 118.757,113.478 119.656,114.478 C121.953,117.178 124.449,119.578 127.546,121.378 C129.543,122.478 131.74,123.178 133.937,121.678 C135.435,120.778 136.134,119.378 136.634,117.678 C137.732,113.778 138.232,109.878 137.832,105.878 C137.632,103.578 137.133,101.278 136.734,98.9778 C136.234,96.2778 135.835,93.5778 135.236,90.8777 C134.437,87.3777 133.538,83.9778 132.339,80.5778 C130.841,76.4778 130.641,72.3777 131.041,68.1778 C131.241,66.5778 131.341,64.8777 131.54,63.2778 C131.64,61.9778 132.239,60.9778 133.338,60.2778 C133.837,59.9778 134.237,59.4778 134.636,59.1778 C135.335,58.6778 136.034,58.2778 136.833,57.9778 C137.033,57.8777 137.433,58.6778 137.632,58.5778 C138.631,58.3777 138.831,59.8777 139.929,59.6778 C140.129,59.6778 140.728,60.7778 140.728,61.4778 C140.828,63.8777 140.828,66.3777 140.629,68.7778 C140.329,71.4778 140.529,74.0778 141.328,76.7778 C142.526,80.8777 143.725,84.8777 144.823,88.9778 C145.822,92.8777 146.521,96.8777 147.32,100.778 C148.019,103.978 149.717,106.678 151.115,109.578 C152.913,112.978 155.21,116.078 158.405,118.278 C158.905,118.678 159.704,118.978 160.403,118.978 C161.402,118.978 162.4,118.678 163.399,118.478 C165.197,117.978 167.094,117.778 168.592,116.478 C169.291,115.878 170.39,115.478 170.59,114.778 C171.688,111.678 172.787,108.578 172.587,105.278 C172.487,103.378 171.888,101.578 171.888,99.6778 C171.888,96.4778 170.789,93.5778 169.791,90.5778 C168.592,86.8777 167.693,83.0778 166.695,79.2778 C165.097,73.5778 163.299,67.8777 162.5,61.8777 C161.901,57.8777 161.202,53.9778 161.501,49.8777 C161.701,47.1778 161.801,46.4778 163.099,44.2778 C163.499,43.5778 164.098,43.0778 164.697,42.5778 C165.297,41.9778 165.896,41.4778 166.595,41.0778 C166.894,40.8777 167.394,40.5778 167.594,40.6778 C167.893,40.7778 168.193,41.2778 168.392,41.5778 C168.492,41.6778 168.492,41.7778 168.492,41.9778 C168.792,41.8777 168.992,41.7778 168.992,41.7778 C170.889,43.5778 173.186,45.2778 171.788,48.4778 C176.482,46.0778 181.276,44.3777 186.569,44.6778 M206.044,84.0778 C215.332,79.0778 224.819,74.8777 233.109,68.4778 C228.015,62.1778 227.416,55.3777 231.011,48.0778 C218.428,46.8777 206.443,48.5778 194.359,50.2778 C194.259,51.7778 194.159,53.0778 194.059,54.3777 C193.859,59.4778 194.858,64.3777 195.557,69.3777 C195.957,71.8777 196.856,74.4778 198.154,76.6778 C200.051,79.8777 203.048,82.0778 206.044,84.0778 M41.557,122.778 C38.3612,116.778 37.9617,110.078 36.6634,103.478 C35.3651,96.7778 36.0641,90.0778 36.0641,83.2778 C35.7645,83.3777 35.4649,83.4778 35.2652,83.4778 C33.2678,84.3777 31.3703,85.2778 29.3729,86.0778 C23.4805,88.3777 17.8878,91.3777 13.4934,96.0778 C12.1951,97.4778 11.1964,99.1778 10.4973,100.978 C9.19902,104.478 9.49861,108.178 9.69836,111.878 C9.89812,115.078 10.4973,118.278 11.7956,121.178 C12.7943,123.378 14.2924,125.378 16.4895,126.178 C18.7866,127.078 21.3832,127.478 23.88,127.678 C26.5764,127.878 29.1731,127.278 31.7697,126.278 C34.9656,124.978 38.1614,123.978 41.557,122.778 M185.271,52.2778 C180.577,53.7778 176.282,55.1778 171.688,56.5778 C173.086,68.8777 177.481,80.4778 180.477,92.3777 C185.67,91.3777 190.164,88.7778 195.358,88.8777 C194.359,87.7778 193.36,86.8777 192.461,85.8777 C191.363,84.6778 190.064,83.4778 189.166,82.1778 C186.569,78.1778 185.77,73.6778 185.171,69.0778 C184.871,66.8777 184.871,64.6778 184.671,62.4778 C184.472,60.5778 184.272,58.6778 184.771,56.6778 C185.271,55.3777 185.171,53.9778 185.271,52.2778 Z" style="stroke:none;fill-rule:nonzero;fill:#000000;fill-opacity:1;"/>
        </g>
        <g id="Shape2">
            <desc shapeID="2" type="0" basicInfo-basicType="0" basicInfo-roundedRectRadius="12" basicInfo-polygonSides="6" basicInfo-starPoints="5" bounding="rect(-5.92729,-12.5889,11.8545,25.1777)" text="" font-familyName="" font-pixelSize="20" font-bold="0" font-underline="0" font-alignment="1" strokeStyle="0" markerStart="0" markerEnd="0" shadowEnabled="0" shadowOffsetX="0" shadowOffsetY="2" shadowBlur="4" shadowOpacity="160" blurEnabled="0" blurRadius="4" transform="matrix(0.998705,0,0,1,233.699,12.5889)" pers-center="0,0" pers-size="0,0" pers-start="0,0" pers-end="0,0" locked="0" mesh="" flag=""/>
            <path id="shapePath2" d="M231.81,25.1778 C231.611,24.4778 231.211,24.1778 230.212,24.1778 C229.513,24.1778 228.415,23.0778 228.215,22.2778 C227.815,20.8778 227.716,19.2778 227.815,17.7778 C227.915,15.6778 228.315,13.5778 228.614,11.4778 C228.914,9.57776 229.313,7.57776 229.613,5.67776 C229.613,5.47778 229.813,5.17776 229.813,4.97778 C229.713,3.67776 230.412,2.87778 231.411,2.37778 C232.609,1.67776 233.907,0.977783 235.206,0.277771 C236.105,-0.222229 236.804,-0.0222168 237.503,0.677765 C239.3,2.27777 239.9,4.17776 239.5,6.67776 C239.001,9.77777 238.801,12.9778 238.402,16.0778 C238.202,17.6778 238.102,19.3778 237.902,20.9778 C237.802,22.3778 236.205,24.2778 234.906,24.5778 C234.407,24.6778 233.907,24.6778 233.408,24.7778 C232.909,24.8778 232.509,24.9778 231.81,25.1778 Z" style="stroke:none;fill-rule:nonzero;fill:#000000;fill-opacity:1;"/>
        </g>
        <g id="Shape3">
            <desc shapeID="3" type="0" basicInfo-basicType="0" basicInfo-roundedRectRadius="12" basicInfo-polygonSides="6" basicInfo-starPoints="5" bounding="rect(-7.81842,-12.0188,15.6368,24.0375)" text="" font-familyName="" font-pixelSize="20" font-bold="0" font-underline="0" font-alignment="1" strokeStyle="0" markerStart="0" markerEnd="0" shadowEnabled="0" shadowOffsetX="0" shadowOffsetY="2" shadowBlur="4" shadowOpacity="160" blurEnabled="0" blurRadius="4" transform="matrix(0.998705,0,0,1,260.356,19.059)" pers-center="0,0" pers-size="0,0" pers-start="0,0" pers-end="0,0" locked="0" mesh="" flag=""/>
            <path id="shapePath3" d="M255.579,29.2778 C255.08,29.4778 254.78,29.5778 254.681,29.6778 C254.181,29.2778 253.782,29.0778 253.482,28.6778 C253.083,28.1778 252.384,27.5778 252.583,27.1778 C253.083,25.3778 253.183,23.4778 254.081,21.7778 C255.18,19.7778 255.879,17.5778 256.778,15.3778 C257.477,13.6778 258.076,11.8778 258.675,10.1778 C259.175,8.97778 260.273,8.57776 261.372,8.17776 C262.471,7.77777 263.669,7.27777 264.767,7.07776 C265.267,6.97778 266.066,7.07776 266.365,7.37778 C267.764,8.67776 268.563,10.3778 267.963,12.2778 C266.865,15.7778 265.766,19.2778 264.468,22.6778 C263.769,24.5778 262.77,26.3778 261.871,28.2778 C260.972,30.1778 259.275,30.8778 257.277,31.0778 C256.278,31.0778 255.679,30.3778 255.579,29.2778 Z" style="stroke:none;fill-rule:nonzero;fill:#000000;fill-opacity:1;"/>
        </g>
        <g id="Shape4">
            <desc shapeID="4" type="0" basicInfo-basicType="0" basicInfo-roundedRectRadius="12" basicInfo-polygonSides="6" basicInfo-starPoints="5" bounding="rect(-9.10742,-7.67148,18.215,15.343)" text="" font-familyName="" font-pixelSize="20" font-bold="0" font-underline="0" font-alignment="1" strokeStyle="0" markerStart="0" markerEnd="0" shadowEnabled="0" shadowOffsetX="0" shadowOffsetY="2" shadowBlur="4" shadowOpacity="160" blurEnabled="0" blurRadius="4" transform="matrix(0.998705,0,0,1,276.844,67.5769)" pers-center="0,0" pers-size="0,0" pers-start="0,0" pers-end="0,0" locked="0" mesh="" flag=""/>
            <path id="shapePath4" d="M285.94,69.8777 C285.74,72.4778 284.442,73.6778 282.145,74.7778 C279.648,76.0778 278.05,74.3777 276.253,73.3777 C273.756,71.8777 271.459,70.0778 269.062,68.4778 C268.063,67.7778 267.664,66.8777 267.764,65.6778 C267.864,65.0778 267.664,64.4778 267.864,63.8777 C268.363,61.9778 270.26,61.9778 271.659,61.1778 C271.858,61.0778 272.258,61.0778 272.458,60.8777 C273.556,59.2778 274.755,59.9778 275.853,60.6778 C278.35,62.1778 280.747,63.6778 283.144,65.2778 C284.742,66.4778 285.541,68.1778 285.94,69.8777 Z" style="stroke:none;fill-rule:nonzero;fill:#000000;fill-opacity:1;"/>
        </g>
        <g id="Shape5">
            <desc shapeID="5" type="0" basicInfo-basicType="0" basicInfo-roundedRectRadius="12" basicInfo-polygonSides="6" basicInfo-starPoints="5" bounding="rect(-9.98547,-5.60653,19.9708,11.2131)" text="" font-familyName="" font-pixelSize="20" font-bold="0" font-underline="0" font-alignment="1" strokeStyle="0" markerStart="0" markerEnd="0" shadowEnabled="0" shadowOffsetX="0" shadowOffsetY="2" shadowBlur="4" shadowOpacity="160" blurEnabled="0" blurRadius="4" transform="matrix(0.998705,0,0,1,284.583,51.4712)" pers-center="0,0" pers-size="0,0" pers-start="0,0" pers-end="0,0" locked="0" mesh="" flag=""/>
            <path id="shapePath5" d="M287.438,57.0778 C284.841,56.7778 282.145,56.5778 279.648,55.9778 C277.551,55.3777 275.953,53.7778 274.655,51.9778 C274.555,51.7778 274.655,51.3777 274.655,51.1778 C274.655,50.6778 274.754,50.1778 274.754,49.7778 C274.655,48.6778 275.454,48.1778 276.253,47.7778 C277.052,47.3777 277.95,47.2778 278.849,46.9778 C279.149,46.8777 279.548,46.8777 279.748,46.6778 C280.947,45.3777 282.245,45.9778 283.743,46.1778 C285.94,46.4778 288.237,46.5778 290.534,46.7778 C291.133,46.8777 291.832,46.9778 292.232,47.3777 C293.031,48.2778 293.83,49.1778 294.229,50.2778 C295.328,52.8777 293.53,55.8777 290.634,56.5778 C289.435,56.6778 288.437,56.8777 287.438,57.0778 Z" style="stroke:none;fill-rule:nonzero;fill:#000000;fill-opacity:1;"/>
        </g>
        <g id="Shape6">
            <desc shapeID="6" type="0" basicInfo-basicType="0" basicInfo-roundedRectRadius="12" basicInfo-polygonSides="6" basicInfo-starPoints="5" bounding="rect(-8.51025,-7.59674,17.0204,15.1935)" text="" font-familyName="" font-pixelSize="20" font-bold="0" font-underline="0" font-alignment="1" strokeStyle="0" markerStart="0" markerEnd="0" shadowEnabled="0" shadowOffsetX="0" shadowOffsetY="2" shadowBlur="4" shadowOpacity="160" blurEnabled="0" blurRadius="4" transform="matrix(0.998705,0,0,1,274.545,32.0526)" pers-center="0,0" pers-size="0,0" pers-start="0,0" pers-end="0,0" locked="0" mesh="" flag=""/>
            <path id="shapePath6" d="M283.044,28.3778 C282.844,31.1778 281.546,32.9778 279.748,34.4778 C277.651,36.2778 275.553,37.9778 272.957,39.1778 C270.959,40.0778 268.563,39.6778 267.164,38.0778 C266.465,37.2778 265.866,36.5778 266.465,35.3777 C266.565,35.0778 266.365,34.5778 266.266,34.2778 C265.666,32.8777 266.365,32.0778 267.464,31.2778 C269.861,29.4778 272.058,27.4778 274.455,25.7778 C275.553,25.0778 276.752,23.8778 278.35,24.7778 C279.049,25.1778 279.748,25.5778 280.347,25.9778 C281.046,26.4778 281.845,26.9778 282.445,27.4778 C282.744,27.6778 282.944,28.1778 283.044,28.3778 Z" style="stroke:none;fill-rule:nonzero;fill:#000000;fill-opacity:1;"/>
        </g>
    </g>
</svg>
