<?xml version="1.0"?>
<svg version="1.1" xmlns="http://www.w3.org/2000/svg" xmlns:xlink="http://www.w3.org/1999/xlink" width="300" height="250">
    <desc iVinci="yes" version="4.6" gridStep="20" showGrid="no" snapToGrid="no" codePlatform="0"/>
    <g id="Layer1" name="Layer 1" opacity="1">
        <g id="Shape1">
            <desc shapeID="1" type="0" basicInfo-basicType="0" basicInfo-roundedRectRadius="12" basicInfo-polygonSides="6" basicInfo-starPoints="5" bounding="rect(-86.0045,-114.636,172.009,229.272)" text="" font-familyName="" font-pixelSize="20" font-bold="0" font-underline="0" font-alignment="1" strokeStyle="0" markerStart="0" markerEnd="0" shadowEnabled="0" shadowOffsetX="0" shadowOffsetY="2" shadowBlur="4" shadowOpacity="160" blurEnabled="0" blurRadius="4" transform="matrix(1,0,0,1,150,135.364)" pers-center="0,0" pers-size="0,0" pers-start="0,0" pers-end="0,0" locked="0" mesh="" flag=""/>
            <path id="shapePath1" d="M80.852,211.573 C80.852,206.173 80.852,200.873 80.852,195.573 C80.852,187.273 80.852,178.873 80.6519,170.573 C80.452,165.173 79.952,159.773 79.552,154.373 C79.252,150.773 79.052,147.173 78.752,143.473 C78.452,139.573 78.052,135.673 77.6519,131.673 C77.352,128.373 77.1519,125.173 76.852,121.873 C76.552,118.573 76.252,115.273 76.052,111.873 C75.852,108.573 75.752,105.373 75.6519,102.073 C75.552,97.3727 75.252,92.7727 75.252,88.0727 C75.252,81.7727 75.352,75.4727 75.6519,69.1727 C75.952,62.7727 77.052,56.5727 79.352,50.5727 C80.952,46.2727 82.752,41.9727 85.352,38.1727 C87.752,34.6727 90.852,31.7727 94.352,29.4727 C95.1519,28.9727 96.352,29.1727 97.452,29.0727 C99.852,28.9727 102.152,28.9727 104.552,28.7727 C109.152,28.3727 113.652,27.8727 118.252,27.3727 C121.752,26.9727 125.252,26.4727 128.752,25.9727 C132.352,25.4727 136.052,25.0727 139.652,24.5727 C142.552,24.1727 145.452,23.7727 148.352,23.2727 C152.752,22.4727 157.152,22.2727 161.552,22.0727 C165.652,21.8727 169.652,21.3727 173.752,21.0727 C175.452,20.9727 177.152,20.9727 178.852,20.9727 C183.652,20.8727 188.552,20.7727 193.352,20.7727 C195.952,20.7727 198.552,20.6727 201.152,20.7727 C203.752,20.8727 206.452,21.2727 209.052,21.5727 C210.552,21.7727 212.052,21.8727 213.552,22.1727 C213.952,22.2727 214.352,22.5727 214.752,22.6727 C215.152,22.7727 215.652,22.8727 215.952,22.7727 C220.852,21.2727 225.352,22.0727 229.552,24.9727 C231.552,26.2727 232.452,28.1727 233.352,30.0727 C235.252,33.7727 236.252,37.5727 235.952,41.7727 C235.852,43.6727 235.152,45.4727 233.852,46.9727 C233.552,47.2727 233.552,47.7727 233.452,48.1727 C233.552,48.1727 233.652,48.2727 233.752,48.2727 C233.352,48.3727 233.052,48.4727 232.652,48.5727 C232.852,48.8727 232.952,49.1727 233.052,49.2727 C232.752,49.6727 232.452,49.8727 232.252,50.1727 C230.952,51.6727 229.152,51.7727 227.452,51.8727 C223.952,52.1727 220.452,52.4727 216.952,52.7727 C214.952,52.9727 212.952,53.0727 210.852,53.1727 C210.752,55.0727 210.552,56.9727 210.552,58.9727 C210.552,63.0727 210.452,67.2727 210.552,71.3727 C210.652,73.7727 211.052,76.1727 211.152,78.6727 C211.452,82.5727 211.652,86.4727 211.852,90.4727 C211.952,91.7727 212.152,93.1727 212.152,94.4727 C212.252,97.0727 212.252,99.7727 212.352,102.373 C212.652,107.673 212.952,113.073 213.252,118.373 C213.352,120.473 213.352,122.473 213.352,124.573 C213.352,127.673 213.452,130.673 213.452,133.773 C213.452,138.373 213.452,143.073 213.552,147.673 C213.552,149.973 213.752,152.373 213.852,154.673 C213.852,157.073 213.852,159.373 213.852,161.773 C213.952,167.073 214.052,172.273 214.252,177.573 C214.352,179.573 214.552,181.573 214.652,183.573 C214.852,185.773 215.152,187.973 215.052,190.173 C214.952,192.873 214.652,195.573 214.452,198.273 C214.252,200.373 214.152,202.473 213.952,204.573 C213.652,209.573 213.352,214.673 212.952,219.673 C212.752,223.273 212.252,226.773 211.252,230.173 C210.852,231.473 210.152,232.673 209.552,233.973 C208.652,235.673 207.652,237.473 206.552,239.073 C205.852,240.173 204.852,240.973 203.952,241.873 C203.652,242.173 203.052,242.173 202.652,242.373 C199.552,244.073 196.252,245.373 192.952,246.473 C191.052,247.073 188.952,247.273 186.852,247.373 C181.952,247.673 177.152,247.773 172.252,247.973 C166.052,248.173 159.852,248.273 153.552,248.373 C147.352,248.573 141.052,248.573 134.952,249.173 C125.852,250.073 116.752,249.673 107.752,249.773 C104.552,249.873 101.252,250.073 98.052,249.973 C92.952,249.773 87.752,249.673 82.752,248.173 C78.252,246.873 74.552,244.373 71.252,241.173 C69.1519,239.073 67.452,236.773 66.052,234.173 C65.052,232.373 65.1519,230.473 65.552,228.573 C65.6519,227.973 65.752,227.273 65.6519,226.673 C65.1519,223.073 64.552,219.473 64.052,215.873 C63.852,214.573 64.1519,213.173 65.452,212.273 C65.952,211.873 66.252,211.273 66.752,210.773 C66.852,210.673 67.052,210.573 67.252,210.573 C69.252,210.673 71.1519,210.673 73.1519,210.773 C75.952,211.173 78.452,211.373 80.852,211.573 M206.052,28.7727 C204.452,28.6727 202.952,28.5727 201.352,28.4727 C197.552,28.3727 193.652,28.2727 189.852,28.2727 C187.352,28.2727 184.952,28.3727 182.452,28.4727 C180.552,28.4727 178.652,28.3727 176.752,28.5727 C173.552,28.7727 170.352,29.3727 167.152,29.4727 C161.552,29.4727 156.052,29.6727 150.552,30.6727 C146.652,31.3727 142.752,31.8727 138.752,32.3727 C135.052,32.8727 131.352,33.1727 127.652,33.5727 C122.852,34.0727 118.152,34.5727 113.352,34.9727 C108.652,35.3727 104.052,35.7727 99.352,36.1727 C99.052,36.1727 98.6519,36.2727 98.452,36.5727 C97.452,37.5727 96.452,38.5727 95.552,39.6727 C93.1519,42.4727 91.952,45.8727 90.452,49.1727 C87.352,56.1727 86.052,63.6727 85.952,71.3727 C85.952,73.7727 85.752,76.1727 85.752,78.5727 C85.852,86.6727 85.952,94.7727 86.052,102.873 C86.1519,111.573 87.252,120.073 88.052,128.673 C88.752,136.173 89.452,143.673 89.952,151.173 C90.552,159.073 91.052,166.973 91.252,174.873 C91.552,183.773 91.552,192.673 91.6519,201.573 C91.6519,205.073 91.752,208.573 91.852,212.173 C94.452,212.073 96.752,211.873 99.1519,211.873 C103.452,211.873 107.752,211.973 112.052,211.973 C115.152,211.973 118.352,211.873 121.452,211.873 C124.752,211.873 128.052,212.073 131.352,212.073 C134.552,211.973 137.752,211.673 140.952,211.373 C145.652,211.073 150.452,210.673 155.152,210.473 C158.452,210.373 161.852,210.573 165.152,210.573 C168.652,210.473 172.152,210.073 175.652,209.973 C180.252,209.873 184.852,209.973 189.452,209.973 C190.852,209.973 192.252,211.273 192.352,212.673 C192.452,213.273 192.652,213.973 192.752,214.573 C192.952,215.573 193.352,216.673 193.152,217.673 C192.552,221.073 192.452,224.273 193.552,227.673 C194.552,230.773 196.552,232.273 199.352,233.673 C200.252,231.773 201.352,229.973 201.952,228.073 C202.552,225.873 202.752,223.573 203.052,221.273 C203.252,219.473 203.252,217.573 203.352,215.673 C203.452,213.873 203.352,212.073 203.452,210.373 C203.552,207.373 203.652,204.473 203.852,201.473 C204.052,198.573 204.352,195.673 204.652,192.773 C204.752,191.873 204.352,190.873 205.252,190.173 C205.352,190.073 205.252,189.773 205.252,189.473 C205.252,188.773 205.152,188.073 205.152,187.273 C205.152,185.973 205.252,184.673 205.152,183.373 C204.952,180.873 204.352,178.473 204.252,175.973 C204.052,172.473 204.152,168.973 204.052,165.573 C203.952,161.173 203.852,156.873 203.752,152.473 C203.652,147.273 203.452,141.973 203.352,136.773 C203.352,133.773 203.552,130.873 203.452,127.873 C203.252,121.873 202.852,115.773 202.652,109.773 C202.452,104.373 202.352,99.0727 202.052,93.6727 C201.852,89.3727 201.552,85.0727 201.352,80.7727 C201.152,76.1727 200.752,71.6727 200.652,67.0727 C200.552,62.2727 200.552,57.4727 200.752,52.5727 C200.852,48.5727 201.252,44.5727 201.552,40.5727 C201.952,36.1727 204.152,32.5727 206.052,28.7727 M183.052,218.273 C182.652,218.273 182.252,218.273 181.852,218.273 C178.152,218.473 174.352,218.673 170.652,218.773 C166.452,218.873 162.152,218.773 157.952,218.773 C154.452,218.873 150.952,219.073 147.452,219.273 C143.952,219.473 140.452,220.073 136.952,220.173 C132.052,220.373 127.152,220.173 122.152,220.173 C117.252,220.173 112.452,219.973 107.552,219.973 C103.652,219.973 99.752,220.373 95.952,220.373 C91.852,220.373 87.852,220.273 83.752,220.173 C82.752,220.173 81.852,220.073 80.852,219.973 C78.752,219.873 76.6519,219.673 74.452,219.573 C74.6519,220.673 74.852,221.773 75.1519,222.773 C75.752,225.973 77.1519,229.073 77.052,232.473 C77.052,232.673 77.252,232.973 77.352,233.173 C79.6519,235.573 82.052,237.873 85.252,239.073 C89.6519,240.673 94.352,241.173 99.052,241.273 C103.352,241.373 107.652,241.073 111.952,241.073 C117.052,241.073 122.152,241.273 127.352,241.173 C131.852,241.073 136.352,240.673 140.852,240.473 C144.852,240.273 148.752,240.073 152.752,239.873 C157.852,239.673 162.852,239.573 167.952,239.373 C170.652,239.273 173.352,239.273 175.952,239.073 C180.152,238.873 184.252,238.573 188.452,238.373 C183.552,232.473 181.852,225.873 183.052,218.273 M219.552,44.4727 C221.452,44.2727 223.052,43.9727 224.652,43.8727 C225.252,43.7727 225.352,43.4727 225.652,43.0727 C226.852,41.4727 227.052,39.5727 226.652,37.8727 C226.252,35.8727 225.652,33.6727 224.352,32.0727 C221.652,28.8727 217.152,29.5727 215.152,32.7727 C212.752,36.5727 211.052,40.6727 211.252,45.4727 C214.752,45.1727 218.152,44.8727 221.652,44.5727 C221.652,44.4727 221.652,44.4727 221.652,44.3727 C221.152,44.4727 220.552,44.4727 219.552,44.4727 Z" style="stroke:none;fill-rule:nonzero;fill:#000000;fill-opacity:1;"/>
        </g>
        <g id="Shape2">
            <desc shapeID="2" type="0" basicInfo-basicType="0" basicInfo-roundedRectRadius="12" basicInfo-polygonSides="6" basicInfo-starPoints="5" bounding="rect(-19.3649,-19.0584,38.7297,38.1168)" text="" font-familyName="" font-pixelSize="20" font-bold="0" font-underline="0" font-alignment="1" strokeStyle="0" markerStart="0" markerEnd="0" shadowEnabled="0" shadowOffsetX="0" shadowOffsetY="2" shadowBlur="4" shadowOpacity="160" blurEnabled="0" blurRadius="4" transform="matrix(1,0,0,1,165.596,183.414)" pers-center="0,0" pers-size="0,0" pers-start="0,0" pers-end="0,0" locked="0" mesh="" flag=""/>
            <path id="shapePath2" d="M166.752,202.473 C163.452,202.073 160.552,200.973 157.752,199.573 C154.852,198.073 152.252,196.173 150.352,193.473 C148.052,190.373 146.252,187.073 146.352,183.073 C146.452,180.973 146.152,178.873 146.252,176.773 C146.452,173.373 148.352,170.873 150.652,168.673 C153.152,166.273 156.352,165.173 159.652,164.473 C161.652,164.073 163.652,164.773 165.552,165.473 C167.752,166.273 169.852,167.273 172.052,168.173 C172.452,168.373 172.752,168.573 173.052,168.773 C174.452,170.073 175.852,170.973 177.852,171.373 C178.752,171.573 179.552,172.873 180.252,173.773 C182.552,176.573 183.852,179.873 184.852,183.273 C185.052,184.073 184.952,184.973 184.752,185.773 C183.752,191.573 180.452,195.973 175.852,199.473 C173.752,201.073 171.152,201.273 168.852,202.173 C168.252,202.473 167.452,202.473 166.752,202.473 M154.852,180.773 C154.952,181.673 154.952,182.773 155.352,183.573 C157.252,186.973 159.252,190.273 162.652,192.373 C163.552,192.873 164.652,193.873 165.352,193.673 C167.252,193.173 169.452,193.173 170.952,191.473 C171.752,190.573 172.752,189.673 173.352,188.673 C174.352,187.173 175.352,185.473 174.652,183.673 C173.852,181.573 172.752,179.673 171.552,177.773 C170.952,176.773 169.952,175.973 169.052,175.273 C166.252,172.973 162.552,171.473 158.752,173.773 C158.352,173.973 157.752,174.173 157.452,174.473 C155.952,176.273 154.852,178.273 154.852,180.773 Z" style="stroke:none;fill-rule:nonzero;fill:#000000;fill-opacity:1;"/>
        </g>
        <g id="Shape3">
            <desc shapeID="3" type="0" basicInfo-basicType="0" basicInfo-roundedRectRadius="12" basicInfo-polygonSides="6" basicInfo-starPoints="5" bounding="rect(-45.515,-5.99086,91.0299,11.9817)" text="" font-familyName="" font-pixelSize="20" font-bold="0" font-underline="0" font-alignment="1" strokeStyle="0" markerStart="0" markerEnd="0" shadowEnabled="0" shadowOffsetX="0" shadowOffsetY="2" shadowBlur="4" shadowOpacity="160" blurEnabled="0" blurRadius="4" transform="matrix(1,0,0,1,141.137,55.9636)" pers-center="0,0" pers-size="0,0" pers-start="0,0" pers-end="0,0" locked="0" mesh="" flag=""/>
            <path id="shapePath3" d="M186.652,52.9727 C186.152,54.3727 185.652,55.5727 185.152,56.7727 C185.052,57.0727 184.752,57.3727 184.452,57.3727 C183.452,57.4727 182.452,57.5727 181.452,57.6727 C179.252,57.8727 177.052,57.9727 174.952,58.0727 C173.752,58.1727 172.552,58.2727 171.352,58.3727 C167.252,58.6727 163.252,58.8727 159.152,59.0727 C154.252,59.3727 149.352,59.5727 144.452,59.7727 C139.952,59.9727 135.552,60.0727 131.052,60.2727 C127.752,60.4727 124.452,60.6727 121.152,60.8727 C119.052,60.9727 116.952,61.0727 114.852,61.1727 C111.152,61.3727 107.452,61.6727 103.852,61.8727 C101.652,61.9727 99.452,62.1727 97.452,61.0727 C96.952,60.7727 96.552,60.0727 96.1519,59.5727 C95.952,59.2727 95.952,58.9727 95.852,58.6727 C95.252,57.2727 95.852,56.2727 97.352,55.6727 C100.152,54.4727 103.152,54.8727 105.952,54.5727 C110.552,54.1727 115.052,54.0727 119.652,53.7727 C125.352,53.4727 131.152,53.0727 136.852,52.7727 C140.952,52.5727 145.152,52.5727 149.252,52.2727 C153.652,51.9727 158.052,51.3727 162.452,50.8727 C165.152,50.6727 167.752,50.5727 170.452,50.3727 C172.752,50.2727 174.952,49.9727 177.252,49.9727 C178.152,49.9727 178.952,50.2727 179.852,50.3727 C180.752,50.4727 181.552,50.5727 182.452,50.7727 C183.252,50.9727 184.052,51.2727 184.852,51.3727 C185.752,51.5727 186.252,52.5727 186.652,52.9727 Z" style="stroke:none;fill-rule:nonzero;fill:#000000;fill-opacity:1;"/>
        </g>
        <g id="Shape4">
            <desc shapeID="4" type="0" basicInfo-basicType="0" basicInfo-roundedRectRadius="12" basicInfo-polygonSides="6" basicInfo-starPoints="5" bounding="rect(-39.4303,-4.63303,78.8606,9.26605)" text="" font-familyName="" font-pixelSize="20" font-bold="0" font-underline="0" font-alignment="1" strokeStyle="0" markerStart="0" markerEnd="0" shadowEnabled="0" shadowOffsetX="0" shadowOffsetY="2" shadowBlur="4" shadowOpacity="160" blurEnabled="0" blurRadius="4" transform="matrix(1,0,0,1,144.081,123.756)" pers-center="0,0" pers-size="0,0" pers-start="0,0" pers-end="0,0" locked="0" mesh="" flag=""/>
            <path id="shapePath4" d="M181.552,125.573 C182.052,126.473 181.752,126.873 180.852,126.973 C174.452,127.473 168.052,126.873 161.752,127.173 C157.852,127.373 153.952,127.673 150.052,127.873 C146.552,127.973 142.952,127.873 139.352,127.873 C131.652,127.973 123.952,127.973 116.252,128.073 C114.552,128.073 112.852,128.473 111.152,128.373 C109.652,128.273 108.152,127.873 106.652,127.573 C104.852,127.173 103.852,122.773 105.452,121.673 C106.552,120.873 107.852,120.773 109.152,120.673 C114.052,120.573 118.852,120.373 123.752,120.373 C131.252,120.273 138.852,120.273 146.352,120.073 C150.852,119.973 155.252,119.373 159.752,119.273 C165.652,119.073 171.552,119.073 177.452,119.273 C179.152,119.273 180.952,119.873 182.652,120.473 C183.352,120.773 183.752,121.673 183.352,122.673 C183.052,123.773 183.052,125.073 181.552,125.573 Z" style="stroke:none;fill-rule:nonzero;fill:#000000;fill-opacity:1;"/>
        </g>
        <g id="Shape5">
            <desc shapeID="5" type="0" basicInfo-basicType="0" basicInfo-roundedRectRadius="12" basicInfo-polygonSides="6" basicInfo-starPoints="5" bounding="rect(-41.8921,-4.64999,83.7841,9.3)" text="" font-familyName="" font-pixelSize="20" font-bold="0" font-underline="0" font-alignment="1" strokeStyle="0" markerStart="0" markerEnd="0" shadowEnabled="0" shadowOffsetX="0" shadowOffsetY="2" shadowBlur="4" shadowOpacity="160" blurEnabled="0" blurRadius="4" transform="matrix(1,0,0,1,140.788,78.3227)" pers-center="0,0" pers-size="0,0" pers-start="0,0" pers-end="0,0" locked="0" mesh="" flag=""/>
            <path id="shapePath5" d="M100.652,75.9727 C101.652,75.9727 102.452,75.9727 103.252,75.9727 C106.652,75.9727 110.152,75.9727 113.552,75.9727 C120.852,75.8727 128.252,75.6727 135.552,75.4727 C139.852,75.3727 144.252,75.0727 148.552,74.8727 C154.452,74.5727 160.352,74.3727 166.352,74.0727 C169.252,73.9727 172.052,73.6727 174.952,73.6727 C177.052,73.7727 179.152,74.1727 181.252,74.6727 C182.652,74.9727 182.752,75.7727 182.652,77.2727 C182.552,78.5727 181.952,79.6727 181.352,80.5727 C180.952,81.1727 179.752,81.2727 178.852,81.2727 C174.452,81.3727 169.952,81.3727 165.552,81.4727 C161.452,81.5727 157.352,81.7727 153.252,81.9727 C150.752,82.0727 148.152,82.1727 145.652,82.2727 C141.852,82.3727 138.052,82.6727 134.352,82.6727 C130.052,82.7727 125.752,82.6727 121.452,82.7727 C116.152,82.7727 110.852,82.9727 105.552,82.9727 C103.852,82.9727 102.152,82.4727 100.552,82.0727 C99.352,81.7727 99.152,80.5727 98.952,79.4727 C98.752,78.1727 99.052,77.0727 100.452,76.5727 C100.552,76.3727 100.652,75.9727 100.652,75.9727 Z" style="stroke:none;fill-rule:nonzero;fill:#000000;fill-opacity:1;"/>
        </g>
        <g id="Shape6">
            <desc shapeID="6" type="0" basicInfo-basicType="0" basicInfo-roundedRectRadius="12" basicInfo-polygonSides="6" basicInfo-starPoints="5" bounding="rect(-40.5824,-4.07222,81.1648,8.14444)" text="" font-familyName="" font-pixelSize="20" font-bold="0" font-underline="0" font-alignment="1" strokeStyle="0" markerStart="0" markerEnd="0" shadowEnabled="0" shadowOffsetX="0" shadowOffsetY="2" shadowBlur="4" shadowOpacity="160" blurEnabled="0" blurRadius="4" transform="matrix(1,0,0,1,141.522,101.6)" pers-center="0,0" pers-size="0,0" pers-start="0,0" pers-end="0,0" locked="0" mesh="" flag=""/>
            <path id="shapePath6" d="M102.852,97.6727 C104.552,97.7727 106.152,97.8727 107.752,97.9727 C111.052,98.1727 114.352,98.4727 117.652,98.4727 C123.652,98.4727 129.652,98.1727 135.752,98.0727 C138.552,98.0727 141.352,98.2727 144.052,98.2727 C147.052,98.1727 150.052,97.8727 153.052,97.6727 C153.652,97.6727 154.352,97.5727 154.952,97.5727 C161.052,97.5727 167.152,97.4727 173.252,97.5727 C174.952,97.5727 176.752,98.1727 178.452,98.4727 C179.252,98.6727 180.152,98.6727 180.952,98.9727 C182.252,99.4727 182.452,100.673 181.552,101.873 C181.452,101.973 181.352,102.273 181.352,102.373 C181.052,103.173 180.752,103.973 180.452,104.773 C180.352,104.973 179.952,105.173 179.652,105.173 C178.152,105.173 176.752,105.173 175.252,105.173 C172.152,105.173 169.052,105.173 165.852,105.173 C164.652,105.173 163.352,105.173 162.152,105.173 C155.752,105.373 149.352,105.573 143.052,105.673 C139.952,105.673 136.952,105.473 133.852,105.473 C129.052,105.473 124.252,105.673 119.552,105.673 C116.452,105.673 113.252,105.473 110.152,105.173 C108.152,105.073 106.052,104.773 104.052,104.473 C102.152,104.173 101.052,102.673 100.952,100.773 C100.852,99.4727 101.352,98.7727 102.452,98.1727 C102.552,98.1727 102.652,97.8727 102.852,97.6727 Z" style="stroke:none;fill-rule:nonzero;fill:#000000;fill-opacity:1;"/>
        </g>
        <g id="Shape7">
            <desc shapeID="7" type="0" basicInfo-basicType="0" basicInfo-roundedRectRadius="12" basicInfo-polygonSides="6" basicInfo-starPoints="5" bounding="rect(-39.1633,-4.17512,78.3265,8.35022)" text="" font-familyName="" font-pixelSize="20" font-bold="0" font-underline="0" font-alignment="1" strokeStyle="0" markerStart="0" markerEnd="0" shadowEnabled="0" shadowOffsetX="0" shadowOffsetY="2" shadowBlur="4" shadowOpacity="160" blurEnabled="0" blurRadius="4" transform="matrix(1,0,0,1,146.089,147.626)" pers-center="0,0" pers-size="0,0" pers-start="0,0" pers-end="0,0" locked="0" mesh="" flag=""/>
            <path id="shapePath7" d="M185.252,148.173 C184.352,148.573 183.252,150.273 183.952,151.173 C182.252,151.273 180.852,151.373 179.452,151.473 C174.952,151.573 170.352,151.573 165.852,151.673 C162.752,151.673 159.652,151.673 156.452,151.673 C149.952,151.673 143.452,151.673 136.852,151.673 C132.452,151.673 128.052,151.873 123.752,151.773 C119.752,151.673 115.752,151.473 111.752,151.073 C110.352,150.973 108.752,150.973 107.652,149.573 C106.452,147.973 106.752,144.873 108.452,143.973 C108.952,143.673 109.752,143.773 110.452,143.773 C113.352,143.873 116.252,143.873 119.152,143.973 C122.052,144.073 124.852,144.173 127.752,144.173 C133.452,144.173 139.052,144.073 144.752,143.973 C148.052,143.873 151.352,143.773 154.552,143.773 C158.852,143.773 163.152,143.773 167.452,143.673 C170.652,143.673 173.852,143.473 177.152,143.473 C178.452,143.473 179.752,143.273 180.952,144.073 C181.652,144.473 182.652,144.573 183.552,144.673 C184.652,144.773 185.352,145.973 185.152,146.973 C184.952,147.273 185.152,147.673 185.252,148.173 Z" style="stroke:none;fill-rule:nonzero;fill:#000000;fill-opacity:1;"/>
        </g>
        <g id="Shape8">
            <desc shapeID="8" type="0" basicInfo-basicType="0" basicInfo-roundedRectRadius="12" basicInfo-polygonSides="6" basicInfo-starPoints="5" bounding="rect(-14.0321,-4.10992,28.0643,8.21988)" text="" font-familyName="" font-pixelSize="20" font-bold="0" font-underline="0" font-alignment="1" strokeStyle="0" markerStart="0" markerEnd="0" shadowEnabled="0" shadowOffsetX="0" shadowOffsetY="2" shadowBlur="4" shadowOpacity="160" blurEnabled="0" blurRadius="4" transform="matrix(1,0,0,1,119.64,178.283)" pers-center="0,0" pers-size="0,0" pers-start="0,0" pers-end="0,0" locked="0" mesh="" flag=""/>
            <path id="shapePath8" d="M113.552,174.173 C114.952,174.273 116.452,174.473 118.052,174.473 C119.952,174.473 121.952,174.173 123.852,174.173 C125.552,174.173 127.252,174.373 128.952,174.473 C130.052,174.573 131.152,174.673 132.252,174.873 C132.752,174.973 133.552,175.273 133.652,175.573 C133.752,176.173 133.452,176.873 133.252,177.573 C133.052,178.173 132.552,178.773 132.552,179.373 C132.652,180.573 131.652,180.973 130.952,181.273 C129.852,181.773 128.652,181.873 127.352,181.973 C125.052,182.173 122.752,182.473 120.452,182.373 C116.652,182.373 112.952,182.173 109.152,181.873 C108.552,181.873 107.852,181.073 107.452,180.573 C106.552,179.473 105.752,178.373 105.652,176.973 C105.652,176.873 105.552,176.673 105.652,176.673 C106.752,175.873 107.752,174.773 108.952,174.373 C110.352,174.173 111.952,174.273 113.552,174.173 Z" style="stroke:none;fill-rule:nonzero;fill:#000000;fill-opacity:1;"/>
        </g>
    </g>
</svg>
