<?xml version="1.0"?>
<svg version="1.1" xmlns="http://www.w3.org/2000/svg" xmlns:xlink="http://www.w3.org/1999/xlink" width="150" height="140">
    <desc iVinci="yes" version="4.6" gridStep="20" showGrid="no" snapToGrid="no" codePlatform="0"/>
    <g id="Layer1" name="Layer 1" opacity="1">
        <g id="Shape1">
            <desc shapeID="1" type="0" basicInfo-basicType="0" basicInfo-roundedRectRadius="12" basicInfo-polygonSides="6" basicInfo-starPoints="5" bounding="rect(-67.6333,-62.1658,135.267,124.331)" text="" font-familyName="" font-pixelSize="20" font-bold="0" font-underline="0" font-alignment="1" strokeStyle="0" markerStart="0" markerEnd="0" shadowEnabled="0" shadowOffsetX="0" shadowOffsetY="2" shadowBlur="4" shadowOpacity="160" blurEnabled="0" blurRadius="4" transform="matrix(1,0,0,1,75,70)" pers-center="0,0" pers-size="0,0" pers-start="0,0" pers-end="0,0" locked="0" mesh="" flag=""/>
            <path id="shapePath1" d="M96.5579,32.4844 C98.6579,29.1844 100.458,26.2843 102.258,23.3843 C103.858,20.8843 105.958,19.1844 108.858,18.6844 C111.558,18.1844 114.058,19.7843 115.158,22.5843 C115.458,23.3843 115.158,24.6844 114.758,25.4844 C113.058,28.4844 111.058,31.2843 109.258,34.2843 C108.358,35.7843 107.758,37.3843 106.958,39.1844 C110.958,43.3843 115.258,47.5843 117.358,53.6844 C121.258,52.8843 124.858,52.0843 128.458,51.2843 C130.558,50.7843 132.658,50.2843 134.858,49.8843 C137.258,49.4844 139.258,50.0843 141.058,51.7843 C143.958,54.5843 142.458,58.3843 139.758,59.7843 C136.358,61.4844 132.758,62.0843 129.058,62.7843 C125.958,63.3843 122.758,63.9844 119.858,64.5843 C119.358,69.9843 118.958,75.0843 118.458,80.7843 C121.258,82.0843 124.358,83.6843 127.558,85.1843 C128.858,85.7843 130.158,86.3843 131.458,86.9843 C133.858,88.1843 134.958,90.2843 134.858,92.7843 C134.858,95.2843 132.858,96.1843 130.858,96.8843 C129.758,97.2843 128.658,97.3843 127.558,97.7843 C126.258,98.2843 125.158,97.9843 124.058,97.3843 C120.658,95.6843 117.158,93.9843 113.458,92.1843 C110.458,96.7843 107.458,101.284 102.358,103.984 C103.058,105.384 103.458,106.684 104.158,107.784 C106.058,110.884 107.958,113.984 109.958,116.984 C111.858,119.984 111.758,122.784 109.258,124.084 C107.258,125.084 104.758,125.684 102.458,125.584 C100.258,125.484 99.3579,123.184 98.2579,121.384 C96.0579,117.684 93.8579,113.884 91.5579,110.084 C86.6579,111.584 81.8579,113.484 76.7579,112.784 C75.8579,117.784 74.8579,122.484 74.0579,127.284 C73.6579,129.884 72.0579,131.284 69.5579,131.684 C69.0579,131.784 68.4579,131.784 68.0579,131.884 C64.3579,133.084 61.5579,130.284 61.8579,126.484 C62.1579,123.484 63.0579,120.584 63.5579,117.684 C64.0579,115.084 64.2579,112.384 64.6579,109.584 C58.2579,107.584 53.1579,103.584 47.8579,99.9843 C46.3579,98.9843 45.3579,98.9843 43.9579,99.9843 C39.1579,103.684 34.3579,107.284 29.5579,110.884 C28.3579,111.784 27.1579,112.584 26.0579,113.384 C25.1579,114.084 24.2579,114.684 22.9579,114.084 C22.5579,113.884 21.8579,114.384 21.2579,114.484 C20.1579,114.684 19.0579,114.884 18.0579,115.084 C17.3579,113.784 16.6579,112.684 16.1579,111.584 C14.9579,108.984 15.3579,106.784 17.7579,104.984 C24.1579,100.084 30.6579,95.2843 37.1579,90.3843 C37.6579,89.9843 38.0579,89.5843 38.3579,89.2843 C36.8579,83.2843 35.3579,77.4843 33.8579,71.6843 C27.7579,70.2843 21.4579,70.6843 15.2579,70.6843 C14.8579,70.6843 14.4579,70.7843 14.0579,70.7843 C12.6579,70.6843 10.5579,71.0843 9.95793,70.2843 C8.65794,68.7843 7.85793,66.6843 7.45793,64.7843 C6.95793,62.2843 8.55794,60.1844 11.1579,59.4844 C11.8579,59.2843 12.5579,59.1844 13.2579,59.1844 C19.4579,58.9844 25.6579,58.7843 31.8579,58.5843 C32.8579,58.5843 33.8579,58.7843 35.0579,58.8843 C36.2579,55.4844 37.3579,52.1844 38.5579,48.7843 C35.5579,46.8843 32.4579,45.0843 29.6579,42.9844 C26.4579,40.6844 23.3579,38.2843 20.4579,35.5843 C18.4579,33.6844 17.4579,31.0843 17.8579,28.2843 C18.1579,26.0843 19.7579,24.5843 21.9579,24.2843 C24.4579,23.9844 26.8579,23.9844 28.9579,25.8843 C30.4579,27.1844 32.1579,28.1844 33.5579,29.5843 C37.0579,32.9844 41.1579,35.2843 45.6579,37.4844 C50.3579,33.4844 55.8579,30.6844 61.9579,27.9844 C61.3579,24.8843 60.6579,21.5843 59.9579,18.1844 C59.5579,16.2843 59.2579,14.2843 59.1579,12.3843 C59.1579,10.1844 60.1579,8.88433 62.2579,8.28444 C66.5579,6.98433 70.3579,8.48433 71.4579,12.9843 C72.3579,16.8843 73.4579,20.7843 74.4579,24.6844 C74.6579,25.2843 74.8579,25.8843 75.0579,26.5843 C82.3579,27.6844 89.7579,28.5843 96.5579,32.4844 M107.658,68.7843 C107.358,61.0843 105.358,54.9844 100.358,50.4844 C92.4579,43.1844 82.9579,39.3843 72.2579,38.5843 C69.9579,38.3843 67.2579,38.4844 65.2579,39.4844 C59.7579,42.1844 54.4579,45.4844 51.7579,51.3843 C50.0579,55.1844 48.9579,59.1844 47.4579,62.9844 C46.4579,65.7843 46.0579,68.5843 46.5579,71.4843 C46.9579,73.7843 47.4579,76.1843 47.5579,78.4843 C47.6579,83.2843 50.6579,86.6843 53.7579,89.4843 C58.3579,93.4843 63.6579,96.6843 69.4579,98.8843 C72.1579,99.8843 74.8579,100.284 77.6579,100.284 C79.7579,100.284 81.9579,100.784 84.0579,100.884 C85.4579,100.984 87.1579,100.984 88.1579,100.284 C91.5579,97.9843 95.2579,95.7843 97.9579,92.7843 C102.358,87.7843 105.758,82.0843 106.258,75.1843 C106.258,74.6843 106.558,74.1843 106.658,73.6843 C107.058,71.9843 107.358,70.3843 107.658,68.7843 Z" style="stroke:#323232;stroke-opacity:1;stroke-width:1;stroke-linejoin:miter;stroke-miterlimit:2;stroke-linecap:round;fill-rule:evenodd;fill:#969696;fill-opacity:1;"/>
        </g>
    </g>
</svg>
