<?xml version="1.0"?>
<svg version="1.1" xmlns="http://www.w3.org/2000/svg" xmlns:xlink="http://www.w3.org/1999/xlink" width="1000" height="690">
    <desc iVinci="yes" version="4.6" gridStep="20" showGrid="no" snapToGrid="no" codePlatform="0"/>
    <g id="Layer1" name="Layer 1" opacity="1" style="fill:rgba(0,0,150,0.7)">
        <g id="Shape1" >
            <desc shapeID="1" type="0" basicInfo-basicType="0" basicInfo-roundedRectRadius="12" basicInfo-polygonSides="6" basicInfo-starPoints="5" bounding="rect(-67.0143,-64.6809,134.029,129.362)" text="" font-familyName="" font-pixelSize="20" font-bold="0" font-underline="0" font-alignment="1" strokeStyle="0" markerStart="0" markerEnd="0" shadowEnabled="0" shadowOffsetX="0" shadowOffsetY="2" shadowBlur="4" shadowOpacity="160" blurEnabled="0" blurRadius="4" transform="matrix(1,0,0,1,634.127,550.411)" pers-center="0,0" pers-size="0,0" pers-start="0,0" pers-end="0,0" locked="0" mesh="" flag=""/>
            <path id="shapePath1" d="M592.229,529.263 C594.529,525.763 596.729,522.263 599.129,518.363 C596.429,514.963 593.529,511.263 590.629,507.663 C589.929,506.763 589.129,505.963 588.429,505.063 C586.829,503.063 586.929,500.563 588.029,498.563 C589.129,496.563 591.229,495.363 593.729,495.263 C595.829,495.263 597.729,495.863 599.129,497.363 C600.729,499.063 602.329,500.963 603.729,502.863 C605.729,505.463 607.529,508.263 609.329,510.863 C612.829,509.963 616.029,509.163 619.529,508.263 C619.629,507.963 619.829,507.263 619.829,506.663 C619.729,501.963 619.629,497.363 619.329,492.663 C619.029,488.663 622.229,485.363 626.229,485.763 C630.729,486.263 633.229,488.863 633.329,493.563 C633.429,496.863 633.229,500.163 633.129,503.463 C633.129,504.763 633.129,506.163 633.129,507.463 C636.429,507.463 639.429,507.463 642.329,507.463 C643.929,503.163 645.429,498.763 647.129,494.363 C647.829,492.363 649.029,490.763 651.029,489.763 C655.729,487.263 659.229,490.763 660.029,494.263 C660.429,495.963 660.029,498.063 659.329,499.663 C657.429,503.963 655.229,508.063 653.129,512.263 C653.729,512.763 654.129,513.163 654.629,513.463 C659.129,516.363 659.129,516.363 663.329,513.363 C664.429,512.563 665.629,512.063 666.729,511.263 C668.629,510.063 670.729,508.963 672.329,507.463 C674.229,505.663 676.629,505.463 678.529,506.163 C680.329,506.863 681.829,508.663 682.129,511.163 C682.429,514.663 680.929,517.163 678.229,519.063 C675.929,520.763 673.629,522.263 671.029,524.063 C672.229,525.463 673.429,526.663 674.729,528.163 C678.229,526.963 681.629,525.863 685.029,524.663 C686.929,524.063 688.729,523.263 690.629,522.663 C695.329,521.163 698.029,523.763 699.429,527.563 C700.129,529.663 698.329,533.063 696.029,534.263 C693.929,535.363 691.729,536.263 689.529,537.163 C686.629,538.463 683.629,539.663 680.429,541.063 C680.529,543.063 680.629,545.063 680.729,547.363 C684.629,547.763 688.229,547.563 691.829,547.363 C694.829,547.263 697.529,547.763 699.629,550.363 C701.429,552.563 701.429,555.063 700.629,557.363 C699.929,559.363 697.829,560.263 695.629,560.363 C691.329,560.663 686.929,560.863 682.629,561.163 C681.529,561.263 680.429,561.363 678.729,561.563 C680.729,563.063 682.529,563.363 684.229,563.763 C687.129,564.363 690.129,564.963 692.829,566.063 C695.829,567.263 697.529,571.463 696.629,574.663 C695.829,577.563 693.729,578.963 690.829,578.463 C688.829,578.163 686.829,577.563 684.729,577.263 C682.729,576.963 680.629,576.963 678.029,576.763 C678.829,577.363 679.229,577.763 679.729,578.063 C683.229,580.763 686.729,583.563 690.129,586.263 C692.629,588.263 692.429,590.963 692.029,593.663 C691.729,595.463 690.429,596.563 688.629,596.963 C686.229,597.463 683.729,597.363 681.829,595.563 C677.329,591.463 671.729,589.163 666.529,586.163 C666.029,585.863 665.129,585.963 664.529,586.263 C663.429,586.763 662.429,587.563 661.329,588.363 C662.329,590.663 663.229,592.763 664.129,594.963 C665.429,597.963 666.929,600.963 668.129,604.063 C668.629,605.363 668.829,606.863 668.829,608.263 C668.729,612.163 666.529,613.863 662.729,613.163 C660.129,612.663 658.229,611.263 657.029,608.863 C656.629,608.163 656.329,607.363 655.929,606.663 C653.929,602.863 651.829,598.963 649.729,595.163 C649.229,594.163 648.629,593.163 648.029,592.063 C647.429,592.063 646.729,592.163 645.729,592.163 C645.629,593.363 645.529,594.463 645.429,595.563 C644.929,600.363 644.529,605.263 643.829,610.063 C643.329,613.763 639.629,615.963 635.929,614.763 C632.229,613.563 630.529,611.463 630.729,607.963 C631.029,603.563 631.229,599.063 631.429,594.663 C631.429,593.863 631.529,592.963 631.329,592.163 C631.229,591.663 630.629,590.963 630.229,590.863 C627.129,590.063 624.029,589.263 620.829,588.463 C619.529,591.063 618.329,593.463 617.129,595.863 C616.029,597.963 614.829,600.063 613.529,602.063 C610.829,606.363 603.929,604.063 602.929,600.963 C602.329,599.263 602.729,597.063 603.329,595.263 C604.729,591.463 606.429,587.863 608.029,584.163 C608.229,583.563 608.629,583.063 609.129,582.363 C606.329,579.763 603.529,577.263 600.529,574.463 C600.029,577.063 598.129,578.063 596.129,578.963 C591.829,580.963 587.429,582.963 583.129,584.863 C578.729,586.863 574.329,584.663 572.729,580.963 C571.429,578.063 571.829,575.363 574.329,573.563 C575.229,572.863 576.329,572.363 577.429,572.163 C581.029,571.463 584.329,570.063 587.629,568.463 C589.729,567.463 592.029,566.963 594.529,566.063 C593.629,563.963 592.529,561.763 591.329,559.263 C588.929,559.763 586.529,560.363 584.129,560.763 C581.429,561.263 578.629,561.763 575.829,562.163 C573.029,562.463 570.829,561.363 568.929,559.263 C567.229,557.263 566.629,554.963 567.529,552.563 C568.629,549.663 571.229,548.363 573.929,548.463 C579.229,548.763 584.129,546.663 589.329,546.563 C589.329,544.563 589.329,542.863 589.329,540.863 C584.329,539.563 579.129,538.363 574.029,536.963 C570.529,536.063 568.429,533.463 567.529,530.063 C566.829,527.363 568.629,524.063 571.629,523.263 C573.429,522.763 575.629,522.663 577.429,523.163 C580.829,523.963 584.129,525.363 587.429,526.563 C589.029,527.763 590.529,528.563 592.229,529.263 M630.129,520.363 C630.129,520.363 630.129,520.263 630.129,520.263 C628.929,520.163 627.629,519.963 626.429,520.063 C623.929,520.263 621.329,520.063 619.129,520.963 C611.229,524.163 606.229,530.063 603.929,538.263 C602.529,543.363 602.829,548.563 603.629,553.663 C604.829,560.663 608.429,566.563 613.929,570.863 C623.629,578.463 635.029,580.663 647.029,579.463 C653.029,578.863 657.529,575.763 660.929,570.663 C665.029,564.563 666.829,557.963 667.429,550.863 C667.629,548.863 667.829,546.863 667.529,544.963 C667.029,541.963 666.729,538.663 664.529,536.363 C662.629,534.363 660.429,532.563 658.029,531.063 C653.729,528.263 649.229,525.563 644.829,522.963 C641.829,521.163 638.629,520.063 635.129,520.363 C633.429,520.463 631.829,520.363 630.129,520.363 Z"/>
        </g>
        <g id="Shape2">
            <desc shapeID="2" type="0" basicInfo-basicType="0" basicInfo-roundedRectRadius="12" basicInfo-polygonSides="6" basicInfo-starPoints="5" bounding="rect(-67.6334,-62.1657,135.267,124.331)" text="" font-familyName="" font-pixelSize="20" font-bold="0" font-underline="0" font-alignment="1" strokeStyle="0" markerStart="0" markerEnd="0" shadowEnabled="0" shadowOffsetX="0" shadowOffsetY="2" shadowBlur="4" shadowOpacity="160" blurEnabled="0" blurRadius="4" transform="matrix(1,0,0,1,436.171,104.178)" pers-center="0,0" pers-size="0,0" pers-start="0,0" pers-end="0,0" locked="0" mesh="" flag=""/>
            <path id="shapePath2" d="M457.729,66.6631 C459.829,63.3631 461.629,60.463 463.429,57.563 C465.029,55.063 467.129,53.3631 470.029,52.8631 C472.729,52.3631 475.229,53.963 476.329,56.763 C476.629,57.563 476.329,58.8631 475.929,59.6631 C474.229,62.6631 472.229,65.463 470.429,68.463 C469.529,69.963 468.929,71.563 468.129,73.3631 C472.129,77.563 476.429,81.763 478.529,87.8631 C482.429,87.063 486.029,86.263 489.629,85.463 C491.729,84.963 493.829,84.463 496.029,84.063 C498.429,83.6631 500.429,84.263 502.229,85.963 C505.129,88.763 503.629,92.563 500.929,93.963 C497.529,95.6631 493.929,96.263 490.229,96.963 C487.129,97.563 483.929,98.1631 481.029,98.763 C480.529,104.163 480.129,109.263 479.629,114.963 C482.429,116.263 485.529,117.863 488.729,119.363 C490.029,119.963 491.329,120.563 492.629,121.163 C495.029,122.363 496.129,124.463 496.029,126.963 C496.029,129.463 494.029,130.363 492.029,131.063 C490.929,131.463 489.829,131.563 488.729,131.963 C487.429,132.463 486.329,132.163 485.229,131.563 C481.829,129.863 478.329,128.163 474.629,126.363 C471.629,130.963 468.629,135.463 463.529,138.163 C464.229,139.563 464.629,140.863 465.329,141.963 C467.229,145.063 469.129,148.163 471.129,151.163 C473.029,154.163 472.929,156.963 470.429,158.263 C468.429,159.263 465.929,159.863 463.629,159.763 C461.429,159.663 460.529,157.363 459.429,155.563 C457.229,151.863 455.029,148.063 452.729,144.263 C447.829,145.763 443.029,147.663 437.929,146.963 C437.029,151.963 436.029,156.663 435.229,161.463 C434.829,164.063 433.229,165.463 430.729,165.863 C430.229,165.963 429.629,165.963 429.229,166.063 C425.529,167.263 422.729,164.463 423.029,160.663 C423.329,157.663 424.229,154.763 424.729,151.863 C425.229,149.263 425.429,146.563 425.829,143.763 C419.429,141.763 414.329,137.763 409.029,134.163 C407.529,133.163 406.529,133.163 405.129,134.163 C400.329,137.863 395.529,141.463 390.729,145.063 C389.529,145.963 388.329,146.763 387.229,147.563 C386.329,148.263 385.429,148.863 384.129,148.263 C383.729,148.063 383.029,148.563 382.429,148.663 C381.329,148.863 380.229,149.063 379.229,149.263 C378.529,147.963 377.829,146.863 377.329,145.763 C376.129,143.163 376.529,140.963 378.929,139.163 C385.329,134.263 391.829,129.463 398.329,124.563 C398.829,124.163 399.229,123.763 399.529,123.463 C398.029,117.463 396.529,111.663 395.029,105.863 C388.929,104.463 382.629,104.863 376.429,104.863 C376.029,104.863 375.629,104.963 375.229,104.963 C373.829,104.863 371.729,105.263 371.129,104.463 C369.829,102.963 369.029,100.863 368.629,98.963 C368.129,96.463 369.729,94.3631 372.329,93.6631 C373.029,93.463 373.729,93.3631 374.429,93.3631 C380.629,93.1631 386.829,92.963 393.029,92.763 C394.029,92.763 395.029,92.963 396.229,93.063 C397.429,89.6631 398.529,86.3631 399.729,82.963 C396.729,81.063 393.629,79.263 390.829,77.1631 C387.629,74.8631 384.529,72.463 381.629,69.763 C379.629,67.8631 378.629,65.263 379.029,62.463 C379.329,60.263 380.929,58.763 383.129,58.463 C385.629,58.1631 388.029,58.1631 390.129,60.063 C391.629,61.3631 393.329,62.3631 394.729,63.763 C398.229,67.1631 402.329,69.463 406.829,71.6631 C411.529,67.6631 417.029,64.8631 423.129,62.1631 C422.529,59.063 421.829,55.763 421.129,52.3631 C420.729,50.463 420.429,48.463 420.329,46.563 C420.329,44.3631 421.329,43.063 423.429,42.4631 C427.729,41.163 431.529,42.663 432.629,47.163 C433.529,51.063 434.629,54.963 435.629,58.8631 C435.829,59.463 436.029,60.063 436.229,60.763 C443.529,61.8631 450.929,62.763 457.729,66.6631 M468.829,102.963 C468.529,95.263 466.529,89.1631 461.529,84.6631 C453.629,77.3631 444.129,73.563 433.429,72.763 C431.129,72.563 428.429,72.6631 426.429,73.6631 C420.929,76.3631 415.629,79.6631 412.929,85.563 C411.229,89.3631 410.129,93.3631 408.629,97.1631 C407.629,99.963 407.229,102.763 407.729,105.663 C408.129,107.963 408.629,110.363 408.729,112.663 C408.829,117.463 411.829,120.863 414.929,123.663 C419.529,127.663 424.829,130.863 430.629,133.063 C433.329,134.063 436.029,134.463 438.829,134.463 C440.929,134.463 443.129,134.963 445.229,135.063 C446.629,135.163 448.329,135.163 449.329,134.463 C452.729,132.163 456.429,129.963 459.129,126.963 C463.529,121.963 466.929,116.263 467.429,109.363 C467.429,108.863 467.729,108.363 467.829,107.863 C468.229,106.163 468.529,104.563 468.829,102.963 Z"/>
        </g>
        <g id="Shape3">
            <desc shapeID="3" type="0" basicInfo-basicType="0" basicInfo-roundedRectRadius="12" basicInfo-polygonSides="6" basicInfo-starPoints="5" bounding="rect(-55.5158,-54.8622,111.032,109.724)" text="" font-familyName="" font-pixelSize="20" font-bold="0" font-underline="0" font-alignment="1" strokeStyle="0" markerStart="0" markerEnd="0" shadowEnabled="0" shadowOffsetX="0" shadowOffsetY="2" shadowBlur="4" shadowOpacity="160" blurEnabled="0" blurRadius="4" transform="matrix(1,0,0,1,342.102,322.291)" pers-center="0,0" pers-size="0,0" pers-start="0,0" pers-end="0,0" locked="0" mesh="" flag=""/>
            <path id="shapePath3" d="M381.529,321.563 C381.529,324.963 381.529,328.263 381.529,331.863 C384.229,332.563 386.929,333.263 389.629,333.963 C393.129,334.863 395.529,337.463 396.129,340.963 C396.429,342.963 395.729,344.463 394.229,345.563 C392.429,346.863 390.329,347.463 388.129,347.063 C384.529,346.463 380.929,345.963 377.129,345.463 C376.229,346.663 375.229,347.963 374.129,349.563 C375.429,350.963 376.929,352.263 378.129,353.763 C379.729,355.663 381.229,357.563 382.729,359.563 C383.829,361.063 384.029,362.763 383.829,364.563 C383.629,366.763 382.229,368.563 380.129,368.963 C377.529,369.363 374.929,369.363 372.929,367.263 C369.529,363.963 366.229,360.563 362.629,357.063 C361.029,357.463 359.429,357.963 358.029,358.363 C358.829,361.763 359.629,364.963 360.229,368.263 C360.929,371.863 359.529,374.663 356.829,375.363 C353.629,376.263 350.329,374.963 349.129,371.763 C347.729,368.063 345.929,364.363 346.429,360.063 C344.729,360.063 343.229,360.063 341.429,360.063 C340.829,362.563 340.229,364.963 339.529,367.263 C338.829,369.663 338.129,372.063 337.029,374.263 C335.529,377.263 332.829,377.863 329.329,376.363 C326.929,375.363 325.529,372.663 326.129,369.963 C327.029,366.263 327.929,362.563 328.829,358.763 C329.029,357.863 329.029,356.963 329.129,356.063 C327.229,355.163 325.529,354.463 324.029,353.863 C321.629,356.163 319.429,358.463 316.929,360.563 C315.329,361.963 313.429,363.163 311.429,363.963 C308.829,365.063 306.529,363.663 305.829,360.863 C305.329,358.763 305.529,356.663 306.929,354.963 C309.229,352.063 311.629,349.263 314.129,346.263 C313.029,344.963 311.629,343.363 310.329,341.763 C308.829,342.063 307.629,342.363 306.329,342.563 C303.229,343.163 300.229,343.663 297.129,344.263 C294.629,344.763 292.229,345.063 289.929,343.563 C287.629,341.963 286.329,339.863 286.629,337.063 C286.929,334.363 288.629,332.763 291.129,332.063 C293.129,331.463 295.129,331.163 297.229,330.863 C299.629,330.463 302.129,330.263 304.929,329.963 C304.629,327.763 304.229,325.663 303.929,323.263 C300.829,323.463 297.929,323.663 295.129,323.963 C292.229,324.263 290.129,323.063 288.429,320.863 C286.129,317.863 286.729,313.763 290.029,311.963 C291.729,311.063 293.729,310.463 295.629,310.363 C298.729,310.263 301.829,310.663 305.029,310.963 C305.729,309.063 306.529,307.063 307.329,304.863 C305.329,303.363 303.429,301.763 301.429,300.363 C299.629,299.163 298.229,297.763 297.329,295.863 C296.029,293.163 296.229,290.963 297.929,288.963 C299.429,287.163 302.829,286.263 305.029,287.263 C306.829,288.063 308.429,289.163 309.929,290.363 C311.629,291.663 313.129,293.263 314.829,294.863 C316.429,293.763 317.929,292.763 319.629,291.663 C318.929,289.963 318.229,288.263 317.629,286.563 C317.229,285.363 316.829,284.263 316.529,283.063 C316.029,280.763 316.429,278.763 318.529,277.363 C321.029,275.763 322.629,275.663 325.129,277.263 C327.029,278.463 328.029,280.163 328.529,282.263 C328.929,283.863 329.529,285.363 330.129,287.163 C333.329,286.563 336.229,286.063 338.929,285.563 C339.329,283.863 339.729,282.263 340.129,280.563 C340.829,277.863 341.629,275.163 342.129,272.463 C342.529,270.463 343.729,269.063 345.329,268.163 C349.329,265.863 354.529,269.263 354.629,274.263 C354.629,276.163 354.329,278.163 353.729,280.063 C353.129,282.163 352.229,284.163 351.329,286.563 C352.529,287.063 353.829,287.563 355.129,288.063 C356.329,288.563 357.529,289.163 359.129,289.963 C361.729,287.463 364.529,285.063 367.129,282.363 C370.429,278.963 374.829,279.063 377.429,282.863 C379.029,285.163 378.529,287.663 377.129,289.963 C376.129,291.563 374.829,292.863 373.629,294.263 C372.629,295.463 371.629,296.563 370.629,297.763 C372.929,301.063 375.229,304.063 377.629,307.463 C381.629,307.463 386.129,308.163 390.429,306.863 C390.929,306.763 391.429,306.763 391.929,306.863 C394.729,307.263 396.029,309.563 397.129,311.763 C398.129,313.763 397.529,316.063 395.929,317.463 C394.529,318.763 392.629,319.763 390.829,320.263 C388.229,320.963 385.529,320.963 382.829,321.263 C382.429,321.363 382.029,321.463 381.529,321.563 M369.829,325.963 C369.229,315.363 365.529,307.963 357.529,303.163 C354.529,301.363 350.929,300.163 347.429,299.263 C342.029,297.863 336.729,297.663 331.329,300.163 C324.229,303.463 320.229,308.963 318.529,316.263 C317.329,321.263 317.929,326.063 319.329,330.963 C320.829,336.363 323.929,340.263 328.729,343.163 C337.529,348.263 346.729,349.263 356.229,345.563 C361.729,343.463 366.629,340.263 368.429,334.063 C369.329,330.963 369.529,327.763 369.829,325.963 Z"/>
        </g>
        <g id="Shape4">
            <desc shapeID="4" type="0" basicInfo-basicType="0" basicInfo-roundedRectRadius="12" basicInfo-polygonSides="6" basicInfo-starPoints="5" bounding="rect(-45.5909,-44.2101,91.1819,88.4202)" text="" font-familyName="" font-pixelSize="20" font-bold="0" font-underline="0" font-alignment="1" strokeStyle="0" markerStart="0" markerEnd="0" shadowEnabled="0" shadowOffsetX="0" shadowOffsetY="2" shadowBlur="4" shadowOpacity="160" blurEnabled="0" blurRadius="4" transform="matrix(1,0,0,1,768.055,342.658)" pers-center="0,0" pers-size="0,0" pers-start="0,0" pers-end="0,0" locked="0" mesh="" flag=""/>
            <path id="shapePath4" d="M780.529,349.363 C779.029,349.263 777.529,349.063 776.029,348.963 C775.429,348.963 774.829,349.263 774.229,349.263 C772.829,349.263 771.129,350.063 770.229,348.463 C769.129,346.663 767.229,344.963 767.929,342.463 C768.229,341.463 768.829,340.463 769.529,339.563 C771.429,337.163 773.729,335.263 777.129,335.563 C778.829,335.663 780.429,335.763 782.029,336.063 C787.129,336.963 789.829,340.063 791.329,345.163 C793.229,351.463 791.829,356.763 787.829,361.563 C786.829,362.763 785.229,363.663 783.729,364.263 C774.529,368.263 765.729,367.763 757.729,361.263 C753.729,358.063 750.129,354.463 748.729,349.263 C748.529,348.463 748.229,347.663 748.129,346.863 C747.829,339.663 749.429,333.063 753.929,327.063 C757.129,322.663 761.329,320.163 765.929,318.163 C769.729,316.463 773.829,316.063 778.029,316.163 C785.129,316.263 791.529,318.863 797.629,321.763 C804.329,324.863 809.129,330.563 811.729,337.763 C814.829,346.163 814.029,354.463 810.329,362.463 C809.429,364.563 808.429,366.663 807.429,368.663 C804.029,375.463 799.029,380.563 791.729,383.263 C784.529,385.963 777.129,387.263 769.529,386.763 C762.429,386.363 755.729,384.463 749.329,381.163 C742.329,377.563 736.129,372.963 731.229,366.863 C727.429,362.063 723.729,357.063 722.929,350.763 C721.729,341.163 722.729,331.863 727.329,323.263 C729.729,318.663 732.729,314.163 735.829,309.963 C738.029,306.963 741.429,305.263 744.729,303.963 C749.229,302.063 753.829,300.463 758.429,298.963 C761.729,297.863 765.029,298.763 768.229,299.463 C771.029,300.063 772.429,302.463 773.029,305.063 C773.829,308.563 771.429,311.663 767.829,311.563 C759.829,311.463 752.929,314.363 747.029,319.363 C741.029,324.463 738.029,331.463 736.929,339.163 C736.429,342.463 736.329,345.763 736.529,349.063 C736.729,354.663 739.829,359.063 743.829,362.663 C746.929,365.463 750.529,367.563 754.129,369.563 C759.229,372.463 764.829,373.863 770.529,373.963 C777.329,374.163 784.029,373.063 790.029,369.663 C792.729,368.163 794.929,365.863 796.329,362.963 C797.129,361.163 798.229,359.563 799.229,357.863 C803.729,350.363 801.629,340.163 794.329,335.263 C790.129,332.463 785.629,331.063 780.729,330.663 C779.329,330.563 777.829,330.663 776.329,330.663 C769.229,330.463 764.529,335.363 762.829,341.063 C761.029,347.363 761.129,347.763 766.329,351.763 C769.229,353.963 772.129,354.363 775.329,353.263 C776.729,352.763 778.129,352.263 779.329,351.663 C779.929,351.363 780.329,350.663 780.829,350.063 C780.629,349.863 780.529,349.663 780.529,349.363 Z"/>
        </g>
        <g id="Shape5">
            <desc shapeID="5" type="0" basicInfo-basicType="0" basicInfo-roundedRectRadius="12" basicInfo-polygonSides="6" basicInfo-starPoints="5" bounding="rect(-63.1638,-44.1167,126.328,88.2333)" text="" font-familyName="" font-pixelSize="20" font-bold="0" font-underline="0" font-alignment="1" strokeStyle="0" markerStart="0" markerEnd="0" shadowEnabled="0" shadowOffsetX="0" shadowOffsetY="2" shadowBlur="4" shadowOpacity="160" blurEnabled="0" blurRadius="4" transform="matrix(1,0,0,1,79.8931,228.746)" pers-center="0,0" pers-size="0,0" pers-start="0,0" pers-end="0,0" locked="0" mesh="" flag=""/>
            <path id="shapePath5" d="M80.9292,208.063 C82.1292,208.263 83.2292,208.563 84.4292,208.763 C91.4292,210.063 96.1292,214.663 100.629,219.663 C102.729,222.063 104.029,224.763 104.729,227.963 C105.529,231.763 106.929,235.463 106.329,239.563 C105.529,244.763 103.229,248.963 98.6292,251.663 C98.4292,251.763 98.2292,251.963 98.1292,251.963 C93.1292,252.563 88.3293,254.763 83.1292,253.063 C82.7292,252.963 82.3293,252.763 81.9292,252.763 C75.8293,252.363 72.3293,248.263 69.4292,243.663 C66.2292,238.563 64.0293,232.963 63.2292,226.863 C63.1292,226.063 62.8293,225.363 62.4292,224.263 C57.5293,226.863 52.6292,229.163 48.7292,233.563 C49.6292,234.163 50.2292,234.563 50.9292,234.963 C56.1292,237.763 60.5293,241.563 64.0293,246.263 C66.3293,249.363 67.6292,252.763 68.1292,256.563 C68.4292,258.763 69.0293,260.963 68.3293,263.263 C66.9292,268.363 61.2292,272.863 55.9292,272.863 C53.2292,272.863 50.5293,272.863 47.8292,272.763 C47.0293,272.763 46.2292,272.463 45.5293,272.063 C43.4292,270.763 41.3292,269.363 39.2292,268.063 C37.5293,266.963 36.4292,265.463 35.7292,263.463 C34.3292,259.563 33.7292,255.663 33.8292,251.563 C33.8292,250.463 33.7292,249.263 33.6292,247.663 C32.1292,248.163 30.8292,248.463 29.7292,249.063 C28.3292,249.763 27.0293,250.763 25.6292,251.363 C23.9292,252.063 22.0293,252.563 20.1292,253.263 C19.3292,251.163 18.8292,249.463 20.2292,247.963 C19.0293,246.863 17.9292,245.763 16.7292,244.663 C21.5293,239.663 26.3292,235.263 33.1292,234.163 C34.5293,233.963 35.8292,233.563 36.5293,231.863 C40.0293,223.063 46.3292,216.863 54.8293,212.863 C57.8293,211.463 60.8293,210.163 63.8293,208.663 C64.7292,208.263 65.7292,207.663 66.1292,206.863 C71.4292,197.363 79.3293,191.063 89.5293,187.363 C92.2292,186.363 95.0293,185.563 97.8293,184.963 C102.329,184.063 106.729,185.163 111.029,186.163 C112.929,186.663 114.729,187.463 116.629,187.963 C124.329,190.363 130.329,195.263 135.529,201.063 C138.429,204.263 141.129,207.763 142.529,211.963 C143.129,213.663 143.329,215.363 142.529,217.063 C142.229,217.563 142.029,218.263 142.129,218.863 C142.729,221.463 140.929,223.263 139.729,225.063 C138.629,226.763 135.629,226.363 134.329,224.563 C133.729,223.763 133.229,222.763 132.929,221.763 C131.629,216.963 128.629,213.263 125.229,209.863 C119.729,204.363 113.429,200.463 105.729,198.963 C101.629,198.163 97.5293,197.963 93.5293,199.863 C89.5293,201.763 85.3293,203.463 81.9292,206.363 C81.4292,206.763 80.8293,206.963 80.2292,207.263 C80.6292,207.563 80.7292,207.863 80.9292,208.063 M75.2292,221.963 C76.0293,226.563 77.4292,230.363 79.8293,234.063 C82.4292,238.063 86.2292,239.363 90.6292,239.663 C92.2292,239.763 93.3293,239.063 93.1292,237.663 C92.8293,235.363 92.7292,232.663 91.5293,230.863 C87.9292,225.363 82.6292,222.163 75.2292,221.963 M54.4292,259.863 C53.5293,254.763 50.1292,252.263 46.6292,249.563 C46.2292,255.463 50.0293,257.463 54.4292,259.863 Z"/>
        </g>
        <g id="Shape6">
            <desc shapeID="6" type="0" basicInfo-basicType="0" basicInfo-roundedRectRadius="12" basicInfo-polygonSides="6" basicInfo-starPoints="5" bounding="rect(-53.4715,-58.6925,106.943,117.385)" text="" font-familyName="" font-pixelSize="20" font-bold="0" font-underline="0" font-alignment="1" strokeStyle="0" markerStart="0" markerEnd="0" shadowEnabled="0" shadowOffsetX="0" shadowOffsetY="2" shadowBlur="4" shadowOpacity="160" blurEnabled="0" blurRadius="4" transform="matrix(1,0,0,1,53.4715,626.056)" pers-center="0,0" pers-size="0,0" pers-start="0,0" pers-end="0,0" locked="0" mesh="" flag=""/>
            <path id="shapePath6" d="M30.9292,643.963 C31.7292,642.263 32.6292,640.563 33.5293,638.763 C34.0293,637.663 34.5293,636.463 35.1292,635.363 C36.2292,633.163 38.0293,630.963 38.1292,628.663 C38.2292,626.463 36.7292,624.163 35.8292,621.963 C35.0293,619.863 34.5293,617.263 33.0293,615.763 C31.6292,614.363 29.1292,614.263 27.1292,613.463 C15.3292,608.363 9.82925,601.763 10.0293,587.463 C10.1292,582.263 12.4292,577.263 15.9292,573.763 C19.4292,570.263 23.9292,567.363 29.3292,567.363 C31.8292,567.363 34.4292,568.063 36.9292,568.463 C37.2292,568.463 37.6292,568.663 37.7292,568.863 C38.5293,571.163 40.6292,570.763 42.3292,571.163 C43.9292,571.563 45.4292,572.563 47.0293,572.563 C49.6292,572.663 51.4292,574.163 53.5293,575.063 C57.2292,576.563 59.0293,579.463 59.6292,583.063 C60.2292,586.563 60.3293,590.263 60.3293,593.863 C60.3293,595.663 60.0293,597.663 59.3293,599.263 C57.7292,602.963 56.6292,606.963 53.2292,609.563 C51.1292,611.063 49.0293,612.563 46.6292,614.163 C47.5293,617.763 49.1292,621.363 50.8292,624.963 C51.0293,625.363 51.5293,625.763 52.0293,625.863 C55.8293,627.263 59.6292,628.563 63.4292,629.963 C64.2292,628.363 64.9292,626.963 65.5293,625.563 C67.3293,621.763 72.0293,618.463 77.0293,619.563 C77.6292,619.663 78.4292,619.463 78.9292,619.163 C80.3293,618.163 81.7292,618.163 83.3293,618.563 C86.4292,619.363 89.5293,620.063 92.6292,620.863 C92.7292,620.863 92.8293,620.963 92.9292,620.963 C98.1292,619.463 100.429,623.563 102.929,626.563 C105.529,629.663 107.129,633.463 106.629,637.763 C106.529,638.663 106.929,639.563 106.929,640.463 C107.129,644.263 105.129,647.263 102.729,649.863 C99.0293,653.963 94.5293,656.563 89.0293,657.863 C84.6292,658.963 80.5293,658.263 76.6292,656.263 C71.6292,653.663 67.5293,650.063 65.3293,644.663 C64.7292,643.263 63.9292,642.563 62.5293,642.163 C57.3293,640.663 52.2292,638.963 46.8292,637.263 C45.0293,640.763 43.1292,644.363 41.2292,648.063 C42.3292,649.563 43.6292,651.063 44.5293,652.763 C45.3292,654.363 45.8292,656.163 46.3292,657.963 C46.5293,658.763 46.7292,659.563 46.8292,660.363 C46.9292,661.663 47.3292,663.163 47.0293,664.363 C45.7292,669.563 44.2292,674.663 40.7292,679.063 C38.0293,682.463 34.5293,684.263 30.3292,684.563 C19.8292,685.563 10.8292,682.563 3.92924,674.263 C0.62925,670.363 -0.670753,665.663 0.329247,660.663 C0.929245,657.663 1.72925,654.563 3.02925,651.763 C5.12925,646.963 12.0293,643.963 16.2292,645.063 C17.8292,645.463 19.4292,645.363 20.9292,644.163 C21.9292,643.463 23.4292,643.363 24.7292,643.263 C26.8292,643.663 28.7292,643.863 30.9292,643.963 M31.8292,575.863 C28.2292,575.963 24.5293,579.063 23.3292,582.563 C22.0293,586.363 22.5293,589.963 23.2292,593.863 C24.4292,600.363 29.1292,603.263 34.5293,605.563 C35.2292,605.863 36.1292,605.663 36.9292,605.463 C43.0293,604.263 48.6292,597.063 48.4292,590.763 C48.3292,588.863 48.2292,587.063 47.8292,585.263 C47.6292,584.263 46.9292,583.163 46.2292,582.463 C44.7292,580.863 42.8292,579.763 40.6292,579.463 C38.0293,579.063 35.3292,578.663 32.7292,578.263 C32.4292,577.263 32.1292,576.563 31.8292,575.863 M12.5293,661.563 C13.0293,663.363 13.1292,665.363 14.0293,666.863 C16.4292,670.763 19.7292,673.663 24.3292,674.763 C28.0293,675.663 30.0293,674.863 31.8292,671.463 C33.0293,669.163 33.6292,666.663 34.8292,664.363 C36.2292,661.663 35.2292,659.363 33.6292,657.263 C32.6292,655.963 31.3292,654.863 30.1292,653.763 C28.4292,652.163 26.4292,651.563 24.1292,652.263 C22.9292,652.563 21.7292,652.863 20.4292,652.963 C15.2292,653.163 12.6292,656.863 12.5293,661.563 M76.0293,634.663 C76.0293,638.363 77.8293,642.763 80.3293,645.363 C82.6292,647.663 84.9292,648.363 88.1292,647.063 C92.9292,644.963 95.4292,640.363 94.0293,635.663 C92.7292,631.363 87.8293,627.563 84.0293,627.863 C82.9292,627.963 81.7292,628.163 80.6292,628.363 C77.5293,628.863 76.4292,630.063 76.0293,633.263 C75.9292,633.563 76.0293,634.163 76.0293,634.663 Z"/>
        </g>
        <g id="Shape7">
            <desc shapeID="7" type="0" basicInfo-basicType="0" basicInfo-roundedRectRadius="12" basicInfo-polygonSides="6" basicInfo-starPoints="5" bounding="rect(-44.5516,-59.6495,89.1032,119.299)" text="" font-familyName="" font-pixelSize="20" font-bold="0" font-underline="0" font-alignment="1" strokeStyle="0" markerStart="0" markerEnd="0" shadowEnabled="0" shadowOffsetX="0" shadowOffsetY="2" shadowBlur="4" shadowOpacity="160" blurEnabled="0" blurRadius="4" transform="matrix(1,0,0,1,359.216,544.744)" pers-center="0,0" pers-size="0,0" pers-start="0,0" pers-end="0,0" locked="0" mesh="" flag=""/>
            <path id="shapePath7" d="M381.529,586.563 C383.329,589.763 385.929,590.863 389.229,590.763 C390.629,590.763 392.129,590.463 393.529,590.163 C395.529,589.763 397.429,590.263 399.229,591.163 C399.729,591.463 400.129,592.063 400.529,592.663 C400.829,593.163 401.029,593.763 401.229,594.263 C401.929,595.563 403.229,596.963 402.129,598.463 C401.029,599.863 399.829,601.463 398.229,602.263 C390.629,606.063 383.329,604.463 376.729,599.963 C372.529,597.063 369.729,592.563 367.629,587.963 C366.829,586.363 365.929,585.663 364.229,585.363 C357.929,584.363 353.029,580.963 348.629,576.463 C343.629,571.363 340.229,565.463 338.129,558.663 C337.729,557.263 336.929,556.663 335.729,556.163 C332.929,554.763 329.929,553.663 327.629,551.663 C317.629,542.663 313.129,531.463 315.129,517.963 C315.929,512.663 318.529,507.963 320.729,503.263 C322.529,499.263 324.729,495.463 328.429,492.863 C333.929,488.963 339.829,486.163 346.529,485.163 C347.929,484.963 349.029,485.163 349.729,486.263 C350.429,487.363 351.329,487.863 352.529,488.263 C354.029,488.663 354.829,490.263 354.329,491.763 C353.729,493.963 352.529,495.563 350.129,496.363 C346.929,497.363 343.729,498.763 340.629,500.063 C337.529,501.363 335.329,503.663 333.729,506.563 C330.829,511.663 328.629,517.063 328.029,522.863 C327.429,529.363 329.129,535.463 333.129,540.663 C334.029,541.863 335.329,542.663 336.829,543.963 C337.229,541.863 337.629,540.363 337.729,538.863 C338.329,533.663 341.029,529.463 344.029,525.563 C345.029,524.263 346.529,523.363 347.929,522.563 C350.429,521.063 353.029,519.863 355.629,518.463 C358.529,516.863 361.729,516.563 365.029,516.663 C366.629,516.763 368.329,517.063 369.929,517.363 C370.429,517.463 371.029,517.563 371.429,517.863 C373.729,519.563 376.329,521.063 378.029,523.263 C380.529,526.463 381.029,530.463 379.729,534.463 C378.529,538.163 377.229,541.863 375.729,545.563 C374.529,548.663 371.829,550.563 369.529,552.863 C366.229,556.263 361.929,556.663 357.729,557.563 C355.929,557.963 354.129,558.263 352.229,558.563 C352.529,563.963 357.929,570.463 363.729,572.163 C363.829,571.563 364.029,571.063 364.129,570.463 C365.329,563.463 369.529,558.463 374.629,554.063 C376.229,552.763 377.929,551.563 379.629,550.363 C382.629,548.263 385.929,547.663 389.429,548.263 C392.429,548.863 395.329,549.963 398.229,551.163 C400.629,552.163 401.429,554.763 402.829,556.863 C404.229,559.163 403.829,561.263 403.129,563.663 C400.729,572.163 395.829,578.663 388.429,583.363 C386.229,584.763 383.929,585.463 381.529,586.563 M367.229,529.263 C358.329,529.663 349.929,536.063 351.229,546.063 C356.729,546.263 360.429,542.963 364.129,539.663 C364.829,536.163 367.229,533.163 367.229,529.263 M378.729,572.363 C384.229,570.663 388.029,567.163 390.329,561.063 C388.629,561.663 387.229,561.663 386.429,562.363 C383.229,565.263 380.029,568.063 378.729,572.363 Z"/>
        </g>
        <g id="Shape8">
            <desc shapeID="8" type="0" basicInfo-basicType="0" basicInfo-roundedRectRadius="12" basicInfo-polygonSides="6" basicInfo-starPoints="5" bounding="rect(-42.4904,-44.514,84.9809,89.0281)" text="" font-familyName="" font-pixelSize="20" font-bold="0" font-underline="0" font-alignment="1" strokeStyle="0" markerStart="0" markerEnd="0" shadowEnabled="0" shadowOffsetX="0" shadowOffsetY="2" shadowBlur="4" shadowOpacity="160" blurEnabled="0" blurRadius="4" transform="matrix(1,0,0,1,544.162,398.742)" pers-center="0,0" pers-size="0,0" pers-start="0,0" pers-end="0,0" locked="0" mesh="" flag=""/>
            <path id="shapePath8" d="M562.129,403.963 C565.629,406.163 568.829,407.963 572.029,409.963 C575.129,411.863 578.129,413.963 581.229,415.763 C583.429,417.063 584.129,419.263 584.529,421.463 C584.829,423.263 584.029,425.063 582.329,425.963 C579.829,427.263 577.229,428.063 574.429,426.163 C569.629,423.063 564.729,420.063 559.929,417.063 C559.029,416.563 558.129,416.063 556.629,415.163 C557.529,418.363 558.229,420.863 558.929,423.463 C559.929,426.863 560.929,430.263 561.929,433.563 C562.029,433.963 562.229,434.363 562.229,434.763 C562.529,436.863 562.729,439.263 560.829,440.463 C558.229,442.063 555.329,443.663 552.229,441.363 C550.129,439.863 548.429,438.163 547.829,435.363 C546.729,430.463 545.129,425.563 543.629,420.663 C543.529,420.263 543.329,419.963 542.929,419.263 C541.529,421.363 540.429,423.163 539.229,424.963 C535.929,430.163 532.729,435.363 529.529,440.563 C527.729,443.463 523.429,444.163 520.829,441.963 C520.529,441.763 520.229,441.463 519.929,441.363 C516.529,439.963 515.629,437.763 517.229,434.263 C518.029,432.563 519.129,431.063 520.029,429.463 C523.829,423.263 527.629,417.063 531.829,410.263 C529.629,410.863 528.129,411.263 526.629,411.663 C522.429,412.963 518.129,414.463 513.929,415.763 C510.529,416.763 507.229,416.663 504.229,414.263 C500.429,411.263 501.029,406.263 504.929,403.863 C506.529,402.863 508.529,402.263 510.429,401.863 C516.429,400.563 522.529,399.463 528.429,397.263 C528.729,397.163 528.929,396.863 529.429,396.463 C528.229,395.663 527.229,394.863 526.029,394.263 C520.429,391.363 515.429,387.463 509.529,385.063 C505.929,383.563 504.529,379.963 505.829,376.663 C506.529,374.763 507.929,373.663 509.929,373.263 C513.029,372.763 515.729,373.463 518.429,375.263 C523.329,378.663 528.529,381.763 534.129,385.363 C534.029,384.063 534.029,383.463 533.829,382.763 C532.729,377.863 531.529,372.863 530.329,367.963 C530.029,366.763 529.629,365.563 529.329,364.363 C528.529,361.663 529.229,359.463 531.629,357.863 C536.329,354.663 542.029,357.363 543.229,363.363 C544.329,368.963 545.729,374.463 546.929,380.063 C547.029,380.663 547.329,381.163 547.829,382.363 C549.129,380.063 550.229,378.063 551.229,376.163 C554.029,370.963 556.729,365.663 559.529,360.563 C560.429,358.963 561.629,357.463 562.829,356.063 C565.629,352.763 572.329,354.463 574.529,356.863 C575.929,358.263 575.829,360.463 574.329,362.563 C568.429,370.663 564.829,380.063 560.129,388.763 C559.829,389.263 559.729,389.863 559.329,390.863 C562.129,390.263 564.729,389.763 567.229,389.163 C570.829,388.363 574.529,387.463 578.129,386.463 C581.129,385.663 583.229,387.063 585.029,389.063 C586.729,390.963 587.029,393.463 586.229,395.763 C585.629,397.663 583.929,398.663 582.029,399.163 C577.329,400.363 572.529,401.463 567.829,402.663 C565.829,402.963 564.229,403.363 562.129,403.963 Z"/>
        </g>
        <g id="Shape9">
            <desc shapeID="9" type="0" basicInfo-basicType="0" basicInfo-roundedRectRadius="12" basicInfo-polygonSides="6" basicInfo-starPoints="5" bounding="rect(-46.4343,-44.6683,92.8686,89.3367)" text="" font-familyName="" font-pixelSize="20" font-bold="0" font-underline="0" font-alignment="1" strokeStyle="0" markerStart="0" markerEnd="0" shadowEnabled="0" shadowOffsetX="0" shadowOffsetY="2" shadowBlur="4" shadowOpacity="160" blurEnabled="0" blurRadius="4" transform="matrix(1,0,0,1,198.996,516.919)" pers-center="0,0" pers-size="0,0" pers-start="0,0" pers-end="0,0" locked="0" mesh="" flag=""/>
            <path id="shapePath9" d="M190.829,537.363 C189.229,540.863 187.529,544.263 186.129,547.763 C185.229,549.763 183.929,551.063 181.929,552.063 C180.429,552.763 179.029,552.363 177.729,552.063 C173.229,551.263 171.329,547.763 173.129,543.563 C175.229,538.663 177.629,533.963 179.829,529.163 C180.529,527.563 181.229,525.963 182.129,524.063 C179.629,524.363 177.529,524.463 175.529,524.863 C171.629,525.663 167.629,526.363 163.729,527.463 C159.429,528.763 155.329,526.363 153.229,523.363 C151.629,520.963 153.029,516.563 156.129,514.863 C157.529,514.063 159.229,513.863 160.829,513.663 C165.229,512.963 169.629,512.463 174.529,511.763 C173.729,510.963 173.429,510.363 172.829,510.063 C169.429,507.863 166.229,505.463 162.429,503.963 C160.929,503.363 159.529,502.263 158.529,501.063 C156.929,499.163 156.229,496.963 157.429,494.463 C158.729,491.963 160.529,490.463 163.529,490.463 C166.329,490.363 168.429,491.763 170.629,493.263 C174.529,495.863 178.329,498.463 182.229,501.063 C182.529,501.263 182.929,501.463 183.729,501.963 C183.329,499.063 183.229,496.663 182.729,494.263 C181.929,489.863 181.029,485.563 180.129,481.163 C179.429,477.663 182.829,473.563 186.529,473.563 C189.929,473.563 192.329,475.163 193.429,478.263 C194.429,481.163 194.929,484.263 195.429,487.363 C195.929,490.263 196.329,493.263 196.929,496.763 C197.729,495.763 198.129,495.263 198.529,494.663 C201.629,488.863 204.729,482.963 207.929,477.163 C209.429,474.363 211.429,472.063 215.129,472.263 C219.129,472.463 222.429,476.063 221.829,479.963 C221.629,481.663 220.929,483.363 220.029,484.863 C215.829,492.263 211.529,499.563 206.929,507.263 C210.129,506.763 212.929,506.263 215.729,505.763 C221.929,504.663 228.129,503.563 234.429,502.463 C235.929,502.163 237.529,502.163 239.129,502.263 C243.729,502.463 247.129,508.763 244.529,512.463 C243.829,513.563 242.229,514.363 240.929,514.663 C237.429,515.463 233.829,515.863 230.229,516.463 C223.829,517.563 217.329,518.763 210.929,519.863 C210.329,519.963 209.829,520.263 208.929,520.563 C210.229,521.663 211.129,522.563 212.229,523.363 C217.829,527.363 222.529,532.463 227.329,537.263 C228.929,538.863 229.429,540.863 229.429,542.963 C229.429,544.163 228.629,545.563 227.729,546.463 C225.129,548.963 220.729,549.163 217.829,546.463 C214.529,543.363 211.229,540.163 207.929,536.963 C207.429,536.463 206.829,536.063 205.929,535.163 C206.029,536.563 206.029,537.563 206.129,538.563 C207.029,543.263 208.029,547.863 208.929,552.563 C209.029,553.263 209.129,553.963 209.229,554.763 C209.429,559.963 205.129,562.963 200.329,560.963 C197.429,559.763 195.429,557.663 194.829,554.363 C193.829,548.763 192.629,543.263 191.629,537.663 C191.429,537.463 191.129,537.463 190.829,537.363 Z"/>
        </g>
        <g id="Shape10">
            <desc shapeID="10" type="0" basicInfo-basicType="0" basicInfo-roundedRectRadius="12" basicInfo-polygonSides="6" basicInfo-starPoints="5" bounding="rect(-44.2465,-42.6966,88.4931,85.3933)" text="" font-familyName="" font-pixelSize="20" font-bold="0" font-underline="0" font-alignment="1" strokeStyle="0" markerStart="0" markerEnd="0" shadowEnabled="0" shadowOffsetX="0" shadowOffsetY="2" shadowBlur="4" shadowOpacity="160" blurEnabled="0" blurRadius="4" transform="matrix(1,0,0,1,109.494,370.096)" pers-center="0,0" pers-size="0,0" pers-start="0,0" pers-end="0,0" locked="0" mesh="" flag=""/>
            <path id="shapePath10" d="M116.429,373.963 C115.929,371.763 115.529,369.663 114.929,367.563 C114.229,365.063 115.929,363.063 118.529,363.563 C122.629,364.263 126.529,365.663 128.229,369.763 C128.929,371.463 129.129,373.663 128.729,375.463 C128.129,378.263 126.929,381.063 124.729,383.063 C119.029,388.463 112.429,388.663 105.729,385.663 C102.229,384.063 98.8293,381.763 95.9292,379.163 C91.1292,374.963 90.3293,369.363 92.1292,363.463 C93.5293,358.863 95.8293,354.663 99.6292,351.463 C100.229,350.963 100.729,350.463 101.329,350.063 C106.229,347.563 110.929,344.663 116.529,344.063 C118.229,343.863 120.029,344.163 121.729,344.263 C128.429,344.763 134.429,346.963 139.529,351.563 C139.729,351.763 140.029,352.063 140.229,352.163 C143.829,353.763 146.129,356.863 148.929,359.363 C152.129,362.163 153.129,366.063 153.529,369.963 C154.629,380.163 151.329,389.163 146.029,397.863 C140.529,406.863 132.229,410.663 122.529,412.163 C109.929,414.063 98.2292,411.663 87.4292,404.963 C80.2292,400.463 74.1292,395.063 70.2292,387.463 C65.7292,378.663 64.5293,369.263 65.6292,359.363 C66.3293,353.163 68.9292,347.763 72.4292,342.863 C77.0293,336.563 83.0293,331.663 90.5293,329.363 C95.1292,327.963 100.129,327.863 104.929,327.463 C106.829,327.263 108.829,327.563 110.729,327.963 C113.029,328.563 114.129,330.663 113.529,332.963 C113.229,334.263 112.329,334.763 111.029,334.863 C108.429,335.063 105.829,335.163 103.329,335.463 C91.0293,336.963 82.3293,343.563 77.7292,354.963 C75.3293,360.963 75.9292,367.563 77.4292,373.963 C79.4292,382.363 84.5293,388.563 91.3293,393.563 C93.1292,394.963 95.0293,396.163 97.0293,397.363 C106.629,403.363 116.629,402.463 126.629,398.963 C130.929,397.463 133.829,394.063 136.129,390.263 C139.129,385.463 141.329,380.363 141.729,374.663 C141.929,372.163 141.629,369.763 140.129,367.563 C137.129,362.963 133.229,359.363 128.629,356.363 C126.029,354.663 123.229,354.163 120.329,354.863 C117.929,355.463 115.629,356.363 113.329,357.263 C112.429,357.563 111.729,358.163 110.829,358.463 C107.029,359.563 105.729,362.763 104.429,365.963 C103.629,367.963 103.829,370.063 105.629,371.663 C106.629,372.563 107.629,373.563 108.629,374.363 C111.429,376.663 113.129,376.563 116.429,373.963 Z"/>
        </g>
        <g id="Shape11">
            <desc shapeID="11" type="0" basicInfo-basicType="0" basicInfo-roundedRectRadius="12" basicInfo-polygonSides="6" basicInfo-starPoints="5" bounding="rect(-28.7108,-59.7853,57.4216,119.571)" text="" font-familyName="" font-pixelSize="20" font-bold="0" font-underline="0" font-alignment="1" strokeStyle="0" markerStart="0" markerEnd="0" shadowEnabled="0" shadowOffsetX="0" shadowOffsetY="2" shadowBlur="4" shadowOpacity="160" blurEnabled="0" blurRadius="4" transform="matrix(1,0,0,1,943.65,271.382)" pers-center="0,0" pers-size="0,0" pers-start="0,0" pers-end="0,0" locked="0" mesh="" flag=""/>
            <path id="shapePath11" d="M957.729,271.763 C959.529,266.763 958.829,262.163 957.729,257.663 C953.829,258.063 950.229,258.563 946.629,258.863 C942.929,259.163 939.329,258.663 935.929,257.263 C929.429,254.663 926.629,249.463 925.729,242.863 C925.629,242.363 925.729,241.763 925.929,241.363 C927.929,238.063 929.929,234.863 933.729,233.163 C939.229,230.763 944.629,230.963 949.929,233.263 C952.829,234.463 955.629,236.063 958.529,237.563 C960.329,234.763 960.629,232.163 958.529,229.563 C956.929,227.563 954.929,225.863 952.929,224.263 C951.529,223.163 949.929,222.263 948.329,221.763 C945.729,220.863 944.629,219.063 944.029,216.563 C943.529,214.363 943.929,213.463 946.029,212.463 C948.629,211.163 951.329,211.463 953.929,212.463 C960.629,215.063 966.129,219.263 969.529,225.563 C971.929,229.963 973.629,234.763 971.129,239.763 C970.029,241.963 968.829,244.163 967.629,246.363 C967.229,247.163 966.729,247.963 966.229,248.863 C967.029,250.963 967.729,252.963 968.529,254.963 C971.429,262.363 971.029,269.763 968.129,277.063 C967.329,279.063 965.829,281.063 965.829,283.063 C965.829,285.063 967.229,287.063 967.929,289.163 C970.029,294.663 969.529,300.163 967.229,305.463 C963.329,314.363 957.129,321.363 949.329,327.063 C946.529,329.163 943.129,329.963 939.729,330.463 C936.229,330.963 932.729,331.063 929.229,331.163 C925.929,331.263 923.229,329.663 920.629,327.863 C918.429,326.263 919.029,321.863 921.429,320.663 C922.029,320.363 922.829,320.563 923.529,320.663 C930.929,322.263 937.929,320.863 944.129,316.963 C948.229,314.363 951.729,310.863 954.229,306.563 C955.229,304.763 956.429,303.063 957.229,301.163 C958.229,299.063 958.429,296.763 957.929,294.263 C957.429,294.563 956.929,294.663 956.529,294.963 C951.529,299.363 945.629,300.763 939.029,300.863 C931.729,300.963 926.029,297.663 920.729,293.463 C916.029,289.663 914.329,284.363 915.129,278.763 C915.829,274.563 918.329,270.763 922.129,268.463 C933.029,262.163 943.729,263.463 954.229,269.563 C955.529,270.163 956.429,270.963 957.729,271.763 M952.329,282.263 C951.329,281.363 950.629,280.363 949.629,279.863 C947.029,278.463 944.329,277.163 941.529,276.063 C937.129,274.363 933.129,275.763 929.329,277.963 C926.229,279.663 926.229,282.763 928.829,285.063 C929.029,285.263 929.329,285.463 929.629,285.563 C931.629,286.663 933.629,287.863 935.629,288.863 C937.429,289.863 939.429,289.963 941.329,289.463 C945.629,288.463 949.329,286.363 952.329,282.263 M937.829,244.763 C941.629,247.763 947.629,248.463 950.729,246.263 C949.029,244.563 946.829,243.963 944.829,243.063 C941.929,241.863 939.929,243.063 937.829,244.763 Z"/>
        </g>
        <g id="Shape12">
            <desc shapeID="12" type="0" basicInfo-basicType="0" basicInfo-roundedRectRadius="12" basicInfo-polygonSides="6" basicInfo-starPoints="5" bounding="rect(-41.2631,-42.3762,82.5262,84.7524)" text="" font-familyName="" font-pixelSize="20" font-bold="0" font-underline="0" font-alignment="1" strokeStyle="0" markerStart="0" markerEnd="0" shadowEnabled="0" shadowOffsetX="0" shadowOffsetY="2" shadowBlur="4" shadowOpacity="160" blurEnabled="0" blurRadius="4" transform="matrix(1,0,0,1,585.124,210.939)" pers-center="0,0" pers-size="0,0" pers-start="0,0" pers-end="0,0" locked="0" mesh="" flag=""/>
            <path id="shapePath12" d="M586.229,208.663 C587.329,210.263 588.429,211.863 589.429,213.363 C591.229,215.963 591.929,216.063 594.429,213.963 C596.029,212.663 599.329,212.263 601.129,214.363 C604.029,217.763 604.129,220.763 600.929,223.863 C596.829,227.763 589.029,228.563 584.129,225.563 C582.229,224.363 580.129,223.463 578.129,222.263 C573.829,219.563 571.329,215.663 571.129,210.463 C571.029,208.063 571.529,205.763 572.729,203.663 C578.129,194.763 586.029,190.063 596.429,190.363 C604.429,190.563 611.729,193.263 617.629,198.863 C624.229,205.163 627.529,212.763 626.029,222.063 C625.329,226.763 624.629,231.463 622.829,235.963 C620.429,242.163 616.429,246.763 610.329,249.563 C608.029,250.663 605.729,251.863 603.229,252.563 C601.029,253.163 598.729,253.163 596.429,253.263 C578.229,253.963 563.229,247.663 551.729,233.263 C548.129,228.763 545.029,223.963 544.429,218.063 C543.129,206.663 543.729,195.463 549.729,185.163 C551.829,181.563 555.029,179.363 558.129,177.063 C562.529,173.663 567.529,171.463 572.629,169.363 C576.729,167.663 580.429,168.963 584.029,170.563 C586.729,171.763 586.629,176.363 583.929,177.763 C583.129,178.263 582.229,178.463 581.329,178.663 C575.029,180.463 569.529,183.763 564.729,188.163 C563.429,189.363 562.329,191.063 561.429,192.663 C558.129,199.263 557.229,206.163 557.929,213.463 C558.729,222.863 563.729,229.463 570.529,235.063 C573.629,237.663 577.529,238.663 581.229,239.763 C591.629,242.963 600.329,239.463 608.229,232.863 C610.129,231.263 611.029,229.163 611.829,226.763 C613.529,221.863 614.229,216.863 613.129,211.763 C612.729,210.063 611.929,208.163 610.729,206.863 C608.729,204.763 606.329,202.963 603.229,202.763 C600.329,202.563 597.429,202.463 594.529,202.663 C590.929,203.163 588.329,205.763 586.229,208.663 Z"/>
        </g>
        <g id="Shape13">
            <desc shapeID="13" type="0" basicInfo-basicType="0" basicInfo-roundedRectRadius="12" basicInfo-polygonSides="6" basicInfo-starPoints="5" bounding="rect(-41.1329,-39.4843,82.2659,78.9685)" text="" font-familyName="" font-pixelSize="20" font-bold="0" font-underline="0" font-alignment="1" strokeStyle="0" markerStart="0" markerEnd="0" shadowEnabled="0" shadowOffsetX="0" shadowOffsetY="2" shadowBlur="4" shadowOpacity="160" blurEnabled="0" blurRadius="4" transform="matrix(1,0,0,1,779.864,136.73)" pers-center="0,0" pers-size="0,0" pers-start="0,0" pers-end="0,0" locked="0" mesh="" flag=""/>
            <path id="shapePath13" d="M765.429,128.663 C763.229,124.363 761.129,120.463 759.129,116.563 C758.429,115.263 757.829,113.663 757.729,112.263 C757.729,109.063 759.529,107.163 762.929,106.263 C765.629,105.563 768.429,106.563 769.929,109.063 C771.529,111.763 772.829,114.563 774.629,117.863 C775.629,113.863 776.429,110.463 777.229,106.963 C777.729,105.063 777.829,103.063 778.529,101.263 C779.929,97.463 786.629,95.8631 789.529,98.6631 C791.529,100.563 791.929,103.063 791.229,105.863 C789.529,112.463 787.929,119.163 786.329,125.763 C786.129,126.463 786.129,127.163 785.929,128.263 C789.629,126.763 793.029,125.463 796.329,124.063 C801.329,121.863 806.329,119.563 811.429,117.363 C814.129,116.163 816.629,115.963 818.929,117.963 C821.029,119.863 821.229,122.363 820.829,125.063 C820.529,126.963 819.029,127.763 817.529,128.463 C812.229,130.863 806.929,133.263 801.629,135.663 C798.829,136.963 796.029,138.263 793.129,139.663 C793.429,140.063 793.629,140.363 793.829,140.463 C798.629,143.063 803.529,145.663 808.329,148.263 C811.129,149.763 812.629,154.463 811.129,157.163 C809.529,160.163 805.129,161.263 801.929,159.563 C799.129,158.063 796.329,156.463 793.529,154.963 C793.329,155.063 793.229,155.263 793.029,155.363 C793.729,156.563 794.329,157.863 795.029,159.063 C796.529,161.863 798.029,164.763 799.629,167.563 C800.829,169.663 801.329,171.863 799.629,173.963 C798.029,175.863 794.329,176.763 791.929,175.863 C789.529,174.963 787.929,173.263 786.729,171.163 C785.029,168.063 783.329,164.963 781.629,161.963 C781.429,161.663 781.129,161.363 780.629,160.763 C780.029,163.363 779.429,165.663 778.929,167.863 C778.129,171.563 775.429,173.063 772.029,173.563 C768.629,174.163 765.029,170.763 765.229,167.363 C765.229,166.463 765.529,165.563 765.729,164.663 C766.629,159.963 767.529,155.163 768.529,150.463 C768.329,150.363 768.129,150.163 767.929,150.063 C764.829,151.663 761.729,153.163 758.629,154.763 C756.729,155.763 754.829,156.963 752.829,157.763 C749.129,159.463 745.329,157.263 743.329,154.463 C741.829,152.363 743.029,148.363 745.629,146.463 C746.529,145.763 747.629,145.363 748.629,144.863 C751.429,143.463 754.129,142.163 757.629,140.363 C754.729,139.263 752.629,138.463 750.429,137.563 C747.829,136.463 745.229,135.563 742.729,134.263 C739.529,132.663 737.929,129.063 739.129,126.263 C739.329,125.763 739.729,125.163 740.129,124.763 C742.829,122.563 746.829,121.063 750.729,123.663 C754.529,126.263 759.029,127.463 763.429,128.763 C763.929,128.763 764.429,128.663 765.429,128.663 Z"/>
        </g>
        <g id="Shape14">
            <desc shapeID="14" type="0" basicInfo-basicType="0" basicInfo-roundedRectRadius="12" basicInfo-polygonSides="6" basicInfo-starPoints="5" bounding="rect(-47.3575,-46.3641,94.7149,92.7281)" text="" font-familyName="" font-pixelSize="20" font-bold="0" font-underline="0" font-alignment="1" strokeStyle="0" markerStart="0" markerEnd="0" shadowEnabled="0" shadowOffsetX="0" shadowOffsetY="2" shadowBlur="4" shadowOpacity="160" blurEnabled="0" blurRadius="4" transform="matrix(1,0,0,1,268.294,215.299)" pers-center="0,0" pers-size="0,0" pers-start="0,0" pers-end="0,0" locked="0" mesh="" flag=""/>
            <path id="shapePath14" d="M260.129,261.663 C250.729,261.463 244.229,256.363 238.329,250.163 C231.329,242.663 226.129,233.963 222.629,224.263 C220.129,217.263 220.629,210.163 222.629,203.163 C223.929,198.363 226.629,194.263 229.229,190.163 C230.129,188.763 231.229,187.563 232.229,186.163 C236.029,180.563 241.429,176.863 247.429,174.163 C251.229,172.463 255.129,170.963 259.129,170.063 C267.429,168.163 275.729,168.663 283.929,171.563 C290.029,173.663 296.029,175.963 301.629,179.063 C304.429,180.663 306.729,183.163 309.229,185.363 C310.229,186.263 311.029,187.363 312.029,188.263 C314.029,190.063 315.529,192.063 315.429,194.963 C315.429,196.063 315.929,197.463 315.429,198.263 C314.829,199.263 313.429,199.763 312.329,200.363 C309.229,202.163 305.929,201.763 302.429,201.363 C291.929,200.263 282.129,202.063 274.029,209.463 C265.529,217.163 260.729,226.763 259.029,238.063 C258.329,243.063 259.229,247.963 261.029,252.663 C262.429,255.863 261.729,258.763 260.129,261.663 M293.829,188.763 C291.029,186.663 287.829,185.563 284.629,184.363 C274.729,180.563 264.829,179.463 254.729,183.863 C251.029,185.463 247.629,187.463 245.229,190.563 C242.229,194.463 239.429,198.663 236.829,202.863 C234.029,207.363 233.729,212.463 234.629,217.563 C236.029,225.063 239.529,231.663 244.129,237.663 C244.829,238.563 245.629,239.363 246.729,240.663 C247.129,237.463 247.129,234.763 247.729,232.263 C249.929,221.863 254.329,212.363 261.429,204.363 C266.429,198.863 272.229,194.263 279.529,192.063 C284.029,190.763 288.829,189.863 293.829,188.763 Z"/>
        </g>
        <g id="Shape15">
            <desc shapeID="15" type="0" basicInfo-basicType="0" basicInfo-roundedRectRadius="12" basicInfo-polygonSides="6" basicInfo-starPoints="5" bounding="rect(-39.9251,-38.6125,79.8503,77.225)" text="" font-familyName="" font-pixelSize="20" font-bold="0" font-underline="0" font-alignment="1" strokeStyle="0" markerStart="0" markerEnd="0" shadowEnabled="0" shadowOffsetX="0" shadowOffsetY="2" shadowBlur="4" shadowOpacity="160" blurEnabled="0" blurRadius="4" transform="matrix(1,0,0,1,208.293,73.6867)" pers-center="0,0" pers-size="0,0" pers-start="0,0" pers-end="0,0" locked="0" mesh="" flag=""/>
            <path id="shapePath15" d="M197.129,82.963 C195.829,83.3631 194.429,83.6631 193.129,84.263 C188.229,86.263 183.429,88.3631 178.529,90.463 C174.629,92.063 172.629,91.3631 170.629,87.6631 C168.329,83.463 169.329,80.6631 173.729,78.8631 C178.029,77.063 182.329,75.263 186.629,73.3631 C187.529,72.963 188.429,72.463 189.729,71.8631 C184.529,68.8631 179.429,66.563 174.129,64.6631 C171.429,63.6631 169.829,61.963 168.829,59.463 C167.329,55.763 169.629,52.063 173.629,52.063 C175.229,52.063 176.929,52.3631 178.429,52.963 C182.829,54.763 187.129,56.8631 191.429,58.8631 C192.629,59.463 193.829,60.063 195.529,60.8631 C194.429,56.263 192.829,52.3631 190.729,48.763 C189.629,46.8631 188.529,44.9631 187.629,43.063 C186.329,40.3631 186.529,38.563 188.329,36.763 C189.929,35.163 192.829,34.563 194.929,35.563 C196.929,36.563 198.729,37.8631 199.929,39.9631 C202.729,44.8631 205.429,49.8631 207.029,55.3631 C207.229,55.3631 207.429,55.3631 207.629,55.3631 C208.529,52.6631 209.629,49.963 210.429,47.263 C211.129,44.8631 211.729,42.563 212.329,40.163 C213.029,37.263 215.329,36.163 217.829,36.063 C220.129,35.9631 222.329,37.063 223.529,39.263 C223.929,39.9631 224.029,41.063 223.829,41.8631 C222.129,47.8631 220.429,53.763 218.629,59.763 C218.329,60.763 218.029,61.6631 217.629,63.263 C220.129,62.263 222.229,61.563 224.329,60.6631 C228.029,59.1631 231.729,57.463 235.529,56.063 C237.229,55.3631 239.129,54.963 240.929,54.763 C245.129,54.1631 248.629,58.063 247.729,62.1631 C247.529,63.063 246.929,64.263 246.229,64.763 C244.529,65.8631 242.629,66.8631 240.729,67.563 C236.029,69.463 231.229,71.1631 226.529,72.963 C225.929,73.1631 225.529,73.563 224.529,74.063 C227.929,75.6631 231.029,77.063 234.029,78.563 C237.429,80.263 240.929,81.963 244.229,83.763 C245.329,84.3631 246.229,85.1631 247.029,86.1631 C249.229,88.763 248.229,92.263 245.229,93.8631 C242.329,95.463 240.029,95.063 237.229,93.3631 C232.429,90.563 227.229,88.263 222.229,85.8631 C221.329,85.463 220.329,85.263 218.829,84.763 C220.229,87.963 221.529,90.6631 222.629,93.3631 C223.329,95.1631 224.529,96.763 223.729,98.963 C222.829,101.563 220.829,103.463 218.129,103.463 C215.829,103.463 213.929,102.363 212.729,100.263 C212.029,98.963 211.529,97.563 211.029,96.263 C210.129,94.1631 209.329,92.063 208.329,89.463 C207.829,90.3631 207.429,90.963 207.229,91.463 C206.029,95.6631 204.829,99.8631 203.529,103.963 C203.229,105.063 202.729,106.163 202.529,107.263 C201.929,110.863 199.129,111.563 196.229,112.263 C194.129,112.663 191.029,109.663 191.029,107.063 C191.029,105.763 191.329,104.363 191.729,103.163 C193.629,96.563 195.529,90.063 197.429,83.463 C197.529,83.463 197.329,83.1631 197.129,82.963 Z"/>
        </g>
        <g id="Shape16">
            <desc shapeID="16" type="0" basicInfo-basicType="0" basicInfo-roundedRectRadius="12" basicInfo-polygonSides="6" basicInfo-starPoints="5" bounding="rect(-42.1382,-48.6679,84.2764,97.3359)" text="" font-familyName="" font-pixelSize="20" font-bold="0" font-underline="0" font-alignment="1" strokeStyle="0" markerStart="0" markerEnd="0" shadowEnabled="0" shadowOffsetX="0" shadowOffsetY="2" shadowBlur="4" shadowOpacity="160" blurEnabled="0" blurRadius="4" transform="matrix(1,0,0,1,649.922,51.415)" pers-center="0,0" pers-size="0,0" pers-start="0,0" pers-end="0,0" locked="0" mesh="" flag=""/>
            <path id="shapePath16" d="M642.729,2.76305 C650.129,3.06305 657.429,3.36305 664.329,6.36305 C673.229,10.263 680.129,16.3631 685.129,24.763 C687.929,29.3631 689.729,34.263 691.029,39.3631 C692.629,45.563 692.129,51.963 691.129,58.263 C690.729,60.563 690.129,62.963 689.829,65.263 C689.229,68.763 687.629,71.963 686.129,75.063 C683.429,80.463 680.529,85.6631 676.329,90.1631 C672.129,94.6631 667.329,97.6631 661.629,99.6631 C660.929,99.8631 660.129,100.163 659.529,100.063 C656.729,99.3631 653.929,98.8631 651.329,97.763 C647.829,96.1631 647.129,92.963 649.029,89.3631 C650.229,86.963 651.629,84.6631 652.529,82.1631 C654.129,77.963 653.629,73.463 653.029,69.263 C652.329,64.263 651.129,59.263 649.929,54.3631 C648.529,48.763 644.929,44.4631 640.729,40.663 C637.629,37.8631 634.529,35.063 631.329,32.4631 C629.029,30.663 626.629,29.063 624.029,27.763 C620.729,26.163 617.329,24.3631 613.629,23.8631 C612.929,23.763 612.329,23.3631 611.629,22.9631 C606.729,20.063 606.529,17.063 610.929,13.3631 C611.529,12.8631 612.129,12.163 612.629,11.563 C614.129,9.66305 615.829,8.26305 618.229,7.56305 C624.929,5.46305 631.729,3.46305 638.829,2.96305 C640.029,2.66305 641.429,2.76305 642.729,2.76305 M664.029,85.6631 C664.929,84.8631 665.329,84.463 665.729,84.063 C669.529,80.1631 672.329,75.6631 674.829,70.763 C678.529,63.463 679.429,55.563 679.929,47.563 C679.929,47.163 679.829,46.763 679.829,46.3631 C679.129,40.663 677.229,35.263 674.329,30.3631 C669.429,22.263 662.729,16.663 653.029,15.3631 C650.929,15.063 648.929,15.063 646.829,14.8631 C641.129,14.163 635.629,15.4631 629.729,16.763 C632.029,18.163 634.129,19.063 635.829,20.4631 C641.129,24.763 646.429,29.163 651.429,33.763 C654.629,36.763 657.229,40.563 658.929,44.763 C664.229,57.8631 666.529,71.263 664.029,85.6631 Z"/>
        </g>
        <g id="Shape17">
            <desc shapeID="17" type="0" basicInfo-basicType="0" basicInfo-roundedRectRadius="12" basicInfo-polygonSides="6" basicInfo-starPoints="5" bounding="rect(-29.3468,-45.7544,58.6937,91.5087)" text="" font-familyName="" font-pixelSize="20" font-bold="0" font-underline="0" font-alignment="1" strokeStyle="0" markerStart="0" markerEnd="0" shadowEnabled="0" shadowOffsetX="0" shadowOffsetY="2" shadowBlur="4" shadowOpacity="160" blurEnabled="0" blurRadius="4" transform="matrix(1,0,0,1,793.7,621.217)" pers-center="0,0" pers-size="0,0" pers-start="0,0" pers-end="0,0" locked="0" mesh="" flag=""/>
            <path id="shapePath17" d="M822.929,618.263 C822.929,629.363 820.629,638.863 814.029,646.763 C807.829,654.163 800.729,660.463 791.229,663.463 C789.229,664.063 787.229,664.563 785.229,664.963 C782.729,665.563 780.229,666.163 777.729,666.663 C773.629,667.363 769.729,666.863 765.929,665.263 C764.729,664.763 764.129,663.663 764.429,662.463 C764.929,659.863 765.629,657.263 766.529,654.763 C766.729,654.063 767.729,653.663 768.329,653.063 C769.629,651.863 771.129,650.863 772.029,649.463 C779.929,637.363 783.629,623.963 782.429,609.563 C781.629,600.963 778.929,592.763 773.129,585.963 C770.229,582.563 771.029,578.163 774.729,576.363 C775.029,576.263 775.329,576.063 775.529,575.963 C778.529,575.763 781.429,575.663 784.429,575.463 C784.929,575.463 785.529,575.463 785.929,575.763 C791.329,578.463 797.429,579.263 802.429,582.663 C806.229,585.263 809.529,588.363 812.329,591.963 C815.829,596.563 819.329,601.163 821.429,606.763 C823.029,610.863 823.229,614.963 822.929,618.263 M783.129,654.863 C783.229,654.863 783.429,655.063 783.629,654.963 C784.429,654.763 785.229,654.563 786.029,654.263 C794.829,650.863 801.429,644.963 806.329,637.063 C809.829,631.563 810.429,625.163 810.629,618.763 C810.729,615.463 810.329,612.363 808.729,609.463 C807.929,607.963 807.029,606.663 806.129,605.263 C803.329,600.963 800.129,597.063 796.329,593.663 C794.929,592.463 793.529,591.263 791.229,590.963 C791.929,593.463 792.629,595.763 793.329,598.063 C794.729,602.963 795.829,607.863 795.329,613.063 C795.129,614.863 795.029,616.563 794.829,618.363 C794.329,625.363 793.229,632.163 790.529,638.663 C788.229,644.063 785.629,649.363 783.129,654.863 Z"/>
        </g>
        <g id="Shape18">
            <desc shapeID="18" type="0" basicInfo-basicType="0" basicInfo-roundedRectRadius="12" basicInfo-polygonSides="6" basicInfo-starPoints="5" bounding="rect(-29.8991,-34.0725,59.7982,68.145)" text="" font-familyName="" font-pixelSize="20" font-bold="0" font-underline="0" font-alignment="1" strokeStyle="0" markerStart="0" markerEnd="0" shadowEnabled="0" shadowOffsetX="0" shadowOffsetY="2" shadowBlur="4" shadowOpacity="160" blurEnabled="0" blurRadius="4" transform="matrix(1,0,0,1,840.755,495.52)" pers-center="0,0" pers-size="0,0" pers-start="0,0" pers-end="0,0" locked="0" mesh="" flag=""/>
            <path id="shapePath18" d="M845.029,504.163 C844.529,505.263 844.029,506.463 843.629,507.563 C842.029,512.663 840.429,517.863 838.829,522.963 C838.629,523.763 838.229,524.563 837.929,525.263 C835.829,529.863 831.229,530.963 827.229,527.763 C826.229,526.963 825.429,526.063 824.129,524.963 C824.729,523.063 825.329,521.163 825.929,519.263 C827.029,515.763 828.129,512.363 829.229,508.863 C830.029,506.263 830.929,503.763 831.829,501.163 C832.029,500.463 832.129,499.763 832.429,498.863 C830.929,498.363 829.529,497.963 828.229,497.563 C824.629,496.563 821.029,495.663 817.429,494.663 C814.029,493.663 811.929,491.363 811.029,488.063 C810.329,485.763 811.829,482.963 814.029,481.763 C816.129,480.663 818.229,480.263 820.629,481.063 C826.229,482.963 831.829,484.563 837.629,486.363 C838.329,484.863 839.029,483.463 839.629,482.063 C842.029,476.763 844.329,471.463 846.829,466.263 C848.029,463.663 849.729,461.663 853.129,461.463 C858.329,461.163 861.129,465.263 859.929,470.063 C859.529,471.763 858.529,473.263 857.729,474.863 C855.329,479.863 852.929,484.963 850.529,489.963 C850.329,490.363 850.329,490.763 850.229,491.363 C850.929,491.763 851.729,492.063 852.429,492.463 C857.029,494.563 861.729,496.663 866.329,498.663 C869.329,499.963 870.229,502.463 870.629,505.263 C870.929,507.963 868.429,510.663 865.729,510.963 C863.529,511.163 861.429,510.863 859.429,509.863 C855.029,507.863 850.529,506.063 846.029,504.163 C845.729,504.163 845.429,504.163 845.029,504.163 Z"/>
        </g>
        <g id="Shape19">
            <desc shapeID="19" type="0" basicInfo-basicType="0" basicInfo-roundedRectRadius="12" basicInfo-polygonSides="6" basicInfo-starPoints="5" bounding="rect(-23.3277,-23.0042,46.6555,46.0083)" text="" font-familyName="" font-pixelSize="20" font-bold="0" font-underline="0" font-alignment="1" strokeStyle="0" markerStart="0" markerEnd="0" shadowEnabled="0" shadowOffsetX="0" shadowOffsetY="2" shadowBlur="4" shadowOpacity="160" blurEnabled="0" blurRadius="4" transform="matrix(1,0,0,1,900.452,472.13)" pers-center="0,0" pers-size="0,0" pers-start="0,0" pers-end="0,0" locked="0" mesh="" flag=""/>
            <path id="shapePath19" d="M909.429,468.363 C912.629,468.663 915.329,468.763 917.929,469.163 C922.629,469.863 925.229,475.263 922.929,479.463 C922.029,481.163 920.629,482.163 918.629,482.163 C917.229,482.163 915.729,481.963 914.329,481.963 C913.029,481.963 911.729,481.963 910.029,481.963 C910.029,483.863 910.029,485.463 910.029,487.063 C910.029,487.563 910.129,488.063 910.129,488.663 C910.129,491.963 908.729,494.263 906.429,494.863 C903.129,495.763 899.829,494.363 898.229,491.563 C897.229,489.863 897.029,488.063 897.029,486.163 C897.029,484.863 896.929,483.563 896.929,481.863 C894.229,481.863 891.829,481.963 889.529,481.863 C887.029,481.763 884.629,481.563 882.129,481.163 C879.829,480.763 877.329,477.363 877.129,474.563 C877.029,471.963 878.329,469.963 880.529,468.763 C882.229,467.763 884.029,467.363 886.129,467.763 C889.329,468.363 892.729,468.363 896.229,468.663 C896.329,467.663 896.529,466.863 896.429,466.163 C896.229,462.963 896.029,459.763 895.729,456.563 C895.329,452.863 897.929,449.563 901.629,449.163 C904.629,448.763 908.829,451.663 908.829,455.063 C908.829,458.363 909.129,461.663 909.329,464.963 C909.529,465.863 909.429,466.963 909.429,468.363 Z"/>
        </g>
        <g id="Shape20">
            <desc shapeID="20" type="0" basicInfo-basicType="0" basicInfo-roundedRectRadius="12" basicInfo-polygonSides="6" basicInfo-starPoints="5" bounding="rect(-19.8483,-22.2832,39.6965,44.5664)" text="" font-familyName="" font-pixelSize="20" font-bold="0" font-underline="0" font-alignment="1" strokeStyle="0" markerStart="0" markerEnd="0" shadowEnabled="0" shadowOffsetX="0" shadowOffsetY="2" shadowBlur="4" shadowOpacity="160" blurEnabled="0" blurRadius="4" transform="matrix(1,0,0,1,891.506,531.487)" pers-center="0,0" pers-size="0,0" pers-start="0,0" pers-end="0,0" locked="0" mesh="" flag=""/>
            <path id="shapePath20" d="M897.529,541.963 C896.529,544.863 895.329,547.263 894.829,549.763 C893.829,554.563 887.429,554.863 884.429,551.663 C882.729,549.863 881.629,547.963 882.629,545.263 C883.529,542.863 883.929,540.263 884.629,537.663 C882.129,536.863 879.829,536.063 877.529,535.263 C875.629,534.663 874.029,533.463 872.929,531.763 C871.029,528.663 871.229,526.263 873.729,523.363 C875.129,521.663 878.329,521.163 880.929,522.163 C883.429,523.163 885.929,524.063 888.929,525.163 C890.029,521.863 891.129,518.663 892.229,515.463 C892.529,514.463 892.829,513.463 893.329,512.563 C894.829,509.863 897.329,508.763 900.429,509.363 C903.229,509.963 904.929,512.163 905.429,515.263 C905.729,517.563 905.029,519.563 904.329,521.563 C903.429,524.063 902.729,526.663 901.729,529.463 C903.129,529.863 904.229,530.163 905.229,530.463 C909.229,531.663 911.629,534.963 911.329,539.063 C911.129,541.263 908.929,543.463 906.529,543.463 C904.929,543.463 903.229,543.163 901.629,542.963 C900.329,542.663 899.029,542.263 897.529,541.963 Z"/>
        </g>
        <g id="Shape21">
            <desc shapeID="21" type="0" basicInfo-basicType="0" basicInfo-roundedRectRadius="12" basicInfo-polygonSides="6" basicInfo-starPoints="5" bounding="rect(-13.3065,-12.4067,26.6129,24.8134)" text="" font-familyName="" font-pixelSize="20" font-bold="0" font-underline="0" font-alignment="1" strokeStyle="0" markerStart="0" markerEnd="0" shadowEnabled="0" shadowOffsetX="0" shadowOffsetY="2" shadowBlur="4" shadowOpacity="160" blurEnabled="0" blurRadius="4" transform="matrix(1,0,0,1,918.723,62.1744)" pers-center="0,0" pers-size="0,0" pers-start="0,0" pers-end="0,0" locked="0" mesh="" flag=""/>
            <path id="shapePath21" d="M932.029,64.6631 C932.029,69.1631 930.129,72.1631 925.729,73.463 C922.429,74.463 919.129,75.463 915.929,73.263 C915.729,73.1631 915.529,72.963 915.429,72.963 C911.229,74.263 910.129,70.563 908.429,68.263 C907.129,66.463 906.629,64.1631 905.829,62.063 C904.529,58.463 906.529,55.763 908.629,53.3631 C911.229,50.263 914.929,49.463 918.729,49.8631 C926.829,50.563 932.029,58.6631 932.029,64.6631 Z"/>
        </g>
        <g id="Shape22">
            <desc shapeID="22" type="0" basicInfo-basicType="0" basicInfo-roundedRectRadius="12" basicInfo-polygonSides="6" basicInfo-starPoints="5" bounding="rect(-12.277,-12.028,24.554,24.056)" text="" font-familyName="" font-pixelSize="20" font-bold="0" font-underline="0" font-alignment="1" strokeStyle="0" markerStart="0" markerEnd="0" shadowEnabled="0" shadowOffsetX="0" shadowOffsetY="2" shadowBlur="4" shadowOpacity="160" blurEnabled="0" blurRadius="4" transform="matrix(1,0,0,1,956.158,74.4989)" pers-center="0,0" pers-size="0,0" pers-start="0,0" pers-end="0,0" locked="0" mesh="" flag=""/>
            <path id="shapePath22" d="M954.929,62.563 C960.129,61.8631 963.229,65.263 966.129,68.8631 C967.229,70.1631 968.529,71.963 968.429,73.463 C968.229,76.463 967.229,79.463 966.529,82.463 C966.429,82.963 965.729,83.463 965.229,83.6631 C963.129,84.6631 960.929,85.763 958.729,86.3631 C957.729,86.6631 956.129,86.563 955.229,85.963 C954.129,85.1631 953.029,84.963 951.729,84.963 C948.929,84.963 947.029,83.563 946.129,80.963 C945.329,78.963 944.629,76.8631 944.129,74.763 C943.629,72.463 943.829,70.1631 945.229,68.1631 C947.529,64.963 950.229,62.063 954.929,62.563 Z"/>
        </g>
        <g id="Shape23">
            <desc shapeID="23" type="0" basicInfo-basicType="0" basicInfo-roundedRectRadius="12" basicInfo-polygonSides="6" basicInfo-starPoints="5" bounding="rect(-11.9557,-11.4011,23.9114,22.8023)" text="" font-familyName="" font-pixelSize="20" font-bold="0" font-underline="0" font-alignment="1" strokeStyle="0" markerStart="0" markerEnd="0" shadowEnabled="0" shadowOffsetX="0" shadowOffsetY="2" shadowBlur="4" shadowOpacity="160" blurEnabled="0" blurRadius="4" transform="matrix(1,0,0,1,951.996,11.4011)" pers-center="0,0" pers-size="0,0" pers-start="0,0" pers-end="0,0" locked="0" mesh="" flag=""/>
            <path id="shapePath23" d="M963.929,12.8631 C963.929,14.563 964.129,16.8631 962.429,18.563 C960.429,20.563 958.029,21.9631 955.229,22.563 C954.229,22.763 953.129,22.8631 952.129,22.763 C951.429,22.663 950.629,22.3631 950.029,21.9631 C948.429,20.9631 947.029,19.763 945.429,18.9631 C940.829,16.8631 938.529,10.163 941.129,5.86305 C942.129,4.26305 943.429,2.96305 944.729,1.66305 C945.329,1.06305 946.329,0.563049 947.129,0.363052 C952.229,-1.03695 959.629,1.76305 962.529,6.16305 C963.829,7.86305 964.029,9.26305 963.929,12.8631 Z"/>
        </g>
        <g id="Shape24">
            <desc shapeID="24" type="0" basicInfo-basicType="0" basicInfo-roundedRectRadius="12" basicInfo-polygonSides="6" basicInfo-starPoints="5" bounding="rect(-12.0076,-11.3324,24.0154,22.6649)" text="" font-familyName="" font-pixelSize="20" font-bold="0" font-underline="0" font-alignment="1" strokeStyle="0" markerStart="0" markerEnd="0" shadowEnabled="0" shadowOffsetX="0" shadowOffsetY="2" shadowBlur="4" shadowOpacity="160" blurEnabled="0" blurRadius="4" transform="matrix(1,0,0,1,979.493,46.0306)" pers-center="0,0" pers-size="0,0" pers-start="0,0" pers-end="0,0" locked="0" mesh="" flag=""/>
            <path id="shapePath24" d="M980.029,57.3631 C975.529,56.463 971.929,55.263 969.929,51.063 C968.529,48.1631 967.229,45.3631 967.529,41.9631 C967.729,40.263 968.229,38.8631 969.429,37.8631 C971.729,35.8631 974.329,34.3631 977.629,34.763 C983.329,35.3631 988.029,37.563 990.729,42.8631 C992.829,47.063 990.429,53.3631 986.129,55.063 C983.929,55.8631 981.829,56.6631 980.029,57.3631 Z"/>
        </g>
        <g id="Shape25">
            <desc shapeID="25" type="0" basicInfo-basicType="0" basicInfo-roundedRectRadius="12" basicInfo-polygonSides="6" basicInfo-starPoints="5" bounding="rect(-11.9068,-11.1377,23.8136,22.2754)" text="" font-familyName="" font-pixelSize="20" font-bold="0" font-underline="0" font-alignment="1" strokeStyle="0" markerStart="0" markerEnd="0" shadowEnabled="0" shadowOffsetX="0" shadowOffsetY="2" shadowBlur="4" shadowOpacity="160" blurEnabled="0" blurRadius="4" transform="matrix(1,0,0,1,945.704,41.838)" pers-center="0,0" pers-size="0,0" pers-start="0,0" pers-end="0,0" locked="0" mesh="" flag=""/>
            <path id="shapePath25" d="M944.929,30.763 C949.929,30.663 952.829,33.563 955.329,36.9631 C957.529,40.063 958.229,43.563 957.029,47.263 C956.829,47.963 956.529,48.6631 956.129,49.1631 C954.329,51.563 947.829,53.6631 944.829,52.763 C943.629,52.463 942.429,52.263 941.229,51.8631 C940.329,51.563 939.429,51.3631 938.629,50.8631 C935.629,48.963 934.729,45.763 934.029,42.763 C933.329,39.9631 934.229,37.263 936.529,35.163 C937.429,34.3631 938.329,33.4631 939.329,32.663 C940.929,31.263 942.929,30.4631 944.929,30.763 Z"/>
        </g>
        <g id="Shape26">
            <desc shapeID="26" type="0" basicInfo-basicType="0" basicInfo-roundedRectRadius="12" basicInfo-polygonSides="6" basicInfo-starPoints="5" bounding="rect(-12.1354,-10.7308,24.2709,21.4615)" text="" font-familyName="" font-pixelSize="20" font-bold="0" font-underline="0" font-alignment="1" strokeStyle="0" markerStart="0" markerEnd="0" shadowEnabled="0" shadowOffsetX="0" shadowOffsetY="2" shadowBlur="4" shadowOpacity="160" blurEnabled="0" blurRadius="4" transform="matrix(1,0,0,1,918.065,23.3899)" pers-center="0,0" pers-size="0,0" pers-start="0,0" pers-end="0,0" locked="0" mesh="" flag=""/>
            <path id="shapePath26" d="M905.929,23.663 C906.729,21.263 906.929,18.663 908.329,16.8631 C910.729,13.663 914.329,12.063 918.429,12.8631 C924.129,13.9631 927.929,17.3631 929.829,22.763 C931.429,27.4631 927.629,33.063 922.729,33.8631 C919.629,34.3631 916.629,33.9631 913.529,34.063 C911.529,34.163 909.929,33.4631 909.229,31.263 C908.929,30.263 908.129,29.563 907.729,28.563 C907.129,26.9631 906.629,25.3631 905.929,23.663 Z"/>
        </g>
    </g>
</svg>
