<?xml version="1.0"?>
<svg version="1.1" xmlns="http://www.w3.org/2000/svg" xmlns:xlink="http://www.w3.org/1999/xlink" width="291" height="442">
    <desc iVinci="yes" version="4.6" gridStep="20" showGrid="no" snapToGrid="no" codePlatform="0"/>
    <g id="Layer1" name="Layer 1" opacity="1">
        <g id="Shape1">
            <desc shapeID="1" type="0" basicInfo-basicType="0" basicInfo-roundedRectRadius="12" basicInfo-polygonSides="6" basicInfo-starPoints="5" bounding="rect(-138.782,-163.958,277.563,327.916)" text="" font-familyName="" font-pixelSize="20" font-bold="0" font-underline="0" font-alignment="1" strokeStyle="0" markerStart="0" markerEnd="0" shadowEnabled="0" shadowOffsetX="0" shadowOffsetY="2" shadowBlur="4" shadowOpacity="160" blurEnabled="0" blurRadius="4" transform="matrix(1,0,0,1,138.782,270.038)" pers-center="0,0" pers-size="0,0" pers-start="0,0" pers-end="0,0" locked="0" mesh="" flag=""/>
            <path id="shapePath1" d="M38.4631,168.3 C37.2631,171.3 36.0631,174.2 35.0631,177.2 C34.1631,180 34.6631,182.7 35.6631,185.4 C37.2631,189.6 40.2631,192.8 43.0631,196 C45.1631,198.3 47.5631,200.4 49.9631,202.4 C52.3631,204.4 55.3631,205.5 58.2631,206.6 C63.3631,208.6 68.4631,210.7 73.5631,212.6 C76.6631,213.8 79.8631,214.6 82.9631,215.7 C86.6631,217.1 90.3631,218.6 94.0631,220.1 C96.1631,221 98.2631,221.8 100.163,222.9 C103.663,225 106.863,227.3 110.363,229.4 C114.463,231.9 117.163,235.6 119.963,239.3 C121.963,242 123.863,244.8 125.463,247.8 C126.963,250.6 127.963,253.7 128.463,256.9 C129.063,260.7 129.263,264.5 129.063,268.3 C128.863,272.4 128.263,276.5 127.663,280.6 C127.063,284.7 126.263,288.8 125.163,292.9 C124.563,295.1 123.463,297.2 122.663,299.3 C122.563,299.6 122.463,300.1 122.563,300.4 C123.763,302.5 124.663,304.8 125.063,307.2 C125.363,308.9 125.363,310.7 125.163,312.4 C124.663,315.6 123.963,318.8 123.263,321.9 C122.963,323.3 122.263,324.6 121.763,326 C122.863,326.5 124.163,326.9 125.263,327.6 C127.563,329.1 129.763,330.8 132.063,332.3 C135.563,334.5 137.063,338 137.863,341.8 C138.463,344.6 137.663,347.3 136.563,349.9 C135.763,351.6 134.563,352.9 133.363,354.2 C133.063,354.5 132.963,355.3 133.063,355.8 C133.363,358.8 133.963,361.8 134.163,364.9 C134.363,367.5 134.163,370.2 132.963,372.7 C132.163,374.3 131.163,375.7 130.163,377.1 C129.063,378.5 127.963,379.9 126.763,381.2 C126.263,381.8 125.463,382.2 124.663,382.8 C124.663,384.6 124.763,386.7 124.663,388.7 C124.563,391 124.063,393.2 121.963,394.7 C120.863,395.5 119.763,396.4 118.763,397.3 C118.563,397.5 118.263,397.7 118.263,397.9 C118.163,399.7 117.363,401.3 116.363,402.7 C115.463,404 114.263,405.2 113.063,406.3 C112.063,407.2 110.963,408.1 109.663,408.4 C107.363,408.9 104.863,408.9 102.563,409.1 C101.363,412.8 100.363,416.7 98.9631,420.5 C97.9631,423.1 96.5631,425.6 95.0631,428 C94.2631,429.2 92.8631,429.9 91.5631,430.7 C90.6631,431.3 89.6631,431.7 88.5631,432.1 C85.3631,433.4 81.9631,434.3 78.4631,433.9 C75.9631,433.6 73.5631,432.8 71.0631,432.1 C66.1631,430.7 61.9631,428.2 58.5631,424.6 C57.0631,423.1 56.0631,421 55.0631,419.1 C53.4631,415.9 52.9631,412.4 53.1631,408.8 C53.3631,405.6 54.0631,402.5 55.0631,399.4 C55.8631,396.7 56.8631,394 57.7631,391.3 C56.8631,390.9 55.6631,390.4 54.5631,389.8 C53.4631,389.2 52.1631,388.6 51.9631,387.1 C51.7631,385.9 50.6631,385.6 49.8631,385 C46.8631,382.9 43.7631,380.9 40.8631,378.7 C37.7631,376.5 34.8631,374 31.7631,371.8 C29.1631,370 26.3631,368.3 23.6631,366.7 C22.1631,365.8 20.6631,364.7 19.0631,364.1 C16.8631,363.3 14.4631,362.7 12.1631,362.2 C9.96312,361.7 7.66313,361.3 5.46312,360.7 C4.56313,360.5 3.86313,359.8 2.96312,359.3 C2.96312,359.3 3.06313,359.1 3.16313,358.9 C3.06313,358.9 2.96312,358.8 2.86313,358.8 C0.96312,358.6 0.563126,358.1 0.96312,356.2 C0.96312,356 0.863129,355.7 0.763138,355.6 C-0.336868,354.5 -0.0368805,353.1 0.363129,351.9 C1.76314,347.3 3.26314,342.8 4.66313,338.3 C6.16313,333.7 7.76314,329.1 8.96312,324.4 C10.0631,320.3 10.7631,316 11.6631,311.8 C12.1631,309.8 12.0631,307.6 13.3631,305.8 C13.6631,305.4 14.0631,305.1 14.4631,305 C16.2631,304.7 17.9631,304.4 19.7631,304.3 C22.8631,304.1 25.9631,304.1 29.1631,304.1 C30.8631,304.1 32.6631,304 34.3631,304.1 C35.8631,304.2 37.4631,304.5 38.9631,304.6 C41.0631,304.8 43.1631,304.7 45.2631,304 C47.8631,303.1 50.6631,302.5 53.2631,301.7 C55.1631,301.1 56.9631,300.3 58.8631,299.8 C62.7631,298.8 66.7631,297.9 70.7631,297.1 C74.2631,296.4 77.7631,295.7 81.3631,295.1 C84.9631,294.6 88.6631,294.3 92.3631,293.9 C93.1631,293.8 93.5631,293.6 93.7631,292.8 C94.7631,288.3 95.8631,283.8 96.8631,279.3 C98.2631,273 98.7631,266.6 98.5631,260.2 C98.3631,255.7 96.2631,252.3 92.8631,249.4 C89.3631,246.3 85.1631,244.5 81.0631,242.4 C74.6631,239.2 68.2631,236.1 61.7631,233 C56.4631,230.5 50.9631,228.4 45.7631,225.6 C41.8631,223.5 38.1631,221 34.7631,218.3 C31.0631,215.4 27.6631,212.2 24.4631,208.7 C21.9631,206 19.9631,202.9 18.0631,199.8 C16.2631,196.9 14.6631,193.9 13.3631,190.8 C11.3631,186.1 10.3631,181.1 10.7631,175.9 C11.1631,171 11.5631,166.1 13.6631,161.6 C14.7631,159.1 15.9631,156.7 17.2631,154.3 C19.7631,149.8 22.4631,145.3 26.8631,142.5 C28.6631,141.4 30.8631,141.1 32.8631,140.4 C33.2631,140.3 33.6631,140 34.0631,140 C34.6631,140 35.1631,139.4 35.8631,140.3 C36.1631,140.7 37.3631,140.4 38.1631,140.4 C39.2631,140.4 39.3631,139.7 39.6631,138.9 C40.7631,135.3 41.7631,131.5 43.2631,128 C44.9631,124.2 47.4631,120.8 50.5631,118 C51.9631,116.7 53.3631,115.4 54.7631,114.1 C55.0631,113.8 55.2631,113.4 55.3631,113 C55.5631,112.6 55.5631,112.1 55.8631,111.8 C56.5631,111 57.3631,110.1 58.2631,109.5 C59.4631,108.7 60.8631,107.9 62.2631,107.5 C64.0631,107 66.0631,106.7 67.9631,106.5 C70.1631,106.3 72.3631,106 74.4631,106.1 C77.2631,106.2 80.1631,106.3 82.9631,106.8 C90.3631,108 97.6631,109.4 104.963,110.7 C111.863,111.9 118.763,113.1 125.663,114.3 C131.763,115.3 137.963,116.2 144.063,117.2 C147.763,117.8 151.363,118.6 155.063,119.3 C157.763,119.8 160.463,120.2 163.163,120.8 C167.663,121.8 172.063,122.9 176.563,123.9 C180.563,124.8 184.563,125.6 188.563,126.4 C194.263,127.6 199.963,128.9 205.663,130.1 C213.863,131.9 222.063,133.6 230.263,135.5 C231.763,135.8 233.263,136.4 234.763,136.8 C235.463,137 236.163,136.8 236.963,136.8 C240.663,136.8 244.163,137.7 247.563,139 C253.363,141.2 258.963,143.9 263.663,148 C266.663,150.6 269.063,153.8 271.163,157.3 C273.663,161.5 275.663,165.8 276.863,170.5 C276.963,171 277.063,171.6 277.163,172.1 C277.363,174.1 277.563,176.1 277.563,178 C277.563,180.2 277.463,182.4 277.263,184.6 C277.163,185.7 276.863,186.8 276.863,187.9 C276.863,191.9 275.763,195.6 274.663,199.4 C273.163,205 270.763,210.2 267.963,215.1 C266.263,218.1 264.263,221.1 262.063,223.8 C259.263,227.3 255.763,230 251.963,232.3 C249.463,233.8 246.963,235.1 244.063,235.4 C242.263,235.6 240.463,235.2 238.563,235 C237.963,234.9 237.363,234.6 236.763,234.5 C236.463,234.5 235.963,234.6 235.763,234.8 C234.763,236 233.363,236.2 231.863,236.3 C228.963,236.6 226.063,236.2 223.263,235.5 C214.763,233.5 206.363,231.7 197.863,229.7 C192.563,228.5 187.263,227.1 181.963,225.8 C175.763,224.3 169.563,222.9 163.363,221.5 C158.063,220.3 152.863,219 147.663,217.7 C140.163,215.9 132.563,214.1 125.063,212.4 C119.163,211 113.163,209.6 107.263,208.3 C104.163,207.6 100.963,207.2 97.7631,206.5 C93.4631,205.5 89.1631,204.4 84.7631,203.3 C81.3631,202.5 78.0631,201.7 74.6631,200.9 C72.2631,200.4 69.6631,200.2 67.3631,199.5 C63.4631,198.3 59.5631,196.9 55.7631,195.5 C54.2631,194.9 52.8631,194 51.3631,193.3 C50.1631,192.7 49.0631,190.8 48.7631,189.5 C48.5631,188.6 48.4631,187.5 47.5631,186.6 C46.3631,185.4 45.4631,183.8 44.5631,182.3 C42.0631,178 40.9631,173.2 39.4631,168.6 C39.3631,168.3 39.2631,168.1 39.1631,167.9 C38.6631,168.4 38.5631,168.4 38.4631,168.3 M224.463,145 C220.163,144.1 215.963,143.2 211.763,142.2 C205.063,140.6 198.463,138.9 191.763,137.4 C185.963,136.1 180.063,135.1 174.263,133.9 C167.863,132.6 161.563,131 155.263,129.7 C149.663,128.6 144.063,127.6 138.363,126.6 C130.063,125.1 121.863,123.7 113.563,122.3 C109.263,121.6 104.963,121.1 100.663,120.3 C94.7631,119.1 88.7631,118.5 82.9631,116.9 C78.3631,115.6 73.5631,115.4 68.7631,115.9 C67.5631,116 66.1631,115.8 65.2631,116.4 C63.1631,117.7 61.1631,119.4 59.3631,121.1 C57.9631,122.4 56.6631,123.8 55.5631,125.4 C54.0631,127.6 52.5631,130 51.4631,132.4 C50.3631,135 49.8631,137.8 48.9631,140.4 C47.7631,143.7 47.0631,147.1 47.0631,150.6 C47.0631,151.8 46.8631,153 46.6631,154.2 C46.3631,156.6 46.0631,158.9 46.7631,161.3 C47.7631,164.9 48.7631,168.6 49.8631,172.2 C50.9631,175.8 52.1631,179.4 54.9631,182.3 C55.3631,182.7 55.4631,183.5 55.7631,184 C56.1631,184.6 56.4631,185.3 57.0631,185.6 C59.1631,186.6 61.4631,187.5 63.6631,188.4 C64.4631,188.7 65.3631,189 66.2631,189.3 C64.3631,186 63.3631,182.5 62.6631,179 C62.0631,175.9 61.8631,172.6 61.8631,169.4 C61.8631,165.7 62.0631,161.9 62.3631,158.2 C62.4631,156.8 62.5631,155.3 62.8631,154 C63.5631,151 63.9631,148 65.8631,145.4 C65.9631,145.3 65.9631,145.2 65.9631,145.1 C65.8631,144.1 66.7631,143.8 67.3631,143.6 C68.3631,143.2 69.4631,142.9 70.5631,142.9 C71.6631,142.9 73.0631,142.9 73.7631,143.6 C75.7631,145.4 75.6631,146.2 74.6631,148.4 C73.0631,152.1 72.3631,155.9 72.3631,159.9 C72.3631,162 72.2631,164 72.1631,166.1 C72.1631,166.9 72.0631,167.7 72.1631,168.5 C72.2631,170.6 72.6631,172.6 72.6631,174.7 C72.6631,178.9 73.9631,182.7 76.1631,186.3 C77.1631,187.9 77.8631,189.8 76.5631,191.8 C82.3631,193.2 88.0631,194.7 93.6631,196.1 C92.0631,192.2 90.4631,188.4 88.9631,184.5 C87.8631,181.7 87.0631,178.7 86.8631,175.7 C86.7631,173.7 86.5631,171.7 86.4631,169.7 C86.2631,166.4 85.7631,163.1 86.8631,159.9 C87.7631,157.1 88.5631,154.2 89.3631,151.3 C89.5631,150.6 90.0631,150.2 90.7631,150.1 C91.4631,150 92.2631,149.8 92.9631,149.6 C93.2631,149.5 93.5631,149.4 93.7631,149.5 C95.0631,149.8 96.4631,150.1 97.7631,150.5 C98.1631,150.6 98.6631,151.1 98.7631,151.4 C98.9631,152.7 99.4631,154 98.9631,155.4 C98.1631,157.5 97.5631,159.7 97.1631,161.9 C96.7631,164 96.5631,166.1 96.5631,168.2 C96.5631,170.3 96.7631,172.5 97.0631,174.6 C97.2631,176.8 97.3631,179.1 98.3631,181.2 C99.9631,184.7 101.563,188.2 102.963,191.7 C103.863,193.9 105.563,195.9 104.863,198.6 C108.763,199.4 112.563,200.2 116.363,201 C115.963,200.1 115.463,199.3 115.063,198.5 C112.763,193.2 112.463,187.5 111.663,181.9 C111.263,179.1 111.163,176.3 110.963,173.4 C110.863,171.4 110.763,169.4 110.863,167.5 C111.063,165.1 111.463,162.6 111.863,160.2 C112.163,158.7 111.963,156.8 114.363,156.6 C116.063,156.5 117.763,155.6 119.363,157.1 C119.463,157.2 119.563,157.2 119.663,157.2 C120.863,157 121.563,157.7 121.663,158.6 C121.763,160.4 121.663,162.1 121.463,163.9 C121.263,166.1 120.863,168.2 120.763,170.4 C120.663,171.9 120.863,173.4 120.963,174.9 C121.163,176.9 121.363,178.9 121.563,180.9 C121.863,183.3 122.263,185.8 122.563,188.2 C123.063,191.8 123.963,195.3 126.263,198.3 C127.463,199.9 129.163,201.3 129.063,203.7 C132.863,204.6 136.563,205.4 140.263,206.3 C138.463,203.2 137.463,200 136.763,196.7 C136.063,193.6 135.563,190.4 135.363,187.2 C135.063,183.4 135.163,179.6 135.363,175.9 C135.463,173.8 135.963,171.8 136.363,169.7 C136.763,167.4 137.163,165.1 137.563,162.8 C138.063,160.7 140.563,159.6 142.263,159.9 C143.363,160.1 144.463,160.5 145.563,160.9 C145.963,161.1 146.563,161.2 146.863,161.6 C147.763,162.6 147.263,163.7 147.063,164.8 C146.463,167.3 146.163,169.9 145.863,172.4 C145.563,174.7 145.163,177 145.063,179.3 C144.763,184.7 145.563,190 146.763,195.2 C147.763,199.4 149.563,203.2 152.963,206.1 C153.763,206.8 154.063,208.1 154.663,209 C154.863,209.3 155.163,209.7 155.463,209.8 C159.063,210.7 162.763,211.5 166.163,212.3 C165.363,210.2 164.263,208.1 163.663,205.8 C162.763,202.3 162.363,198.7 161.663,195.1 C160.763,191.1 160.563,187.1 160.563,183 C160.563,181.3 160.763,179.6 160.963,177.9 C161.263,175.7 161.663,173.5 162.263,171.4 C162.963,169.1 164.163,168.6 166.563,168.4 C167.863,168.3 168.863,168.8 170.063,169.2 C171.763,169.7 172.163,170.3 171.963,172.1 C171.663,175.1 170.463,177.9 170.363,180.9 C170.163,185.2 170.363,189.4 171.163,193.6 C171.563,195.7 171.963,197.8 172.463,199.9 C173.063,202.3 173.563,204.7 174.463,206.9 C175.963,210.4 178.863,212.9 181.363,215.7 C181.463,215.8 181.563,215.8 181.663,215.9 C183.663,216.3 185.663,216.7 187.763,217.2 C187.563,216.7 187.463,216.4 187.263,216.1 C186.063,213.3 184.563,210.6 183.863,207.7 C182.863,203.6 182.163,199.3 181.863,195.1 C181.463,190.4 181.563,185.7 182.463,181 C182.663,179.7 182.663,178.1 183.463,177.3 C184.763,175.9 186.363,174.9 188.763,175.6 C191.763,176.5 192.663,178.3 192.263,181.2 C192.063,182.7 191.863,184.3 191.663,185.8 C191.263,189.8 191.263,193.8 191.963,197.7 C192.463,200.7 192.563,203.8 193.863,206.7 C194.963,209.2 195.963,211.7 197.263,214.1 C198.463,216.3 200.063,218.3 201.463,220.4 C201.563,220.6 201.863,220.7 202.063,220.7 C206.563,221.7 211.063,222.7 215.363,223.7 C213.763,221.6 212.063,219.4 210.463,217.1 C206.863,212 205.263,206.1 203.563,200.3 C203.063,198.4 202.863,196.4 202.863,194.4 C202.863,189.7 202.863,185 203.363,180.4 C203.863,175.4 205.063,170.6 207.763,166.1 C210.563,161.5 212.963,156.6 216.663,152.6 C218.763,149.6 221.363,147.1 224.463,145 M87.4631,323.3 C86.1631,323.7 84.7631,324 83.4631,324.6 C81.5631,325.4 81.5631,325.6 82.0631,327.5 C82.5631,329.4 83.2631,331.3 84.6631,332.7 C85.4631,333.5 85.8631,334.4 85.6631,335.5 C85.5631,335.9 85.7631,336.5 85.5631,336.8 C84.5631,337.9 83.0631,338.4 81.6631,338.9 C79.3631,339.7 77.0631,340.5 75.1631,342.2 C74.5631,342.8 74.2631,343.4 74.6631,344.4 C75.3631,346.2 76.2631,347.8 77.7631,349.1 C78.7631,350 79.2631,351 78.8631,352.3 C78.6631,352.9 78.8631,353.8 78.4631,354.1 C77.2631,355.2 75.8631,356.1 74.5631,357.1 C73.6631,357.8 72.3631,358.3 71.9631,359.2 C71.2631,360.6 70.9631,362.4 71.9631,363.9 C72.7631,365.2 73.6631,366.4 74.5631,367.6 C75.3631,368.6 75.6631,369.5 75.0631,370.7 C74.9631,371 74.8631,371.3 74.8631,371.6 C74.6631,372.4 74.6631,373.3 73.5631,373.5 C72.9631,373.6 72.2631,374.1 71.7631,374.5 C69.9631,376.1 68.2631,377.7 66.4631,379.4 C64.9631,380.8 64.9631,384.8 66.8631,386.1 C69.3631,387.9 72.1631,389.5 74.9631,390.8 C77.4631,392 80.0631,392.7 82.6631,393.6 C85.0631,394.4 87.3631,395.4 89.7631,396.1 C92.0631,396.7 94.4631,397 96.8631,397.6 C97.6631,397.8 98.5631,398.1 99.1631,398.6 C99.8631,399.1 100.363,399.9 100.963,400.5 C101.063,400.6 101.463,400.6 101.763,400.6 C102.863,400.5 103.863,400.2 104.963,400.2 C106.363,400.2 107.363,399.7 107.863,398.2 C107.963,397.8 108.263,397.4 108.363,397 C109.263,394.1 110.163,391.2 113.163,389.7 C113.363,389.6 113.563,389.5 113.663,389.4 C113.963,388.9 114.463,388.4 114.463,387.9 C114.163,384.4 114.563,381 116.263,377.9 C116.763,376.9 117.463,376 118.263,375.2 C119.363,374.1 120.663,373.2 121.663,372 C122.663,370.8 123.463,369.4 124.063,368 C124.763,366.3 124.263,364.5 124.063,362.7 C123.663,359.9 123.163,357 123.263,354.1 C123.263,352.9 123.363,352 123.963,351 C124.263,350.4 124.463,349.8 124.863,349.2 C125.263,348.5 125.663,347.7 126.363,347.2 C128.863,345.1 129.163,340.9 126.563,338.8 C123.563,336.4 120.363,334.2 116.763,332.6 C115.663,332.1 114.863,331.2 113.863,330.4 C113.663,330.2 113.563,329.8 113.363,329.7 C109.963,328.8 106.463,327.9 102.963,327 C101.963,326.7 100.863,326.4 99.9631,326 C95.7631,324.5 91.7631,323.8 87.4631,323.3 M10.5631,351.7 C13.2631,352.3 15.7631,352.8 18.2631,353.3 C19.3631,353.6 20.5631,353.8 21.4631,354.3 C24.3631,355.9 27.0631,357.7 30.0631,359.1 C33.6631,360.9 36.7631,363.4 39.9631,365.9 C43.6631,368.8 47.4631,371.6 51.2631,374.4 C53.0631,375.7 55.0631,376.8 57.0631,378 C58.2631,374.4 60.5631,371.4 63.3631,368.9 C63.5631,368.7 63.5631,368.2 63.4631,367.8 C63.1631,366.9 62.6631,366 62.3631,365.1 C61.7631,362.9 61.8631,360.7 62.3631,358.5 C62.9631,355.9 63.6631,353.3 65.6631,351.5 C66.8631,350.4 67.0631,349.5 66.2631,348.2 C66.1631,348.1 66.1631,347.9 66.0631,347.8 C64.1631,343.5 65.2631,339.5 68.0631,336.1 C69.3631,334.5 71.0631,333.4 72.6631,332.1 C73.1631,331.7 73.4631,331.4 73.2631,330.6 C72.8631,328.8 72.2631,326.8 72.4631,325 C72.7631,323.1 73.5631,321 74.7631,319.4 C76.9631,316.4 80.2631,314.9 83.9631,314.7 C84.4631,314.7 84.9631,314.7 85.3631,314.7 C85.4631,310.3 88.1631,306.9 89.2631,302.7 C86.6631,303 84.1631,303 81.8631,303.5 C75.4631,304.9 68.9631,306.1 62.8631,308.6 C58.9631,310.2 54.7631,311.4 50.6631,312.6 C47.1631,313.6 43.5631,314.2 40.0631,313.6 C37.7631,313.2 35.4631,313.1 33.0631,313.2 C31.0631,313.3 29.1631,313.1 27.1631,313.1 C25.2631,313.1 23.3631,313.1 21.2631,313.1 C19.1631,326.5 14.9631,339.1 10.5631,351.7 M266.663,175.1 C266.163,173.2 265.663,170.9 264.963,168.8 C263.163,164 260.663,159.6 256.763,156.2 C252.963,152.9 248.663,150.3 243.863,148.6 C243.663,148.5 243.263,148.6 243.063,148.7 C241.963,149.1 240.863,149.7 239.663,149.8 C236.963,150 234.363,150.3 232.063,152 C229.063,154.2 226.163,156.6 223.663,159.4 C220.763,162.7 218.463,166.4 216.363,170.2 C215.163,172.5 213.863,174.8 213.163,177.3 C212.263,180.8 211.863,184.5 211.663,188.2 C211.463,192.1 212.063,195.9 212.863,199.6 C213.363,202 214.363,204.3 215.263,206.5 C216.763,210.5 218.963,214.1 222.263,216.9 C224.663,218.9 227.363,220.5 230.063,222.2 C230.463,222.5 231.263,222.7 231.663,222.5 C232.763,222.2 233.563,222.9 234.063,223.4 C235.163,224.7 236.463,225.3 237.963,225.7 C238.663,225.9 239.563,225.7 240.163,226.1 C241.463,227 242.663,226.2 243.663,225.8 C245.463,225.1 247.163,224.2 248.663,223.1 C250.263,221.9 251.963,220.6 253.163,219 C255.063,216.4 256.763,213.6 258.263,210.8 C259.663,208.3 260.763,205.6 261.863,203 C262.663,200.9 263.463,198.8 264.063,196.7 C264.863,193.8 265.863,190.9 266.163,188 C266.563,183.9 266.463,179.7 266.663,175.1 M37.5631,148.5 C35.3631,149.2 33.2631,149.7 31.3631,150.6 C30.2631,151.1 29.5631,152.4 28.7631,153.5 C24.8631,158.6 21.8631,164.1 20.4631,170.4 C19.1631,176.2 19.6631,181.9 21.7631,187.6 C23.1631,191.4 25.1631,194.7 27.3631,198 C28.8631,200.3 30.6631,202.5 32.4631,204.5 C33.7631,206 35.3631,207.1 36.7631,208.4 C41.0631,212.8 45.9631,216.4 51.4631,219 C55.5631,221 59.7631,222.6 63.8631,224.5 C70.4631,227.6 77.0631,230.9 83.6631,234.2 C86.7631,235.7 89.8631,237.2 92.8631,239 C95.5631,240.6 98.1631,242.4 100.663,244.5 C102.863,246.3 104.763,248.4 106.263,250.9 C109.163,255.7 108.963,260.9 108.763,266.1 C108.663,268.9 108.163,271.7 107.663,274.4 C106.863,279.1 105.863,283.8 104.963,288.5 C104.663,289.9 104.363,291.2 103.963,292.5 C106.563,292.8 108.963,293.1 111.363,293.4 C113.063,293.6 113.763,293.3 114.263,291.7 C114.563,290.8 114.863,289.9 115.063,289 C115.863,284.9 116.663,280.8 117.163,276.7 C117.663,273.5 117.963,270.2 118.063,266.9 C118.163,264.1 117.863,261.3 117.563,258.5 C117.263,255.6 116.363,252.8 114.963,250.3 C113.563,248 111.863,245.8 110.363,243.5 C108.263,240.1 105.563,237.4 102.163,235.3 C98.2631,232.9 94.2631,230.8 90.1631,228.9 C85.6631,226.8 80.9631,225.1 76.2631,223.5 C72.8631,222.3 69.4631,221.2 66.1631,219.9 C62.8631,218.7 59.4631,217.4 56.2631,215.9 C52.8631,214.3 49.0631,213.4 46.0631,210.9 C43.1631,208.6 40.1631,206.6 37.4631,204.2 C35.2631,202.2 33.3631,199.8 31.3631,197.4 C29.0631,194.6 27.0631,191.5 25.7631,187.9 C24.0631,183.3 24.2631,178.8 25.3631,174.2 C26.2631,170.4 28.0631,166.9 29.8631,163.5 C30.8631,161.6 32.5631,160.1 33.9631,158.5 C34.6631,157.7 35.5631,157.1 36.4631,156.2 C36.9631,154 37.2631,151.4 37.5631,148.5 M65.5631,396.2 C64.5631,400.2 63.4631,404.2 62.5631,408.2 C62.1631,410.2 62.1631,412.2 62.7631,414.2 C63.6631,417.9 66.6631,420.1 69.4631,421.9 C73.9631,424.8 78.9631,425.4 84.0631,423.3 C85.5631,422.7 87.0631,422 87.6631,420.3 C88.7631,417.4 89.9631,414.5 90.9631,411.6 C91.5631,409.9 91.8631,408.1 92.2631,406.5 C82.8631,403.8 73.9631,400.9 65.5631,396.2 M107.763,302.5 C107.763,302.4 107.763,302.2 107.763,302.1 C106.763,302.3 105.463,302.1 104.663,302.6 C103.063,303.5 101.663,304.8 100.163,305.9 C98.6631,307.1 97.6631,308.6 97.1631,310.4 C96.6631,312.3 95.6631,313.8 93.9631,314.9 C93.7631,315 93.6631,315.4 93.6631,315.4 C96.0631,316.3 98.3631,317.2 100.663,318.1 C101.863,318.6 102.963,319.2 104.163,319.6 C105.763,320.1 107.563,320.3 109.063,321 C111.563,322 112.863,321.1 113.563,318.8 C113.963,317.5 114.263,316.1 114.463,314.8 C114.963,311.6 115.563,308.5 114.063,305.4 C113.563,304.3 111.863,303.3 110.863,303.3 C110.063,303.2 109.163,303.2 108.363,303.1 C108.163,303 107.963,302.7 107.763,302.5 Z" style="stroke:none;fill-rule:nonzero;fill:#000000;fill-opacity:1;"/>
        </g>
        <g id="Shape2">
            <desc shapeID="2" type="0" basicInfo-basicType="0" basicInfo-roundedRectRadius="12" basicInfo-polygonSides="6" basicInfo-starPoints="5" bounding="rect(-60.4517,-49.4188,120.903,98.8375)" text="" font-familyName="" font-pixelSize="20" font-bold="0" font-underline="0" font-alignment="1" strokeStyle="0" markerStart="0" markerEnd="0" shadowEnabled="0" shadowOffsetX="0" shadowOffsetY="2" shadowBlur="4" shadowOpacity="160" blurEnabled="0" blurRadius="4" transform="matrix(1,0,0,1,130.332,49.4188)" pers-center="0,0" pers-size="0,0" pers-start="0,0" pers-end="0,0" locked="0" mesh="" flag=""/>
            <path id="shapePath2" d="M189.263,65.8 C189.163,65.7 189.063,65.6 188.863,65.2 C189.263,66.8 188.163,67.4 187.463,68 C186.463,68.8 185.063,69 183.763,69 C183.663,69 183.463,68.8 183.363,68.8 C182.363,68.9 181.263,69.6 180.663,68.2 C180.163,67.2 179.563,66.2 179.263,65.2 C178.263,61.5 179.463,57.9 179.463,54.3 C179.463,50.1 180.263,45.9 179.363,41.6 C178.963,40 177.363,39.3 176.163,40.4 C172.963,43.4 169.663,46.3 167.363,50.1 C166.163,52.1 164.663,53.9 162.263,54.4 C161.063,54.7 159.763,54.7 158.463,54.7 C158.263,54.7 157.863,54.3 157.763,54 C156.863,52.1 155.863,50.2 156.263,47.8 C156.863,44.3 157.063,40.8 157.263,37.3 C157.363,34.9 156.963,32.5 156.963,30 C156.963,28 157.163,26 157.163,23.9 C157.263,20.4 157.463,16.8 157.463,13.3 C157.463,12.1 157.163,10.9 156.663,9.80002 C156.163,8.60001 155.263,8.60001 154.363,9.39999 C151.463,12 149.463,15.2 148.563,19.1 C147.963,21.9 146.663,24.5 145.963,27.3 C145.463,29.6 144.463,31.6 143.663,33.7 C142.863,35.7 142.563,37.8 141.763,39.8 C140.663,42.4 139.463,45 138.063,47.5 C137.663,48.2 136.563,48.7 135.663,49.1 C134.563,49.5 133.463,49.6 132.263,49.9 C131.363,50.1 130.763,49.6 130.463,48.9 C129.863,47.5 129.263,46.1 128.963,44.6 C128.763,43 128.863,41.3 128.963,39.6 C129.063,36.5 129.163,33.3 129.163,30.2 C129.163,28.8 128.763,27.4 128.463,26 C128.363,25.6 127.963,25.3 127.663,24.9 C126.263,25.8 125.863,27.3 125.363,28.6 C123.563,32.9 121.763,37.2 120.063,41.5 C119.563,42.7 119.363,44.1 118.963,45.3 C118.263,47.4 117.463,49.5 116.863,51.7 C116.263,54.2 115.863,56.7 115.363,59.2 C114.863,61.5 114.263,63.7 113.863,66 C113.663,67.3 113.763,68.7 113.463,70 C112.963,73 112.263,76 111.863,79 C111.263,84.2 109.263,89 107.763,93.9 C106.963,96.7 104.763,98.2 101.963,98.8 C101.663,98.9 101.163,98.8 100.963,98.5 C99.9631,97.5 98.2631,97 98.2631,95.1 C98.2631,94.2 98.5631,93.4 98.7631,92.5 C99.6631,89.1 100.663,85.8 101.463,82.3 C102.063,79.9 102.263,77.3 102.663,74.8 C102.663,74.6 102.763,74.3 102.663,74.2 C101.263,72 101.363,69.4 100.463,67 C100.063,66 99.5631,65.3 98.5631,65 C97.4631,64.7 96.4631,64.2 95.3631,64.1 C93.5631,64 92.0631,64.9 91.0631,66.2 C89.1631,68.6 87.2631,71 85.7631,73.6 C84.5631,75.6 83.5631,77.9 82.7631,80.1 C81.6631,83.1 80.8631,86.1 79.9631,89.1 C79.2631,91.4 77.9631,93.1 75.2631,93.3 C74.9631,93.3 74.6631,93.6 74.3631,93.6 C74.0631,93.7 73.4631,93.8 73.3631,93.6 C72.4631,92.7 71.4631,91.8 70.7631,90.7 C68.6631,87.6 70.8631,84.7 71.6631,81.8 C72.0631,80.2 72.8631,78.6 73.3631,77 C74.8631,72.2 77.3631,68 80.5631,64.1 C81.7631,62.6 82.9631,61 84.3631,59.6 C87.0631,56.8 90.3631,55.2 94.2631,54.8 C96.4631,54.6 98.7631,54.3 100.963,54.9 C102.663,55.4 104.263,56.1 105.863,56.7 C106.063,55.2 106.163,53.5 106.563,52 C107.263,49.4 108.163,46.8 108.963,44.2 C109.163,43.6 109.063,42.8 109.363,42.2 C110.363,39.5 111.463,36.9 112.563,34.2 C113.863,31 115.163,27.7 116.463,24.5 C117.363,22.3 118.863,20.3 120.563,18.6 C121.463,17.7 122.763,17.2 124.063,17 C126.363,16.6 128.563,16.2 130.863,16.1 C133.563,16 135.363,17.8 136.863,19.8 C136.963,19.9 137.063,20 137.163,20.2 C138.063,17.7 138.963,15.3 139.963,12.9 C142.263,7.39999 145.863,2.89999 151.463,0.5 C153.063,-0.199982 155.063,0.100006 156.863,0 C158.063,0 159.163,0 160.363,0.200012 C162.563,0.5 164.163,1.89999 165.363,3.60001 C167.263,6 167.863,9 168.163,11.9 C168.563,16 168.163,20 167.863,24 C167.563,27.2 167.763,30.3 167.763,33.8 C170.763,31.9 173.563,30.6 176.763,30.2 C180.863,29.8 184.763,30.6 187.763,33.6 C188.763,34.6 189.263,36.3 189.563,37.7 C190.163,40 190.663,42.4 190.763,44.8 C190.863,47.2 190.563,49.7 190.463,52.2 C190.263,54.8 190.063,57.4 189.963,60.1 C189.863,61.8 189.763,63.5 189.663,65.2 C189.363,65.7 189.263,65.7 189.263,65.8 Z" style="stroke:none;fill-rule:nonzero;fill:#000000;fill-opacity:1;"/>
        </g>
        <g id="Shape3">
            <desc shapeID="3" type="0" basicInfo-basicType="0" basicInfo-roundedRectRadius="12" basicInfo-polygonSides="6" basicInfo-starPoints="5" bounding="rect(-39.9273,-51.3732,79.8546,102.746)" text="" font-familyName="" font-pixelSize="20" font-bold="0" font-underline="0" font-alignment="1" strokeStyle="0" markerStart="0" markerEnd="0" shadowEnabled="0" shadowOffsetX="0" shadowOffsetY="2" shadowBlur="4" shadowOpacity="160" blurEnabled="0" blurRadius="4" transform="matrix(1,0,0,1,242.043,89.2268)" pers-center="0,0" pers-size="0,0" pers-start="0,0" pers-end="0,0" locked="0" mesh="" flag=""/>
            <path id="shapePath3" d="M237.163,59.2 C243.763,55.8 249.963,56.3 255.963,59.7 C262.163,63.3 264.063,69.4 264.463,76.1 C266.363,75.5 268.163,74.8 269.963,74.4 C275.463,73.2 280.563,76.7 281.563,82.1 C282.363,86.8 282.063,91.3 279.963,95.6 C279.163,97.2 278.763,99 278.263,100.7 C277.363,104 276.263,107.3 275.663,110.7 C274.963,114.4 274.863,118.2 274.463,121.9 C274.163,124.5 273.663,127 273.363,129.6 C273.163,131.3 273.063,133.1 272.763,134.8 C272.363,137.1 271.463,139.1 268.963,140 C268.663,140.1 268.363,140.6 268.063,140.6 C267.163,140.6 266.263,140.5 265.463,140.3 C264.863,140.2 264.263,139.9 263.663,139.5 C263.163,139.2 262.763,138.7 262.463,138.2 C262.163,137.7 261.863,137 261.763,136.4 C261.663,135.7 261.963,135 262.063,134.4 C262.163,133.8 262.463,133.1 262.563,132.5 C262.963,129.8 263.263,127 263.563,124.2 C263.863,121.5 264.163,118.9 264.563,116.2 C265.163,111.8 265.263,107.2 266.663,102.9 C268.163,98 269.663,93.2 271.063,88.3 C271.563,86.8 271.263,85.2 271.063,83.4 C268.263,84.9 265.863,86.3 263.663,88.2 C262.863,88.9 261.663,89.2 260.663,89.6 C260.063,89.8 259.363,90 258.663,90 C256.363,90.1 255.263,89.2 254.563,87 C254.163,85.7 254.063,84.4 254.063,83 C254.163,81 253.963,78.9 253.863,76.9 C253.863,75.6 253.863,74.2 253.763,72.9 C253.663,69.5 251.663,67.5 248.963,65.9 C248.663,65.7 248.263,65.5 247.863,65.3 C245.563,64.3 244.863,64.5 243.463,66.2 C242.263,67.5 240.963,68.8 239.963,70.2 C238.963,71.5 238.363,73.1 237.563,74.5 C236.463,76.3 235.363,78.2 232.963,78.6 C231.563,78.9 230.163,78.8 228.963,77.8 C228.863,77.7 228.863,77.7 228.763,77.6 C227.963,76.1 227.063,74.7 226.363,73.1 C225.763,71.7 225.663,70.3 225.963,68.7 C226.263,67 225.963,65.2 226.063,63.5 C226.163,62.4 226.463,61.2 226.463,60.1 C226.463,58.8 226.363,57.5 226.263,56.2 C226.163,54.8 225.663,53.4 225.663,52 C225.663,50.4 224.963,49.2 223.863,48.1 C222.363,46.5 222.363,46.6 220.563,47.9 C216.463,50.8 214.163,55 212.263,59.5 C211.863,60.5 211.963,61.8 211.763,62.9 C211.663,63.4 211.563,63.8 211.463,64.3 C210.963,66.5 207.263,68.4 204.763,67.7 C204.463,67.6 204.263,67.3 204.063,67.1 C202.363,65.3 201.963,63.1 202.163,60.7 C202.363,58.1 202.863,55.6 204.163,53.3 C206.163,49.7 208.263,46.3 211.363,43.5 C214.163,41 217.163,39 220.963,38.4 C222.063,38.2 223.263,37.7 224.363,37.9 C226.163,38.3 228.163,38.2 229.663,39.7 C231.963,42 234.163,44.2 235.363,47.2 C235.763,48.2 235.863,49.4 236.063,50.5 C236.663,53.7 236.863,56.4 237.163,59.2 Z" style="stroke:none;fill-rule:nonzero;fill:#000000;fill-opacity:1;"/>
        </g>
        <g id="Shape4">
            <desc shapeID="4" type="0" basicInfo-basicType="0" basicInfo-roundedRectRadius="12" basicInfo-polygonSides="6" basicInfo-starPoints="5" bounding="rect(-16.487,-15.726,32.974,31.4521)" text="" font-familyName="" font-pixelSize="20" font-bold="0" font-underline="0" font-alignment="1" strokeStyle="0" markerStart="0" markerEnd="0" shadowEnabled="0" shadowOffsetX="0" shadowOffsetY="2" shadowBlur="4" shadowOpacity="160" blurEnabled="0" blurRadius="4" transform="matrix(1,0,0,1,195.212,85.7184)" pers-center="0,0" pers-size="0,0" pers-start="0,0" pers-end="0,0" locked="0" mesh="" flag=""/>
            <path id="shapePath4" d="M199.163,96.7 C200.563,93.2 200.963,89.3 200.963,85.5 C200.963,83.7 200.163,81.7 199.463,80 C199.263,79.5 198.063,79 197.363,79.1 C195.963,79.3 194.763,80 194.163,81.5 C192.663,85.3 191.063,89.1 189.563,92.9 C189.163,93.9 188.963,95 188.663,96.1 C188.363,97.5 187.463,98.5 186.063,99 C184.963,99.4 183.863,99.9 182.563,99.8 C180.963,99.7 180.363,98.8 179.663,97.7 C178.363,95.5 178.563,93.2 179.363,90.9 C180.763,86.3 182.563,81.8 184.863,77.6 C185.563,76.3 186.763,75.1 188.063,74.2 C189.963,72.9 191.963,71.7 194.063,70.8 C196.063,69.9 198.263,69.9 200.363,70.1 C202.063,70.2 203.463,70.6 204.963,71.3 C207.163,72.2 208.263,74 209.063,76 C209.963,78.2 210.763,80.4 211.263,82.7 C211.663,84.4 211.763,86.3 211.663,88.1 C211.563,90.6 211.263,93.1 210.663,95.5 C210.263,97.1 209.463,98.9 208.363,100 C207.363,100.9 205.563,101 204.163,101.4 C203.963,101.5 203.763,101.4 203.563,101.4 C201.663,101.6 200.863,101.1 200.263,99.4 C200.063,98.9 200.163,98.4 199.963,97.9 C199.963,97.3 199.563,97.1 199.163,96.7 Z" style="stroke:none;fill-rule:nonzero;fill:#000000;fill-opacity:1;"/>
        </g>
        <g id="Shape5">
            <desc shapeID="5" type="0" basicInfo-basicType="0" basicInfo-roundedRectRadius="12" basicInfo-polygonSides="6" basicInfo-starPoints="5" bounding="rect(-17.3666,-14.9298,34.7331,29.8595)" text="" font-familyName="" font-pixelSize="20" font-bold="0" font-underline="0" font-alignment="1" strokeStyle="0" markerStart="0" markerEnd="0" shadowEnabled="0" shadowOffsetX="0" shadowOffsetY="2" shadowBlur="4" shadowOpacity="160" blurEnabled="0" blurRadius="4" transform="matrix(1,0,0,1,144.503,86.2415)" pers-center="0,0" pers-size="0,0" pers-start="0,0" pers-end="0,0" locked="0" mesh="" flag=""/>
            <path id="shapePath5" d="M150.863,96.2 C151.563,92.2 151.063,88.8 149.963,85.4 C149.363,83.3 147.763,81.9 146.563,80.4 C146.463,80.3 146.063,80.3 145.763,80.3 C143.263,80.8 141.363,82.1 140.363,84.6 C139.463,86.9 138.663,89.2 137.763,91.6 C137.563,92.1 137.463,92.6 137.463,93.1 C137.363,96.1 135.363,98.2 132.363,98.6 C132.163,98.6 131.963,98.7 131.763,98.7 C130.663,99.1 129.863,98.7 129.163,97.9 C128.463,97.2 127.863,96.5 127.563,95.5 C126.263,91.9 128.263,88.9 129.163,85.7 C130.063,82.8 131.263,80 133.263,77.8 C134.563,76.4 136.163,75.1 137.863,74.2 C139.963,73.1 142.263,72.5 144.463,71.8 C146.763,71.1 149.263,71.2 151.563,71.8 C152.463,72 153.163,72.9 153.863,73.6 C156.363,76.3 158.563,79.3 160.063,82.8 C161.763,86.9 162.263,91.1 161.563,95.5 C161.363,96.8 160.963,98.3 160.163,99.1 C159.363,100 157.863,100.4 156.663,100.7 C153.263,101.5 153.963,101.6 151.763,98.4 C151.263,97.6 151.063,96.8 150.863,96.2 Z" style="stroke:none;fill-rule:nonzero;fill:#000000;fill-opacity:1;"/>
        </g>
        <g id="Shape6">
            <desc shapeID="6" type="0" basicInfo-basicType="0" basicInfo-roundedRectRadius="12" basicInfo-polygonSides="6" basicInfo-starPoints="5" bounding="rect(-16.5934,-13.6641,33.1867,27.3282)" text="" font-familyName="" font-pixelSize="20" font-bold="0" font-underline="0" font-alignment="1" strokeStyle="0" markerStart="0" markerEnd="0" shadowEnabled="0" shadowOffsetX="0" shadowOffsetY="2" shadowBlur="4" shadowOpacity="160" blurEnabled="0" blurRadius="4" transform="matrix(1,0,0,1,233.485,101.864)" pers-center="0,0" pers-size="0,0" pers-start="0,0" pers-end="0,0" locked="0" mesh="" flag=""/>
            <path id="shapePath6" d="M248.963,99 C249.363,102.6 249.763,106.1 250.063,109.7 C250.163,110.9 249.763,112 248.963,112.9 C248.763,113.1 248.763,113.4 248.663,113.6 C248.463,113.9 248.363,114.4 248.163,114.4 C246.663,114.5 245.363,115.2 243.963,115.5 C243.263,115.7 241.363,114.8 241.063,114 C240.463,112.7 239.863,111.3 239.663,109.9 C239.163,106.5 239.063,103.1 238.563,99.7 C238.463,98.9 237.463,98.1 236.763,97.5 C236.563,97.3 235.863,97.6 235.463,97.7 C230.463,99.6 228.363,103.7 226.863,108.4 C226.263,110.4 225.463,112.3 223.663,113.4 C222.263,114.2 220.763,114.4 219.163,113.8 C219.063,113.8 218.963,113.6 218.963,113.6 C216.663,111.1 216.463,108.4 217.463,105.2 C219.063,100 222.263,95.9 226.363,92.5 C228.563,90.7 231.363,89.8 234.063,88.9 C234.763,88.7 235.463,88.4 236.263,88.3 C236.963,88.2 237.663,88.2 238.263,88.2 C238.863,88.2 239.563,88.4 240.163,88.3 C242.563,88.2 243.963,89.9 245.463,91.4 C247.063,93 248.363,94.8 248.863,97.1 C249.063,97.8 249.163,98.4 249.263,99.1 C249.163,99 249.063,99 248.963,99 Z" style="stroke:none;fill-rule:nonzero;fill:#000000;fill-opacity:1;"/>
        </g>
        <g id="Shape7">
            <desc shapeID="7" type="0" basicInfo-basicType="0" basicInfo-roundedRectRadius="12" basicInfo-polygonSides="6" basicInfo-starPoints="5" bounding="rect(-14.333,-15.5574,28.666,31.1148)" text="" font-familyName="" font-pixelSize="20" font-bold="0" font-underline="0" font-alignment="1" strokeStyle="0" markerStart="0" markerEnd="0" shadowEnabled="0" shadowOffsetX="0" shadowOffsetY="2" shadowBlur="4" shadowOpacity="160" blurEnabled="0" blurRadius="4" transform="matrix(1,0,0,1,240.567,188.964)" pers-center="0,0" pers-size="0,0" pers-start="0,0" pers-end="0,0" locked="0" mesh="" flag=""/>
            <path id="shapePath7" d="M226.663,192.1 C226.563,192.4 226.463,192.5 226.363,192.7 C226.263,192.6 226.263,192.6 226.263,192.5 C226.163,188.6 226.263,184.7 227.463,181 C228.263,178.6 229.363,176.4 231.563,174.9 C232.963,173.9 234.763,173 236.363,173.6 C237.963,174.2 239.663,173.7 241.263,174.4 C241.763,174.6 242.663,174.4 243.163,174.1 C244.463,173.3 245.963,173.6 247.063,173.9 C248.563,174.4 250.063,175.3 251.163,176.4 C254.463,179.3 255.263,183.3 254.763,187.5 C254.463,189.8 254.163,192.1 253.463,194.2 C252.963,195.7 251.763,197 250.863,198.4 C249.063,200.9 246.863,202.8 243.963,203.8 C241.763,204.5 239.563,204.8 237.363,204.2 C236.563,204 235.863,203.8 235.063,203.7 C232.563,203.3 231.063,201.5 229.763,199.5 C228.663,197.9 227.763,196.2 226.863,194.4 C226.663,193.8 226.763,193 226.663,192.1 M238.863,181.1 C238.663,181.2 238.263,181.4 238.063,181.7 C235.963,184.1 235.563,187 235.963,189.9 C236.163,191.4 237.063,192.9 237.763,194.3 C238.163,195.1 238.763,195.5 239.763,195 C242.163,193.7 244.063,192 244.763,189.2 C245.063,187.9 245.163,186.6 245.263,185.3 C245.463,184 244.763,183.1 243.763,182.3 C242.163,181.3 240.563,181.5 238.863,181.1 Z" style="stroke:none;fill-rule:nonzero;fill:#000000;fill-opacity:1;"/>
        </g>
    </g>
</svg>
