<?xml version="1.0"?>
<svg version="1.1" xmlns="http://www.w3.org/2000/svg" xmlns:xlink="http://www.w3.org/1999/xlink" width="100" height="100">
    <desc iVinci="yes" version="4.6" gridStep="20" showGrid="no" snapToGrid="no" codePlatform="0"/>
    <g id="Layer1" name="Layer 1" opacity="1">
        <g id="Shape1">
            <desc shapeID="1" type="0" basicInfo-basicType="0" basicInfo-roundedRectRadius="12" basicInfo-polygonSides="6" basicInfo-starPoints="5" bounding="rect(-39.9,-34.2381,79.8,68.4763)" text="" font-familyName="" font-pixelSize="20" font-bold="0" font-underline="0" font-alignment="1" strokeStyle="0" markerStart="0" markerEnd="0" shadowEnabled="0" shadowOffsetX="0" shadowOffsetY="2" shadowBlur="4" shadowOpacity="160" blurEnabled="0" blurRadius="4" transform="matrix(1,0,0,1,49.9,49.8967)" pers-center="0,0" pers-size="0,0" pers-start="0,0" pers-end="0,0" locked="0" mesh="" flag=""/>
            <path id="shapePath1" d="M48.3,23.7 C48.3,23.6 48.2,23.5 48.2,23.3 C48.5,23.3 48.7,23.4 48.9,23.4 C49.3,23.4 49.4,23.6 49.7,23.8 C49.7,23.8 49.8,23.8 49.9,23.8 C51.5,23 53.1,22.3 54.8,21.5 C55.4,21.2 56.1,21 56.7,20.7 C56.9,20.6 57.1,20.5 57.3,20.4 C56.9,19.8 57.1,19.2 57.3,18.6 C57.6,17.4 58.5,16.9 59.4,16.5 C60.2,16.2 60.9,15.9 61.7,15.7 C62.1,15.6 62.5,15.7 62.9,15.8 C63,15.8 63.2,16.1 63.3,16.3 C63.4,16.5 63.6,16.7 63.8,16.7 C63.9,16.7 64,16.8 64.1,16.9 C64.7,17.8 65.4,18.7 66.1,19.6 C66.3,19.9 66.5,20.2 66.7,20.6 C67.3,21.5 68,22.3 68.6,23.2 C68.9,23.6 69.1,24 69,24.6 C68.9,25.4 68.5,25.9 67.7,26.2 C66.9,26.5 66,26.9 65.2,27.2 C64.7,27.3 64.2,27.4 63.7,27.4 C63.5,27.4 63.3,27.2 63.2,27.1 C63,27.2 62.8,27.3 62.7,27.3 C62.3,27.2 61.9,27 61.5,26.8 C61.2,26.7 61.1,26.4 60.9,26.2 C60.8,26 60.6,25.9 60.4,26.1 C57.8,27.3 55.2,28.4 52.6,29.6 C52.5,29.7 52.4,29.8 52.3,30 C52.1,30.4 51.9,30.9 51.3,31 C50.6,31.2 50,31.5 49.3,31.8 C48.8,32 48.2,32.1 47.7,32.3 C46.9,32.7 46,33.1 45.2,33.5 C45.2,33.5 45.2,33.6 45.2,33.6 C45.7,33.6 46.3,33.6 46.9,33.6 C50,33.6 53,33.6 56.1,33.6 C57.9,33.6 59.6,33.5 61.4,33.4 C62.1,33.4 62.8,33.4 63.5,33.4 C65.4,33.4 67.3,33.3 69.2,33.3 C70.2,33.3 71.2,33.4 72.3,33.5 C72.6,33.5 72.9,33.6 73.1,33.6 C75,34.1 76.8,34.9 78.4,36.1 C80.1,37.4 81,39.2 81.4,41.3 C81.5,41.8 81.6,42.4 81.7,43 C81.7,43.3 81.9,43.3 82.1,43.4 C83.1,43.7 84.1,43.9 85,44.5 C86,45.1 87.1,45.7 87.8,46.7 C88.7,47.9 89.3,49.1 89.6,50.6 C89.7,51.4 89.8,52.3 89.8,53.1 C89.8,54.4 89.8,55.8 89.5,57.1 C89.2,58.3 88.7,59.4 88.2,60.5 C88,61 87.6,61.5 87.3,62 C86.8,63 85.8,63.4 85,64.1 C84.6,64.4 84.1,64.6 83.6,64.8 C83.4,64.9 83.2,64.9 83,65 C83,65.4 82.9,65.8 82.9,66.3 C82.9,67.6 82.8,68.9 82.8,70.1 C82.8,71.5 82.8,72.9 82.7,74.3 C82.6,76.3 82,78.2 80.9,80 C80.5,80.6 80,81.2 79.4,81.7 C79.1,81.9 78.7,81.9 78.4,81.9 C78.1,81.9 77.9,82 77.7,82.1 C76.2,82.9 74.6,83.4 72.9,83.4 C71,83.4 69.1,83.4 67.2,83.3 C65,83.3 62.8,83.2 60.5,83.3 C59.7,83.3 58.9,83.2 58.2,83.5 C57,84 55.8,83.8 54.6,83.8 C52.6,83.8 50.6,83.8 48.6,83.8 C47.3,83.8 45.9,83.9 44.6,83.9 C42.6,83.9 40.6,83.8 38.5,83.8 C36.9,83.8 35.3,84 33.6,84 C32.4,84 31.2,84 30,84 C27.3,83.9 24.5,83.9 21.8,84.1 C20.4,84.2 18.9,84.1 17.5,83.6 C17,83.4 16.5,83.1 16,82.8 C14.7,82.2 13.8,81.1 12.9,80.1 C12.1,79.2 11.6,78.1 11.1,77 C10.8,76.3 10.5,75.6 10.3,74.9 C10,73.8 10,72.9 10,72 C10,70.3 10,68.7 10,67 C10,64.4 10.1,61.9 10.2,59.3 C10.2,58 10.2,56.7 10.2,55.4 C10.2,53.6 10.3,51.8 10.5,50 C10.6,48.7 10.6,47.4 10.8,46.2 C11.1,44.7 11.4,43.1 11.8,41.6 C12.1,40.4 12.6,39.2 13.2,38.1 C13.6,37.5 13.9,36.9 14.4,36.4 C15,35.8 15.7,35.3 16.5,34.9 C17.1,34.5 17.7,34.3 18.4,33.9 C18.5,33.9 18.6,33.9 18.7,33.9 C19.5,33.9 20.2,34 20.9,34 C21.4,34 22,33.9 22.5,33.9 C22.5,33.9 22.6,33.9 22.6,33.9 C23.6,34.1 24.3,33.4 25.1,33.1 C25.6,32.9 26.1,32.7 26.6,32.5 C27.2,32.2 27.8,31.9 28.3,31.6 C29.1,31.2 29.8,31 30.6,30.6 C31.5,30.2 32.4,29.7 33.3,29.3 C33.9,29 34.6,28.7 35.3,28.4 C35.8,28.2 36.2,28 36.7,27.8 C37.1,27.6 37.6,27.5 38,27.3 C38.3,27.2 38.6,26.9 38.9,26.8 C39.6,26.5 40.4,26.2 41.1,25.9 C41.9,25.5 42.8,25.1 43.6,24.7 C44.6,24.2 45.6,23.8 46.6,23.4 C47.2,23.2 47.8,22.9 48.3,23.6 C48,23.7 48.2,23.6 48.3,23.7 M13.2,69.5 C13.2,70.1 13.2,70.8 13.2,71.5 C13.2,72.2 13.2,72.9 13.3,73.6 C13.7,75.3 14.4,76.8 15.4,78.2 C16.1,79.1 16.8,80 18,80.3 C18.4,80.4 18.8,80.5 19.2,80.6 C19.8,80.7 20.5,80.8 21.1,80.7 C23.7,80.5 26.3,80.5 28.9,80.5 C31,80.5 33.1,80.4 35.2,80.4 C36.2,80.4 37.3,80.3 38.3,80.3 C39.1,80.3 39.8,80.3 40.6,80.3 C41.1,80.3 41.6,80.3 42.1,80.3 C42.5,80.3 42.8,80.4 43.2,80.4 C44.6,80.4 45.9,80.3 47.3,80.3 C50.1,80 53,80 56,79.9 C57.8,79.9 59.5,79.7 61.3,79.6 C63.6,79.6 66,79.6 68.4,79.6 C69.3,79.6 70.3,79.6 71.2,79.6 C72.4,79.7 73.5,79.6 74.7,79.3 C75.1,79.2 75.5,79.1 75.8,78.9 C76.2,78.8 76.5,78.5 76.9,78.4 C77.3,78.4 77.5,78.2 77.7,77.9 C78.6,76.5 78.9,74.9 78.9,73.3 C78.9,72 78.9,70.8 79,69.5 C79.1,67.6 79.2,65.7 79.2,63.8 C79.2,61.8 79.2,59.8 79.1,57.9 C79.1,55.7 79,53.6 78.9,51.5 C78.9,50.9 78.8,50.2 78.8,49.5 C78.7,48.5 78.6,47.4 78.5,46.4 C78.4,45.6 78.3,44.8 78.2,44 C78,43 77.8,41.9 77.6,40.9 C77.5,40.1 77.2,39.4 76.5,38.8 C74.7,37.3 72.7,36.5 70.3,36.5 C67.9,36.5 65.5,36.6 63.1,36.6 C61,36.6 59,36.7 56.9,36.8 C53.8,36.8 50.7,36.8 47.6,36.8 C45.9,36.8 44.3,36.9 42.7,36.9 C40.3,37 37.8,37.1 35.4,37.2 C32.5,37.2 29.6,37.2 26.7,37.2 C24,37.2 21.2,37.2 18.5,37.1 C18.4,37.1 18.2,37.1 18.2,37 C17.8,36.7 17.6,36.9 17.2,37.1 C16.4,37.7 15.9,38.5 15.6,39.3 C15.2,40.2 15,41.1 14.7,42 C14.4,43.3 14.1,44.6 13.9,45.9 C13.7,47.3 13.6,48.7 13.5,50.2 C13.4,52 13.4,53.8 13.4,55.6 C13.3,59.4 13.3,63.2 13.3,67 C13.2,68 13.2,68.8 13.2,69.5 M29.5,33.9 C30.3,33.9 31,33.9 31.7,33.9 C33,33.9 34.3,33.9 35.6,33.9 C36.2,33.9 36.9,33.9 37.5,33.7 C38.7,33.3 39.8,32.8 40.9,32.3 C41.9,31.8 42.8,31.3 43.9,30.9 C44.5,30.6 45.1,30.4 45.7,30.1 C46.4,29.8 47.1,29.5 47.8,29.1 C48.2,29 48.5,28.8 48.8,28.7 C48.6,28.2 48.4,27.8 48.2,27.3 C48,26.8 47.9,26.4 47.8,25.9 C41.7,28.5 35.7,31.2 29.5,33.9 M82.8,61.2 C83,61 83.2,60.8 83.4,60.7 C84.6,59.5 85.1,58 85.6,56.5 C85.8,55.8 85.9,55.1 86,54.4 C86.1,53.5 86.1,52.5 86,51.6 C85.9,50.8 85.5,50.1 85.2,49.3 C84.7,47.8 83.5,47 82,46.5 C82.6,51.4 82.5,56.3 82.8,61.2 M65.1,23.7 C65.1,23.6 65,23.6 65,23.5 C64.4,22.7 63.8,21.8 63.2,21 C62.7,20.4 62.3,19.7 61.8,19.1 C61.7,19 61.5,18.9 61.4,18.9 C61,19 60.6,19.2 60.1,19.4 C61.3,21.2 62.4,22.9 63.5,24.5 C64.1,24.2 64.6,24 65.1,23.7 M58.6,22.8 C57.9,23.1 57.2,23.3 56.4,23.7 C54.6,24.5 52.8,25.3 51,26.1 C50.6,26.2 50.6,26.7 50.9,27.2 C51.1,27.6 51.2,27.2 51.4,27.1 C52.9,26.4 54.5,25.7 56,25 C57,24.5 58.1,24 59.1,23.6 C58.9,23.3 58.8,23.1 58.6,22.8 Z" style="stroke:none;fill-rule:nonzero;fill:#ffffff;fill-opacity:1;"/>
        </g>
        <g id="Shape2">
            <desc shapeID="2" type="0" basicInfo-basicType="0" basicInfo-roundedRectRadius="12" basicInfo-polygonSides="6" basicInfo-starPoints="5" bounding="rect(-28.547,-7.2,57.094,14.4)" text="" font-familyName="" font-pixelSize="20" font-bold="0" font-underline="0" font-alignment="1" strokeStyle="0" markerStart="0" markerEnd="0" shadowEnabled="0" shadowOffsetX="0" shadowOffsetY="2" shadowBlur="4" shadowOpacity="160" blurEnabled="0" blurRadius="4" transform="matrix(1,0,0,1,45.2026,46.9)" pers-center="0,0" pers-size="0,0" pers-start="0,0" pers-end="0,0" locked="0" mesh="" flag=""/>
            <path id="shapePath2" d="M17.4,41.5 C17.7,41.6 17.8,41.8 18,41.8 C18.2,41.8 18.3,41.6 18.5,41.5 C18.6,41.4 18.8,41.3 19,41.3 C19.6,41.3 20.3,41.3 20.9,41.3 C21.9,41.3 23,41.2 24.1,41.3 C26.3,41.4 28.4,41 30.5,41 C33.7,40.9 36.9,40.8 40.2,40.6 C41.9,40.5 43.5,40.3 45.2,40.2 C46.4,40.1 47.5,40.2 48.6,40.2 C50.5,40.2 52.5,40.1 54.4,40.1 C56,40 57.5,39.9 59.1,39.8 C60.1,39.8 61.1,39.8 62.1,39.8 C62.9,39.8 63.7,39.7 64.5,39.7 C65.9,39.7 67.3,39.8 68.7,39.8 C69.6,39.8 70.6,39.7 71.5,39.8 C72.1,39.8 72.9,39.9 73.2,40.6 C73.2,40.6 73.2,40.7 73.2,40.7 C73.8,40.9 73.8,41.5 73.7,41.9 C73.6,43.3 73.5,44.7 73.4,46.1 C73.3,47.3 73.3,48.4 73.3,49.6 C73.3,50 73.3,50.4 73.2,50.8 C73.2,51 73,51.2 72.9,51.4 C72.8,51.5 72.7,51.7 72.6,51.8 C72.5,51.8 72.4,51.7 72.3,51.7 C72.2,52 71.8,52.1 71.4,52 C71.3,52 71.1,52 71,52 C70.7,52.2 70.5,52.5 70.3,52.7 C70.3,52.7 70.2,52.8 70.1,52.8 C68.8,52.9 67.6,53.1 66.3,53.1 C65.6,53.1 64.9,53 64.2,53 C63.3,53 62.5,53 61.6,53 C59.5,53 57.5,53 55.4,53 C53.2,53 51,53.2 48.8,53.3 C47,53.3 45.3,53.4 43.5,53.4 C41.1,53.4 38.6,53.5 36.2,53.6 C33.6,53.7 30.9,53.7 28.4,53.8 C26.1,53.9 23.8,54 21.5,54.1 C20.5,54.1 19.4,54.1 18.4,54 C17.8,54 17.4,53.4 17.4,52.7 C17.4,52.4 17.3,52.3 17.1,52.1 C17,51.8 17,51.5 17,51.2 C16.9,49.7 16.8,48.2 16.7,46.7 C16.7,45.8 16.6,44.9 16.7,43.9 C16.8,43.1 17,42.4 17.2,41.7 C17.3,41.6 17.3,41.5 17.4,41.5 M53.8,49.7 C53.9,47.5 53.9,45.4 54,43.2 C53,43.2 52,43.2 51,43.2 C49.6,43.2 48.1,43.2 46.6,43.2 C45.1,43.2 43.6,43.4 42.1,43.5 C39.5,43.6 36.8,43.7 34.2,43.8 C31.8,43.9 29.3,44.1 26.9,44.2 C25.5,44.2 24.2,44.2 22.8,44.2 C21.8,44.2 20.8,44.2 19.7,44.2 C19.6,46.4 20,48.7 20.1,50.9 C21.3,50.8 22.4,50.8 23.6,50.6 C23.6,50.3 23.5,50 23.5,49.7 C23.5,48.9 23.4,48 23.6,47.3 C23.9,46.6 24.3,46.5 24.9,47 C25.1,47.2 25.3,47.4 25.5,47.4 C26,47.5 26.3,47.6 26.3,48 C26.4,48.7 26.5,49.3 26.6,50 C26.6,50.4 26.7,50.5 27.1,50.5 C27.9,50.5 28.6,50.5 29.5,50.5 C29.4,50 29.4,49.6 29.3,49.2 C29.2,48.6 29.1,48.1 29.3,47.5 C29.6,46.9 30.1,46.6 30.8,46.8 C31,46.9 31.2,47 31.3,47.1 C31.5,47.2 31.6,47.4 31.8,47.4 C32.1,47.5 32.2,47.6 32.3,47.9 C32.5,48.7 32.7,49.6 32.8,50.3 C33.4,50.3 34,50.3 34.6,50.3 C34.6,49.8 34.6,49.3 34.6,48.8 C34.6,48.4 34.7,48 34.8,47.6 C34.9,47.3 35.2,47 35.7,47 C36.5,47 36.9,47.8 37.6,48 C37.6,48 37.6,48.1 37.6,48.2 C37.7,48.7 37.7,49.2 37.9,49.7 C37.9,49.8 38,50 38.2,50 C38.8,50 39.4,50 40,50 C40,49.8 39.9,49.7 39.9,49.6 C39.8,49 39.7,48.4 40,47.8 C40.1,47.5 40.3,47.3 40.5,47.1 C40.8,46.9 41.8,47.2 42,47.6 C42.1,47.7 42.3,47.9 42.4,47.9 C42.8,47.9 42.8,48.2 42.9,48.4 C43,48.8 43,49.2 43.1,49.6 C43.1,49.7 43.3,49.9 43.4,49.9 C44.2,49.9 44.9,49.8 45.6,49.8 C45.6,49.7 45.6,49.7 45.6,49.7 C45.4,49 45.3,48.3 45.6,47.6 C45.7,47.3 46,47.1 46.2,47 C46.6,46.9 47.1,46.9 47.5,47.3 C47.7,47.5 47.9,47.6 48.1,47.8 C48.2,47.9 48.4,48.1 48.5,48.3 C48.6,48.8 48.7,49.3 48.8,49.9 C50.7,49.8 52.2,49.7 53.8,49.7 M70.1,49.4 C70.2,47.3 70.4,45 70.5,42.8 C69.8,42.8 69.1,42.8 68.4,42.8 C67.1,42.8 65.8,42.7 64.6,42.7 C63.4,42.7 62.2,42.8 61,42.7 C60.6,42.7 60.6,42.8 60.6,43.1 C60.6,44.6 60.6,46.2 60.6,47.7 C60.6,48.3 60.6,48.9 60.6,49.5 C61.8,49.5 62.9,49.5 63.9,49.5 C63.8,48.9 63.7,48.2 63.8,47.6 C63.8,47.3 63.9,46.9 64.1,46.6 C64.2,46.4 64.5,46.2 64.7,46.1 C65.1,46 65.6,46 65.9,46.4 C66.1,46.6 66.3,46.8 66.5,46.8 C66.8,46.9 66.9,47.1 66.9,47.3 C66.9,48 66.9,48.7 66.9,49.4 C67.9,49.5 69,49.5 70.1,49.4 Z" style="stroke:none;fill-rule:nonzero;fill:#ffffff;fill-opacity:1;"/>
        </g>
        <g id="Shape3">
            <desc shapeID="3" type="0" basicInfo-basicType="0" basicInfo-roundedRectRadius="12" basicInfo-polygonSides="6" basicInfo-starPoints="5" bounding="rect(-12.8621,-10.7563,25.7243,21.5125)" text="" font-familyName="" font-pixelSize="20" font-bold="0" font-underline="0" font-alignment="1" strokeStyle="0" markerStart="0" markerEnd="0" shadowEnabled="0" shadowOffsetX="0" shadowOffsetY="2" shadowBlur="4" shadowOpacity="160" blurEnabled="0" blurRadius="4" transform="matrix(1,0,0,1,62.2379,66.2438)" pers-center="0,0" pers-size="0,0" pers-start="0,0" pers-end="0,0" locked="0" mesh="" flag=""/>
            <path id="shapePath3" d="M74.4,69 C74.4,69.1 74.5,69.3 74.6,69.3 C74.7,69.4 74.8,69.3 75.1,69.4 C74.8,69.5 74.7,69.5 74.5,69.6 C74.8,69.6 74.9,69.6 74.9,69.6 C74.7,69.9 74.5,70.2 74.3,70.6 C74,71 73.9,71.4 73.6,71.7 C73.1,72.4 72.7,73.1 72.1,73.7 C71.5,74.4 70.7,75.1 69.8,75.5 C69.5,75.6 69.3,75.8 69.1,76 C69,76 69,76.1 68.9,76.1 C67.5,76.7 66,77 64.6,77 C63.6,77 62.6,76.7 61.6,76.6 C59.8,76.4 58.1,75.8 56.4,75.2 C54.6,74.6 53.2,73.5 52,72.2 C51.1,71.3 50.5,70.1 50.2,68.9 C50,68.3 49.7,67.7 49.7,67.2 C49.7,66.7 49.6,66.4 49.5,65.9 C49.5,65.8 49.5,65.7 49.5,65.6 C49.2,64.7 49.5,63.8 49.8,63 C50,62.4 50.2,61.7 50.4,61.1 C50.4,61 50.4,61 50.5,60.8 C50.5,61 50.6,61.1 50.6,61.2 C51,59.8 52,58.9 53,58.1 C53.5,57.7 54.1,57.3 54.6,56.8 C55.2,56.3 56,56.2 56.7,56.1 C57.3,56 57.8,56 58.4,55.8 C60.3,55.3 62.1,55.4 63.9,56.1 C65.3,56.6 66.7,57 68,57.6 C69,58 69.8,58.7 70.6,59.5 C71.3,60.3 72.1,61 72.7,61.9 C73.7,63.3 74.6,64.8 74.7,66.6 C74.7,67.1 74.7,67.6 74.7,68 C74.5,68.5 74.4,68.8 74.4,69 M58.5,62.4 C59.4,62.4 60.3,62.4 61.1,62.4 C61.1,61.2 61.1,60.2 61.1,59.1 C60.2,59.1 59.3,59.1 58.5,59.1 C58.5,60.2 58.5,61.3 58.5,62.4 M61.1,67.8 C61.1,67 61.1,66.2 61.1,65.4 C60.3,65.4 59.4,65.5 58.7,65.5 C58.7,66.3 58.7,67 58.7,67.8 C59.6,67.8 60.4,67.8 61.1,67.8 M55.5,67.6 C55.5,66.9 55.5,66.2 55.5,65.5 C54.5,65.5 53.6,65.5 52.6,65.5 C52.7,66.2 52.8,66.9 52.9,67.6 C53.8,67.6 54.6,67.6 55.5,67.6 M64.2,59.4 C64.3,60.4 64.3,61.3 64.4,62.1 C64.4,62.3 64.5,62.4 64.7,62.4 C65.3,62.4 66,62.4 66.6,62.4 C66.7,61.9 66.7,61.5 66.8,61.1 C66.8,60.9 66.8,60.7 66.7,60.6 C65.9,60.2 65.1,59.8 64.2,59.4 M61.3,70.9 C60.6,70.9 60,70.9 59.3,70.9 C59.2,70.9 59.1,71.1 59,71.2 C58.9,71.7 58.9,72.2 58.7,72.8 C59.5,73 60.3,73.2 61.2,73.4 C61.3,72.5 61.3,71.7 61.3,70.9 M66.3,67.8 C66.3,67 66.3,66.1 66.3,65.3 C65.7,65.3 65.1,65.4 64.5,65.4 C64.5,66.2 64.5,67 64.5,67.8 C65.1,67.8 65.7,67.8 66.3,67.8 M66.2,73.5 C66.2,72.6 66.2,71.7 66.2,70.8 C65.7,70.8 65.2,70.8 64.7,70.8 C64.7,71.8 64.7,72.7 64.7,73.6 C65.2,73.7 65.6,73.6 66.2,73.5 M69.5,67.7 C70,67.7 70.4,67.7 70.9,67.7 C71,67.7 71.2,67.5 71.2,67.4 C71.1,66.8 71,66.2 70.8,65.6 C70.8,65.5 70.7,65.4 70.6,65.4 C70.2,65.4 69.9,65.4 69.5,65.4 C69.5,66.2 69.5,66.9 69.5,67.7 M55.4,60.4 C55.4,60.4 55.3,60.4 55.3,60.3 C54.7,61 54,61.7 53.3,62.5 C54.1,62.5 54.7,62.6 55.4,62.6 C55.4,61.8 55.4,61.1 55.4,60.4 M70.7,70.8 C68.9,70.8 69.2,70.5 69.1,72.1 C69.1,72.2 69.1,72.2 69.1,72.3 C69.1,72.3 69.2,72.3 69.2,72.4 C69.7,71.9 70.2,71.3 70.7,70.8 Z" style="stroke:none;fill-rule:nonzero;fill:#ffffff;fill-opacity:1;"/>
        </g>
        <g id="Shape4">
            <desc shapeID="4" type="0" basicInfo-basicType="0" basicInfo-roundedRectRadius="12" basicInfo-polygonSides="6" basicInfo-starPoints="5" bounding="rect(-14.1353,-6.69585,28.2706,13.3917)" text="" font-familyName="" font-pixelSize="20" font-bold="0" font-underline="0" font-alignment="1" strokeStyle="0" markerStart="0" markerEnd="0" shadowEnabled="0" shadowOffsetX="0" shadowOffsetY="2" shadowBlur="4" shadowOpacity="160" blurEnabled="0" blurRadius="4" transform="matrix(1,0,0,1,32.0647,65.5698)" pers-center="0,0" pers-size="0,0" pers-start="0,0" pers-end="0,0" locked="0" mesh="" flag=""/>
            <path id="shapePath4" d="M46.2,60.8 C46.1,60.8 46,60.8 46,60.9 C45.9,61.2 45.8,61.4 45.9,61.7 C46,62.7 45.8,63.8 45.4,64.7 C45.1,65.3 45,66 44.8,66.6 C44.5,67.4 44.2,68.1 43.6,68.8 C41.9,70.6 39.9,71.8 37.6,72.1 C36.4,72.3 35.3,72.3 34.1,72.2 C32.4,72.1 30.8,71.5 29.1,70.8 C27.5,70.1 26.1,69.2 24.8,68.1 C24.2,67.6 23.6,66.9 23,66.3 C22,65.3 21.1,64.2 20.2,63.2 C20,63 19.8,62.7 19.6,62.5 C19.3,62.2 19,62 18.7,61.7 C17.9,61.2 17.6,60.2 18.4,59.3 C18.7,59 19,58.8 19.4,58.9 C21.3,59 23.3,59.1 25.2,59.2 C26.2,59.2 27.3,59.1 28.4,59.1 C30.7,59.1 32.9,59.1 35.2,59.2 C37.3,59.2 39.4,59.3 41.5,59.4 C42,59.4 42.6,59.3 43.2,59.3 C43.8,59.3 44.4,59.4 45,59.5 C45,59.5 45.1,59.5 45.1,59.5 C45.4,59.8 45.6,60.1 45.8,60.4 C45.8,60.4 45.8,60.5 45.8,60.5 C45.8,60.6 46,60.7 46.2,60.8 M23.5,62.4 C23.9,62.7 24.2,63 24.5,63.3 C25.4,64.1 26.2,65 27.1,65.8 C27.7,66.4 28.4,66.9 29.2,67.3 C30.3,67.8 31.4,68.2 32.6,68.6 C33.6,68.9 34.7,69.1 35.8,69.1 C36.6,69.1 37.3,68.9 38,68.6 C39.2,68.2 40.4,67.6 41.2,66.6 C41.7,66 42.4,65.4 42.4,64.5 C42.4,64.5 42.4,64.5 42.4,64.4 C42.6,63.9 42.9,63.4 43,62.9 C39.7,62.8 36.5,62.6 33.3,62.6 C30.1,62.4 26.9,62.4 23.5,62.4 Z" style="stroke:none;fill-rule:nonzero;fill:#ffffff;fill-opacity:1;"/>
        </g>
    </g>
</svg>
