<?xml version="1.0"?>
<svg version="1.1" xmlns="http://www.w3.org/2000/svg" xmlns:xlink="http://www.w3.org/1999/xlink" width="291" height="282">
    <desc iVinci="yes" version="4.6" gridStep="20" showGrid="no" snapToGrid="no" codePlatform="0"/>
    <g id="Layer1" name="Layer 1" opacity="1" style="stroke: none; fill: white;">
        <g id="Shape1">
            <desc shapeID="1" type="0" basicInfo-basicType="0" basicInfo-roundedRectRadius="12" basicInfo-polygonSides="6" basicInfo-starPoints="5" bounding="rect(-109.931,-121.16,219.862,242.32)" text="" font-familyName="" font-pixelSize="20" font-bold="0" font-underline="0" font-alignment="1" strokeStyle="0" markerStart="0" markerEnd="0" shadowEnabled="0" shadowOffsetX="0" shadowOffsetY="2" shadowBlur="4" shadowOpacity="160" blurEnabled="0" blurRadius="4" transform="matrix(1,0,0,1,118.65,145.813)" pers-center="0,0" pers-size="0,0" pers-start="0,0" pers-end="0,0" locked="0" mesh="" flag=""/>
            <path id="shapePath1" d="M57.1645,166.527 C55.5645,166.527 53.9644,166.427 52.4644,166.527 C47.2645,167.127 42.2645,166.027 37.3644,164.527 C33.6645,163.427 30.3644,161.127 26.8644,159.327 C25.5645,158.627 24.4644,157.727 23.2645,157.027 C17.1645,153.527 13.5645,148.127 11.5645,141.527 C9.66446,135.327 8.46445,128.927 8.76447,122.427 C8.96445,115.327 11.0645,108.827 15.2645,102.927 C17.7645,99.3273 21.5645,97.4273 25.0645,95.0273 C28.4644,95.0273 31.5645,92.9273 35.0645,93.9273 C36.3644,94.3273 37.5645,93.9273 38.9644,93.3273 C41.0645,92.4273 43.3644,91.9273 45.6645,91.7273 C50.6645,91.2273 55.6645,90.9273 60.6645,90.6273 C64.0645,90.4273 67.4644,89.9273 70.6645,88.8273 C76.2645,87.0273 81.8644,85.2273 87.4644,83.3273 C92.4644,81.6273 96.8644,78.9273 101.264,76.1273 C105.764,73.2273 110.164,70.1273 114.364,66.9273 C118.964,63.3273 122.464,58.6273 125.764,53.7273 C128.064,50.2273 130.864,46.9273 133.664,43.8273 C135.264,42.1273 137.364,40.9273 139.364,39.6273 C139.764,39.3273 140.564,39.7273 141.164,39.7273 C141.264,39.6273 141.464,39.5273 141.564,39.4273 C145.664,32.3273 152.564,28.9273 159.864,26.3273 C162.664,25.3273 165.864,25.4273 168.864,24.9273 C170.764,24.6273 172.664,24.4273 174.464,25.1273 C174.964,25.3273 175.664,25.1273 176.264,25.0273 C178.164,24.8273 180.064,24.3273 181.764,25.7273 C182.164,26.0273 182.964,25.9273 183.564,25.7273 C190.364,23.4273 195.464,26.5273 200.064,31.0273 C201.464,32.3273 202.764,33.7273 204.164,35.0273 C206.964,37.4273 209.064,40.3273 210.964,43.3273 C212.864,46.3273 214.764,49.4273 216.164,52.7273 C218.864,59.4273 221.364,66.2273 223.664,73.1273 C226.164,80.3273 226.464,87.9273 227.064,95.5273 C227.464,101.027 227.964,106.527 228.364,112.027 C228.464,113.527 228.564,115.027 228.564,116.627 C228.564,121.327 228.664,126.027 228.364,130.727 C228.064,135.627 227.464,140.527 225.764,145.227 C225.064,147.227 224.464,149.227 223.864,151.127 C222.664,155.027 220.564,158.527 218.564,162.127 C216.164,166.327 213.064,170.027 209.064,172.827 C207.264,174.127 205.064,174.827 202.964,175.527 C201.864,175.927 200.864,176.527 200.064,177.427 C195.264,182.427 189.164,183.827 182.464,183.227 C181.764,183.127 181.064,183.027 180.364,183.027 C176.464,183.127 172.664,182.827 168.864,181.527 C168.164,183.127 166.864,183.327 165.364,183.527 C161.164,184.027 157.264,183.827 153.664,181.227 C152.564,180.427 151.764,179.327 150.664,178.627 C146.864,176.227 142.564,174.927 138.264,173.527 C136.364,172.927 134.464,172.227 132.664,171.527 C128.264,169.927 123.864,168.427 119.164,166.727 C116.764,172.727 114.964,178.627 114.064,184.827 C115.264,185.727 116.564,186.127 118.164,186.327 C120.764,186.627 123.564,187.327 125.964,188.527 C129.064,189.927 131.964,191.827 134.764,193.827 C140.364,197.827 141.964,203.127 139.664,209.627 C139.264,210.727 138.864,211.827 138.364,213.227 C140.564,214.627 141.564,216.827 141.864,219.227 C142.264,222.827 142.364,226.427 140.664,229.827 C140.064,230.927 139.964,231.927 140.364,233.127 C141.464,236.427 142.064,239.827 141.064,243.227 C140.464,245.127 139.464,247.027 138.264,248.727 C137.264,250.127 136.564,251.527 136.764,253.327 C136.864,254.227 136.464,255.327 135.964,256.227 C133.464,261.327 128.764,263.727 123.764,265.527 C118.864,267.227 113.664,267.127 108.564,266.727 C104.264,266.327 100.064,265.327 95.9644,264.127 C92.7645,263.227 89.8644,261.627 87.7645,259.027 C86.8644,257.827 85.7645,257.427 84.2645,257.327 C80.9644,257.127 77.6645,256.527 74.4644,255.327 C71.1645,254.027 68.2645,252.127 65.3644,250.127 C62.5645,248.127 59.6645,246.227 56.7645,244.427 C50.4644,240.527 43.2645,239.327 36.0645,238.227 C33.0645,237.727 29.9644,237.627 27.0645,237.127 C25.5645,236.827 24.2645,235.927 22.8644,235.127 C22.5645,235.027 22.4644,234.427 22.4644,234.027 C22.1645,232.327 21.7645,230.827 22.3644,229.027 C22.9644,227.327 22.5645,225.227 22.5645,223.327 C22.4644,220.527 22.4644,217.727 22.2645,214.927 C22.1645,213.927 21.9644,212.827 21.4644,212.027 C20.0645,209.827 19.3644,207.527 19.3644,205.027 C19.3644,204.427 19.3644,203.827 19.1645,203.427 C18.0645,201.427 18.1645,199.327 18.6645,197.227 C18.8644,196.527 18.5645,195.827 18.5645,195.127 C18.5645,193.127 18.4644,191.127 18.6645,189.227 C18.9644,186.927 20.5645,185.827 22.8644,186.027 C24.9644,186.227 27.1645,186.627 29.2645,186.727 C30.8644,186.827 32.4644,186.627 34.0645,186.427 C37.6645,185.927 41.2645,185.027 44.9644,184.627 C47.8644,184.327 50.3644,183.127 52.5645,181.427 C53.5645,180.727 54.7645,180.027 55.3644,179.027 C55.9644,178.027 55.8644,176.727 56.0645,175.527 C56.1645,172.527 56.6645,169.627 57.1645,166.527 M153.864,123.227 C155.164,130.727 157.464,137.627 161.364,144.027 C161.864,144.927 162.364,145.827 162.864,146.727 C167.564,155.827 173.964,163.527 183.364,168.227 C184.164,168.627 185.164,168.927 186.064,169.127 C190.764,169.927 195.264,168.627 199.564,167.027 C200.764,166.627 202.064,166.227 203.064,165.427 C206.564,162.627 209.264,159.227 211.464,155.427 C214.464,150.027 216.364,144.127 217.464,138.127 C218.164,134.427 218.564,130.727 218.564,126.927 C218.664,120.027 218.464,113.227 217.664,106.327 C216.864,99.2273 216.364,92.1273 215.864,85.1273 C215.464,79.1273 213.564,73.6273 211.664,68.0273 C210.564,64.8273 209.064,61.8273 207.964,58.7273 C206.264,53.9273 203.864,49.5273 200.764,45.6273 C198.164,42.3273 195.264,39.2273 192.264,36.3273 C189.864,33.9273 186.964,32.7273 183.564,34.4273 C181.264,35.5273 178.864,35.9273 176.364,35.3273 C175.564,35.1273 174.464,35.2273 173.964,35.7273 C172.064,37.2273 170.164,38.7273 168.664,40.5273 C163.864,46.3273 161.064,53.2273 158.764,60.3273 C157.764,63.4273 157.064,66.6273 156.364,69.8273 C155.764,72.4273 155.264,75.0273 154.764,77.9273 C156.764,76.6273 158.364,75.5273 160.164,74.5273 C167.264,70.6273 174.364,70.7273 180.864,75.6273 C188.764,81.6273 193.364,89.8273 194.564,99.7273 C194.864,102.427 194.864,105.127 194.864,107.827 C194.864,114.227 193.064,119.927 188.864,124.827 C187.964,125.827 187.264,127.027 186.364,128.027 C183.064,131.627 179.264,134.127 174.164,134.127 C172.364,134.127 170.664,134.327 168.864,134.327 C166.164,134.227 163.564,133.727 161.264,132.027 C159.264,130.627 157.664,128.927 156.364,126.827 C155.464,125.527 154.664,124.427 153.864,123.227 M129.764,63.8273 C129.264,64.5273 128.664,65.2273 128.164,65.9273 C124.864,70.3273 120.664,73.8273 116.364,77.1273 C112.364,80.1273 107.964,82.6273 103.664,85.2273 C99.3644,87.8273 94.9644,90.2273 90.1645,91.8273 C86.7645,92.9273 83.3644,94.1273 79.9644,95.2273 C73.0645,97.6273 65.9644,98.8273 58.6645,99.4273 C54.5645,99.7273 50.3644,99.9273 46.2645,100.227 C45.0645,100.327 44.0645,100.727 43.4644,101.827 C42.8644,102.727 42.2645,103.727 41.9644,104.827 C40.5645,108.927 39.9644,113.227 39.7645,117.527 C39.5645,121.827 40.4644,125.927 41.0645,130.127 C43.5645,145.727 59.1645,155.227 71.9644,154.327 C76.2645,154.027 80.5645,153.827 84.8644,153.827 C89.7645,153.827 94.5645,154.127 99.4645,154.327 C101.564,154.427 103.564,155.027 105.664,155.127 C116.564,155.827 126.764,159.227 136.864,163.027 C139.264,163.927 141.664,164.627 144.464,165.527 C143.864,164.727 143.664,164.327 143.364,163.927 C141.264,161.027 139.064,158.127 137.064,155.227 C130.664,145.827 127.264,135.327 126.064,124.127 C125.364,118.027 125.064,111.827 124.764,105.727 C124.464,98.3273 124.964,90.9273 125.764,83.5273 C126.464,76.8273 128.164,70.4273 129.764,63.8273 M94.8644,252.327 C94.7645,252.527 94.7645,252.827 94.6645,253.027 C95.6645,253.727 96.6644,254.727 97.7645,255.127 C101.264,256.327 104.864,257.427 108.664,257.627 C113.664,257.927 118.464,257.427 122.964,254.827 C125.564,253.327 127.164,251.627 126.264,248.527 C125.864,247.027 126.564,246.127 127.464,245.127 C127.864,244.627 128.364,244.227 128.764,243.727 C129.564,242.627 130.464,241.627 130.964,240.327 C131.364,239.427 131.264,238.227 131.064,237.327 C130.964,236.727 130.164,236.327 129.664,235.927 C128.564,235.127 128.164,234.027 127.864,232.727 C127.264,230.227 127.964,228.027 129.964,226.427 C130.664,225.927 131.364,225.227 131.664,224.427 C132.764,221.527 132.564,219.527 130.064,217.927 C128.564,216.927 127.164,215.827 127.164,213.927 C127.164,212.427 127.264,210.927 127.564,209.527 C127.664,209.027 128.564,208.627 129.164,208.227 C130.864,207.027 131.564,203.427 130.064,202.027 C128.664,200.627 127.164,199.327 125.464,198.227 C122.864,196.627 120.164,195.327 117.164,194.627 C115.964,194.327 114.764,193.727 113.764,193.027 C112.664,192.227 111.464,191.927 110.164,191.927 C106.664,191.727 103.164,191.727 99.6644,191.227 C93.2645,190.327 88.0645,192.727 83.1645,196.327 C81.4644,197.527 81.5645,199.227 83.3644,200.427 C84.2645,201.027 85.3644,201.727 86.3644,201.827 C88.2645,202.027 89.5645,203.327 91.1645,203.827 C93.0645,204.527 92.7645,206.227 93.1645,207.527 C93.3644,208.127 92.2645,209.227 91.6645,210.027 C91.0645,210.927 89.9644,211.027 88.9644,211.327 C86.7645,211.927 84.5645,212.527 82.4644,213.527 C81.6645,213.927 80.8644,214.927 80.5645,215.827 C79.8644,218.027 80.7645,219.627 83.0645,220.427 C84.9644,221.127 86.7645,221.727 88.0645,223.427 C89.8644,225.927 88.7645,229.327 85.7645,230.027 C83.9644,230.427 82.6645,231.627 81.4644,232.927 C80.6645,233.727 80.5645,234.527 81.1645,235.527 C82.4644,238.027 84.5645,239.727 87.0645,240.427 C90.3644,241.427 93.6645,242.227 97.0645,242.727 C99.1644,243.027 100.864,244.227 102.764,245.027 C103.164,245.127 103.364,245.727 103.464,246.127 C104.264,249.527 101.864,252.327 98.3644,252.227 C97.7645,252.227 97.2645,252.027 96.6644,252.027 C96.0645,252.227 95.4644,252.327 94.8644,252.327 M82.8644,249.227 C82.8644,249.127 82.9644,248.927 82.9644,248.827 C82.5645,248.627 82.2645,248.327 81.7645,248.127 C79.0645,247.127 76.7645,245.627 74.8644,243.527 C71.9644,240.427 70.5645,236.927 70.9644,232.627 C71.1645,230.027 72.3644,227.927 74.2645,225.927 C70.9644,223.227 70.7645,219.427 70.8644,215.627 C71.0645,211.627 72.6645,208.227 75.9644,205.727 C73.2645,203.027 72.5645,199.927 72.6645,196.527 C72.7645,192.827 75.4644,190.627 78.0645,188.327 C76.6645,187.227 76.1645,185.827 76.0645,184.127 C75.6645,179.127 75.1645,174.127 74.6645,169.127 C74.4644,167.227 74.2645,165.327 74.0645,163.427 C72.0645,163.427 70.3644,163.427 68.6645,163.427 C68.4644,164.327 68.3644,165.027 68.2645,165.727 C67.6645,168.227 66.9644,170.627 66.4644,173.127 C65.7645,176.527 65.2645,179.927 64.5645,183.227 C64.0645,185.427 62.7645,187.227 60.7645,188.127 C59.7645,188.627 58.6645,188.927 57.6645,189.627 C54.6645,191.927 51.4644,193.827 47.4644,193.927 C46.9644,193.927 46.5645,194.127 46.0645,194.127 C42.1645,194.627 38.3644,195.227 34.4644,195.627 C32.3644,195.827 30.1645,195.627 27.9644,195.627 C27.8644,197.227 27.5645,198.527 27.6645,199.927 C27.7645,201.927 28.1645,203.927 28.5645,205.827 C28.6645,206.327 28.9644,206.927 29.2645,207.327 C31.0645,209.827 31.4644,212.727 31.4644,215.727 C31.5645,220.027 31.4644,224.327 31.4644,228.627 C34.0645,229.027 36.2645,229.427 38.5645,229.827 C43.2645,230.627 47.8644,231.627 52.1645,233.527 C57.2645,235.827 62.2645,238.427 66.5645,241.927 C68.3644,243.427 70.2645,244.727 72.1645,246.027 C72.7645,246.427 73.5645,246.827 74.2645,247.027 C77.1645,248.027 80.0645,248.627 82.8644,249.227 M172.264,172.327 C172.164,171.927 172.164,171.827 172.064,171.727 C171.764,171.427 171.364,171.127 170.964,170.727 C166.164,166.527 162.064,161.827 158.764,156.427 C157.064,153.727 155.564,150.927 154.064,148.127 C151.464,143.627 149.464,139.027 147.864,134.127 C142.464,118.527 142.264,102.627 144.664,86.5273 C145.864,78.1273 147.864,69.9273 149.964,61.7273 C152.164,53.1273 155.764,45.3273 160.364,37.9273 C161.264,36.5273 162.364,35.1273 163.364,33.6273 C162.964,33.6273 162.764,33.5273 162.564,33.6273 C157.864,35.7273 153.464,38.2273 150.464,42.6273 C147.364,47.2273 145.364,52.3273 143.164,57.4273 C138.064,69.1273 135.464,81.4273 134.664,94.1273 C134.164,102.727 134.864,111.327 135.564,119.927 C136.164,127.827 137.764,135.527 141.064,142.827 C145.364,152.327 151.164,160.627 159.664,166.727 C161.464,168.027 163.264,169.327 165.264,170.327 C167.364,171.427 169.764,172.227 172.264,172.327 M158.664,88.0273 C160.564,88.9273 160.764,89.1273 160.164,90.8273 C159.764,91.9273 159.264,92.9273 158.964,93.9273 C158.664,95.0273 158.264,96.1273 158.264,97.1273 C158.264,99.6273 158.364,102.027 158.464,104.527 C158.664,109.227 159.764,113.627 161.964,117.827 C164.264,122.227 167.664,124.427 172.864,123.927 C174.964,123.727 176.664,123.227 177.964,121.727 C179.764,119.727 181.464,117.627 182.964,115.327 C183.964,113.827 184.764,112.027 184.864,110.227 C185.464,103.327 184.864,96.6273 181.064,90.6273 C179.164,87.6273 177.264,84.7273 174.164,82.7273 C171.464,81.0273 168.764,80.3273 165.564,81.8273 C162.764,83.3273 160.664,85.4273 158.664,88.0273 M32.4644,102.127 C31.4644,102.527 30.5645,102.727 29.8644,103.227 C27.1645,105.127 24.6645,107.027 22.8644,109.927 C19.6645,115.027 18.1645,120.527 18.5645,126.527 C18.8644,130.727 19.9644,134.727 21.3644,138.627 C22.5645,142.027 24.3644,145.127 26.9644,147.427 C31.0645,151.027 35.7645,153.827 40.8644,155.827 C43.1645,156.727 45.5645,156.827 48.6645,156.527 C47.6645,155.827 47.1645,155.527 46.6645,155.227 C44.7645,153.727 42.6645,152.527 41.0645,150.827 C37.3644,146.827 34.1645,142.427 32.6645,137.127 C32.1645,135.327 31.8644,133.427 31.4644,131.527 C30.0645,124.427 29.5645,117.327 30.9644,110.127 C31.3644,107.427 31.8644,105.027 32.4644,102.127 M84.2645,163.027 C84.7645,170.127 85.5645,177.027 86.5645,183.927 C87.8644,183.627 88.9644,183.627 89.8644,183.227 C92.1645,182.127 94.5645,182.527 96.9645,182.627 C99.0645,182.727 101.264,182.827 103.164,182.927 C104.964,176.627 106.664,170.727 108.364,164.627 C100.464,163.627 92.5645,162.227 84.2645,163.027 Z" />
        </g>
        <g id="Shape2">
            <desc shapeID="2" type="0" basicInfo-basicType="0" basicInfo-roundedRectRadius="12" basicInfo-polygonSides="6" basicInfo-starPoints="5" bounding="rect(-20.0622,-10.5197,40.1243,21.0393)" text="" font-familyName="" font-pixelSize="20" font-bold="0" font-underline="0" font-alignment="1" strokeStyle="0" markerStart="0" markerEnd="0" shadowEnabled="0" shadowOffsetX="0" shadowOffsetY="2" shadowBlur="4" shadowOpacity="160" blurEnabled="0" blurRadius="4" transform="matrix(1,0,0,1,246.922,43.2204)" pers-center="0,0" pers-size="0,0" pers-start="0,0" pers-end="0,0" locked="0" mesh="" flag=""/>
            <path id="shapePath2" d="M226.864,49.4273 C226.764,46.6273 228.264,45.1273 230.164,44.2273 C234.864,42.0273 239.464,39.7273 244.264,37.8273 C248.064,36.3273 251.864,35.0273 255.764,33.8273 C257.364,33.3273 259.164,32.9273 260.864,32.7273 C261.964,32.6273 263.064,32.8273 264.164,33.0273 C266.264,33.5273 267.364,35.7273 266.864,37.8273 C266.264,40.3273 264.564,41.5273 262.264,42.1273 C259.564,42.9273 256.864,43.6273 254.264,44.5273 C249.464,46.1273 244.864,48.1273 240.564,50.6273 C237.664,52.3273 234.464,53.4273 231.164,53.7273 C230.164,53.8273 228.964,53.3273 228.164,52.6273 C226.964,51.8273 226.864,50.4273 226.864,49.4273 Z" />
        </g>
        <g id="Shape3">
            <desc shapeID="3" type="0" basicInfo-basicType="0" basicInfo-roundedRectRadius="12" basicInfo-polygonSides="6" basicInfo-starPoints="5" bounding="rect(-19.1959,-7.4788,38.3918,14.9576)" text="" font-familyName="" font-pixelSize="20" font-bold="0" font-underline="0" font-alignment="1" strokeStyle="0" markerStart="0" markerEnd="0" shadowEnabled="0" shadowOffsetX="0" shadowOffsetY="2" shadowBlur="4" shadowOpacity="160" blurEnabled="0" blurRadius="4" transform="matrix(1,0,0,1,261.424,75.8523)" pers-center="0,0" pers-size="0,0" pers-start="0,0" pers-end="0,0" locked="0" mesh="" flag=""/>
            <path id="shapePath3" d="M247.064,83.3273 C243.164,83.4273 242.664,81.5273 242.264,78.9273 C241.964,76.8273 243.564,74.5273 245.864,73.9273 C248.664,73.2273 251.464,72.6273 254.264,72.0273 C260.864,70.7273 267.364,69.4273 273.964,68.4273 C275.464,68.2273 277.064,68.6273 278.664,68.9273 C279.164,69.0273 279.564,69.5273 279.864,70.0273 C281.664,72.5273 280.164,77.7273 276.264,78.1273 C267.864,78.9273 259.864,81.1273 251.664,82.7273 C250.064,83.0273 248.564,83.1273 247.064,83.3273 Z" />
        </g>
        <g id="Shape4">
            <desc shapeID="4" type="0" basicInfo-basicType="0" basicInfo-roundedRectRadius="12" basicInfo-polygonSides="6" basicInfo-starPoints="5" bounding="rect(-18.6444,-6.06572,37.2888,12.1314)" text="" font-familyName="" font-pixelSize="20" font-bold="0" font-underline="0" font-alignment="1" strokeStyle="0" markerStart="0" markerEnd="0" shadowEnabled="0" shadowOffsetX="0" shadowOffsetY="2" shadowBlur="4" shadowOpacity="160" blurEnabled="0" blurRadius="4" transform="matrix(1,0,0,1,263.637,109.262)" pers-center="0,0" pers-size="0,0" pers-start="0,0" pers-end="0,0" locked="0" mesh="" flag=""/>
            <path id="shapePath4" d="M274.164,115.327 C268.364,114.827 262.564,114.327 256.764,113.727 C254.064,113.527 251.364,113.327 248.664,112.927 C246.164,112.527 244.264,109.227 245.264,106.927 C246.564,103.727 247.464,103.027 250.364,103.227 C253.264,103.327 256.264,103.627 259.164,103.927 C264.464,104.327 269.864,104.727 275.164,105.127 C276.764,105.227 278.364,105.427 279.864,105.727 C280.264,105.827 280.664,106.027 280.864,106.227 C282.164,107.927 282.664,109.927 281.964,111.827 C281.364,113.527 279.964,114.927 277.964,115.127 C276.664,115.227 275.364,115.127 274.164,115.127 C274.264,115.227 274.164,115.227 274.164,115.327 Z" />
        </g>
        <g id="Shape5">
            <desc shapeID="5" type="0" basicInfo-basicType="0" basicInfo-roundedRectRadius="12" basicInfo-polygonSides="6" basicInfo-starPoints="5" bounding="rect(-16.1079,-8.84998,32.2158,17.7)" text="" font-familyName="" font-pixelSize="20" font-bold="0" font-underline="0" font-alignment="1" strokeStyle="0" markerStart="0" markerEnd="0" shadowEnabled="0" shadowOffsetX="0" shadowOffsetY="2" shadowBlur="4" shadowOpacity="160" blurEnabled="0" blurRadius="4" transform="matrix(1,0,0,1,259.02,141.277)" pers-center="0,0" pers-size="0,0" pers-start="0,0" pers-end="0,0" locked="0" mesh="" flag=""/>
            <path id="shapePath5" d="M268.664,150.127 C265.964,149.427 263.364,148.627 260.664,147.927 C255.564,146.427 250.464,144.727 245.764,142.227 C243.664,141.127 242.664,139.027 242.964,136.627 C243.164,134.827 245.064,132.427 246.964,132.427 C249.064,132.427 251.364,132.527 253.164,133.327 C257.564,135.327 262.164,137.027 266.764,138.427 C268.464,138.927 270.164,139.427 271.764,140.027 C274.964,141.227 276.064,144.727 274.264,147.527 C272.964,149.427 271.064,149.927 268.664,150.127 Z" />
        </g>
        <g id="Shape6">
            <desc shapeID="6" type="0" basicInfo-basicType="0" basicInfo-roundedRectRadius="12" basicInfo-polygonSides="6" basicInfo-starPoints="5" bounding="rect(-10.4444,-7.9408,20.8887,15.8816)" text="" font-familyName="" font-pixelSize="20" font-bold="0" font-underline="0" font-alignment="1" strokeStyle="0" markerStart="0" markerEnd="0" shadowEnabled="0" shadowOffsetX="0" shadowOffsetY="2" shadowBlur="4" shadowOpacity="160" blurEnabled="0" blurRadius="4" transform="matrix(1,0,0,1,246.081,166.986)" pers-center="0,0" pers-size="0,0" pers-start="0,0" pers-end="0,0" locked="0" mesh="" flag=""/>
            <path id="shapePath6" d="M249.964,174.927 C248.664,174.527 247.364,174.327 246.264,173.727 C243.564,172.327 240.964,170.927 238.364,169.327 C236.064,167.927 235.064,164.827 235.964,162.427 C236.664,160.627 237.764,159.427 239.764,159.227 C241.964,158.927 243.964,158.827 246.064,160.327 C248.264,161.927 250.864,163.127 253.364,164.427 C255.864,165.827 256.964,167.827 256.364,170.127 C255.664,173.127 253.964,174.527 250.864,174.627 C250.664,174.627 250.364,174.627 250.164,174.627 C250.064,174.727 249.964,174.827 249.964,174.927 Z" />
        </g>
        <g id="Shape7">
            <desc shapeID="7" type="0" basicInfo-basicType="0" basicInfo-roundedRectRadius="12" basicInfo-polygonSides="6" basicInfo-starPoints="5" bounding="rect(-9.44838,-8.04999,18.8967,16.1)" text="" font-familyName="" font-pixelSize="20" font-bold="0" font-underline="0" font-alignment="1" strokeStyle="0" markerStart="0" markerEnd="0" shadowEnabled="0" shadowOffsetX="0" shadowOffsetY="2" shadowBlur="4" shadowOpacity="160" blurEnabled="0" blurRadius="4" transform="matrix(1,0,0,1,222.716,23.0773)" pers-center="0,0" pers-size="0,0" pers-start="0,0" pers-end="0,0" locked="0" mesh="" flag=""/>
            <path id="shapePath7" d="M218.064,31.1273 C214.864,30.9273 212.564,27.9273 213.464,24.9273 C213.864,23.6273 214.464,22.4273 215.664,21.6273 C217.864,19.9273 220.164,18.2273 222.264,16.5273 C224.364,14.8273 226.864,15.1273 229.364,15.0273 C230.364,15.0273 232.064,17.9273 232.164,19.4273 C232.164,21.0273 231.564,22.3273 230.364,23.4273 C227.864,25.5273 225.364,27.6273 222.664,29.5273 C221.264,30.2273 219.564,30.5273 218.064,31.1273 Z" />
        </g>
        <g id="Shape8">
            <desc shapeID="8" type="0" basicInfo-basicType="0" basicInfo-roundedRectRadius="12" basicInfo-polygonSides="6" basicInfo-starPoints="5" bounding="rect(-6.24093,-13.2484,12.4818,26.4969)" text="" font-familyName="" font-pixelSize="20" font-bold="0" font-underline="0" font-alignment="1" strokeStyle="0" markerStart="0" markerEnd="0" shadowEnabled="0" shadowOffsetX="0" shadowOffsetY="2" shadowBlur="4" shadowOpacity="160" blurEnabled="0" blurRadius="4" transform="matrix(1,0,0,1,72.2592,118.771)" pers-center="0,0" pers-size="0,0" pers-start="0,0" pers-end="0,0" locked="0" mesh="" flag=""/>
            <path id="shapePath8" d="M73.1645,131.927 C70.8644,132.427 69.2645,130.827 68.5645,128.727 C66.9644,124.127 65.7645,119.627 66.0645,114.727 C66.1645,112.827 66.2645,110.927 66.5645,109.027 C66.9644,106.927 68.2645,105.427 70.6645,105.527 C74.4644,105.627 76.3644,107.727 76.2645,111.927 C76.2645,114.327 76.2645,116.727 76.4644,119.027 C76.6645,120.627 77.3644,122.027 77.7645,123.627 C78.0645,124.727 78.3644,125.727 78.4644,126.827 C78.7645,129.927 77.1645,131.727 73.9644,131.827 C73.8644,131.927 73.4644,131.927 73.1645,131.927 Z" />
        </g>
        <g id="Shape9">
            <desc shapeID="9" type="0" basicInfo-basicType="0" basicInfo-roundedRectRadius="12" basicInfo-polygonSides="6" basicInfo-starPoints="5" bounding="rect(-6.04486,-12.2,12.0897,24.4)" text="" font-familyName="" font-pixelSize="20" font-bold="0" font-underline="0" font-alignment="1" strokeStyle="0" markerStart="0" markerEnd="0" shadowEnabled="0" shadowOffsetX="0" shadowOffsetY="2" shadowBlur="4" shadowOpacity="160" blurEnabled="0" blurRadius="4" transform="matrix(1,0,0,1,86.3093,116.327)" pers-center="0,0" pers-size="0,0" pers-start="0,0" pers-end="0,0" locked="0" mesh="" flag=""/>
            <path id="shapePath9" d="M80.2645,113.427 C80.4644,112.227 80.7645,109.827 81.2645,107.527 C81.7645,105.327 83.1645,104.227 85.3644,104.127 C85.7645,104.127 86.1645,104.127 86.5645,104.127 C89.6645,104.427 91.0645,106.027 90.8644,109.127 C90.8644,109.227 90.8644,109.327 90.8644,109.327 C89.8644,113.827 90.5645,118.227 92.0645,122.527 C92.6645,124.427 92.3644,126.127 90.8644,127.527 C90.5645,127.727 90.2645,128.127 89.9644,128.127 C88.2645,128.327 86.4644,128.527 84.7645,128.527 C83.5645,128.527 82.8644,127.827 82.5645,126.727 C81.3644,122.827 80.2645,118.827 80.2645,113.427 Z" />
        </g>
        <g id="Shape10">
            <desc shapeID="10" type="0" basicInfo-basicType="0" basicInfo-roundedRectRadius="12" basicInfo-polygonSides="6" basicInfo-starPoints="5" bounding="rect(-5.79617,-12.1347,11.5924,24.2694)" text="" font-familyName="" font-pixelSize="20" font-bold="0" font-underline="0" font-alignment="1" strokeStyle="0" markerStart="0" markerEnd="0" shadowEnabled="0" shadowOffsetX="0" shadowOffsetY="2" shadowBlur="4" shadowOpacity="160" blurEnabled="0" blurRadius="4" transform="matrix(1,0,0,1,58.5642,118.602)" pers-center="0,0" pers-size="0,0" pers-start="0,0" pers-end="0,0" locked="0" mesh="" flag=""/>
            <path id="shapePath10" d="M59.0645,106.527 C59.2645,107.627 59.4644,108.527 60.7645,108.527 C62.0645,108.527 62.2645,109.327 62.2645,110.427 C62.3644,113.727 62.4644,116.927 62.7645,120.227 C62.9644,122.127 63.5645,123.927 64.1645,125.727 C64.7645,127.627 63.9644,129.727 62.0645,130.227 C60.6645,130.627 59.1645,130.627 57.6645,130.727 C56.2645,130.827 55.4644,130.127 54.9644,128.827 C53.8644,126.327 53.2645,123.727 52.9644,121.027 C52.5645,117.227 52.7645,113.427 53.6645,109.627 C53.8644,108.827 54.1645,108.127 54.5645,107.427 C54.9644,106.627 55.5645,106.327 56.4644,106.527 C57.1645,106.727 57.9644,106.527 59.0645,106.527 Z" />
        </g>
    </g>
</svg>
