<?xml version="1.0" encoding="UTF-8" standalone="no"?>
<svg width="24px" height="24px" viewBox="0 0 24 24" version="1.1" xmlns="http://www.w3.org/2000/svg" xmlns:xlink="http://www.w3.org/1999/xlink">
    <!-- Generator: Sketch 3.6.1 (26313) - http://www.bohemiancoding.com/sketch -->
    <title>ic_fb</title>
    <desc>Created with Sketch.</desc>
    <defs></defs>
    <g id="1_NuitDebout_Home" stroke="none" stroke-width="1" fill="none" fill-rule="evenodd">
        <g id="1.1_NuitDebout_Home_Desktop-HD" transform="translate(-1217.000000, -19.000000)" fill="#37474F">
            <g id="Header">
                <g id="nav">
                    <g id="ic_fb" transform="translate(1217.000000, 19.000000)">
                        <path d="M12,24 C18.627417,24 24,18.627417 24,12 C24,5.372583 18.627417,0 12,0 C5.372583,0 0,5.372583 0,12 C0,18.627417 5.372583,24 12,24 Z M14.8476562,10.1630625 L12.7602656,10.1630625 L12.7602656,8.639625 C12.7602656,8.17232812 13.2436406,8.06395313 13.46925,8.06395313 L14.8176563,8.06395313 L14.8176563,6.0080625 L13.2722344,6 C11.1636094,6 10.6823906,7.53295313 10.6823906,8.515875 L10.6823906,10.1631094 L9.15234375,10.1631094 L9.15234375,12.28125 L10.6823906,12.28125 L10.6823906,18 L12.7602656,18 L12.7602656,12.28125 L14.5253906,12.28125 L14.8476562,10.1630625 Z" id="Combined-Shape"></path>
                    </g>
                </g>
            </g>
        </g>
    </g>
</svg>