<?xml version="1.0" encoding="UTF-8" standalone="no"?>
<svg width="18px" height="24px" viewBox="0 0 18 24" version="1.1" xmlns="http://www.w3.org/2000/svg" xmlns:xlink="http://www.w3.org/1999/xlink">
    <!-- Generator: Sketch 3.6.1 (26313) - http://www.bohemiancoding.com/sketch -->
    <title>ic_manif</title>
    <desc>Created with Sketch.</desc>
    <defs></defs>
    <g id="1_NuitDebout_Home" stroke="none" stroke-width="1" fill="none" fill-rule="evenodd">
        <g id="1.1_NuitDebout_Home_Desktop-HD" transform="translate(-504.000000, -2168.000000)" fill="#FFFFFF">
            <g id="4.Compteur" transform="translate(-1.000000, 2149.000000)">
                <g id="rasemblements" transform="translate(411.000000, 19.000000)">
                    <g id="ic_manif" transform="translate(94.000000, 0.000000)">
                        <path d="M2.7845703,9.79841584 C3.52693069,9.79841584 4.12873663,10.4002218 4.12873663,11.1425822 C4.12873663,11.8849426 3.52693069,12.4867485 2.7845703,12.4867485 C2.0422099,12.4867485 1.44040396,11.8849426 1.44040396,11.1425822 C1.44040396,10.4002218 2.0422099,9.79841584 2.7845703,9.79841584" id="Fill-1"></path>
                        <path d="M8.89150099,9.79841584 C9.63386139,9.79841584 10.2356673,10.4002218 10.2356673,11.1425822 C10.2356673,11.8849426 9.63386139,12.4867485 8.89150099,12.4867485 C8.14914059,12.4867485 7.54733465,11.8849426 7.54733465,11.1425822 C7.54733465,10.4002218 8.14914059,9.79841584 8.89150099,9.79841584" id="Fill-3"></path>
                        <path d="M15.0070099,11.0802535 C14.9369584,10.9538376 14.8486099,10.9162693 14.7465505,10.9279366 L14.3256475,9.1966099 L17.2028911,8.35810693 L16.1189228,4.6384396 L13.4099881,5.42794455 L13.3262257,5.08372277 C13.2990416,4.97113663 13.1853149,4.90196436 13.0726099,4.92938614 C12.9601663,4.95666535 12.8910891,5.07015446 12.9185347,5.18285941 L13.0066218,5.54561584 L10.2728079,6.34236832 L11.3570376,10.0620356 L13.9225426,9.31416238 L14.3548515,11.0934653 L10.6429307,12.9251881 L9.9334099,12.9251881 L7.98173465,12.9251881 L7.12391287,12.9251881 C6.81737822,12.9251881 6.56806337,13.1592475 6.53800396,13.4577743 C6.5335604,13.4806337 6.52797624,13.5029465 6.52645545,13.526804 L6.44421386,18.0424634 C6.42491881,18.3303208 6.42313663,18.5646653 6.71113663,18.5839366 C6.99899406,18.6032317 7.02869703,18.3706931 7.04801584,18.0825743 L7.44810297,14.6399762 C7.49710099,15.1162218 7.54165545,15.6650614 7.54165545,16.0892673 C7.54165545,17.0310891 7.32168713,17.4032317 7.32168713,18.038899 C7.32168713,18.0800079 7.32308911,18.118598 7.32534653,18.1546455 C7.32472871,18.1673347 7.32168713,18.1795248 7.32168713,18.1922376 L7.54165545,23.3024079 C7.54165545,23.6877624 7.63406733,24 8.0191604,24 C8.40439604,24 8.49668911,23.6877386 8.49668911,23.3024079 L8.89309307,18.6989465 L9.02205149,18.6989465 L9.41859802,23.3024079 C9.41859802,23.6877624 9.5110099,24 9.89584158,24 C10.2812198,24 10.3736079,23.6877386 10.3736079,23.3024079 L10.593695,18.1922376 C10.593695,18.1805465 10.5909149,18.1693545 10.5901545,18.1577109 C10.5924594,18.1206178 10.593695,18.0810297 10.593695,18.038899 C10.593695,17.3689663 10.3736079,16.788903 10.3736079,16.0892673 C10.3736079,15.7480634 10.4258851,15.1459248 10.4794693,14.6171168 L10.5944554,14.045204 C10.6848475,14.0477228 10.7764752,14.0286891 10.8610218,13.9817109 L14.5064317,11.7171802 L14.6399525,12.2666614 C14.6673743,12.379105 14.780602,12.4484198 14.8933069,12.4210218 C15.0060119,12.3936 15.0750653,12.2801109 15.0476436,12.1674059 L14.8821386,11.4860436 C15.0303446,11.381703 15.1095683,11.2649347 15.0070099,11.0802535" id="Fill-5"></path>
                        <path d="M6.44761188,10.9822574 C6.47503366,11.0948436 6.5883802,11.1640158 6.70110891,11.1365941 C6.81355248,11.1093149 6.88284356,10.9958257 6.85544554,10.8831208 L6.6140198,9.90615446 L6.8191604,9.41950099 C6.93414653,9.14673267 6.8062099,8.83207129 6.53344158,8.71720396 C6.46046733,8.68650297 6.38466535,8.67443168 6.31028911,8.67645149 L5.58106931,5.72407129 L9.26188515,4.65127129 L7.91313267,0.0236673267 L4.42410297,1.04062574 L4.33575446,0.682550495 C4.30833267,0.569964356 4.19484356,0.500910891 4.08225743,0.528213861 C3.96969505,0.555493069 3.90052277,0.668982178 3.92792079,0.781687129 L4.02083168,1.15815446 L0.640110891,2.14353267 L1.98886337,6.77113663 L5.17782178,5.84162376 L5.92341386,8.85987327 C5.88660594,8.90200396 5.85412277,8.94886337 5.83126337,9.00318416 L4.23093861,12.8013149 L0.660166337,12.8013149 C0.382550495,12.8013149 0.145829703,12.973402 0.0483564356,13.2160871 C0.0180356436,13.282099 0,13.3552158 0,13.432895 L0,17.9437307 C0,18.2323485 0.234059406,18.4664079 0.52270099,18.4664079 C0.811223762,18.4664079 1.04525941,18.2323485 1.04525941,17.9437307 L1.04525941,14.2792634 L1.16737426,14.2792634 L1.16737426,23.1785584 C1.16737426,23.5639129 1.47975446,23.8761505 1.86487129,23.8761505 C2.25022574,23.8761505 2.56234455,23.5638891 2.56234455,23.1785584 L2.56234455,18.5750733 L3.04429307,18.5750733 L3.04429307,23.1785584 C3.04429307,23.5639129 3.35667327,23.8761505 3.74164752,23.8761505 C4.12702574,23.8761505 4.43938218,23.5638891 4.43938218,23.1785584 L4.43938218,14.2792634 L4.44040396,14.276198 C4.64043564,14.2670495 4.82754059,14.1472396 4.91028119,13.9507723 L6.34165545,10.5529901 L6.44761188,10.9822574 Z" id="Fill-7"></path>
                    </g>
                </g>
            </g>
        </g>
    </g>
</svg>