<?xml version="1.0" encoding="UTF-8" standalone="no"?>
<svg width="25px" height="11px" viewBox="0 0 25 11" version="1.1" xmlns="http://www.w3.org/2000/svg" xmlns:xlink="http://www.w3.org/1999/xlink">
    <!-- Generator: Sketch 3.6.1 (26313) - http://www.bohemiancoding.com/sketch -->
    <title>ic_donate</title>
    <desc>Created with Sketch.</desc>
    <defs></defs>
    <g id="1_NuitDebout_Home" stroke="none" stroke-width="1" fill="none" fill-rule="evenodd">
        <g id="1.1_NuitDebout_Home_Desktop-HD" transform="translate(-1368.000000, -853.000000)" fill="#FFFFFF">
            <g id="Sticky" transform="translate(1352.000000, 739.000000)">
                <g id="don" transform="translate(0.000000, 82.000000)">
                    <g id="ic_donate" transform="translate(8.166667, 15.000000)">
                        <path d="M31.8687741,20.3998857 C31.5172113,19.5078325 30.4343329,18.7602533 28.8730365,19.2346056 L24.406807,20.7687962 C24.2514905,20.1768046 23.8202365,19.5886079 23.019801,19.2213237 C23.0097719,19.2169868 22.9997427,19.2129209 22.9894425,19.208584 C22.3936561,18.9825212 17.1196725,17 15.4087518,17 C13.2980199,17 8.74694913,19.7428401 8.23491978,20.0556415 C8.00343589,20.1965919 7.9310633,20.4982799 8.07174261,20.7289506 C8.21296405,20.9604345 8.51492312,21.0328071 8.74532277,20.8921278 C10.0713405,20.0822052 13.8528765,17.9798762 15.4082097,17.9798762 C16.7000741,17.9798762 21.0386351,19.5178616 22.6248689,20.1193402 C23.3808509,20.4725294 23.590379,21.0853924 23.4613552,21.5391442 C23.3407342,21.9628085 22.8975537,22.3761726 22.0109216,22.266665 L16.5854164,21.5917296 C16.3165264,21.5578473 16.0717607,21.7489434 16.0384205,22.0178334 C16.0050803,22.2861812 16.1956344,22.530947 16.4642533,22.5642872 L21.8894875,23.2392226 C22.0261009,23.2562993 22.1572932,23.26416 22.2838774,23.26416 C23.4581025,23.26416 24.1880628,22.5648293 24.4032832,21.807221 C24.4035543,21.807221 24.4035543,21.8066789 24.4035543,21.8061368 L29.1728271,20.1681308 C30.128308,19.8780983 30.7566214,20.2564958 30.9553072,20.7601223 C31.1293267,21.2005923 31.0024714,21.876612 30.0738252,22.3336164 L28.6475159,23.0351156 C23.4624394,25.5884859 21.0960995,26.753766 19.7939348,26.753766 C18.7265068,26.753766 17.0776585,25.8478888 15.752996,25.1200969 C14.5343174,24.4508537 13.8200784,24.0719141 13.312386,24.0719141 C12.607092,24.0719141 10.686101,24.8344014 10.3079745,24.9872783 C10.0569744,25.0889252 9.93581134,25.3743497 10.0374582,25.6253498 C10.1391051,25.8763499 10.4248007,25.9980552 10.6755298,25.8964083 C11.5421035,25.5459297 12.9334464,25.0520613 13.3126571,25.0520613 C13.5934736,25.0520613 14.5294383,25.565988 15.2813543,25.9790811 C16.778681,26.8017434 18.4757778,27.7341843 19.7942059,27.7341843 C21.3246017,27.7341843 23.5947159,26.6160683 29.0809383,23.9149712 L30.5067055,23.2134721 C31.9294912,22.5135992 32.2100366,21.2648331 31.8687741,20.3998857"></path>
                    </g>
                </g>
            </g>
        </g>
    </g>
</svg>