<?xml version="1.0" encoding="utf-8"?>
<!-- Generator: Adobe Illustrator 19.2.1, SVG Export Plug-In . SVG Version: 6.00 Build 0)  -->
<svg version="1.1" id="Calque_1" xmlns="http://www.w3.org/2000/svg" xmlns:xlink="http://www.w3.org/1999/xlink" x="0px" y="0px"
	 viewBox="0 0 26 26" style="enable-background:new 0 0 26 26;" xml:space="preserve">
<style type="text/css">
	.st0{fill-rule:evenodd;clip-rule:evenodd;fill:#FFFFFF;}
</style>
<path class="st0" d="M13,1C6.2,1,0.7,6.5,0.7,13.3c0,5.4,3.5,10,8.4,11.7c0.6,0.1,0.8-0.3,0.8-0.6c0-0.3,0-1.1,0-2.1
	c-3.4,0.7-4.1-1.6-4.1-1.6c-0.6-1.4-1.4-1.8-1.4-1.8c-1.1-0.8,0.1-0.7,0.1-0.7c1.2,0.1,1.9,1.3,1.9,1.3c1.1,1.9,2.9,1.3,3.6,1
	c0.1-0.8,0.4-1.3,0.8-1.6c-2.7-0.3-5.6-1.4-5.6-6.1c0-1.3,0.5-2.4,1.3-3.3C6.3,9,5.9,7.8,6.5,6.1c0,0,1-0.3,3.4,1.3
	C10.9,7.1,12,7,13,7c1,0,2.1,0.1,3.1,0.4c2.3-1.6,3.4-1.3,3.4-1.3c0.7,1.7,0.2,2.9,0.1,3.3c0.8,0.9,1.3,2,1.3,3.3
	c0,4.7-2.9,5.8-5.6,6.1c0.4,0.4,0.8,1.1,0.8,2.3c0,1.6,0,3,0,3.4c0,0.3,0.2,0.7,0.8,0.6c4.9-1.6,8.4-6.2,8.4-11.7
	C25.3,6.5,19.8,1,13,1z"/>
</svg>
