<?xml version="1.0" encoding="UTF-8" standalone="no"?>
<svg width="24px" height="24px" viewBox="0 0 24 24" version="1.1" xmlns="http://www.w3.org/2000/svg" xmlns:xlink="http://www.w3.org/1999/xlink">
    <!-- Generator: Sketch 3.6.1 (26313) - http://www.bohemiancoding.com/sketch -->
    <title>ic_insta</title>
    <desc>Created with Sketch.</desc>
    <defs></defs>
    <g id="1_NuitDebout_Home" stroke="none" stroke-width="1" fill="none" fill-rule="evenodd">
        <g id="1.1_NuitDebout_Home_Desktop-HD" transform="translate(-1383.000000, -19.000000)" fill="#37474F">
            <g id="Header">
                <g id="nav">
                    <g id="ic_insta" transform="translate(1383.000000, 19.000000)">
                        <path d="M12,14.4 C13.32,14.4 14.4,13.32 14.4,12 C14.4,10.68 13.32,9.6 12,9.6 C10.68,9.6 9.6,10.68 9.6,12 C9.6,13.32 10.68,14.4 12,14.4" id="Fill-1"></path>
                        <path d="M15.6,12 C15.6,13.98 13.98,15.6 12,15.6 C10.02,15.6 8.4,13.98 8.4,12 C8.4,11.82 8.4,11.58 8.46,11.4 L7.2,11.4 L7.2,16.5 C7.2,16.68 7.32,16.8 7.5,16.8 L16.5,16.8 C16.68,16.8 16.8,16.68 16.8,16.5 L16.8,11.4 L15.54,11.4 C15.6,11.58 15.6,11.82 15.6,12" id="Fill-3"></path>
                        <path d="M18,16.8 C18,17.46 17.46,18 16.8,18 L7.2,18 C6.54,18 6,17.46 6,16.8 L6,7.2 C6,6.54 6.54,6 7.2,6 L16.8,6 C17.46,6 18,6.54 18,7.2 L18,16.8 Z M12,0 C5.37225,0 0,5.37225 0,12 C0,18.62775 5.37225,24 12,24 C18.62775,24 24,18.62775 24,12 C24,5.37225 18.62775,0 12,0 L12,0 Z" id="Fill-5"></path>
                        <path d="M16.5,7.2 L15.3,7.2 C15.12,7.2 15,7.32 15,7.5 L15,8.7 C15,8.88 15.12,9 15.3,9 L16.5,9 C16.68,9 16.8,8.88 16.8,8.7 L16.8,7.5 C16.8,7.32 16.68,7.2 16.5,7.2" id="Fill-7"></path>
                    </g>
                </g>
            </g>
        </g>
    </g>
</svg>