<?xml version="1.0" encoding="UTF-8" standalone="no"?>
<svg width="16px" height="14px" viewBox="0 0 16 14" version="1.1" xmlns="http://www.w3.org/2000/svg" xmlns:xlink="http://www.w3.org/1999/xlink">
    <!-- Generator: Sketch 3.6.1 (26313) - http://www.bohemiancoding.com/sketch -->
    <title>ic_medium</title>
    <desc>Created with Sketch.</desc>
    <defs></defs>
    <g id="1_NuitDebout_Home" stroke="none" stroke-width="1" fill="none" fill-rule="evenodd">
        <g id="1.1_NuitDebout_Home_Desktop-HD" transform="translate(-848.000000, -1614.000000)">
            <g id="3.-Actus" transform="translate(247.000000, 1504.000000)">
                <g id="card" transform="translate(319.000000, 84.000000)">
                    <g id="Badge" transform="translate(274.000000, 16.000000)">
                        <g id="ic_medium" transform="translate(8.000000, 10.000000)">
                            <path d="M15.8985448,2.4696381 C15.8953448,2.4672 15.8929067,2.464 15.8892495,2.46217143 L15.8837638,2.45942857 L11.0730971,0.0540952381 C11.0404876,0.0379428571 11.0063543,0.0268190476 10.9717638,0.0179809524 C10.9283352,0.00685714286 10.8841448,0 10.8396495,0 C10.655421,0 10.4719543,0.0924952381 10.3727543,0.253714286 L7.6030781,4.7544381 L11.0787352,10.4024381 L15.9131733,2.5464381 C15.9293257,2.52038095 15.9217067,2.48792381 15.8985448,2.4696381" id="Fill-1" fill="#0BE370"></path>
                            <path d="M6.07765333,3.72931048 L6.07765333,8.8523581 L10.6315581,11.1292343 L6.07765333,3.72931048 Z" id="Fill-3" fill="#14C767"></path>
                            <path d="M11.3156267,11.4713448 L15.0640457,13.3456305 C15.5518171,13.58944 15.9472457,13.4187733 15.9472457,12.964221 L15.9472457,3.94494476 L11.3156267,11.4713448 Z" id="Fill-5" fill="#32FC8D"></path>
                            <path d="M5.28717714,2.47693714 L0.588815238,0.12768 C0.503939048,0.0853180952 0.423177143,0.0652038095 0.350034286,0.0652038095 C0.14432,0.0652038095 1.52380952e-05,0.224441905 1.52380952e-05,0.491565714 L1.52380952e-05,10.6355657 C1.52380952e-05,10.9071086 0.19872,11.2286324 0.441615238,11.35008 L4.57982476,13.4191086 C4.6858819,13.4721371 4.7867581,13.49728 4.87818667,13.49728 C5.13540571,13.49728 5.31567238,13.2982705 5.31567238,12.9642514 L5.31567238,2.52310857 C5.31567238,2.50360381 5.30470095,2.48562286 5.28717714,2.47693714" id="Fill-7" fill="#00AB6C"></path>
                        </g>
                    </g>
                </g>
            </g>
        </g>
    </g>
</svg>