<?xml version="1.0" encoding="UTF-8" standalone="no"?>
<svg width="48px" height="48px" viewBox="0 0 48 48" version="1.1" xmlns="http://www.w3.org/2000/svg" xmlns:xlink="http://www.w3.org/1999/xlink">
    <!-- Generator: Sketch 3.6.1 (26313) - http://www.bohemiancoding.com/sketch -->
    <title>ic_play</title>
    <desc>Created with Sketch.</desc>
    <defs></defs>
    <g id="1_NuitDebout_Home" stroke="none" stroke-width="1" fill="none" fill-rule="evenodd">
        <g id="1.1_NuitDebout_Home_Desktop-HD" transform="translate(-696.000000, -1279.000000)" fill="#FFFFFF">
            <g id="2.livrestream" transform="translate(0.000000, 1123.000000)">
                <g id="ic_play" transform="translate(696.000000, 156.000000)">
                    <path d="M24,44.25 C12.816,44.25 3.75,35.184 3.75,24 C3.75,12.816 12.816,3.75 24,3.75 C35.184,3.75 44.25,12.816 44.25,24 C44.25,35.184 35.184,44.25 24,44.25 M24,0 C10.7445,0 0,10.7445 0,24 C0,37.2555 10.7445,48 24,48 C37.2555,48 48,37.2555 48,24 C48,10.7445 37.2555,0 24,0" id="Fill-1"></path>
                    <path d="M18,31.5 L33,24 L18,16.5 L18,31.5 Z" id="Fill-3"></path>
                </g>
            </g>
        </g>
    </g>
</svg>