<?xml version="1.0" encoding="UTF-8" standalone="no"?>
<svg width="13px" height="16px" viewBox="0 0 13 16" version="1.1" xmlns="http://www.w3.org/2000/svg" xmlns:xlink="http://www.w3.org/1999/xlink">
    <!-- Generator: Sketch 3.6.1 (26313) - http://www.bohemiancoding.com/sketch -->
    <title>ic_periscope</title>
    <desc>Created with Sketch.</desc>
    <defs>
        <path id="path-1" d="M0,15.8608696 L12.6216348,15.8608696 L12.6216348,0.135373913 L0,0.135373913 L0,15.8608696 L0,15.8608696 Z"></path>
    </defs>
    <g id="1_NuitDebout_Home" stroke="none" stroke-width="1" fill="none" fill-rule="evenodd">
        <g id="1.1_NuitDebout_Home_Desktop-HD" transform="translate(-1122.000000, -2412.000000)">
            <g id="4.Compteur" transform="translate(-1.000000, 2393.000000)">
                <g id="periscope" transform="translate(1027.000000, 19.000000)">
                    <g id="ic_periscope" transform="translate(96.000000, 0.000000)">
                        <g id="Group-3" transform="translate(0.000000, 0.003757)">
                            <mask id="mask-2" fill="white">
                                <use xlink:href="#path-1"></use>
                            </mask>
                            <g id="Clip-2"></g>
                            <path d="M6.3918887,15.3043478 C5.08670609,15.3043478 0.55648,10.1666783 0.55648,6.72194783 C0.55648,3.42469565 3.13275826,0.691895652 6.3918887,0.691895652 C9.48893217,0.691895652 12.0652104,3.42469565 12.0652104,6.72194783 C12.0652104,10.1666783 7.53498435,15.3043478 6.3918887,15.3043478 M10.7950887,2.08890435 C9.60914087,0.829217391 8.04531478,0.135373913 6.3918887,0.135373913 C2.86743652,0.135373913 -4.17391304e-05,3.09008696 -4.17391304e-05,6.72194783 C-4.17391304e-05,9.02845217 1.77679304,11.6292174 2.54075826,12.6404174 C3.66312348,14.1260522 5.34521043,15.8608696 6.3918887,15.8608696 C7.66938435,15.8608696 9.85832348,12.9669565 10.1037496,12.6369391 C10.8607583,11.6190609 12.6217322,9.0048 12.6217322,6.72194783 C12.6217322,4.98546087 11.972967,3.34010435 10.7950887,2.08890435" id="Fill-1" fill="#FFFFFF" mask="url(#mask-2)"></path>
                        </g>
                        <path d="M7.01548522,2.98098087 C6.87635478,2.94466783 6.61785043,2.92463304 6.41541565,2.92463304 C6.0929113,2.92463304 5.77764174,2.96400696 5.48282435,3.03760696 C5.96992,3.24741565 6.31078957,3.72755478 6.31078957,4.28685913 C6.31078957,5.03913739 5.69472,5.64908522 4.93478957,5.64908522 C4.17485913,5.64908522 3.55878957,5.03913739 3.55878957,4.28685913 C3.55878957,4.28338087 3.54849391,4.28004174 3.54849391,4.27656348 C3.19746783,4.72400696 2.98070261,5.26077217 2.84157217,5.85430261 C2.84157217,6.06035478 2.79746783,6.27280696 2.79746783,6.49110261 C2.79746783,8.30703304 4.37103304,9.85945043 6.40553739,9.85945043 C8.23997217,9.85945043 9.81534609,8.30703304 9.81534609,6.49110261 C9.81534609,4.69938087 8.54592,3.27398957 7.01548522,2.98098087" id="Fill-4" fill="#FFFFFF"></path>
                    </g>
                </g>
            </g>
        </g>
    </g>
</svg>