<?xml version="1.0" encoding="UTF-8" standalone="no"?>
<svg width="24px" height="24px" viewBox="0 0 24 24" version="1.1" xmlns="http://www.w3.org/2000/svg" xmlns:xlink="http://www.w3.org/1999/xlink">
    <!-- Generator: Sketch 3.6.1 (26313) - http://www.bohemiancoding.com/sketch -->
    <title>ic_periscope</title>
    <desc>Created with Sketch.</desc>
    <defs></defs>
    <g id="1_NuitDebout_Home" stroke="none" stroke-width="1" fill="none" fill-rule="evenodd">
        <g id="1.1_NuitDebout_Home_Desktop-HD" transform="translate(-1328.000000, -19.000000)" fill="#47ADCA">
            <g id="Header">
                <g id="nav">
                    <g id="ic_periscope" transform="translate(1328.000000, 19.000000)">
                        <path d="M12,0 C5.4,0 0,5.4 0,12 C0,18.6 5.4,24 12,24 C18.6,24 24,18.6 24,12 C24,5.4 18.7,0 12,0 L12,0 Z M15.4,16.2 C15.2,16.5 13.2,19.1 12.1,19.1 C11.2,19.1 9.7,17.6 8.7,16.2 C8,15.3 6.4,13 6.4,10.9 C6.4,7.7 9,5 12.1,5 C13.6,5 15,5.6 16,6.7 C17,7.8 17.6,9.3 17.6,10.8 C17.6,12.9 16.1,15.2 15.4,16.2 L15.4,16.2 Z" id="Shape"></path>
                        <path d="M12.1,5.5 C9.2,5.5 6.9,7.9 6.9,10.9 C6.9,14 10.9,18.5 12.1,18.5 C13.1,18.5 17.2,13.9 17.2,10.9 C17.1,7.9 14.8,5.5 12.1,5.5 L12.1,5.5 Z M12.1,13.7 C10.3,13.7 8.9,12.3 8.9,10.7 L8.9,10.1 C9,9.6 9.2,9.1 9.5,8.7 L9.5,8.7 C9.5,9.4 10,9.9 10.7,9.9 C11.4,9.9 11.9,9.4 11.9,8.7 C11.9,8.2 11.6,7.8 11.2,7.6 C11.5,7.5 11.7,7.5 12,7.5 C12.2,7.5 12.4,7.5 12.5,7.6 C13.9,7.9 15,9.1 15,10.7 C15.1,12.3 13.7,13.7 12.1,13.7 L12.1,13.7 Z" id="Shape"></path>
                    </g>
                </g>
            </g>
        </g>
    </g>
</svg>