<?xml version="1.0" encoding="UTF-8" standalone="no"?>
<svg width="16px" height="16px" viewBox="0 0 16 16" version="1.1" xmlns="http://www.w3.org/2000/svg" xmlns:xlink="http://www.w3.org/1999/xlink">
    <!-- Generator: Sketch 3.6.1 (26313) - http://www.bohemiancoding.com/sketch -->
    <title>ic_pen</title>
    <desc>Created with Sketch.</desc>
    <defs></defs>
    <g id="1_NuitDebout_Home" stroke="none" stroke-width="1" fill="none" fill-rule="evenodd">
        <g id="1.1_NuitDebout_Home_Desktop-HD" transform="translate(-302.000000, -2168.000000)" fill="#FFFFFF">
            <g id="4.Compteur" transform="translate(-1.000000, 2149.000000)">
                <g id="signataires" transform="translate(207.000000, 19.000000)">
                    <path d="M111.014676,2.48895877 C110.418686,3.07761569 109.856028,3.63427313 109.31937,4.16493101 L107.806729,2.65162274 L109.495368,0.963650704 C109.901361,0.558324085 110.602683,0.553657495 111.018009,0.968317293 C111.222672,1.17231391 111.334004,1.44364275 111.333337,1.73163798 C111.33267,2.0182999 111.219339,2.28762877 111.014676,2.48895877 L111.014676,2.48895877 Z M99.9815251,13.4934431 L98.4715501,11.9834682 L107.334737,3.12294827 L108.845378,4.63358991 C103.218805,10.200831 100.91951,12.5034595 99.9815251,13.4934431 L99.9815251,13.4934431 Z M96.9315756,15.0507507 L97.9508921,12.5034595 L98.0002246,12.454127 L99.5315326,13.9861016 C99.5201994,13.9987681 99.5088663,14.0121012 99.4988665,14.024101 L96.9315756,15.0507507 Z M111.999993,1.73363795 C112.001326,1.26697901 111.819996,0.827652956 111.484668,0.492991833 C110.827345,-0.164330611 109.681364,-0.164330611 109.024042,0.492991833 L107.11074,2.40562682 C107.10674,2.40896009 107.101407,2.41029341 107.097407,2.41429334 C107.093407,2.41829327 107.092074,2.42362652 107.088741,2.42762645 L97.7648952,11.7474721 L97.7642285,11.7474721 C97.7642285,11.7474721 97.7642285,11.7474721 97.7642285,11.7481387 L97.4309007,12.0807999 C97.3995679,12.1127993 97.3735683,12.1507987 97.3575686,12.192798 L96.0242573,15.5260761 C95.9742582,15.6494074 96.0029244,15.7907384 96.0975895,15.8854035 C96.1615884,15.9487358 96.2469203,15.9827352 96.3335856,15.9827352 C96.3749182,15.9827352 96.4175842,15.9747354 96.4569168,15.9587356 L99.790195,14.6254244 C99.8621938,14.5960915 99.9215261,14.5434258 99.9581922,14.4767602 C99.9848584,14.4440941 100.037524,14.386095 100.127523,14.2900966 C100.166855,14.2740969 100.203521,14.2507639 100.235521,14.2187645 C100.270854,14.1834317 100.294187,14.1420991 100.310853,14.0987664 C101.091507,13.2874466 103.366802,10.9948179 109.482701,4.94225146 C109.513367,4.92691838 109.543367,4.91091865 109.5687,4.88558574 C109.592699,4.86158613 109.607366,4.83291994 109.622699,4.80425375 C110.208689,4.22426336 110.826012,3.61360681 111.484001,2.96361757 C111.815329,2.63628966 111.998659,2.19963023 111.999993,1.73363795 L111.999993,1.73363795 Z" id="ic_pen"></path>
                </g>
            </g>
        </g>
    </g>
</svg>