<?xml version="1.0" encoding="UTF-8" standalone="no"?>
<svg width="24px" height="24px" viewBox="0 0 24 24" version="1.1" xmlns="http://www.w3.org/2000/svg" xmlns:xlink="http://www.w3.org/1999/xlink">
    <!-- Generator: Sketch 3.6.1 (26313) - http://www.bohemiancoding.com/sketch -->
    <title>ic_twitter</title>
    <desc>Created with Sketch.</desc>
    <defs></defs>
    <g id="1_NuitDebout_Home" stroke="none" stroke-width="1" fill="none" fill-rule="evenodd">
        <g id="1.1_NuitDebout_Home_Desktop-HD" transform="translate(-1273.000000, -19.000000)" fill="#55ACEE">
            <g id="Header">
                <g id="nav">
                    <g id="ic_twitter" transform="translate(1273.000000, 19.000000)">
                        <path d="M12,24 C18.627417,24 24,18.627417 24,12 C24,5.372583 18.627417,0 12,0 C5.372583,0 0,5.372583 0,12 C0,18.627417 5.372583,24 12,24 Z M18,8.01196875 C17.7978281,8.1320625 17.1915,8.37154688 16.6259531,8.43164063 C16.9885781,8.221125 17.5253906,7.5315 17.6579531,6.98367188 C17.3094375,7.22315625 16.5087656,7.57251563 16.1134219,7.57251563 C16.1134219,7.57251563 16.1134219,7.57359375 16.1141719,7.57434375 C15.6628594,7.06640625 15.0285,6.75 14.3239219,6.75 C12.9573281,6.75 11.8484531,7.94348438 11.8484531,9.41601563 C11.8484531,9.62039063 11.871,9.81890625 11.9120625,10.0100156 L11.9112656,10.0100156 C10.0567969,9.95873438 7.888875,8.95785938 6.66717187,7.24439063 C5.91717187,8.64370313 6.56610937,10.1996719 7.417875,10.766625 C7.12710937,10.7908125 6.58954687,10.7307188 6.33689062,10.4662969 C6.3193125,11.3942813 6.73457812,12.6247969 8.24634375,13.0708125 C7.95473437,13.2400313 7.4405625,13.1917031 7.21584375,13.1542969 C7.29492187,13.9394531 8.31445312,14.96475 9.4284375,14.96475 C9.03140625,15.4585313 7.67657812,16.3572188 5.99995312,16.0708125 C7.13896875,16.8179063 8.46679687,17.25 9.87225,17.25 C13.8662344,17.25 16.968,13.7644219 16.8010312,9.46439063 C16.8010312,9.45923438 16.7995781,9.454125 16.7995781,9.44971875 C16.7995781,9.438 16.8010312,9.42628125 16.8010312,9.41601563 C16.8010312,9.40284375 16.7995781,9.38967188 16.7995781,9.37575 C17.1628594,9.109125 17.6505937,8.63596875 18,8.01196875 Z" id="Combined-Shape"></path>
                    </g>
                </g>
            </g>
        </g>
    </g>
</svg>