<?xml version="1.0" encoding="UTF-8" standalone="no"?>
<svg width="16px" height="14px" viewBox="0 0 16 14" version="1.1" xmlns="http://www.w3.org/2000/svg" xmlns:xlink="http://www.w3.org/1999/xlink">
    <!-- Generator: Sketch 3.6.1 (26313) - http://www.bohemiancoding.com/sketch -->
    <title>ic_twitter_light</title>
    <desc>Created with Sketch.</desc>
    <defs></defs>
    <g id="1_NuitDebout_Home" stroke="none" stroke-width="1" fill="none" fill-rule="evenodd">
        <g id="1.1_NuitDebout_Home_Desktop-HD" transform="translate(-848.000000, -1797.000000)" fill="#FFFFFF">
            <g id="3.-Actus" transform="translate(247.000000, 1432.000000)">
                <g id="card" transform="translate(319.000000, 339.000000)">
                    <g id="Badge" transform="translate(274.000000, 16.000000)">
                        <g id="ic_twitter_light" transform="translate(8.000000, 10.000000)">
                            <path d="M16,1.682625 C15.7304375,1.84275 14.922,2.1620625 14.1679375,2.2421875 C14.6514375,1.9615 15.3671875,1.042 15.5439375,0.3115625 C15.07925,0.630875 14.0116875,1.0966875 13.4845625,1.0966875 C13.4845625,1.0966875 13.4845625,1.098125 13.4855625,1.099125 C12.8838125,0.421875 12.038,0 11.0985625,0 C9.2764375,0 7.7979375,1.5913125 7.7979375,3.5546875 C7.7979375,3.8271875 7.828,4.091875 7.88275,4.3466875 L7.8816875,4.3466875 C5.4090625,4.2783125 2.5185,2.9438125 0.8895625,0.6591875 C-0.1104375,2.5249375 0.7548125,4.5995625 1.8905,5.3555 C1.5028125,5.38775 0.7860625,5.307625 0.4491875,4.9550625 C0.42575,6.192375 0.9794375,7.8330625 2.995125,8.42775 C2.6063125,8.653375 1.92075,8.5889375 1.621125,8.5390625 C1.7265625,9.5859375 3.0859375,10.953 4.57125,10.953 C4.041875,11.611375 2.2354375,12.809625 -6.25e-05,12.42775 C1.518625,13.423875 3.2890625,14 5.163,14 C10.4883125,14 14.624,9.3525625 14.401375,3.6191875 C14.401375,3.6123125 14.3994375,3.6055 14.3994375,3.599625 C14.3994375,3.584 14.401375,3.568375 14.401375,3.5546875 C14.401375,3.537125 14.3994375,3.5195625 14.3994375,3.501 C14.8838125,3.1455 15.534125,2.514625 16,1.682625" id="Fill-3"></path>
                        </g>
                    </g>
                </g>
            </g>
        </g>
    </g>
</svg>