<?xml version="1.0" encoding="UTF-8" standalone="no"?>
<svg width="24px" height="24px" viewBox="0 0 24 24" version="1.1" xmlns="http://www.w3.org/2000/svg" xmlns:xlink="http://www.w3.org/1999/xlink">
    <!-- Generator: Sketch 3.6.1 (26313) - http://www.bohemiancoding.com/sketch -->
    <title>ic_youtube</title>
    <desc>Created with Sketch.</desc>
    <defs>
        <path id="path-1" d="M24,11.9999625 L24,0 L0,0 L0,11.9999625 L0,23.999925 L24,23.999925 L24,11.9999625 L24,11.9999625 Z"></path>
    </defs>
    <g id="1_NuitDebout_Home" stroke="none" stroke-width="1" fill="none" fill-rule="evenodd">
        <g id="1.1_NuitDebout_Home_Desktop-HD" transform="translate(-1328.000000, -19.000000)">
            <g id="Header">
                <g id="nav">
                    <g id="ic_youtube" transform="translate(1328.000000, 19.000000)">
                        <path d="M10.7607,13.557 L14.00295,11.877 L10.75995,10.185 L10.7607,13.557 Z" id="Fill-1" fill="#37474F"></path>
                        <g id="Group-4">
                            <mask id="mask-2" fill="white">
                                <use xlink:href="#path-1"></use>
                            </mask>
                            <g id="Clip-3"></g>
                            <path d="M18,12.453675 C18,13.424925 17.88,14.396175 17.88,14.396175 C17.88,14.396175 17.763,15.222675 17.403,15.587175 C16.947,16.064925 16.4355,16.067175 16.20075,16.095675 C14.7705,16.198425 12.735,16.217175 12.1605,16.220175 L11.931,16.220175 C11.48775,16.215675 8.79975,16.184175 7.91925,16.100175 C7.65225,16.049925 7.053,16.064925 6.59625,15.587175 C6.23625,15.222675 6.11925,14.396175 6.11925,14.396175 C6.11925,14.396175 6.00375,13.458675 6,12.504675 L6,11.492175 C6.00375,10.538175 6.11925,9.600675 6.11925,9.600675 C6.11925,9.600675 6.23625,8.774175 6.59625,8.409675 C7.053,7.931925 7.56375,7.929675 7.7985,7.901175 C9.47775,7.780425 11.997,7.780425 11.997,7.780425 L12.00225,7.780425 C12.00225,7.780425 14.5215,7.780425 16.20075,7.901175 C16.4355,7.929675 16.947,7.931925 17.403,8.409675 C17.763,8.774175 17.88,9.600675 17.88,9.600675 C17.88,9.600675 18,10.571925 18,11.543175 L18,12.453675 Z M12,-7.5e-05 C5.37225,-7.5e-05 0,5.372925 0,11.999925 C0,18.627675 5.37225,23.999925 12,23.999925 C18.62775,23.999925 24,18.627675 24,11.999925 C24,5.372925 18.62775,-7.5e-05 12,-7.5e-05 L12,-7.5e-05 Z" id="Fill-2" fill="#37474F" mask="url(#mask-2)"></path>
                        </g>
                    </g>
                </g>
            </g>
        </g>
    </g>
</svg>