<?xml version="1.0" encoding="UTF-8" standalone="no"?>
<svg width="16px" height="12px" viewBox="0 0 16 12" version="1.1" xmlns="http://www.w3.org/2000/svg" xmlns:xlink="http://www.w3.org/1999/xlink">
    <!-- Generator: Sketch 3.6.1 (26313) - http://www.bohemiancoding.com/sketch -->
    <title>ic_youtube_light</title>
    <desc>Created with Sketch.</desc>
    <defs>
        <path id="path-1" d="M0.0002,11.2534 L16,11.2534 L16,5.00000001e-05 L0.0002,5.00000001e-05 L0.0002,11.2534 L0.0002,11.2534 Z"></path>
    </defs>
    <g id="1_NuitDebout_Home" stroke="none" stroke-width="1" fill="none" fill-rule="evenodd">
        <g id="1.1_NuitDebout_Home_Desktop-HD" transform="translate(-1169.000000, -1542.000000)">
            <g id="3.-Actus" transform="translate(247.000000, 1432.000000)">
                <g id="card" transform="translate(640.000000, 84.000000)">
                    <g id="Badge" transform="translate(274.000000, 16.000000)">
                        <g id="ic_youtube_light" transform="translate(8.000000, 10.000000)">
                            <mask id="mask-2" fill="white">
                                <use xlink:href="#path-1"></use>
                            </mask>
                            <g id="Clip-2"></g>
                            <path d="M6.3482,7.70205 L6.3477,3.20655 L10.6707,5.46205 L6.3482,7.70205 Z M15.8402,2.42755 C15.8402,2.42755 15.6837,1.32505 15.2042,0.83955 C14.5957,0.20255 13.9137,0.19905 13.6012,0.16205 C11.3622,5.00000001e-05 8.0037,5.00000001e-05 8.0037,5.00000001e-05 L7.9967,5.00000001e-05 C7.9967,5.00000001e-05 4.6382,5.00000001e-05 2.3992,0.16205 C2.0862,0.19905 1.4047,0.20255 0.7957,0.83955 C0.3162,1.32505 0.1602,2.42755 0.1602,2.42755 C0.1602,2.42755 0.0002,3.72255 0.0002,5.01705 L0.0002,6.23105 C0.0002,7.52605 0.1602,8.82055 0.1602,8.82055 C0.1602,8.82055 0.3162,9.92305 0.7957,10.40855 C1.4047,11.04605 2.2042,11.02605 2.5602,11.09255 C3.8402,11.21555 8.0002,11.25355 8.0002,11.25355 C8.0002,11.25355 11.3622,11.24855 13.6012,11.08655 C13.9137,11.04905 14.5957,11.04605 15.2042,10.40855 C15.6837,9.92305 15.8402,8.82055 15.8402,8.82055 C15.8402,8.82055 16.0002,7.52605 16.0002,6.23105 L16.0002,5.01705 C16.0002,3.72255 15.8402,2.42755 15.8402,2.42755 L15.8402,2.42755 Z" id="Fill-1" fill="#FFFFFF" mask="url(#mask-2)"></path>
                        </g>
                    </g>
                </g>
            </g>
        </g>
    </g>
</svg>