<?xml version="1.0" encoding="utf-8"?>
<!-- Generator: Adobe Illustrator 17.1.0, SVG Export Plug-In . SVG Version: 6.00 Build 0)  -->
<!DOCTYPE svg PUBLIC "-//W3C//DTD SVG 1.1//EN" "http://www.w3.org/Graphics/SVG/1.1/DTD/svg11.dtd">
<svg version="1.1" id="Calque_1" xmlns="http://www.w3.org/2000/svg" xmlns:xlink="http://www.w3.org/1999/xlink" x="0px" y="0px"
	 viewBox="0 0 841.9 841.9" enable-background="new 0 0 841.9 841.9" xml:space="preserve">
<g>
	<path d="M293.2,401.5l-32.2-188.7h-0.9v188.7h-35V42.1h35l32.2,189.2h0.9V42.1h35v359.5H293.2z"/>
	<path d="M382.2,401.5L356.6,376V42.1h35v327.3H412V42.1h35V376l-25.5,25.5H382.2z"/>
	<path d="M475.3,401.5V42.1h35v359.5H475.3z"/>
	<path d="M560.5,401.5V74.2h-27.9V42.1h90.8v32.2h-27.9v327.3H560.5z"/>
</g>
<g>
	<path d="M98.4,801.4V441.9h64.8l25.5,25.5v308.4l-26,25.5H98.4z M153.7,474.1h-20.3v295.2h20.3V474.1z"/>
	<path d="M214.7,801.4V441.9h77.6v32.2h-42.6v131.5h25.5v32.2h-25.5v131.5h42.6v32.2H214.7z"/>
	<path d="M316.4,801.4V441.9h64.8l25.5,25.5v137.6l-16.6,16.1l16.6,16.6v138.1l-25.5,25.5H316.4z M371.8,474.1h-20.3v131.5h20.3
		V474.1z M371.8,637.7h-20.3v131.5h20.3V637.7z"/>
	<path d="M455.9,801.4l-25.5-25.5V467.4l25.5-25.5h39.7l25.1,25.5v308.4l-25.5,25.5H455.9z M485.7,474.1h-20.3v295.2h20.3V474.1z"/>
	<path d="M572.3,801.4l-25.5-25.5V441.9h35v327.3h20.3V441.9h35v333.9l-25.5,25.5H572.3z"/>
	<path d="M687.2,801.4V474.1h-27.9v-32.2h90.8v32.2h-27.9v327.3H687.2z"/>
</g>
</svg>
