<?xml version="1.0" encoding="UTF-8" standalone="no"?>
<svg width="40px" height="48px" viewBox="0 0 40 48" version="1.1" xmlns="http://www.w3.org/2000/svg" xmlns:xlink="http://www.w3.org/1999/xlink">
    <!-- Generator: Sketch 3.6.1 (26313) - http://www.bohemiancoding.com/sketch -->
    <title>logo_2</title>
    <desc>Created with Sketch.</desc>
    <defs>
        <path id="path-1" d="M0,47.8762105 L39.4105263,47.8762105 L39.4105263,0 L0,0 L0,47.8762105 Z"></path>
    </defs>
    <g id="1_NuitDebout_Home" stroke="none" stroke-width="1" fill="none" fill-rule="evenodd">
        <g id="1.1_NuitDebout_Home_Desktop-HD" transform="translate(-32.000000, -8.000000)">
            <g id="Header">
                <g id="nav">
                    <g id="logo_2" transform="translate(32.000000, 8.000000)">
                        <path d="M4.04210526,11.2872 C3.78947368,10.0091368 3.53557895,8.72677895 3.31705263,7.44341053 C2.91284211,5.06665263 2.52909474,2.68863158 2.11098947,0.3144 C2.09002105,0.195157895 1.89953684,0.0253894737 1.77827368,0.0188210526 C1.2,-0.0125052632 0.505263158,0.00492631579 0,0.00492631579 L0,21.8550316 L2.02105263,21.8550316 L2.02105263,10.6336421 C2.02105263,10.6296 2.11604211,10.6624421 2.14964211,10.6584 C2.78627368,14.3839579 3.45044211,18.0655579 4.08429474,21.8550316 L6.06315789,21.8550316 L6.06315789,0.128715789 L4.04210526,0.128715789 L4.04210526,11.2872 L4.04210526,11.2872 Z" id="Fill-1" fill="#000000"></path>
                        <mask id="mask-2" fill="white">
                            <use xlink:href="#path-1"></use>
                        </mask>
                        <g id="Clip-4"></g>
                        <path d="M15.4105263,36.0025263 L16.4210526,36.0025263 L16.4210526,27.9183158 L15.4105263,27.9183158 L15.4105263,36.0025263 Z M15.4105263,45.8551579 L16.4210526,45.8551579 L16.4210526,38.0235789 L15.4105263,38.0235789 L15.4105263,45.8551579 Z M17.3709474,26.2224 C17.3418947,26.2014316 17.3229474,26.1620211 17.2918737,26.1483789 C17.1496421,26.0867368 16.9677474,25.9824 16.8229895,25.9808842 C15.6252632,25.9672421 14.4,25.9730526 13.1368421,25.9730526 L13.1368421,47.7956211 C13.8947368,47.7956211 14.7056842,47.7137684 15.4332632,47.8140632 C16.6529684,47.9823158 17.6028632,47.5945263 18.2869895,46.6034526 C18.4580211,46.3558737 18.6353684,46.0403368 18.6391579,45.7538526 C18.6689684,43.5746526 18.624,41.3936842 18.6816,39.2157474 C18.7058526,38.3072842 18.5914105,37.5382737 17.8011789,36.9903158 C17.7642947,36.9648 17.7574737,36.8973474 17.6917895,36.7508211 C17.7872842,36.6858947 17.9100632,36.6065684 18.0280421,36.5216842 C18.5623579,36.1369263 18.6997895,35.6245895 18.6838737,34.9690105 C18.6384,33.0810947 18.5762526,31.1853474 18.6992842,29.3042526 C18.7856842,27.9804632 18.432,26.9843368 17.3709474,26.2224 L17.3709474,26.2224 Z" id="Fill-3" fill="#000000" mask="url(#mask-2)"></path>
                        <path d="M32.6301979,25.8972632 L30.5684716,25.8972632 L30.5684716,45.8551579 L29.3053137,45.8551579 L29.3053137,25.8972632 L27.0316295,25.8972632 L27.0316295,26.7751579 C27.0316295,32.7925895 27.1147453,38.8102737 27.0680084,44.8274526 C27.0601768,45.8339368 27.3067453,46.5852632 28.0947032,47.2400842 C28.5234189,47.5962947 28.9172716,47.7693474 29.4801347,47.8231579 C30.6268295,47.9328 31.5102821,47.6253474 32.2201768,46.6989474 C32.4740716,46.3674947 32.6711242,46.0997053 32.6703663,45.6581053 C32.6567242,39.2953263 32.6632926,32.8865684 32.6617768,26.5235368 C32.6617768,26.3338105 32.6423242,26.1498947 32.6301979,25.8972632" id="Fill-5" fill="#000000" mask="url(#mask-2)"></path>
                        <path d="M2.02105263,45.8551579 L3.28421053,45.8551579 L3.28421053,27.9183158 L2.02105263,27.9183158 L2.02105263,45.8551579 Z M4.272,26.3656421 C4.08555789,26.2327579 3.89810526,25.9980632 3.70610526,25.9927579 C2.47629474,25.9586526 1.24471579,25.9753263 0,25.9753263 L0,47.7956211 C0.782652632,47.7956211 1.53397895,47.7248842 2.26635789,47.8120421 C3.41406316,47.9489684 4.29448421,47.6172632 5.01423158,46.7007158 C5.27621053,46.3672421 5.44345263,46.0860632 5.44244211,45.6507789 C5.42905263,40.1416421 5.39595789,34.6322526 5.46416842,29.1241263 C5.47882105,27.9453474 5.22593684,27.0457263 4.272,26.3656421 L4.272,26.3656421 Z" id="Fill-6" fill="#000000" mask="url(#mask-2)"></path>
                        <path d="M22.2315789,45.8551579 L23.4947368,45.8551579 L23.4947368,27.9183158 L22.2315789,27.9183158 L22.2315789,45.8551579 Z M24.7071158,26.5978105 C24.2427789,26.1519158 23.7910737,25.9894737 23.1488842,25.9417263 C22.0519579,25.8601263 21.2389895,26.1804632 20.5604211,27.0361263 C20.2769684,27.3936 20.0890105,27.7015579 20.0905263,28.1815579 C20.1072,33.7611789 20.1223579,39.3408 20.0768842,44.9199158 C20.0690526,45.8849684 20.2913684,46.5973895 21.0351158,47.2350316 C21.4789895,47.6157474 21.8859789,47.7594947 22.4584421,47.8241684 C23.6483368,47.9590737 24.5098105,47.5568842 25.2237474,46.6378105 C25.4468211,46.3508211 25.5961263,46.1666526 25.5943579,45.7884632 C25.5789474,42.8442947 25.5857684,39.792 25.5857684,37.0130526 L25.5877895,37.0130526 C25.5877895,34.2341053 25.5428211,31.5385263 25.6128,28.8323368 C25.6365474,27.9092211 25.3493053,27.2147368 24.7071158,26.5978105 L24.7071158,26.5978105 Z" id="Fill-7" fill="#000000" mask="url(#mask-2)"></path>
                        <path d="M13.4057179,0.607073684 C13.4057179,0.433263158 13.3867705,0.128842105 13.3766653,0.128842105 L11.3684968,0.128842105 L11.3684968,19.8341053 L10.1053389,19.8341053 L10.1053389,0.128842105 L7.83165474,0.128842105 L7.83165474,0.652294737 C7.83165474,6.76042105 7.90239158,12.8690526 7.85540211,18.9769263 C7.84807579,19.9129263 8.10980211,20.5765895 8.79746526,21.1983158 C9.27114947,21.6260211 9.72260211,21.8112 10.3673179,21.8594526 C11.4468126,21.9400421 12.2355284,21.6128842 12.9221811,20.7903158 C13.2498442,20.3979789 13.4130442,20.0715789 13.4120337,19.5645474 C13.3978863,13.2381474 13.4067284,6.93347368 13.4057179,0.607073684" id="Fill-8" fill="#000000" mask="url(#mask-2)"></path>
                        <path d="M7.07368421,47.8762105 L11.6210526,47.8762105 L11.6210526,45.8551579 L9.09473684,45.8551579 L9.09473684,37.7709474 L10.6105263,37.7709474 L10.6105263,36.0025263 L9.09473684,36.0025263 L9.09473684,27.9183158 L11.6210526,27.9183158 L11.6210526,25.8972632 L7.07368421,25.8972632 L7.07368421,47.8762105 Z" id="Fill-9" fill="#000000" mask="url(#mask-2)"></path>
                        <path d="M20.2105263,21.8551579 L22.4842105,21.8551579 L22.4842105,1.89726316 L24,1.89726316 L24,0.128842105 L18.6947368,0.128842105 L18.6947368,1.89726316 L20.2105263,1.89726316 L20.2105263,21.8551579 Z" id="Fill-10" fill="#000000" mask="url(#mask-2)"></path>
                        <path d="M34.1052632,25.8972632 L34.1052632,27.9183158 L35.6210526,27.9183158 L35.6210526,47.8762105 L37.8947368,47.8762105 L37.8947368,27.9183158 L39.4105263,27.9183158 L39.4105263,25.8972632 L34.1052632,25.8972632 Z" id="Fill-11" fill="#000000" mask="url(#mask-2)"></path>
                        <path d="M15.1578947,21.8551579 L17.1789474,21.8551579 L17.1789474,0.128842105 L15.1578947,0.128842105 L15.1578947,21.8551579 Z" id="Fill-12" fill="#000000" mask="url(#mask-2)"></path>
                    </g>
                </g>
            </g>
        </g>
    </g>
</svg>