<?xml version="1.0"?>
<svg version="1.1" xmlns="http://www.w3.org/2000/svg" xmlns:xlink="http://www.w3.org/1999/xlink" width="80" height="96">
    <desc iVinci="yes" version="4.6" gridStep="20" showGrid="no" snapToGrid="no" codePlatform="0"/>
    <g id="Layer1" name="Layer 1" opacity="1">
        <g id="Shape1">
            <desc shapeID="1" type="0" basicInfo-basicType="0" basicInfo-roundedRectRadius="12" basicInfo-polygonSides="6" basicInfo-starPoints="5" bounding="rect(-3.03157,-10.9275,6.06315,21.8549)" text="" font-familyName="" font-pixelSize="20" font-bold="0" font-underline="0" font-alignment="1" strokeStyle="0" markerStart="0" markerEnd="0" shadowEnabled="0" shadowOffsetX="0" shadowOffsetY="2" shadowBlur="4" shadowOpacity="160" blurEnabled="0" blurRadius="4" transform="matrix(2.02992,0,0,2.00643,6.15385,21.9254)" pers-center="0,0" pers-size="0,0" pers-start="0,0" pers-end="0,0" locked="0" mesh="" flag=""/>
            <path id="shapePath1" d="M8.20514,22.6469 C7.69231,20.0825 7.17693,17.5096 6.73333,14.9347 C5.91282,10.1659 5.13384,5.39454 4.28513,0.630819 C4.24257,0.391569 3.85591,0.0509396 3.60974,0.0377617 C2.4359,-0.0250912 1.02564,0.00988197 -4.76837e-07,0.00988197 L-4.76837e-07,43.8505 L4.10256,43.8505 L4.10256,21.3355 C4.10256,21.3275 4.29538,21.3933 4.36359,21.3853 C5.65589,28.8604 7.0041,36.2473 8.29077,43.8505 L12.3077,43.8505 L12.3077,0.258261 L8.20514,0.258261 L8.20514,22.6469 Z" style="stroke:none;fill-rule:evenodd;fill:#000000;fill-opacity:1;"/>
        </g>
        <g id="Shape2">
            <desc shapeID="2" type="0" basicInfo-basicType="0" basicInfo-roundedRectRadius="12" basicInfo-polygonSides="6" basicInfo-starPoints="5" bounding="rect(-19.7053,-23.9381,39.4104,47.8761)" text="" font-familyName="" font-pixelSize="20" font-bold="0" font-underline="0" font-alignment="1" strokeStyle="0" markerStart="0" markerEnd="0" shadowEnabled="0" shadowOffsetX="0" shadowOffsetY="2" shadowBlur="4" shadowOpacity="160" blurEnabled="0" blurRadius="4" transform="matrix(2.02992,0,0,2.00643,40.0001,48.0301)" pers-center="0,0" pers-size="0,0" pers-start="0,0" pers-end="0,0" locked="0" mesh="" flag=""/>
            <path id="shapePath2" d="M-3.8147e-06,96.0601 L80,96.0601 L80,3.8147e-06 L-3.8147e-06,3.8147e-06 L-3.8147e-06,96.0601 Z" style="stroke:none;fill:none;"/>
        </g>
        <g id="Shape3">
            <desc shapeID="3" type="0" basicInfo-basicType="0" basicInfo-roundedRectRadius="12" basicInfo-polygonSides="6" basicInfo-starPoints="5" bounding="rect(-2.78748,-10.9401,5.57497,21.8802)" text="" font-familyName="" font-pixelSize="20" font-bold="0" font-underline="0" font-alignment="1" strokeStyle="0" markerStart="0" markerEnd="0" shadowEnabled="0" shadowOffsetX="0" shadowOffsetY="2" shadowBlur="4" shadowOpacity="160" blurEnabled="0" blurRadius="4" transform="matrix(2.02992,0,0,2.00643,32.325,74.0611)" pers-center="0,0" pers-size="0,0" pers-start="0,0" pers-end="0,0" locked="0" mesh="" flag=""/>
            <path id="shapePath3" d="M31.282,72.2364 L33.3335,72.2364 L33.3335,56.016 L31.282,56.016 L31.282,72.2364 M31.282,92.0051 L33.3335,92.0051 L33.3335,76.2916 L31.282,76.2916 L31.282,92.0051 M35.2615,52.6133 C35.2026,52.5712 35.164,52.4921 35.1011,52.4649 C34.8122,52.3411 34.443,52.1318 34.1493,52.1288 C31.718,52.1013 29.2308,52.1131 26.6666,52.1131 L26.6666,95.8984 C28.2051,95.8984 29.8513,95.7342 31.3283,95.9355 C33.8042,96.273 35.7324,95.4949 37.1211,93.5065 C37.4682,93.0097 37.8283,92.3765 37.836,91.8018 C37.8965,87.4294 37.8052,83.0534 37.9221,78.6834 C37.9714,76.8608 37.739,75.3178 36.1349,74.2183 C36.06,74.1672 36.0462,74.0317 35.9129,73.7378 C36.1067,73.6076 36.356,73.4485 36.5953,73.2781 C37.6801,72.506 37.959,71.4781 37.9268,70.1627 C37.8344,66.3748 37.7083,62.571 37.958,58.7969 C38.1334,56.1408 37.4154,54.142 35.2615,52.6133 Z" style="stroke:none;fill-rule:evenodd;fill:#000000;fill-opacity:1;"/>
        </g>
        <g id="Shape4">
            <desc shapeID="4" type="0" basicInfo-basicType="0" basicInfo-roundedRectRadius="12" basicInfo-polygonSides="6" basicInfo-starPoints="5" bounding="rect(-2.8194,-10.9735,5.6388,21.947)" text="" font-familyName="" font-pixelSize="20" font-bold="0" font-underline="0" font-alignment="1" strokeStyle="0" markerStart="0" markerEnd="0" shadowEnabled="0" shadowOffsetX="0" shadowOffsetY="2" shadowBlur="4" shadowOpacity="160" blurEnabled="0" blurRadius="4" transform="matrix(2.02992,0,0,2.00643,60.5951,73.9785)" pers-center="0,0" pers-size="0,0" pers-start="0,0" pers-end="0,0" locked="0" mesh="" flag=""/>
            <path id="shapePath4" d="M66.2366,51.961 L62.0515,51.961 L62.0515,92.0051 L59.4873,92.0051 L59.4873,51.961 L54.8719,51.961 L54.8719,53.7225 C54.8719,65.7959 55.0406,77.87 54.9458,89.9431 C54.9299,91.9624 55.4303,93.47 57.0299,94.7838 C57.9001,95.4985 58.6997,95.8456 59.8421,95.9537 C62.1698,96.1736 63.9633,95.5567 65.4043,93.6979 C65.9197,93.033 66.3196,92.4957 66.3182,91.6096 C66.2904,78.8431 66.3037,65.9846 66.3007,53.2175 C66.3007,52.8368 66.2611,52.4679 66.2366,51.961 Z" style="stroke:none;fill-rule:evenodd;fill:#000000;fill-opacity:1;"/>
        </g>
        <g id="Shape5">
            <desc shapeID="5" type="0" basicInfo-basicType="0" basicInfo-roundedRectRadius="12" basicInfo-polygonSides="6" basicInfo-starPoints="5" bounding="rect(-2.73237,-10.9352,5.46475,21.8704)" text="" font-familyName="" font-pixelSize="20" font-bold="0" font-underline="0" font-alignment="1" strokeStyle="0" markerStart="0" markerEnd="0" shadowEnabled="0" shadowOffsetX="0" shadowOffsetY="2" shadowBlur="4" shadowOpacity="160" blurEnabled="0" blurRadius="4" transform="matrix(2.02992,0,0,2.00643,5.5465,74.0501)" pers-center="0,0" pers-size="0,0" pers-start="0,0" pers-end="0,0" locked="0" mesh="" flag=""/>
            <path id="shapePath5" d="M4.10256,92.0051 L6.66667,92.0051 L6.66667,56.016 L4.10256,56.016 L4.10256,92.0051 M8.6718,52.9006 C8.29334,52.6342 7.91284,52.1633 7.52309,52.1526 C5.02666,52.0842 2.52668,52.1175 -9.53674e-07,52.1175 L-9.53674e-07,95.8984 C1.58872,95.8984 3.11385,95.7565 4.60052,95.9313 C6.93026,96.2062 8.71743,95.5406 10.1785,93.7015 C10.7103,93.0324 11.0497,92.4684 11.0477,91.595 C11.0205,80.5412 10.9533,69.4872 11.0918,58.4354 C11.1215,56.0702 10.6082,54.2652 8.6718,52.9006 Z" style="stroke:none;fill-rule:evenodd;fill:#000000;fill-opacity:1;"/>
        </g>
        <g id="Shape6">
            <desc shapeID="6" type="0" basicInfo-basicType="0" basicInfo-roundedRectRadius="12" basicInfo-polygonSides="6" basicInfo-starPoints="5" bounding="rect(-2.76872,-10.9601,5.53743,21.9202)" text="" font-familyName="" font-pixelSize="20" font-bold="0" font-underline="0" font-alignment="1" strokeStyle="0" markerStart="0" markerEnd="0" shadowEnabled="0" shadowOffsetX="0" shadowOffsetY="2" shadowBlur="4" shadowOpacity="160" blurEnabled="0" blurRadius="4" transform="matrix(2.02992,0,0,2.00643,46.3743,74.0161)" pers-center="0,0" pers-size="0,0" pers-start="0,0" pers-end="0,0" locked="0" mesh="" flag=""/>
            <path id="shapePath6" d="M45.1283,92.0051 L47.6923,92.0051 L47.6923,56.016 L45.1283,56.016 L45.1283,92.0051 M50.1533,53.3665 C49.2108,52.4719 48.2939,52.146 46.9903,52.0501 C44.7637,51.8864 43.1134,52.5293 41.7359,54.2459 C41.1606,54.9632 40.779,55.5812 40.782,56.5443 C40.8159,67.7394 40.8468,78.9344 40.7544,90.1285 C40.7386,92.0649 41.1898,93.4943 42.6995,94.7736 C43.6006,95.5374 44.4267,95.8259 45.5887,95.9557 C48.0041,96.2264 49.7528,95.4194 51.202,93.5753 C51.6549,92.9995 51.9579,92.6301 51.9545,91.8713 C51.923,85.9639 51.937,79.8397 51.937,74.2641 L51.9411,74.2641 C51.9411,68.6882 51.8497,63.2797 51.9918,57.8499 C52.0399,55.9978 51.457,54.6043 50.1533,53.3665 Z" style="stroke:none;fill-rule:evenodd;fill:#000000;fill-opacity:1;"/>
        </g>
        <g id="Shape7">
            <desc shapeID="7" type="0" basicInfo-basicType="0" basicInfo-roundedRectRadius="12" basicInfo-polygonSides="6" basicInfo-starPoints="5" bounding="rect(-2.79017,-10.8712,5.58032,21.7425)" text="" font-familyName="" font-pixelSize="20" font-bold="0" font-underline="0" font-alignment="1" strokeStyle="0" markerStart="0" markerEnd="0" shadowEnabled="0" shadowOffsetX="0" shadowOffsetY="2" shadowBlur="4" shadowOpacity="160" blurEnabled="0" blurRadius="4" transform="matrix(2.02992,0,0,2.00643,21.5614,22.0708)" pers-center="0,0" pers-size="0,0" pers-start="0,0" pers-end="0,0" locked="0" mesh="" flag=""/>
            <path id="shapePath7" d="M27.2124,1.21805 C27.2124,0.869308 27.1741,0.258511 27.1536,0.258511 L23.0771,0.258511 L23.0771,39.7957 L20.5129,39.7957 L20.5129,0.258511 L15.8976,0.258511 L15.8976,1.30878 C15.8976,13.5643 16.0412,25.8209 15.9458,38.0758 C15.9309,39.9538 16.4622,41.2854 17.8581,42.5328 C18.8197,43.391 19.7361,43.7626 21.0447,43.8595 C23.236,44.021 24.837,43.3647 26.231,41.7142 C26.896,40.9271 27.2273,40.2722 27.2252,39.2547 C27.1966,26.5613 27.2145,13.9115 27.2124,1.21805 Z" style="stroke:none;fill-rule:evenodd;fill:#000000;fill-opacity:1;"/>
        </g>
        <g id="Shape8">
            <desc shapeID="8" type="0" basicInfo-basicType="0" basicInfo-roundedRectRadius="12" basicInfo-polygonSides="6" basicInfo-starPoints="5" bounding="rect(-2.27371,-10.9895,4.54742,21.9789)" text="" font-familyName="" font-pixelSize="20" font-bold="0" font-underline="0" font-alignment="1" strokeStyle="0" markerStart="0" markerEnd="0" shadowEnabled="0" shadowOffsetX="0" shadowOffsetY="2" shadowBlur="4" shadowOpacity="160" blurEnabled="0" blurRadius="4" transform="matrix(2.02992,0,0,2.00643,18.9744,74.0107)" pers-center="0,0" pers-size="0,0" pers-start="0,0" pers-end="0,0" locked="0" mesh="" flag=""/>
            <path id="shapePath8" d="M14.359,96.0601 L23.5899,96.0601 L23.5899,92.0051 L18.4616,92.0051 L18.4616,75.7845 L21.5384,75.7845 L21.5384,72.2364 L18.4616,72.2364 L18.4616,56.016 L23.5899,56.016 L23.5899,51.961 L14.359,51.961 L14.359,96.0601 Z" style="stroke:none;fill-rule:evenodd;fill:#000000;fill-opacity:1;"/>
        </g>
        <g id="Shape9">
            <desc shapeID="9" type="0" basicInfo-basicType="0" basicInfo-roundedRectRadius="12" basicInfo-polygonSides="6" basicInfo-starPoints="5" bounding="rect(-2.65264,-10.8632,5.30528,21.7263)" text="" font-familyName="" font-pixelSize="20" font-bold="0" font-underline="0" font-alignment="1" strokeStyle="0" markerStart="0" markerEnd="0" shadowEnabled="0" shadowOffsetX="0" shadowOffsetY="2" shadowBlur="4" shadowOpacity="160" blurEnabled="0" blurRadius="4" transform="matrix(2.02992,0,0,2.00643,43.3334,22.0547)" pers-center="0,0" pers-size="0,0" pers-start="0,0" pers-end="0,0" locked="0" mesh="" flag=""/>
            <path id="shapePath9" d="M41.0256,43.8509 L45.641,43.8509 L45.641,3.80671 L48.718,3.80671 L48.718,0.258511 L37.9487,0.258511 L37.9487,3.80671 L41.0256,3.80671 L41.0256,43.8509 Z" style="stroke:none;fill-rule:evenodd;fill:#000000;fill-opacity:1;"/>
        </g>
        <g id="Shape10">
            <desc shapeID="10" type="0" basicInfo-basicType="0" basicInfo-roundedRectRadius="12" basicInfo-polygonSides="6" basicInfo-starPoints="5" bounding="rect(-2.65259,-10.9895,5.30518,21.9789)" text="" font-familyName="" font-pixelSize="20" font-bold="0" font-underline="0" font-alignment="1" strokeStyle="0" markerStart="0" markerEnd="0" shadowEnabled="0" shadowOffsetX="0" shadowOffsetY="2" shadowBlur="4" shadowOpacity="160" blurEnabled="0" blurRadius="4" transform="matrix(2.02992,0,0,2.00643,74.6155,74.0107)" pers-center="0,0" pers-size="0,0" pers-start="0,0" pers-end="0,0" locked="0" mesh="" flag=""/>
            <path id="shapePath10" d="M69.2309,51.961 L69.2309,56.016 L72.3078,56.016 L72.3078,96.0601 L76.9231,96.0601 L76.9231,56.016 L80,56.016 L80,51.961 L69.2309,51.961 Z" style="stroke:none;fill-rule:evenodd;fill:#000000;fill-opacity:1;"/>
        </g>
        <g id="Shape11">
            <desc shapeID="11" type="0" basicInfo-basicType="0" basicInfo-roundedRectRadius="12" basicInfo-polygonSides="6" basicInfo-starPoints="5" bounding="rect(-1.01048,-10.8632,2.02097,21.7263)" text="" font-familyName="" font-pixelSize="20" font-bold="0" font-underline="0" font-alignment="1" strokeStyle="0" markerStart="0" markerEnd="0" shadowEnabled="0" shadowOffsetX="0" shadowOffsetY="2" shadowBlur="4" shadowOpacity="160" blurEnabled="0" blurRadius="4" transform="matrix(2.02992,0,0,2.00643,32.8205,22.0547)" pers-center="0,0" pers-size="0,0" pers-start="0,0" pers-end="0,0" locked="0" mesh="" flag=""/>
            <path id="shapePath11" d="M30.7693,43.8509 L34.8717,43.8509 L34.8717,0.258511 L30.7693,0.258511 L30.7693,43.8509 Z" style="stroke:none;fill-rule:evenodd;fill:#000000;fill-opacity:1;"/>
        </g>
    </g>
</svg>
